<?xml version="1.0" standalone="no"?>
<!DOCTYPE svg PUBLIC "-//W3C//DTD SVG 1.1//EN" "http://www.w3.org/Graphics/SVG/1.1/DTD/svg11.dtd" >
<svg>
<metadata>
Created by FontForge 20090914 at Wed Feb 17 20:35:03 2021
 By www-data
Copyright (c) 2011-2014 by tyPoland Lukasz Dziedzic (http://www.typoland.com/) with Reserved Font Name "Lato". Licensed under the SIL Open Font License, Version 1.1 (http://scripts.sil.org/OFL). 
</metadata>
<defs>
<font id="Lato-Hairline" horiz-adv-x="800" >
  <font-face 
    font-family="Lato Hairline"
    font-weight="250"
    font-stretch="normal"
    units-per-em="2000"
    panose-1="2 15 5 2 2 2 4 3 2 3"
    ascent="1610"
    descent="-390"
    x-height="980"
    cap-height="1400"
    bbox="-59.999 -429 2483 1832"
    underline-thickness="19"
    underline-position="-492"
    unicode-range="U+0020-U+04FF"
  />
<missing-glyph horiz-adv-x="993" 
d="M273 1127c12 12 25.3369 24.001 40.0039 36.001s31 22.5 49 31.5s37.833 16.333 59.5 22s45.167 8.5 70.5 8.5c30 0 59.167 -4.66699 87.5 -14s53.166 -22.833 74.499 -40.5s38.5 -39.334 51.5 -65.001s19.5 -54.5 19.5 -86.5c0 -36 -5.83301 -67.333 -17.5 -94
s-26.334 -50 -44.001 -70s-36.834 -37.667 -57.501 -53l-58 -43.5c-18 -13.667 -33 -27.334 -45 -41.001s-18.333 -29.167 -19 -46.5l-5 -123h-16v125c0 18.667 5.83301 35.334 17.5 50.001s26.5 29 44.5 43l57.5 43.5c20.333 15 39.5 32.167 57.5 51.5
s32.833 41.666 44.5 66.999s17.5 55.333 17.5 90c0 29.333 -5.83301 55.666 -17.5 78.999s-27.334 43 -47.001 59s-42.167 28.167 -67.5 36.5s-51.333 12.5 -78 12.5c-33.333 0 -62.5 -4.66699 -87.5 -14s-46 -19.666 -63 -30.999s-30 -21.666 -39 -30.999
s-14.5 -14 -16.5 -14c-2.66699 0 -5 1 -7 3zM422.004 241.001c0 14 4.66699 26 14 36s21 15 35 15c13.333 0 24.833 -5 34.5 -15s14.5 -22 14.5 -36c0 -13.333 -4.83301 -24.833 -14.5 -34.5s-21.167 -14.5 -34.5 -14.5c-14 0 -25.667 4.83301 -35 14.5s-14 21.167 -14 34.5
zM50.0039 1400h893v-1400h-893v1400zM70.0039 20.001h853v1360h-853v-1360z" />
    <glyph glyph-name="f_b.liga" unicode="fb" horiz-adv-x="1739" 
d="M860 779c43.333 66.667 95.8359 119.498 157.503 158.498s134.5 58.5 218.5 58.5c60 0 113.667 -10.5 161 -31.5s87.166 -51.833 119.499 -92.5s57 -90.667 74 -150s25.5 -127.333 25.5 -204c0 -79.333 -9.33301 -151.666 -28 -216.999s-46 -121.166 -82 -167.499
s-80.667 -82.166 -134 -107.499s-115 -38 -185 -38c-72.667 0 -136 14.333 -190 43s-99.667 73 -137 133l-4 -150c0 -3.33301 -0.666992 -6.5 -2 -9.5s-4.66602 -4.5 -9.99902 -4.5h-8v1418c-34 4.66699 -69.667 8.66699 -107 12s-71 5 -101 5
c-68.667 0 -126.334 -9.5 -173.001 -28.5s-84.334 -45.333 -113.001 -79s-49.334 -73.834 -62.001 -120.501s-19 -97.667 -19 -153v-116h349v-20h-349v-918h-24v918l-164 4c-8 0 -12 2.66699 -12 8v8h176v116c0 58 7 111.667 21 161s36.5 91.666 67.5 126.999
s71.167 63 120.5 83s109.333 30 180 30c38 0 75.167 -2.16699 111.5 -6.5s71.5 -7.16602 105.5 -8.49902h17v-661zM860.003 194.998c42.667 -68.667 90.668 -117 144.001 -145s114 -42 182 -42c69.333 0 129.5 12.5 180.5 37.5s93.167 60 126.5 105
s58.166 98.5 74.499 160.5s24.5 130.333 24.5 205c0 150 -31.167 264.167 -93.5 342.5s-149.833 117.5 -262.5 117.5c-41.333 0 -80 -5.33301 -116 -16s-69.5 -25.834 -100.5 -45.501s-59.833 -43.667 -86.5 -72s-51 -60.166 -73 -95.499v-552z" />
    <glyph glyph-name="f_f_b.liga" unicode="ffb" horiz-adv-x="2329" 
d="M237 0l0.00585938 917.999l-164 4c-8 0 -12 2.66699 -12 8v8h176v140c0 56 6.66699 104.5 20 145.5s31.666 74.833 54.999 101.5s51.333 46.5 84 59.5s68.667 19.5 108 19.5c19.333 0 39.333 -1.83301 60 -5.5s38 -9.16699 52 -16.5l-2 -8
c-1.33301 -4.66699 -4 -6.66699 -8 -6s-10.167 2.16699 -18.5 4.5s-19.333 4.83301 -33 7.5s-30.5 4 -50.5 4c-34.667 0 -66.834 -5.5 -96.501 -16.5s-55.334 -28.667 -77.001 -53s-38.667 -56 -51 -95s-18.5 -86.167 -18.5 -141.5v-140h566v116c0 58 7 111.667 21 161
s36.5 91.666 67.5 126.999s71.167 63 120.5 83s109.333 30 180 30c40.667 0 80.667 -2.5 120 -7.5s77.333 -7.5 114 -7.5v-661c43.333 66.667 95.833 119.5 157.5 158.5s134.5 58.5 218.5 58.5c60 0 113.667 -10.5 161 -31.5s87.166 -51.833 119.499 -92.5
s57 -90.667 74 -150s25.5 -127.333 25.5 -204c0 -79.333 -9.33301 -151.666 -28 -216.999s-46 -121.166 -82 -167.499s-80.667 -82.166 -134 -107.499s-115 -38 -185 -38c-72.667 0 -136 14.333 -190 43s-99.667 73 -137 133l-4 -150c0 -3.33301 -0.666992 -6.5 -2 -9.5
s-4.66602 -4.5 -9.99902 -4.5h-8v1418c-34 4.66699 -69.667 8.66699 -107 12s-71 5 -101 5c-68.667 0 -126.334 -9.5 -173.001 -28.5s-84.334 -45.333 -113.001 -79s-49.334 -73.834 -62.001 -120.501s-19 -97.667 -19 -153v-116h349v-20h-349v-918h-24v918h-566v-918h-24z
M1450.01 194.999c42.667 -68.667 90.667 -117 144 -145s114 -42 182 -42c69.333 0 129.5 12.5 180.5 37.5s93.167 60 126.5 105s58.166 98.5 74.5 160.5c16.333 62 24.5 130.333 24.5 205c0 150 -31.167 264.167 -93.5 342.5s-149.833 117.5 -262.5 117.5
c-41.333 0 -80 -5.33301 -116 -16s-69.5 -25.834 -100.5 -45.501s-59.833 -43.667 -86.5 -72s-51 -60.166 -73 -95.499v-552z" />
    <glyph glyph-name="f_f.liga" unicode="ff" horiz-adv-x="1254" 
d="M237 0l0.00585938 918l-164 4c-8 0 -12 2.66699 -12 8v8h176v140c0 56 6.66699 104.5 20 145.5s31.666 74.833 54.999 101.5s51.333 46.5 84 59.5s68.667 19.5 108 19.5c19.333 0 39.333 -1.83301 60 -5.5s38 -9.16699 52 -16.5l-2 -8
c-1.33301 -4.66699 -4 -6.66699 -8 -6s-10.167 2.16699 -18.5 4.5s-19.333 4.83301 -33 7.5s-30.5 4 -50.5 4c-34.667 0 -66.834 -5.5 -96.501 -16.5s-55.334 -28.667 -77.001 -53s-38.667 -56 -51 -95s-18.5 -86.167 -18.5 -141.5v-140h566v150
c0 56 6.66699 104.5 20 145.5s31.666 74.833 54.999 101.5s51.333 46.5 84 59.5s68.667 19.5 108 19.5c19.333 0 39.333 -1.83301 60 -5.5s38 -9.16699 52 -16.5l-2 -8c-1.33301 -4.66699 -4 -6.66699 -8 -6s-10.167 2.16699 -18.5 4.5s-19.333 4.83301 -33 7.5
s-30.5 4 -50.5 4c-34.667 0 -66.834 -5.5 -96.501 -16.5s-55.334 -28.667 -77.001 -53s-38.667 -56 -51 -95s-18.5 -86.167 -18.5 -141.5v-150h349v-20h-349v-918h-24v918h-566v-918h-24z" />
    <glyph glyph-name="f_h.liga" unicode="fh" horiz-adv-x="1739" 
d="M237 0l0.00488281 918.003l-164 4c-8 0 -12 2.66699 -12 8v8h176v116c0 58 7 111.667 21 161s36.5 91.666 67.5 126.999s71.167 63 120.5 83s109.333 30 180 30c40.667 0 80.667 -2.5 120 -7.5s77.333 -7.5 114 -7.5v-664c22.667 33.333 48.167 63.666 76.5 90.999
s58.833 50.5 91.5 69.5s67 33.667 103 44s73 15.5 111 15.5c108.667 0 189.834 -32.333 243.501 -97s80.5 -155 80.5 -271v-628h-24v628c0 54.667 -6 103.5 -18 146.5s-30.5 79.5 -55.5 109.5s-56.333 52.833 -94 68.5s-81.834 23.5 -132.501 23.5
c-76.667 0 -147.334 -20.333 -212.001 -61s-121.334 -97 -170.001 -169v-746h-24v1418c-34 4.66699 -69.667 8.66699 -107 12s-71 5 -101 5c-68.667 0 -126.334 -9.5 -173.001 -28.5s-84.334 -45.333 -113.001 -79s-49.334 -73.834 -62.001 -120.501s-19 -97.667 -19 -153
v-116h349v-20h-349v-918h-24z" />
    <glyph glyph-name="f_f_h.liga" unicode="ffh" horiz-adv-x="2329" 
d="M237 0l0.0078125 918.002l-164 4c-8 0 -12 2.66699 -12 8v8h176v140c0 56 6.66699 104.5 20 145.5s31.666 74.833 54.999 101.5s51.333 46.5 84 59.5s68.667 19.5 108 19.5c19.333 0 39.333 -1.83301 60 -5.5s38 -9.16699 52 -16.5l-2 -8
c-1.33301 -4.66699 -4 -6.66699 -8 -6s-10.167 2.16699 -18.5 4.5s-19.333 4.83301 -33 7.5s-30.5 4 -50.5 4c-34.667 0 -66.834 -5.5 -96.501 -16.5s-55.334 -28.667 -77.001 -53s-38.667 -56 -51 -95s-18.5 -86.167 -18.5 -141.5v-140h566v116c0 58 7 111.667 21 161
s36.5 91.666 67.5 126.999s71.167 63 120.5 83s109.333 30 180 30c38 0 75.167 -2.16699 111.5 -6.5s71.5 -7.16602 105.5 -8.49902h17v-664c22.667 33.333 48.167 63.666 76.5 90.999s58.833 50.5 91.5 69.5s67 33.667 103 44s73 15.5 111 15.5
c108.667 0 189.834 -32.333 243.501 -97s80.5 -155 80.5 -271v-628h-24v628c0 54.667 -6 103.5 -18 146.5s-30.5 79.5 -55.5 109.5s-56.333 52.833 -94 68.5s-81.834 23.5 -132.501 23.5c-76.667 0 -147.334 -20.333 -212.001 -61s-121.334 -97 -170.001 -169v-746h-24v1418
c-34 4.66699 -69.667 8.66699 -107 12s-71 5 -101 5c-68.667 0 -126.334 -9.5 -173.001 -28.5s-84.334 -45.333 -113.001 -79s-49.334 -73.834 -62.001 -120.501s-19 -97.667 -19 -153v-116h349v-20h-349v-918h-24v918h-566v-918h-24z" />
    <glyph glyph-name="f_i.liga" unicode="fi" horiz-adv-x="1018" 
d="M240 0l-0.000976562 918l-164 4c-8 0 -12 2.66699 -12 8v8h176v110c0 60.667 8.5 114.5 25.5 161.5s40.833 86.333 71.5 118s67.334 55.667 110.001 72s89.667 24.5 141 24.5c19.333 0 39.333 -1.83301 60 -5.5s38 -9.16699 52 -16.5l-2 -8
c-1.33301 -4 -3.83301 -5.66699 -7.5 -5s-9.66699 2 -18 4s-19.333 4.33301 -33 7s-30.834 4 -51.501 4c-47.333 0 -90.666 -7.16699 -129.999 -21.5s-73.5 -36.166 -102.5 -65.499s-51.5 -66.333 -67.5 -111s-24 -97.334 -24 -158.001v-110h558v-938h-24v918h-534v-918h-24
z" />
    <glyph glyph-name="f_f_i.liga" unicode="ffi" horiz-adv-x="1608" 
d="M240 0l0.00195312 918l-164 4c-8 0 -12 2.66699 -12 8v8h176v140c0 56 6.66699 104.5 20 145.5s31.666 74.833 54.999 101.5s51.333 46.5 84 59.5s68.667 19.5 108 19.5c19.333 0 39.333 -1.83301 60 -5.5s38 -9.16699 52 -16.5l-2 -8
c-1.33301 -4.66699 -4 -6.66699 -8 -6s-10.167 2.16699 -18.5 4.5s-19.333 4.83301 -33 7.5s-30.5 4 -50.5 4c-34.667 0 -66.834 -5.5 -96.501 -16.5s-55.334 -28.667 -77.001 -53s-38.667 -56 -51 -95s-18.5 -86.167 -18.5 -141.5v-140h566v110
c0 60.667 8.5 114.5 25.5 161.5s40.833 86.333 71.5 118s67.334 55.667 110.001 72s89.667 24.5 141 24.5c19.333 0 39.333 -1.83301 60 -5.5s38 -9.16699 52 -16.5l-2 -8c-1.33301 -4 -3.83301 -5.66699 -7.5 -5s-9.66699 2 -18 4s-19.333 4.33301 -33 7
s-30.834 4 -51.501 4c-47.333 0 -90.666 -7.16699 -129.999 -21.5s-73.5 -36.166 -102.5 -65.499s-51.5 -66.333 -67.5 -111s-24 -97.334 -24 -158.001v-110h558v-938h-24v918h-534v-918h-24v918h-566v-918h-24z" />
    <glyph glyph-name="f_j.liga" unicode="fj" horiz-adv-x="1018" 
d="M240 0v918l-164 4c-8 0 -12 2.66699 -12 8v8h176v110c0 60.667 8.5 114.5 25.5 161.5s40.833 86.333 71.5 118s67.334 55.667 110.001 72s89.667 24.5 141 24.5c19.333 0 39.333 -1.83301 60 -5.5s38 -9.16699 52 -16.5l-2 -8c-1.33301 -4 -3.83301 -5.66699 -7.5 -5
s-9.66699 2 -18 4s-19.333 4.33301 -33 7s-30.834 4 -51.501 4c-47.333 0 -90.666 -7.16699 -129.999 -21.5s-73.5 -36.166 -102.5 -65.499s-51.5 -66.333 -67.5 -111s-24 -97.334 -24 -158.001v-110h558v-1110c0 -29.333 -4.66699 -56.333 -14 -81s-22.5 -46 -39.5 -64
s-37.5 -32 -61.5 -42s-51 -15 -81 -15c-18 0 -33.5 1.83301 -46.5 5.5s-25.5 9.16699 -37.5 16.5l4 8c2.66699 5.33301 5.66699 7.83301 9 7.5s8 -1.83301 14 -4.5s13.667 -5.5 23 -8.5s20.666 -4.5 33.999 -4.5c56.667 0 99.5 16.833 128.5 50.5s43.5 77.5 43.5 131.5v1090
h-534v-918h-24z" />
    <glyph glyph-name="f_f_j.liga" unicode="ffj" horiz-adv-x="1608" 
d="M240 0l0.00292969 918l-164 4c-8 0 -12 2.66699 -12 8v8h176v140c0 56 6.66699 104.5 20 145.5s31.666 74.833 54.999 101.5s51.333 46.5 84 59.5s68.667 19.5 108 19.5c19.333 0 39.333 -1.83301 60 -5.5s38 -9.16699 52 -16.5l-2 -8
c-1.33301 -4.66699 -4 -6.66699 -8 -6s-10.167 2.16699 -18.5 4.5s-19.333 4.83301 -33 7.5s-30.5 4 -50.5 4c-34.667 0 -66.834 -5.5 -96.501 -16.5s-55.334 -28.667 -77.001 -53s-38.667 -56 -51 -95s-18.5 -86.167 -18.5 -141.5v-140h566v110
c0 60.667 8.5 114.5 25.5 161.5s40.833 86.333 71.5 118s67.334 55.667 110.001 72s89.667 24.5 141 24.5c19.333 0 39.333 -1.83301 60 -5.5s38 -9.16699 52 -16.5l-2 -8c-1.33301 -4 -3.83301 -5.66699 -7.5 -5s-9.66699 2 -18 4s-19.333 4.33301 -33 7
s-30.834 4 -51.501 4c-47.333 0 -90.666 -7.16699 -129.999 -21.5s-73.5 -36.166 -102.5 -65.499s-51.5 -66.333 -67.5 -111s-24 -97.334 -24 -158.001v-110h558v-1110c0 -29.333 -4.66699 -56.333 -14 -81s-22.5 -46 -39.5 -64s-37.5 -32 -61.5 -42s-51 -15 -81 -15
c-18 0 -33.5 1.83301 -46.5 5.5s-25.5 9.16699 -37.5 16.5l4 8c2.66699 5.33301 5.66699 7.83301 9 7.5s8 -1.83301 14 -4.5s13.667 -5.5 23 -8.5s20.666 -4.5 33.999 -4.5c56.667 0 99.5 16.833 128.5 50.5s43.5 77.5 43.5 131.5v1090h-534v-918h-24v918h-566v-918h-24z
" />
    <glyph glyph-name="f_k.liga" unicode="fk" horiz-adv-x="1549" 
d="M237 0l0.00390625 918.003l-164 4c-8 0 -12 2.66699 -12 8v8h176v116c0 58 7 111.667 21 161s36.5 91.666 67.5 126.999s71.167 63 120.5 83s109.333 30 180 30c40.667 0 80.667 -2.5 120 -7.5s77.333 -7.5 114 -7.5v-904h46c6 0 13 0.666992 21 2s17 6.66602 27 15.999
l466 410c5.33301 5.33301 10.666 9.33301 15.999 12s12 4 20 4h18l-496 -434c-8.66699 -8 -17 -13.667 -25 -17c9.33301 -2.66699 17.333 -6.16699 24 -10.5s13 -9.16602 19 -14.499l518 -504h-18c-5.33301 0 -10 0.666992 -14 2s-8.66699 4.66602 -14 9.99902l-492 478
c-12 10.667 -22.667 18 -32 22s-24 6 -44 6h-40v-518h-24v1418c-34 4.66699 -69.667 8.66699 -107 12s-71 5 -101 5c-68.667 0 -126.334 -9.5 -173.001 -28.5s-84.334 -45.333 -113.001 -79s-49.334 -73.834 -62.001 -120.501s-19 -97.667 -19 -153v-116h349v-20h-349v-918
h-24z" />
    <glyph glyph-name="f_f_k.liga" unicode="ffk" horiz-adv-x="2142" 
d="M240 0l0.00683594 918.003l-164 4c-8 0 -12 2.66699 -12 8v8h176v140c0 56 6.66699 104.5 20 145.5s31.666 74.833 54.999 101.5s51.333 46.5 84 59.5s68.667 19.5 108 19.5c19.333 0 39.333 -1.83301 60 -5.5s38 -9.16699 52 -16.5l-2 -8
c-1.33301 -4.66699 -4 -6.66699 -8 -6s-10.167 2.16699 -18.5 4.5s-19.333 4.83301 -33 7.5s-30.5 4 -50.5 4c-34.667 0 -66.834 -5.5 -96.501 -16.5s-55.334 -28.667 -77.001 -53s-38.667 -56 -51 -95s-18.5 -86.167 -18.5 -141.5v-140h566v116c0 58 7 111.667 21 161
s36.5 91.666 67.5 126.999s71.167 63 120.5 83s109.333 30 180 30c40.667 0 80.667 -2.5 120 -7.5s77.333 -7.5 114 -7.5v-904h46c6 0 13 0.666992 21 2s17 6.66602 27 15.999l466 410c5.33301 5.33301 10.666 9.33301 15.999 12s12 4 20 4h18l-496 -434
c-8.66699 -8 -17 -13.667 -25 -17c9.33301 -2.66699 17.333 -6.16699 24 -10.5s13 -9.16602 19 -14.499l518 -504h-18c-5.33301 0 -10 0.666992 -14 2s-8.66699 4.66602 -14 9.99902l-492 478c-12 10.667 -22.667 18 -32 22s-24 6 -44 6h-40v-518h-24v1418
c-34 4.66699 -69.667 8.66699 -107 12s-71 5 -101 5c-68.667 0 -126.334 -9.5 -173.001 -28.5s-84.334 -45.333 -113.001 -79s-49.334 -73.834 -62.001 -120.501s-19 -97.667 -19 -153v-116h350v-20h-350v-918h-24v918h-566v-918h-24z" />
    <glyph glyph-name="f_l.liga" unicode="fl" horiz-adv-x="1078" 
d="M240 0v917.999l-164 4c-8 0 -12 2.66699 -12 8v8h176v76c0 60.667 8.66699 116.167 26 166.5s42.333 93.333 75 129s72.667 63.334 120 83.001s101 29.5 161 29.5c44 0 87.5 -2.33301 130.5 -7s82.167 -7 117.5 -7h12v-1408h-24v1392
c-34 0.666992 -72.167 2.5 -114.5 5.5s-82.833 4.5 -121.5 4.5c-56.667 0 -107.167 -9.16699 -151.5 -27.5s-81.833 -44.333 -112.5 -78s-54 -74.5 -70 -122.5s-24 -101.333 -24 -160v-76h310v-20h-310v-918h-24z" />
    <glyph glyph-name="f_f_l.liga" unicode="ffl" horiz-adv-x="1665" 
d="M237 0l0.00292969 917.999l-164 4c-8 0 -12 2.66699 -12 8v8h176v140c0 56 6.66699 104.5 20 145.5s31.666 74.833 54.999 101.5s51.333 46.5 84 59.5s68.667 19.5 108 19.5c19.333 0 39.333 -1.83301 60 -5.5s38 -9.16699 52 -16.5l-2 -8
c-1.33301 -4.66699 -4 -6.66699 -8 -6s-10.167 2.16699 -18.5 4.5s-19.333 4.83301 -33 7.5s-30.5 4 -50.5 4c-34.667 0 -66.834 -5.5 -96.501 -16.5s-55.334 -28.667 -77.001 -53s-38.667 -56 -51 -95s-18.5 -86.167 -18.5 -141.5v-140h566v76
c0 60.667 8.66699 116.167 26 166.5s42.333 93.333 75 129s72.667 63.334 120 83.001s101 29.5 161 29.5c44 0 87.5 -2.33301 130.5 -7s82.167 -7 117.5 -7h12v-1408h-24v1392c-34 0.666992 -72.167 2.5 -114.5 5.5s-82.833 4.5 -121.5 4.5
c-56.667 0 -107.167 -9.16699 -151.5 -27.5s-81.833 -44.333 -112.5 -78s-54 -74.5 -70 -122.5s-24 -101.333 -24 -160v-76h349v-20h-349v-918h-24v918h-566v-918h-24z" />
    <glyph glyph-name="f_t.liga" unicode="ft" horiz-adv-x="1265" 
d="M871 918l0.00195312 -732c0 -33.333 4.16699 -61.5 12.5 -84.5s19.833 -41.667 34.5 -56s31.667 -24.833 51 -31.5s40 -10 62 -10c28 0 52.5 4.33301 73.5 13s38.833 18 53.5 28s26.5 19.333 35.5 28s15.5 13 19.5 13c2.66699 0 5.33398 -1.33301 8.00098 -4l4 -4
c-10 -13.333 -22.167 -25.833 -36.5 -37.5s-30 -21.667 -47 -30s-35 -14.833 -54 -19.5s-37.833 -7 -56.5 -7c-57.333 0 -102.333 15.667 -135 47s-49 83 -49 155v732h-586v-918h-24v918l-164 4c-8 0 -12 2.66699 -12 8v8h176v150c0 56 6.66699 104.5 20 145.5
s31.666 74.833 54.999 101.5s51.333 46.5 84 59.5s68.667 19.5 108 19.5c19.333 0 39.333 -1.83301 60 -5.5s38 -9.16699 52 -16.5l-2 -8c-1.33301 -4.66699 -4 -6.66699 -8 -6s-10.167 2.16699 -18.5 4.5s-19.333 4.83301 -33 7.5s-30.5 4 -50.5 4
c-34.667 0 -66.834 -5.5 -96.501 -16.5s-55.334 -28.667 -77.001 -53s-38.667 -56 -51 -95s-18.5 -86.167 -18.5 -141.5v-150h586l8 394c0 3.33301 0.833008 6.5 2.5 9.5s4.16699 4.5 7.5 4.5h6v-408h334v-20h-334z" />
    <glyph glyph-name="f_f_t.liga" unicode="fft" horiz-adv-x="1858" 
d="M240 0l0.00488281 918l-164 4c-8 0 -12 2.66699 -12 8v8h176v140c0 56 6.66699 104.5 20 145.5s31.666 74.833 54.999 101.5s51.333 46.5 84 59.5s68.667 19.5 108 19.5c19.333 0 39.333 -1.83301 60 -5.5s38 -9.16699 52 -16.5l-2 -8
c-1.33301 -4.66699 -4 -6.66699 -8 -6s-10.167 2.16699 -18.5 4.5s-19.333 4.83301 -33 7.5s-30.5 4 -50.5 4c-34.667 0 -66.834 -5.5 -96.501 -16.5s-55.334 -28.667 -77.001 -53s-38.667 -56 -51 -95s-18.5 -86.167 -18.5 -141.5v-140h566v150
c0 56 6.66699 104.5 20 145.5s31.666 74.833 54.999 101.5s51.333 46.5 84 59.5s68.667 19.5 108 19.5c19.333 0 39.333 -1.83301 60 -5.5s38 -9.16699 52 -16.5l-2 -8c-1.33301 -4.66699 -4 -6.66699 -8 -6s-10.167 2.16699 -18.5 4.5s-19.333 4.83301 -33 7.5
s-30.5 4 -50.5 4c-34.667 0 -66.834 -5.5 -96.501 -16.5s-55.334 -28.667 -77.001 -53s-38.667 -56 -51 -95s-18.5 -86.167 -18.5 -141.5v-150h586l8 394c0 3.33301 0.833008 6.5 2.5 9.5s4.16699 4.5 7.5 4.5h6v-408h334v-20h-334v-732c0 -33.333 4.16699 -61.5 12.5 -84.5
s19.833 -41.667 34.5 -56s31.667 -24.833 51 -31.5s40 -10 62 -10c28 0 52.5 4.33301 73.5 13s38.833 18 53.5 28s26.5 19.333 35.5 28s15.5 13 19.5 13c2.66699 0 5.33398 -1.33301 8.00098 -4l4 -4c-10 -13.333 -22.167 -25.833 -36.5 -37.5s-30 -21.667 -47 -30
s-35 -14.833 -54 -19.5s-37.833 -7 -56.5 -7c-57.333 0 -102.333 15.667 -135 47s-49 83 -49 155v732h-586v-918h-24v918h-566v-918h-24z" />
    <glyph glyph-name="t_f.liga" unicode="tf" horiz-adv-x="1305" 
d="M878 0l0.00195312 918h-615v-732c0 -33.333 4.16699 -61.5 12.5 -84.5s19.833 -41.667 34.5 -56s31.667 -24.833 51 -31.5s40 -10 62 -10c28 0 52.5 4.33301 73.5 13s38.833 18 53.5 28s26.5 19.333 35.5 28s15.5 13 19.5 13c2.66699 0 5.33398 -1.33301 8.00098 -4l4 -4
c-10 -13.333 -22.167 -25.833 -36.5 -37.5s-30 -21.667 -47 -30s-35 -14.833 -54 -19.5s-37.833 -7 -56.5 -7c-57.333 0 -102.333 15.667 -135 47s-49 83 -49 155v732h-162c-9.33301 0 -14 3.33301 -14 10v6l176 4l8 394c0 3.33301 0.833008 6.5 2.5 9.5
s4.16699 4.5 7.5 4.5h6v-408h615v150c0 56 6.66699 104.5 20 145.5s31.666 74.833 54.999 101.5s51.333 46.5 84 59.5s68.667 19.5 108 19.5c19.333 0 39.333 -1.83301 60 -5.5s38 -9.16699 52 -16.5l-2 -8c-1.33301 -4.66699 -4 -6.66699 -8 -6s-10.167 2.16699 -18.5 4.5
s-19.333 4.83301 -33 7.5s-30.5 4 -50.5 4c-34.667 0 -66.834 -5.5 -96.501 -16.5s-55.334 -28.667 -77.001 -53s-38.667 -56 -51 -95s-18.5 -86.167 -18.5 -141.5v-150h349v-20h-349v-918h-24z" />
    <glyph glyph-name="t_t.liga" unicode="tt" horiz-adv-x="1276" 
d="M423 -16c-57.333 0 -102.335 15.667 -135.002 47s-49 83 -49 155v732h-162c-9.33301 0 -14 3.33301 -14 10v6l176 4l8 394c0 3.33301 0.833008 6.5 2.5 9.5s4.16699 4.5 7.5 4.5h6v-408h595l8 394c0 3.33301 0.833008 6.5 2.5 9.5s4.16699 4.5 7.5 4.5h6v-408h334v-20
h-334v-732c0 -33.333 4.16699 -61.5 12.5 -84.5s19.833 -41.667 34.5 -56s31.667 -24.833 51 -31.5s40 -10 62 -10c28 0 52.5 4.33301 73.5 13s38.833 18 53.5 28s26.5 19.333 35.5 28s15.5 13 19.5 13c2.66699 0 5.33398 -1.33301 8.00098 -4l4 -4
c-10 -13.333 -22.167 -25.833 -36.5 -37.5s-30 -21.667 -47 -30s-35 -14.833 -54 -19.5s-37.833 -7 -56.5 -7c-57.333 0 -102.333 15.667 -135 47s-49 83 -49 155v732h-595v-732c0 -33.333 4.16699 -61.5 12.5 -84.5s19.833 -41.667 34.5 -56s31.667 -24.833 51 -31.5
s40 -10 62 -10c28 0 52.5 4.33301 73.5 13s38.833 18 53.5 28s26.5 19.333 35.5 28s15.5 13 19.5 13c2.66699 0 5.33398 -1.33301 8.00098 -4l4 -4c-10 -13.333 -22.167 -25.833 -36.5 -37.5s-30 -21.667 -47 -30s-35 -14.833 -54 -19.5s-37.833 -7 -56.5 -7z" />
    <glyph glyph-name="t_t_f.liga" unicode="ttf" horiz-adv-x="1924" 
d="M1497 1088c0 56 6.66797 104.5 20.001 145.5s31.666 74.833 54.999 101.5s51.333 46.5 84 59.5s68.667 19.5 108 19.5c19.333 0 39.333 -1.83301 60 -5.5s38 -9.16699 52 -16.5l-2 -8c-1.33301 -4.66699 -4 -6.66699 -8 -6s-10.167 2.16699 -18.5 4.5
s-19.333 4.83301 -33 7.5s-30.5 4 -50.5 4c-34.667 0 -66.834 -5.5 -96.501 -16.5s-55.334 -28.667 -77.001 -53s-38.667 -56 -51 -95s-18.5 -86.167 -18.5 -141.5v-150h349v-20h-349v-918h-24v918h-615v-732c0 -33.333 4.16699 -61.5 12.5 -84.5s19.833 -41.667 34.5 -56
s31.667 -24.833 51 -31.5s40 -10 62 -10c28 0 52.5 4.33301 73.5 13s38.833 18 53.5 28s26.5 19.333 35.5 28s15.5 13 19.5 13c2.66699 0 5.33398 -1.33301 8.00098 -4l4 -4c-10 -13.333 -22.167 -25.833 -36.5 -37.5s-30 -21.667 -47 -30s-35 -14.833 -54 -19.5
s-37.833 -7 -56.5 -7c-57.333 0 -102.333 15.667 -135 47s-49 83 -49 155v732h-595v-732c0 -33.333 4.16699 -61.5 12.5 -84.5s19.833 -41.667 34.5 -56s31.667 -24.833 51 -31.5s40 -10 62 -10c28 0 52.5 4.33301 73.5 13s38.833 18 53.5 28s26.5 19.333 35.5 28
s15.5 13 19.5 13c2.66699 0 5.33398 -1.33301 8.00098 -4l4 -4c-10 -13.333 -22.167 -25.833 -36.5 -37.5s-30 -21.667 -47 -30s-35 -14.833 -54 -19.5s-37.833 -7 -56.5 -7c-57.333 0 -102.333 15.667 -135 47s-49 83 -49 155v732h-162c-9.33301 0 -14 3.33301 -14 10v6
l176 4l8 394c0 3.33301 0.833008 6.5 2.5 9.5s4.16699 4.5 7.5 4.5h6v-408h595l8 394c0 3.33301 0.833008 6.5 2.5 9.5s4.16699 4.5 7.5 4.5h6v-408h615v150z" />
    <glyph glyph-name="t_i.liga" unicode="ti" horiz-adv-x="1108" 
d="M911 0h-24.001v918h-624v-732c0 -33.333 4.16699 -61.5 12.5 -84.5s19.833 -41.667 34.5 -56s31.667 -24.833 51 -31.5s40 -10 62 -10c28 0 52.5 4.33301 73.5 13s38.833 18 53.5 28s26.5 19.333 35.5 28s15.5 13 19.5 13c2.66699 0 5.33398 -1.33301 8.00098 -4l4 -4
c-10 -13.333 -22.167 -25.833 -36.5 -37.5s-30 -21.667 -47 -30s-35 -14.833 -54 -19.5s-37.833 -7 -56.5 -7c-57.333 0 -102.333 15.667 -135 47s-49 83 -49 155v732h-162c-9.33301 0 -14 3.33301 -14 10v6l176 4l8 394c0 3.33301 0.833008 6.5 2.5 9.5
s4.16699 4.5 7.5 4.5h6v-408h648v-938zM955.999 1360c0 -14 -5.83301 -26.5 -17.5 -37.5s-24.5 -16.5 -38.5 -16.5c-15.333 0 -28.5 5.5 -39.5 16.5s-16.5 23.5 -16.5 37.5c0 15.333 5.5 28.5 16.5 39.5s24.167 16.5 39.5 16.5c14 0 26.833 -5.5 38.5 -16.5
s17.5 -24.167 17.5 -39.5z" />
    <glyph glyph-name="t_t_i.liga" unicode="tti" horiz-adv-x="1706" 
d="M1510 0h-24.002v918h-604v-732c0 -33.333 4.16699 -61.5 12.5 -84.5s19.833 -41.667 34.5 -56s31.667 -24.833 51 -31.5s40 -10 62 -10c28 0 52.5 4.33301 73.5 13s38.833 18 53.5 28s26.5 19.333 35.5 28s15.5 13 19.5 13c2.66699 0 5.33398 -1.33301 8.00098 -4l4 -4
c-10 -13.333 -22.167 -25.833 -36.5 -37.5s-30 -21.667 -47 -30s-35 -14.833 -54 -19.5s-37.833 -7 -56.5 -7c-57.333 0 -102.333 15.667 -135 47s-49 83 -49 155v732h-595v-732c0 -33.333 4.16699 -61.5 12.5 -84.5s19.833 -41.667 34.5 -56s31.667 -24.833 51 -31.5
s40 -10 62 -10c28 0 52.5 4.33301 73.5 13s38.833 18 53.5 28s26.5 19.333 35.5 28s15.5 13 19.5 13c2.66699 0 5.33398 -1.33301 8.00098 -4l4 -4c-10 -13.333 -22.167 -25.833 -36.5 -37.5s-30 -21.667 -47 -30s-35 -14.833 -54 -19.5s-37.833 -7 -56.5 -7
c-57.333 0 -102.333 15.667 -135 47s-49 83 -49 155v732h-162c-9.33301 0 -14 3.33301 -14 10v6l176 4l8 394c0 3.33301 0.833008 6.5 2.5 9.5s4.16699 4.5 7.5 4.5h6v-408h595l8 394c0 3.33301 0.833008 6.5 2.5 9.5s4.16699 4.5 7.5 4.5h6v-408h628v-938zM1556 1360
c0 -14 -5.83301 -26.5 -17.5 -37.5s-24.5 -16.5 -38.5 -16.5c-15.333 0 -28.5 5.5 -39.5 16.5s-16.5 23.5 -16.5 37.5c0 15.333 5.5 28.5 16.5 39.5s24.167 16.5 39.5 16.5c14 0 26.833 -5.5 38.5 -16.5s17.5 -24.167 17.5 -39.5z" />
    <glyph glyph-name=".notdef" horiz-adv-x="993" 
d="M273 1127c12 12 25.3369 24.001 40.0039 36.001s31 22.5 49 31.5s37.833 16.333 59.5 22s45.167 8.5 70.5 8.5c30 0 59.167 -4.66699 87.5 -14s53.166 -22.833 74.499 -40.5s38.5 -39.334 51.5 -65.001s19.5 -54.5 19.5 -86.5c0 -36 -5.83301 -67.333 -17.5 -94
s-26.334 -50 -44.001 -70s-36.834 -37.667 -57.501 -53l-58 -43.5c-18 -13.667 -33 -27.334 -45 -41.001s-18.333 -29.167 -19 -46.5l-5 -123h-16v125c0 18.667 5.83301 35.334 17.5 50.001s26.5 29 44.5 43l57.5 43.5c20.333 15 39.5 32.167 57.5 51.5
s32.833 41.666 44.5 66.999s17.5 55.333 17.5 90c0 29.333 -5.83301 55.666 -17.5 78.999s-27.334 43 -47.001 59s-42.167 28.167 -67.5 36.5s-51.333 12.5 -78 12.5c-33.333 0 -62.5 -4.66699 -87.5 -14s-46 -19.666 -63 -30.999s-30 -21.666 -39 -30.999
s-14.5 -14 -16.5 -14c-2.66699 0 -5 1 -7 3zM422.004 241.001c0 14 4.66699 26 14 36s21 15 35 15c13.333 0 24.833 -5 34.5 -15s14.5 -22 14.5 -36c0 -13.333 -4.83301 -24.833 -14.5 -34.5s-21.167 -14.5 -34.5 -14.5c-14 0 -25.667 4.83301 -35 14.5s-14 21.167 -14 34.5
zM50.0039 1400h893v-1400h-893v1400zM70.0039 20.001h853v1360h-853v-1360z" />
    <glyph glyph-name="glyph1" horiz-adv-x="0" 
 />
    <glyph glyph-name="glyph1" horiz-adv-x="0" 
 />
    <glyph glyph-name="space" unicode=" " horiz-adv-x="570" 
 />
    <glyph glyph-name="exclam" unicode="!" horiz-adv-x="484" 
d="M257 1400v-572c0 -29.333 -0.166992 -56.833 -0.5 -82.5l-1 -78.5c-0.333008 -26.667 -1 -55.334 -2 -86.001s-1.83301 -65.667 -2.5 -105h-16c-1.33301 39.333 -2.33301 74.333 -3 105s-1.16699 59.334 -1.5 86.001l-1 78.5c-0.333008 25.667 -0.5 53.167 -0.5 82.5v572
h28zM175 48c0 18 6.16699 33.5 18.5 46.5s27.5 19.5 45.5 19.5s33.5 -6.5 46.5 -19.5s19.5 -28.5 19.5 -46.5s-6.5 -33.167 -19.5 -45.5s-28.5 -18.5 -46.5 -18.5s-33.167 6.16699 -45.5 18.5s-18.5 27.5 -18.5 45.5z" />
    <glyph glyph-name="quotedbl" unicode="&#x22;" horiz-adv-x="630" 
d="M198 1400v-294l-2 -152c0 -5.33301 -2.66699 -8 -8 -8s-8 2.66699 -8 8l-2 152v294h20zM452 1400v-294l-2 -152c0 -5.33301 -2.66699 -8 -8 -8s-8 2.66699 -8 8l-2 152v294h20z" />
    <glyph glyph-name="numbersign" unicode="#" horiz-adv-x="1160" 
d="M796 922h-342l-98 -444h342zM1055 940l-0.000976562 -6c0 -8 -4.66699 -12 -14 -12h-223l-98 -444h265c9.33301 0 14 -4 14 -12v-6h-281l-103 -460h-6c-5.33301 -0 -9.16602 0.833008 -11.499 2.5s-2.5 6.16699 -0.5 13.5l99 444h-342l-99 -444
c-2 -10.667 -7.33301 -16 -16 -16h-10l103 460h-215c-9.33301 0 -14 4 -14 12v6h231l98 444h-273v6c0 8 4.66699 12 14 12h261l99 444c2 10.667 8 16 18 16h8l-103 -460h342l103 460h10c9.33301 0 12 -6.66699 8 -20l-99 -440h235z" />
    <glyph glyph-name="dollar" unicode="$" horiz-adv-x="1160" 
d="M576 4c61.333 2 116.169 13.668 164.502 35.001s89.166 49.5 122.499 84.5s58.666 75.333 75.999 121s26 94.167 26 145.5c0 54.667 -10.333 100.167 -31 136.5s-48 66.666 -82 90.999s-72.833 44.5 -116.5 60.5s-88.167 31.333 -133.5 46zM604.003 1394
c-56 -1.33301 -105.5 -10.835 -148.5 -28.502s-79.333 -41.167 -109 -70.5s-52 -63.166 -67 -101.499s-22.5 -78.166 -22.5 -119.499c0 -50 9 -92.333 27 -127s42 -64 72 -88s64.5 -44 103.5 -60s79.5 -31 121.5 -45zM602.003 746.999
c47.333 -15.333 94.002 -31.3301 140.002 -47.9971s87.167 -37.834 123.5 -63.501s65.666 -57.667 87.999 -96s33.5 -86.833 33.5 -145.5c0 -56 -9.16699 -108.333 -27.5 -157s-45.166 -91.5 -80.499 -128.5s-78.5 -66.5 -129.5 -88.5s-108.833 -34 -173.5 -36l-9 -242
c0 -10.667 -4 -16 -12 -16h-10l9 258c-46.667 0 -88.5 4.33301 -125.5 13s-70.833 20.667 -101.5 36s-59 34.333 -85 57s-51 48 -75 76l4 4c2 2 3.66699 3.5 5 4.5s3.66602 1.5 6.99902 1.5c4 0 9.83301 -4.16699 17.5 -12.5s18 -18.833 31 -31.5s29 -26.5 48 -41.5
s41.667 -28.833 68 -41.5s56.5 -23.334 90.5 -32.001s73 -13 117 -13l25 727c-44 14 -86.667 29.333 -128 46s-78 37.667 -110 63s-57.833 56.666 -77.5 93.999s-29.5 84 -29.5 140c0 44 8.16699 86.333 24.5 127s40.166 76.5 71.499 107.5s69.833 56 115.5 75
s98.167 29.167 157.5 30.5l7 188c0 10.667 4 16 12 16h10l-7 -204c64.667 -1.33301 122.167 -13 172.5 -35s97.833 -56.333 142.5 -103l-4 -6c-2 -4 -5.33301 -6 -10 -6c-6.66699 0 -16 6.5 -28 19.5s-29.5 27.5 -52.5 43.5s-52.333 30.833 -88 44.5
s-80.167 21.167 -133.5 22.5z" />
    <glyph glyph-name="percent" unicode="%" horiz-adv-x="1522" 
d="M671 1064c0 -60 -7.5 -112 -22.5 -156s-35.167 -80.333 -60.5 -109s-55 -50 -89 -64s-70 -21 -108 -21c-38.667 0 -75 7 -109 21s-63.667 35.333 -89 64s-45.333 65 -60 109s-22 96 -22 156c0 60.667 7.33301 113 22 157s34.667 80.5 60 109.5s55 50.5 89 64.5
s70.333 21 109 21c38 0 74 -7 108 -21s63.667 -35.5 89 -64.5s45.5 -65.5 60.5 -109.5s22.5 -96.333 22.5 -157zM649 1064c0 58 -6.83301 108 -20.5 150s-32.334 76.667 -56.001 104s-51.167 47.5 -82.5 60.5s-64.333 19.5 -99 19.5c-35.333 0 -68.5 -6.5 -99.5 -19.5
s-58.333 -33.167 -82 -60.5s-42.334 -62 -56.001 -104s-20.5 -92 -20.5 -150s6.83301 -108 20.5 -150s32.334 -76.5 56.001 -103.5s51 -46.833 82 -59.5s64.167 -19 99.5 -19c34.667 0 67.667 6.33301 99 19s58.833 32.5 82.5 59.5s42.334 61.5 56.001 103.5
s20.5 92 20.5 150zM1235 1392c3.33301 5.33301 8.66602 8 15.999 8h14l-988 -1392c-3.33301 -5.33301 -8.66602 -8 -15.999 -8h-14zM1411 334c0 -60 -7.5 -112 -22.5 -156s-35.167 -80.333 -60.5 -109s-55 -50 -89 -64s-70 -21 -108 -21c-38.667 0 -75 7 -109 21
s-63.667 35.333 -89 64s-45.333 65 -60 109s-22 96 -22 156c0 60.667 7.33301 113 22 157s34.667 80.5 60 109.5s55 50.5 89 64.5s70.333 21 109 21c38 0 74 -7 108 -21s63.667 -35.5 89 -64.5s45.5 -65.5 60.5 -109.5s22.5 -96.333 22.5 -157zM1389 334
c0 58 -6.83301 108 -20.5 150s-32.334 76.667 -56.001 104s-51.167 47.5 -82.5 60.5s-64.333 19.5 -99 19.5c-35.333 0 -68.5 -6.5 -99.5 -19.5s-58.333 -33.167 -82 -60.5s-42.334 -62 -56.001 -104s-20.5 -92 -20.5 -150s6.83301 -108 20.5 -150
s32.334 -76.5 56.001 -103.5s51 -46.833 82 -59.5s64.167 -19 99.5 -19c34.667 0 67.667 6.33301 99 19s58.833 32.5 82.5 59.5s42.334 61.5 56.001 103.5s20.5 92 20.5 150z" />
    <glyph glyph-name="ampersand" unicode="&#x26;" horiz-adv-x="1374" 
d="M502 762c-50.667 -16 -97.667 -38.002 -141 -66.002s-80.833 -60.167 -112.5 -96.5s-56.5 -76.166 -74.5 -119.499s-27 -88.666 -27 -135.999c0 -58 11.5 -108.333 34.5 -151s52.333 -78 88 -106s75 -48.833 118 -62.5s84.167 -20.5 123.5 -20.5
c56 0 108.5 7.16699 157.5 21.5s94.167 33.833 135.5 58.5s78.833 53.5 112.5 86.5s63.5 68.167 89.5 105.5l-477 460zM1329 -0.00195312h-15.9971c-6 0 -11 0.333008 -15 1s-9 3.66699 -15 9l-262 252c-27.333 -38 -58.666 -73.833 -93.999 -107.5
s-74.333 -63.167 -117 -88.5s-89 -45.333 -139 -60s-103.333 -22 -160 -22c-47.333 0 -94.166 7.83301 -140.499 23.5s-87.833 38.667 -124.5 69s-66.334 67.833 -89.001 112.5s-34 96.334 -34 155.001c0 50 9.33301 97.667 28 143s44.5 86.833 77.5 124.5
s71.667 70.667 116 99s92.166 50.5 143.499 66.5c-28 28.667 -52.333 56.167 -73 82.5s-38 52.666 -52 78.999s-24.5 53.5 -31.5 81.5s-10.5 58 -10.5 90c0 44.667 8.16699 85.667 24.5 123s39.333 69.5 69 96.5s64.834 48.167 105.501 63.5s85.667 23 135 23
c38.667 0 76.167 -7.16699 112.5 -21.5s68.666 -33.5 96.999 -57.5s51.166 -52 68.499 -84s26 -65.667 26 -101h-6c-3.33301 0 -6.5 1.16699 -9.5 3.5s-5.16699 6.5 -6.5 12.5c-1.33301 18 -8 40 -20 66s-29.5 51 -52.5 75s-52 44.5 -87 61.5s-75.833 25.5 -122.5 25.5
c-45.333 0 -87 -7 -125 -21s-70.667 -33.5 -98 -58.5s-48.666 -55 -63.999 -90s-23 -73.833 -23 -116.5c0 -62 16.5 -121.5 49.5 -178.5s82.5 -116.833 148.5 -179.5l477 -456c33.333 51.333 59.666 103.833 78.999 157.5s32 104.5 38 152.5
c1.33301 5.33301 2.66602 9.33301 3.99902 12s4.66602 4 9.99902 4h8c-1.33301 -49.333 -12.5 -104 -33.5 -164s-51.167 -119 -90.5 -177z" />
    <glyph glyph-name="quotesingle" unicode="'" horiz-adv-x="376" 
d="M198 1400v-294l-2 -152c0 -5.33301 -2.66699 -8 -8 -8s-8 2.66699 -8 8l-2 152v294h20z" />
    <glyph glyph-name="parenleft" unicode="(" horiz-adv-x="501" 
d="M150 632c0 -155.333 22 -302.832 66 -442.499s110 -275.5 198 -407.5c3.33301 -4 4.66602 -7.33301 3.99902 -10s-2 -4.66699 -4 -6l-10 -6c-52 79.333 -95.667 155.333 -131 228s-63.666 144.167 -84.999 214.5s-36.666 140.666 -45.999 210.999
s-14 143.166 -14 218.499c0 74.667 4.66699 147.334 14 218.001s24.666 141.167 45.999 211.5s49.666 141.833 84.999 214.5s79 148.667 131 228l10 -6c2 -1.33301 3.33301 -3.33301 4 -6s-0.666016 -6 -3.99902 -10c-88 -132 -154 -268 -198 -408s-66 -287.333 -66 -442z
" />
    <glyph glyph-name="parenright" unicode=")" horiz-adv-x="501" 
d="M351 632c0 154.667 -22 301.999 -66 441.999s-110 276 -198 408c-3.33301 4 -4.66602 7.33301 -3.99902 10s2 4.66699 4 6l10 6c52 -79.333 95.667 -155.333 131 -228s63.666 -144.167 84.999 -214.5s36.666 -140.833 45.999 -211.5s14 -143.334 14 -218.001
c0 -75.333 -4.66699 -148.166 -14 -218.499s-24.666 -140.666 -45.999 -210.999s-49.666 -141.833 -84.999 -214.5s-79 -148.667 -131 -228l-10 6c-2 1.33301 -3.33301 3.33301 -4 6s0.666016 6 3.99902 10c88 132 154 267.833 198 407.5s66 287.167 66 442.5z" />
    <glyph glyph-name="asterisk" unicode="*" horiz-adv-x="850" 
d="M678 1070l-9.99902 -17.999l-204 118l-8.5 5c-2.33301 1.33301 -4.66602 2.83301 -6.99902 4.5s-5.16602 3.83398 -8.49902 6.50098s-7.33301 6.66699 -12 12c2 -12 3.5 -20.333 4.5 -25s1.5 -11 1.5 -19v-228h-20v228c0 7.33301 0.5 13.666 1.5 18.999
s2.83301 13.333 5.5 24c-8.66699 -8.66699 -14.834 -14.334 -18.501 -17.001s-9.16699 -6 -16.5 -10l-202 -118l-10 18l202 118c6.66699 4 12.334 6.66699 17.001 8l24 7c-11.333 4.66699 -19.333 7.66699 -24 9s-10.334 4 -17.001 8l-204 118l10 18l204 -118
c3.33301 -2 6.16602 -3.83301 8.49902 -5.5s4.5 -3.5 6.5 -5.5l7.5 -7.5c3 -3 7.16699 -6.83301 12.5 -11.5c-2.66699 12 -4.5 20.833 -5.5 26.5s-1.5 12.167 -1.5 19.5v228h20v-228c0 -7.33301 -0.166992 -13.833 -0.5 -19.5s-1.83301 -14.167 -4.5 -25.5
c8.66699 8.66699 14.834 14.667 18.501 18s9.16699 7 16.5 11l202 118l10 -18l-202 -118c-6.66699 -4 -12.334 -7.16699 -17.001 -9.5s-12.334 -4.83301 -23.001 -7.5l23.5 -7c4.33301 -1.33301 9.83301 -4 16.5 -8z" />
    <glyph glyph-name="plus" unicode="+" horiz-adv-x="1160" 
d="M1042 660h-452v-472h-20v472h-450v20h450v470h20v-470h452v-20z" />
    <glyph glyph-name="comma" unicode="," horiz-adv-x="424" 
d="M156 -235c-2 2 -3.00098 4.33496 -3.00098 7.00195c0 1.33301 1 3.66602 3 6.99902c5.33301 6 13.5 16.167 24.5 30.5s22 31.666 33 51.999s20.833 43.166 29.5 68.499s13.334 52.333 14.001 81c-10.667 -12.667 -26 -19 -46 -19c-16 0 -29.333 5.5 -40 16.5
s-16 25.5 -16 43.5c0 16 5.5 30.333 16.5 43s25.5 19 43.5 19s32.833 -6.66699 44.5 -20s17.5 -32.666 17.5 -57.999c0 -51.333 -11.167 -100.833 -33.5 -148.5s-50.5 -89.5 -84.5 -125.5z" />
    <glyph glyph-name="hyphen" unicode="-" horiz-adv-x="738" 
d="M149 598h440v-20h-440v20z" />
    <glyph glyph-name="period" unicode="." horiz-adv-x="464" 
d="M167 48c0 18 6.16699 33.5 18.5 46.5s27.5 19.5 45.5 19.5s33.5 -6.5 46.5 -19.5s19.5 -28.5 19.5 -46.5s-6.5 -33.167 -19.5 -45.5s-28.5 -18.5 -46.5 -18.5s-33.167 6.16699 -45.5 18.5s-18.5 27.5 -18.5 45.5z" />
    <glyph glyph-name="slash" unicode="/" horiz-adv-x="840" 
d="M115 -66c-2 -5.33301 -5.16699 -8.66699 -9.5 -10s-8.5 -2 -12.5 -2h-8l640 1506c4 8 10.667 12 20 12h10z" />
    <glyph glyph-name="zero" unicode="0" horiz-adv-x="1160" 
d="M1076 700c0 -122.667 -13.167 -228.834 -39.5 -318.501s-62 -163.834 -107 -222.501s-97.667 -102.167 -158 -130.5s-124.166 -42.5 -191.499 -42.5s-131.166 14.167 -191.499 42.5s-113 71.833 -158 130.5s-80.667 132.834 -107 222.501s-39.5 195.834 -39.5 318.501
s13.167 228.834 39.5 318.501s62 164 107 223s97.667 102.833 158 131.5s124.166 43 191.499 43s131.166 -14.333 191.499 -43s113 -72.5 158 -131.5s80.667 -133.333 107 -223s39.5 -195.834 39.5 -318.501zM1050 700c0 120 -12.5 223.667 -37.5 311
s-58.833 159.5 -101.5 216.5s-92.5 99.333 -149.5 127s-117.5 41.5 -181.5 41.5s-124.667 -13.833 -182 -41.5s-107.5 -70 -150.5 -127s-77 -129.167 -102 -216.5s-37.5 -191 -37.5 -311s12.5 -223.667 37.5 -311s59 -159.333 102 -216s93.167 -98.667 150.5 -126
s118 -41 182 -41s124.5 13.667 181.5 41s106.833 69.333 149.5 126s76.5 128.667 101.5 216s37.5 191 37.5 311z" />
    <glyph glyph-name="one" unicode="1" horiz-adv-x="1160" 
d="M979 20l0.000976562 -20h-696v20h340v1296c0 9.33301 0.333008 18.833 1 28.5s1.66699 19.167 3 28.5l-362 -327c-6.66699 -6.66699 -13.334 -6.66699 -20.001 0l-6 8l394 354h14v-1388h332z" />
    <glyph glyph-name="two" unicode="2" horiz-adv-x="1160" 
d="M1000 22c6.66699 0 9.99902 -3.33203 9.99902 -9.99902v-12h-876v10c0 3.33301 1 6.16602 3 8.49902s3.66699 4.16602 5 5.49902l504 512l116 123c36.667 40 68.834 80.667 96.501 122s49.5 84 65.5 128s24 91 24 141c0 60.667 -10.333 112.834 -31 156.501
s-48 79.5 -82 107.5s-72.667 48.667 -116 62s-87.666 20 -132.999 20c-52 0 -99.833 -8 -143.5 -24s-82.167 -38.5 -115.5 -67.5s-60.833 -63.5 -82.5 -103.5s-36.5 -84.333 -44.5 -133c-2 -10.667 -7.33301 -16 -16 -16h-10c7.33301 56 22.5 106.5 45.5 151.5
s52.5 83.167 88.5 114.5s77.5 55.5 124.5 72.5s98.167 25.5 153.5 25.5c48 0 95.167 -7 141.5 -21s87.5 -35.833 123.5 -65.5s65.167 -67.5 87.5 -113.5s33.5 -101.333 33.5 -166c0 -53.333 -8.5 -103 -25.5 -149s-39.833 -90 -68.5 -132s-61.834 -83.167 -99.501 -123.5
l-118.5 -123.5l-494 -504c14 1.33301 30.167 2.33301 48.5 3s38.833 1 61.5 1h724z" />
    <glyph glyph-name="three" unicode="3" horiz-adv-x="1160" 
d="M179 1052c7.33301 56 22.5059 106.496 45.5059 151.496s52.5 83.167 88.5 114.5s77.5 55.5 124.5 72.5s98.167 25.5 153.5 25.5c48 0 94.667 -6.66699 140 -20s85.666 -34 120.999 -62s63.666 -64.167 84.999 -108.5s32 -97.5 32 -159.5
c0 -47.333 -9 -90.666 -27 -129.999s-41.667 -73.666 -71 -102.999s-63.166 -53.5 -101.499 -72.5s-77.833 -31.833 -118.5 -38.5c58 -4.66699 109.333 -16.667 154 -36s82 -44.333 112 -75s52.833 -66.5 68.5 -107.5s23.5 -85.5 23.5 -133.5
c0 -51.333 -10.833 -100.333 -32.5 -147s-51.834 -87.667 -90.501 -123s-84.667 -63.5 -138 -84.5s-111.666 -31.5 -174.999 -31.5c-56 0 -105.167 5.66699 -147.5 17s-79 26.166 -110 44.499s-57 39.666 -78 63.999s-38.5 49.5 -52.5 75.5s-25.167 52 -33.5 78
s-15.166 50.333 -20.499 73l4 2c2 1.33301 5.66699 1.83301 11 1.5s9.66602 -5.5 12.999 -15.5c1.33301 -4.66699 4.16602 -15.667 8.49902 -33s11.666 -37.833 21.999 -61.5s24.833 -48.667 43.5 -75s43.167 -50.666 73.5 -72.999s67.166 -40.833 110.499 -55.5
s95.333 -22 156 -22c68.667 0 128.667 11.5 180 34.5s94.166 52.333 128.499 88s60.166 75 77.499 118s26 84.833 26 125.5c0 48 -8.33301 92.667 -25 134s-43 77.333 -79 108s-82 54.834 -138 72.501s-123.333 26.834 -202 27.501v16c61.333 2 117 11.5 167 28.5
s92.5 40.333 127.5 70s62 64.667 81 105s28.5 85.166 28.5 134.499c0 58 -9.83301 107.833 -29.5 149.5s-46 75.834 -79 102.501s-70.833 46.334 -113.5 59.001s-86.667 19 -132 19c-52 0 -100 -8 -144 -24s-82.667 -38.5 -116 -67.5s-61 -63.5 -83 -103.5
s-37 -84.333 -45 -133c-2 -10.667 -6.66699 -16 -14 -16h-10z" />
    <glyph glyph-name="four" unicode="4" horiz-adv-x="1160" 
d="M772 452v870c0 6.66699 0.166992 13 0.5 19s0.833008 12.333 1.5 19l-689 -908h687zM1090 452v-8c0 -8 -5.33301 -12 -16 -12h-280v-432h-22v432h-696c-7.33301 0 -11.833 0.833008 -13.5 2.5s-3.16699 4.16699 -4.5 7.5l-2 8l724 952h14v-950h296z" />
    <glyph glyph-name="five" unicode="5" horiz-adv-x="1160" 
d="M263 823c51.333 13.333 99.498 22.9961 144.498 28.9961s87.5 9 127.5 9c72.667 0 136.5 -10.167 191.5 -30.5s101 -48.666 138 -84.999s64.833 -80 83.5 -131s28 -107.167 28 -168.5c0 -73.333 -12.667 -138.666 -38 -195.999s-59.333 -105.666 -102 -144.999
s-92.167 -69.333 -148.5 -90s-115.5 -31 -177.5 -31c-36 0 -70.667 3 -104 9s-64.5 13.833 -93.5 23.5s-55.5 20.667 -79.5 33s-45 25.166 -63 38.499l6 8c2 4 6 6 12 6c4.66699 0 15 -4.83301 31 -14.5s37.5 -20.5 64.5 -32.5s59.333 -22.833 97 -32.5
s80.834 -14.5 129.501 -14.5c59.333 0 115.666 9.5 168.999 28.5s100 47 140 84s71.833 83 95.5 138s35.5 118.167 35.5 189.5c0 56.667 -8.16699 109 -24.5 157s-41.5 89.5 -75.5 124.5s-77.167 62.333 -129.5 82s-114.166 29.5 -185.499 29.5
c-40 0 -83.167 -3.16699 -129.5 -9.5s-96.166 -16.166 -149.499 -29.499l-18 8l106 590h600v-10c0 -3.33301 -1.33301 -6.16602 -4 -8.49902s-6 -3.5 -10 -3.5h-565z" />
    <glyph glyph-name="six" unicode="6" horiz-adv-x="1160" 
d="M579 4c66 0 125.167 9.99902 177.5 29.999s96.5 47.833 132.5 83.5s63.667 78 83 127s29 102.167 29 159.5c0 60.667 -9.5 115.334 -28.5 164.001s-45.667 90 -80 124s-75.5 60.167 -123.5 78.5s-100.667 27.5 -158 27.5c-68 0 -128.5 -11.833 -181.5 -35.5
s-97.5 -54 -133.5 -91s-63.5 -78.167 -82.5 -123.5s-28.5 -90 -28.5 -134c0 -59.333 9.33301 -114 28 -164s45.167 -93.167 79.5 -129.5s75.833 -64.833 124.5 -85.5s102.667 -31 162 -31zM365 835.999c-36 -50 -66.3291 -94.8281 -90.9961 -134.495
s-44.334 -77.834 -59.001 -114.501c17.333 36 39.666 68.167 66.999 96.5s58.333 52.5 93 72.5s71.834 35.333 111.501 46s80.5 16 122.5 16c63.333 0 120.666 -10.333 171.999 -31s95 -49.334 131 -86.001s63.833 -80.334 83.5 -131.001s29.5 -106 29.5 -166
c0 -62.667 -11 -119.667 -33 -171s-52.833 -95.5 -92.5 -132.5s-86.834 -65.667 -141.501 -86s-114.334 -30.5 -179.001 -30.5c-61.333 0 -117.5 9.83301 -168.5 29.5s-95 48.5 -132 86.5s-65.833 84.667 -86.5 140s-31 118.666 -31 189.999
c0 48.667 14.167 107.667 42.5 177s75.5 149 141.5 239l406 548c2 3.33301 4 5.16602 6 5.49902s4 0.5 6 0.5h20z" />
    <glyph glyph-name="seven" unicode="7" horiz-adv-x="1160" 
d="M1055 1400l0.000976562 -12c0 -4 -1.33301 -8.66699 -4 -14l-696 -1362c-4 -8 -11.333 -12 -22 -12h-12l698 1364c1.33301 2.66699 2.66602 5.16699 3.99902 7.5s3 4.5 5 6.5h-875c-8 0 -12 4 -12 12v10h914z" />
    <glyph glyph-name="eight" unicode="8" horiz-adv-x="1160" 
d="M580 4c60.667 0 116.332 8.33301 166.999 25s94.5 40.334 131.5 71.001s65.833 67.834 86.5 111.501s31 92.5 31 146.5c0 48.667 -6.5 91.334 -19.5 128.001s-30.5 68.5 -52.5 95.5s-47.167 49.333 -75.5 67s-57.833 31.834 -88.5 42.501s-61.667 18.167 -93 22.5
s-60.333 6.5 -87 6.5c-27.333 0 -56.5 -2.16699 -87.5 -6.5s-61.833 -11.833 -92.5 -22.5s-60.167 -24.834 -88.5 -42.501s-53.5 -40 -75.5 -67s-39.5 -58.833 -52.5 -95.5s-19.5 -79.334 -19.5 -128.001c0 -54 10.333 -102.833 31 -146.5s49.5 -80.834 86.5 -111.501
s80.833 -54.334 131.5 -71.001s106.334 -25 167.001 -25zM215.998 1068c0 -42.667 7.50098 -83.667 22.501 -123s37.667 -74.166 68 -104.499s68.166 -54.666 113.499 -72.999s98.666 -27.5 159.999 -27.5c60.667 0 113.834 9.16699 159.501 27.5s83.667 42.666 114 72.999
s53 65.166 68 104.499s22.5 80.333 22.5 123c0 46.667 -8.33301 90.167 -25 130.5s-40.667 75 -72 104s-69.5 51.833 -114.5 68.5s-95.833 25 -152.5 25s-107.5 -8.33301 -152.5 -25s-83.167 -39.5 -114.5 -68.5s-55.333 -63.667 -72 -104s-25 -83.833 -25 -130.5z
M674.999 731c45.333 -7.33301 88.833 -19.666 130.5 -36.999s78.334 -41.166 110.001 -71.499s57 -67.333 76 -111s28.5 -94.834 28.5 -153.501c0 -58 -10.833 -110.167 -32.5 -156.5s-52 -85.5 -91 -117.5s-85.333 -56.667 -139 -74s-112.834 -26 -177.501 -26
s-123.834 8.66699 -177.501 26s-100 42 -139 74s-69.333 71.167 -91 117.5s-32.5 98.5 -32.5 156.5c0 58.667 9.5 109.834 28.5 153.501s44.333 80.667 76 111s68.334 54.166 110.001 71.499s85.167 29.666 130.5 36.999c-46.667 8.66699 -88.167 23.334 -124.5 44.001
s-67 45.667 -92 75s-44 62.5 -57 99.5s-19.5 76.5 -19.5 118.5c0 48 8.83301 93.167 26.5 135.5s43 79.166 76 110.499s73.5 56.166 121.5 74.499s102.667 27.5 164 27.5c60.667 0 115.167 -9.16699 163.5 -27.5s89 -43.166 122 -74.499s58.333 -68.166 76 -110.499
s26.5 -87.5 26.5 -135.5c0 -42 -6.5 -81.5 -19.5 -118.5s-32 -70.167 -57 -99.5s-55.667 -54.333 -92 -75s-77.833 -35.334 -124.5 -44.001z" />
    <glyph glyph-name="nine" unicode="9" horiz-adv-x="1160" 
d="M554 634c64.667 0 122.334 11.3359 173.001 34.0029s93.5 51.667 128.5 87s61.5 74.833 79.5 118.5s27 86.5 27 128.5c0 56.667 -9.5 109.167 -28.5 157.5s-45.333 90 -79 125s-73.5 62.333 -119.5 82s-96.333 29.5 -151 29.5c-59.333 0 -113.833 -9.33301 -163.5 -28
s-92.5 -44.834 -128.5 -78.501s-64 -74.167 -84 -121.5s-30 -99.333 -30 -156c0 -58 9.16699 -110.333 27.5 -157s44 -86.334 77 -119.001s72.667 -57.834 119 -75.501s97.166 -26.5 152.499 -26.5zM790 596.003l87.5029 130.999c25 38 45.5 76.667 61.5 116
c-16.667 -35.333 -38.5 -67 -65.5 -95s-57.167 -52 -90.5 -72s-69.333 -35.333 -108 -46s-78.334 -16 -119.001 -16c-61.333 0 -116.833 10 -166.5 30s-92 47.667 -127 83s-61.833 77.333 -80.5 126s-28 101.667 -28 159c0 58.667 11 112.667 33 162s52.167 92 90.5 128
s83.666 64 135.999 84s109.166 30 170.499 30c57.333 0 110.5 -10.167 159.5 -30.5s91.5 -49.166 127.5 -86.499s64.167 -82.333 84.5 -135s30.5 -111.334 30.5 -176.001c0 -32.667 -4 -64 -12 -94s-19.5 -60.833 -34.5 -92.5s-33.5 -65 -55.5 -100l-76 -115.5l-390 -580
c-2 -3.33301 -4 -5.16602 -6 -5.49902s-4 -0.5 -6 -0.5h-20z" />
    <glyph glyph-name="colon" unicode=":" horiz-adv-x="464" 
d="M167 48c0 18 6.16699 33.5 18.5 46.5s27.5 19.5 45.5 19.5s33.5 -6.5 46.5 -19.5s19.5 -28.5 19.5 -46.5s-6.5 -33.167 -19.5 -45.5s-28.5 -18.5 -46.5 -18.5s-33.167 6.16699 -45.5 18.5s-18.5 27.5 -18.5 45.5zM167 886c0 18 6.16699 33.5 18.5 46.5
s27.5 19.5 45.5 19.5s33.5 -6.5 46.5 -19.5s19.5 -28.5 19.5 -46.5s-6.5 -33.167 -19.5 -45.5s-28.5 -18.5 -46.5 -18.5s-33.167 6.16699 -45.5 18.5s-18.5 27.5 -18.5 45.5z" />
    <glyph glyph-name="semicolon" unicode=";" horiz-adv-x="483" 
d="M182 -235c-2 2 -3.00098 4.33496 -3.00098 7.00195c0 1.33301 1 3.66602 3 6.99902c5.33301 6 13.5 16.167 24.5 30.5s22 31.666 33 51.999s20.833 43.166 29.5 68.499s13.334 52.333 14.001 81c-10.667 -12.667 -26 -19 -46 -19c-16 0 -29.333 5.5 -40 16.5
s-16 25.5 -16 43.5c0 16 5.5 30.333 16.5 43s25.5 19 43.5 19s32.833 -6.66699 44.5 -20s17.5 -32.666 17.5 -57.999c0 -51.333 -11.167 -100.833 -33.5 -148.5s-50.5 -89.5 -84.5 -125.5zM176.999 886.002c0 18 6.16699 33.5 18.5 46.5s27.5 19.5 45.5 19.5
s33.5 -6.5 46.5 -19.5s19.5 -28.5 19.5 -46.5s-6.5 -33.167 -19.5 -45.5s-28.5 -18.5 -46.5 -18.5s-33.167 6.16699 -45.5 18.5s-18.5 27.5 -18.5 45.5z" />
    <glyph glyph-name="less" unicode="&#x3c;" horiz-adv-x="1160" 
d="M253 690c-16 -8.66699 -31.667 -15.333 -47 -20c8 -2 16 -4.83301 24 -8.5s15.667 -7.5 23 -11.5l643 -326c12.667 -6.66699 19 -13.667 19 -21v-11l-730 372v12l730 372v-11c0 -8 -6.33301 -15 -19 -21z" />
    <glyph glyph-name="equal" unicode="=" horiz-adv-x="1160" 
d="M180 540h800v-20h-800v20zM180 834h800v-20h-800v20z" />
    <glyph glyph-name="greater" unicode="&#x3e;" horiz-adv-x="1160" 
d="M975 676v-12.001l-730 -372v11c0 7.33301 6.33301 14.333 19 21l643 326c16 8.66699 31.667 15.334 47 20.001c-8 2 -16 4.83301 -24 8.5s-15.667 7.5 -23 11.5l-643 326c-12.667 6 -19 13 -19 21v11z" />
    <glyph glyph-name="question" unicode="?" horiz-adv-x="838" 
d="M105 1280c16 16.667 34.1689 33.1689 54.502 49.502s43 31 68 44s52.333 23.333 82 31s62.167 11.5 97.5 11.5c40.667 0 80.334 -6.5 119.001 -19.5s72.834 -31.667 102.501 -56s53.5 -54 71.5 -89s27 -74.833 27 -119.5c0 -50 -8.16699 -93.5 -24.5 -130.5
s-36.833 -69.333 -61.5 -97s-51.5 -52.167 -80.5 -73.5l-80.5 -60.5c-24.667 -19 -45.5 -38.167 -62.5 -57.5s-25.833 -41 -26.5 -65l-6 -172h-16v174c0 26 8.16699 49.167 24.5 69.5s37 40.166 62 59.499l80.5 60c28.667 20.667 55.5 44.667 80.5 72
s45.667 58.666 62 93.999s24.5 77.666 24.5 126.999c0 41.333 -8.33301 78.333 -25 111s-38.667 60.334 -66 83.001s-58.833 40 -94.5 52s-72.5 18 -110.5 18c-47.333 0 -88.333 -6.66699 -123 -20s-63.834 -28 -87.501 -44s-41.834 -30.667 -54.501 -44
s-20.334 -20 -23.001 -20s-5.33398 1.33301 -8.00098 4zM313.002 48.002c0 18 6.16699 33.5 18.5 46.5s27.5 19.5 45.5 19.5s33.5 -6.5 46.5 -19.5s19.5 -28.5 19.5 -46.5s-6.5 -33.167 -19.5 -45.5s-28.5 -18.5 -46.5 -18.5s-33.167 6.16699 -45.5 18.5
s-18.5 27.5 -18.5 45.5z" />
    <glyph glyph-name="at" unicode="@" horiz-adv-x="1643" 
d="M1114 866c-10 2.66699 -19.8301 5.1709 -29.4971 7.50391s-19.5 4.33301 -29.5 6s-20.667 2.83398 -32 3.50098s-24.333 1 -39 1c-46 0 -89 -6.33301 -129 -19s-76.5 -29.834 -109.5 -51.501s-62.333 -47.334 -88 -77.001s-47.334 -61.334 -65.001 -95.001
s-31.167 -68.5 -40.5 -104.5s-14 -71.667 -14 -107c0 -29.333 3.83301 -57 11.5 -83s19 -48.667 34 -68s34 -34.666 57 -45.999s50.167 -17 81.5 -17c27.333 0 55.666 4.66699 84.999 14s57.666 26.166 84.999 50.499s52.833 57.666 76.5 99.999s44.167 96.166 61.5 161.499
zM1052 538.004c-18.667 -70.667 -27.3311 -127.498 -25.998 -170.498s9 -76.167 23 -99.5s32.333 -38.833 55 -46.5s46.667 -11.5 72 -11.5c42.667 0 83.667 10.5 123 31.5s74 51.333 104 91s54 88 72 145s27 121.167 27 192.5c0 104.667 -17.5 195.667 -52.5 273
s-82 141.5 -141 192.5s-127 88.833 -204 113.5s-157.833 37 -242.5 37c-62 0 -122.5 -8.16699 -181.5 -24.5s-114.667 -40 -167 -71s-100.333 -68.833 -144 -113.5s-81.334 -94.834 -113.001 -150.501s-56.334 -116.667 -74.001 -183s-26.5 -136.833 -26.5 -211.5
c0 -121.333 19.667 -228.5 59 -321.5s92.5 -171 159.5 -234s145.167 -110.5 234.5 -142.5s183.666 -48 282.999 -48c96.667 0 187.5 11.833 272.5 35.5s165.167 60.5 240.5 110.5c4 3.33301 7.83301 4.5 11.5 3.5s6.16699 -3.16699 7.5 -6.5l6 -11
c-76.667 -51.333 -159.334 -89.833 -248.001 -115.5s-185.334 -38.5 -290.001 -38.5s-203 16.667 -295 50s-172.333 82.5 -241 147.5s-122.834 145.167 -162.501 240.5s-59.5 205.333 -59.5 330c0 113.333 19.333 217.5 58 312.5s91.167 176.667 157.5 245
s143.5 121.5 231.5 159.5s181.667 57 281 57c58 0 114.5 -5.83301 169.5 -17.5s107 -29 156 -52s94.167 -52 135.5 -87s76.833 -76.167 106.5 -123.5s52.834 -100.666 69.501 -159.999s25 -124.666 25 -195.999c0 -73.333 -9.33301 -139.5 -28 -198.5s-44 -109.333 -76 -151
s-69.167 -73.834 -111.5 -96.501s-87.166 -34 -134.499 -34c-34.667 0 -63.667 5.5 -87 16.5s-41.5 26.5 -54.5 46.5s-21.167 44 -24.5 72s-2.66602 59 2.00098 93c-34 -76.667 -76.167 -132.834 -126.5 -168.501s-105.5 -53.5 -165.5 -53.5
c-35.333 0 -65.666 6.16699 -90.999 18.5s-46.5 29 -63.5 50s-29.5 45.667 -37.5 74s-12 58.833 -12 91.5c0 37.333 4.83301 75.166 14.5 113.499s23.834 75 42.501 110s41.667 67.833 69 98.5s58.333 57.167 93 79.5s73 40 115 53s87.333 19.5 136 19.5
c27.333 0 55.166 -2.5 83.499 -7.5s52.5 -12.5 72.5 -22.5z" />
    <glyph glyph-name="A" unicode="A" horiz-adv-x="1274" 
d="M998 498l-345.002 828c-3.33301 7.33301 -6.16602 14.333 -8.49902 21l-7.5 21l-7.5 -21c-2.33301 -6.66699 -5.16602 -13.667 -8.49902 -21l-345 -828h722zM1231 0h-18c-6 -0 -10 3.33301 -12 10l-195 468h-738l-195 -468c-2 -6.66699 -6.66699 -10 -14 -10h-16
l584 1400h20z" />
    <glyph glyph-name="B" unicode="B" horiz-adv-x="1239" 
d="M650 20c67.333 0 127.667 7.33301 181 22s98.5 36.5 135.5 65.5s65.167 65.333 84.5 109s29 94.167 29 151.5c0 50.667 -10.167 96.5 -30.5 137.5s-49 76 -86 105s-82 51.167 -135 66.5s-111.833 23 -176.5 23h-396v-680h394zM256.001 1380l-0.000976562 -660h350
c74.667 0 138 10.333 190 31s94.333 47.167 127 79.5s56.334 68 71.001 107s22 77.167 22 114.5c0 104 -34.5 184.667 -103.5 242s-174.5 86 -316.5 86h-340zM596 1400c148.667 0 259.498 -29.8281 332.498 -89.4951s109.5 -145.834 109.5 -258.501
c0 -41.333 -8.16699 -81.333 -24.5 -120s-38.833 -73.334 -67.5 -104.001s-62.667 -56.167 -102 -76.5s-82 -32.833 -128 -37.5c60 -4 113.833 -14.833 161.5 -32.5s88.334 -41.334 122.001 -71.001s59.5 -64.834 77.5 -105.501s27 -86.334 27 -137.001
c0 -59.333 -10.167 -112 -30.5 -158s-50 -84.5 -89 -115.5s-86.667 -54.5 -143 -70.5s-120.166 -24 -191.499 -24h-418v1400h364z" />
    <glyph glyph-name="C" unicode="C" horiz-adv-x="1366" 
d="M1266 189c2.66699 0 4.99902 -0.999023 6.99902 -2.99902l9 -8c-29.333 -28.667 -60.833 -54.834 -94.5 -78.501s-70.5 -44 -110.5 -61s-84 -30.333 -132 -40s-101 -14.5 -159 -14.5c-94 0 -180.667 16.5 -260 49.5s-148 80.5 -206 142.5s-103.167 137.167 -135.5 225.5
s-48.5 187.833 -48.5 298.5c0 106.667 16.167 204 48.5 292s78 163.5 137 226.5s129.667 111.667 212 146s173.166 51.5 272.499 51.5c46 0 89.333 -3.5 130 -10.5s79.167 -17.5 115.5 -31.5s71.166 -31.167 104.499 -51.5s66 -43.833 98 -70.5l-4 -6
c-1.33301 -2.66699 -4.66602 -4 -9.99902 -4c-4.66699 0 -16.5 8 -35.5 24s-46.167 33.667 -81.5 53s-79.166 37 -131.499 53s-114.166 24 -185.499 24c-94.667 0 -181.5 -16.167 -260.5 -48.5s-147 -78.666 -204 -138.999s-101.5 -133.5 -133.5 -219.5
s-48 -182.333 -48 -289c0 -108.667 15.833 -206 47.5 -292s75.5 -159 131.5 -219s122.167 -105.833 198.5 -137.5s159.166 -47.5 248.499 -47.5c56.667 0 107.334 4 152.001 12s85.5 19.667 122.5 35s71.333 34.166 103 56.499s63.167 47.833 94.5 76.5
c3.33301 3.33301 6 5 8 5z" />
    <glyph glyph-name="D" unicode="D" horiz-adv-x="1519" 
d="M1380 700c0 -110.667 -15.833 -209.332 -47.5 -295.999s-76 -160 -133 -220s-125.167 -105.667 -204.5 -137s-167 -47 -263 -47h-500v1400h500c96 0 183.667 -15.667 263 -47s147.5 -77 204.5 -137s101.333 -133.333 133 -220s47.5 -185.334 47.5 -296.001zM1354 700.002
c0 108.667 -15.167 205.167 -45.5 289.5s-72.833 155.5 -127.5 213.5s-120.167 102 -196.5 132s-160.5 45 -252.5 45h-476v-1360h476c92 0 176.167 15 252.5 45s141.833 74 196.5 132s97.167 129.167 127.5 213.5s45.5 180.833 45.5 289.5z" />
    <glyph glyph-name="E" unicode="E" horiz-adv-x="1165" 
d="M1052 22l-2 -22h-818v1400h818v-22h-794v-656h674v-22h-674v-678h796z" />
    <glyph glyph-name="F" unicode="F" horiz-adv-x="1128" 
d="M256 1378v-676h694v-22h-694v-680h-24v1400h818v-22h-794z" />
    <glyph glyph-name="G" unicode="G" horiz-adv-x="1479" 
d="M1333 602l-0.00390625 -464.002c-34.667 -23.333 -70.334 -44.5 -107.001 -63.5s-75.167 -35.167 -115.5 -48.5s-83 -23.666 -128 -30.999s-92.833 -11 -143.5 -11c-109.333 0 -207.333 16.5 -294 49.5s-160.167 80.5 -220.5 142.5s-106.666 137.167 -138.999 225.5
s-48.5 187.833 -48.5 298.5c0 110 16 209.167 48 297.5s78 163.5 138 225.5s132.5 109.667 217.5 143s180.5 50 286.5 50c52 0 99.667 -3.16699 143 -9.5s83.666 -16 120.999 -29s72.5 -29.667 105.5 -50s65.167 -44.166 96.5 -71.499l-4 -6c-2 -4 -5.33301 -6 -10 -6
c-3.33301 0 -9.16602 3.83301 -17.499 11.5s-20.166 17 -35.499 28s-34.666 23.167 -57.999 36.5s-51.333 25.5 -84 36.5s-70.167 20.333 -112.5 28s-90.5 11.5 -144.5 11.5c-101.333 0 -193 -15.833 -275 -47.5s-152 -77.5 -210 -137.5s-102.667 -133 -134 -219
s-47 -183.333 -47 -292c0 -107.333 15.333 -204 46 -290s75.167 -159 133.5 -219s129.5 -106.167 213.5 -138.5s179 -48.5 285 -48.5c49.333 0 94.833 3.16699 136.5 9.5s81.334 15.666 119.001 27.999s74.167 27.333 109.5 45s71 37.834 107 60.501v435h-314
c-3.33301 0 -6.16602 1.16699 -8.49902 3.5s-3.5 4.5 -3.5 6.5v10h348z" />
    <glyph glyph-name="H" unicode="H" horiz-adv-x="1496" 
d="M1264 1400v-1400h-24v700h-984v-700h-24v1400h24v-678h984v678h24z" />
    <glyph glyph-name="I" unicode="I" horiz-adv-x="488" 
d="M256 0h-24v1400h24v-1400z" />
    <glyph glyph-name="J" unicode="J" horiz-adv-x="815" 
d="M598 452c0 -78.667 -9.66699 -147.167 -29 -205.5s-46.5 -107 -81.5 -146s-77 -68.167 -126 -87.5s-102.833 -29 -161.5 -29c-54.667 0 -112 10 -172 30c0 1.33301 0.333008 2.33301 1 3s1 1.66699 1 3c1.33301 2 2.33301 4.16699 3 6.5s3.66699 3.5 9 3.5
c6.66699 0 14.334 -1.33301 23.001 -4s19.167 -5.66699 31.5 -9s26.833 -6.33301 43.5 -9s36.667 -4 60 -4c56.667 0 108.167 9.33301 154.5 28s85.666 46.667 117.999 84s57.333 84 75 140s26.5 121.333 26.5 196v948h24v-948z" />
    <glyph glyph-name="K" unicode="K" horiz-adv-x="1222" 
d="M256 724l94 0.00195312c12.667 0 23.5 0.333008 32.5 1s17 2.16699 24 4.5s13.833 5.83301 20.5 10.5s13.667 10.667 21 18l652 626c7.33301 6 13.333 10.167 18 12.5s10.667 3.5 18 3.5h12l-680 -652c-12 -10.667 -21.833 -18.334 -29.5 -23.001
s-17.834 -8.33398 -30.501 -11.001c12 -2 22.333 -5.5 31 -10.5s17.667 -12.167 27 -21.5l722 -682h-10c-10 0 -17.167 1 -21.5 3s-9.16602 5.66699 -14.499 11l-688 650l-20 18c-6 5.33301 -12.5 9.5 -19.5 12.5s-15.5 5.33301 -25.5 7s-23 2.5 -39 2.5h-94v-704h-24v1400
h24v-676z" />
    <glyph glyph-name="L" unicode="L" horiz-adv-x="1000" 
d="M970 22v-22h-738v1400h24v-1378h714z" />
    <glyph glyph-name="M" unicode="M" horiz-adv-x="1782" 
d="M1550 1400v-1400h-20v1338v9.5c0 3 0.333008 6.16699 1 9.5l-613 -1067c-4.66699 -6.66699 -9.33398 -10 -14.001 -10h-6c-4.66699 0 -9.33398 3.33301 -14.001 10l-633 1068c0.666992 -3.33301 1 -6.66602 1 -9.99902v-10v-1338h-20v1400h8c6 0 10.667 -2.66699 14 -8
l636 -1071c2.66699 -4 4.83398 -7.66699 6.50098 -11s3.16699 -6.66602 4.5 -9.99902c1.33301 3.33301 2.83301 6.66602 4.5 9.99902s3.83398 7 6.50098 11l616 1071c3.33301 5.33301 8 8 14 8h8z" />
    <glyph glyph-name="N" unicode="N" horiz-adv-x="1496" 
d="M1264 1400v-1400h-6c-4 -0 -7.66699 2.33301 -11 7l-996 1356c0.666992 -4.66699 1 -9 1 -13v-12v-1338h-20v1400h8c6 0 10.667 -2.66699 14 -8l991 -1349c-0.666992 3.33301 -1 6.83301 -1 10.5v10.5v1336h20z" />
    <glyph glyph-name="O" unicode="O" horiz-adv-x="1568" 
d="M1431 700c0 -110.667 -15.833 -210 -47.5 -298s-76 -162.833 -133 -224.5s-125.167 -109 -204.5 -142s-167 -49.5 -263 -49.5c-95.333 0 -182.5 16.5 -261.5 49.5s-147 80.333 -204 142s-101.333 136.5 -133 224.5s-47.5 187.333 -47.5 298
c0 110 15.833 209.167 47.5 297.5s76 163.5 133 225.5s125 109.667 204 143s166.167 50 261.5 50c96 0 183.667 -16.5 263 -49.5s147.5 -80.5 204.5 -142.5s101.333 -137.167 133 -225.5s47.5 -187.833 47.5 -298.5zM1405 700c0 108.667 -15.167 206 -45.5 292
s-72.833 159 -127.5 219s-120.167 105.833 -196.5 137.5s-160.5 47.5 -252.5 47.5c-90.667 0 -174 -15.833 -250 -47.5s-141.5 -77.5 -196.5 -137.5s-98 -133 -129 -219s-46.5 -183.333 -46.5 -292s15.5 -205.834 46.5 -291.501s74 -158.334 129 -218.001
s120.5 -105.334 196.5 -137.001s159.333 -47.5 250 -47.5c92 0 176.167 15.833 252.5 47.5s141.833 77.334 196.5 137.001s97.167 132.334 127.5 218.001s45.5 182.834 45.5 291.501z" />
    <glyph glyph-name="P" unicode="P" horiz-adv-x="1118" 
d="M548 620c68.667 0 130.667 9.83301 186 29.5s102.5 46.667 141.5 81s69.167 74.5 90.5 120.5s32 95.667 32 149c0 124.667 -37.5 219.167 -112.5 283.5s-187.5 96.5 -337.5 96.5h-292v-760h292zM548 1400c152.667 0 269.833 -33 351.5 -99s122.5 -166.333 122.5 -301
c0 -58 -11.5 -111.5 -34.5 -160.5s-55.5 -91.167 -97.5 -126.5s-92 -63 -150 -83s-122 -30 -192 -30h-292v-600h-24v1400h316z" />
    <glyph glyph-name="Q" unicode="Q" horiz-adv-x="1568" 
d="M161 700c0 -108.667 15.5 -205.834 46.5 -291.501s74 -158.334 129 -218.001s120.5 -105.334 196.5 -137.001s159.333 -47.5 250 -47.5c92 0 176.167 15.833 252.5 47.5s141.833 77.334 196.5 137.001s97.167 132.334 127.5 218.001s45.5 182.834 45.5 291.501
s-15.167 206 -45.5 292s-72.833 159 -127.5 219s-120.167 105.833 -196.5 137.5s-160.5 47.5 -252.5 47.5c-90.667 0 -174 -15.833 -250 -47.5s-141.5 -77.5 -196.5 -137.5s-98 -133 -129 -219s-46.5 -183.333 -46.5 -292zM1481 -326l-21.998 0.00195312
c-5.33301 0 -9.5 0.833008 -12.5 2.5s-5.5 3.5 -7.5 5.5l-350 373c-44.667 -22.667 -92.5 -39.834 -143.5 -51.501s-105.167 -17.5 -162.5 -17.5c-95.333 0 -182.5 16.5 -261.5 49.5s-147 80.333 -204 142s-101.333 136.5 -133 224.5s-47.5 187.333 -47.5 298
c0 110 15.833 209.167 47.5 297.5s76 163.5 133 225.5s125 109.667 204 143s166.167 50 261.5 50c96 0 183.667 -16.5 263 -49.5s147.5 -80.5 204.5 -142.5s101.333 -137.167 133 -225.5s47.5 -187.833 47.5 -298.5c0 -75.333 -7.33301 -145.333 -22 -210
s-35.834 -123.834 -63.501 -177.501s-61.334 -101.167 -101.001 -142.5s-84.5 -76 -134.5 -104z" />
    <glyph glyph-name="R" unicode="R" horiz-adv-x="1181" 
d="M256 696l282 0.000976562c68.667 0 130.5 8.16699 185.5 24.5s102 39.666 141 69.999s69 67.333 90 111s31.5 93.167 31.5 148.5c0 114 -37 197.5 -111 250.5s-180.333 79.5 -319 79.5h-300v-684zM1136 0.000976562h-16.001c-5.33301 0 -9.66602 0.5 -12.999 1.5
s-7.66602 4.5 -12.999 10.5l-524 628c-5.33301 6.66699 -10.833 12.334 -16.5 17.001s-12 8.5 -19 11.5s-15.333 5 -25 6s-21.5 1.5 -35.5 1.5h-218v-676h-24v1400h324c146 0 258.167 -28.333 336.5 -85s117.5 -145 117.5 -265c0 -56.667 -11 -107.834 -33 -153.501
s-53 -84.5 -93 -116.5s-87.833 -57 -143.5 -75s-117.167 -27.667 -184.5 -29c6.66699 -2.66699 12.667 -6.16699 18 -10.5s10.666 -9.5 15.999 -15.5z" />
    <glyph glyph-name="S" unicode="S" horiz-adv-x="1058" 
d="M880 1272c-2 -4 -5.33301 -5.99805 -10 -5.99805s-10.334 3.16699 -17.001 9.5l-26 24c-10.667 9.66699 -23.834 20.167 -39.501 31.5s-34.5 21.833 -56.5 31.5s-47.333 17.667 -76 24s-61.667 9.5 -99 9.5c-57.333 0 -108.166 -8.83301 -152.499 -26.5
s-81.5 -41.167 -111.5 -70.5s-52.833 -63.333 -68.5 -102s-23.5 -79 -23.5 -121c0 -54 10.5 -99 31.5 -135s48.5 -66.333 82.5 -91s73 -45.167 117 -61.5s88.667 -32 134 -47s90 -30.833 134 -47.5s83 -37.834 117 -63.501s61.5 -57.334 82.5 -95.001
s31.5 -84.834 31.5 -141.501c0 -57.333 -9.66699 -110.833 -29 -160.5s-47.333 -93 -84 -130s-81.667 -66.167 -135 -87.5s-114 -32 -182 -32c-47.333 0 -89.666 4.16699 -126.999 12.5s-71.5 20.333 -102.5 36s-59.5 34.667 -85.5 57s-51 47.833 -75 76.5l4 4
c2 2 3.66699 3.5 5 4.5s3.66602 1.5 6.99902 1.5c4 0 9.83301 -4.16699 17.5 -12.5s18.167 -19 31.5 -32s29.333 -26.833 48 -41.5s41.334 -28.5 68.001 -41.5s57.167 -23.667 91.5 -32s73.5 -12.5 117.5 -12.5c64.667 0 122.167 10.333 172.5 31s93 48.5 128 83.5
s61.667 75.833 80 122.5s27.5 96.334 27.5 149.001c0 44 -6.83301 82 -20.5 114s-32.167 59.5 -55.5 82.5s-50.5 42.667 -81.5 59s-64.167 31 -99.5 44s-71.333 25 -108 36s-72.667 23.167 -108 36.5s-68.5 28.5 -99.5 45.5s-58.167 37.667 -81.5 62
s-41.833 53.333 -55.5 87s-20.5 73.5 -20.5 119.5c0 44.667 8.33301 87.5 25 128.5s41 77.167 73 108.5s71.5 56.333 118.5 75s100.833 28 161.5 28c68 0 128.167 -11 180.5 -33s101.5 -57 147.5 -105z" />
    <glyph glyph-name="T" unicode="T" horiz-adv-x="1138" 
d="M1109 1378h-526v-1378h-24v1378h-530v22h1080v-22z" />
    <glyph glyph-name="U" unicode="U" horiz-adv-x="1440" 
d="M720 4c75.333 0 142.833 13.499 202.5 40.499s110.167 63.833 151.5 110.5s73 101.334 95 164.001s33 129.667 33 201v880h24v-880c0 -74 -11.667 -143.667 -35 -209s-57 -122.333 -101 -171s-97.167 -87.167 -159.5 -115.5s-132.5 -42.5 -210.5 -42.5
s-148.167 14.167 -210.5 42.5s-115.5 66.833 -159.5 115.5s-77.667 105.667 -101 171s-35 135 -35 209v880h24v-878c0 -71.333 11 -138.5 33 -201.5s53.667 -118 95 -165s91.833 -84 151.5 -111s127.167 -40.5 202.5 -40.5z" />
    <glyph glyph-name="V" unicode="V" horiz-adv-x="1274" 
d="M1231 1400l-583.998 -1400h-20l-584 1400h18c6 0 10 -3.33301 12 -10l548 -1316c3.33301 -7.33301 6.16602 -14.333 8.49902 -21l7.5 -21l7.5 21c2.33301 6.66699 5.16602 13.667 8.49902 21l548 1316c2 6.66699 6.66699 10 14 10h16z" />
    <glyph glyph-name="W" unicode="W" horiz-adv-x="2002" 
d="M1940 1400l-444 -1400h-20l-466 1344c-2 6.66699 -3.66699 12.5 -5 17.5l-4 14.5c-2 -8.66699 -5 -19.334 -9 -32.001l-466 -1344h-20l-444 1400h18c6 0 10 -3.33301 12 -10l409 -1307l15 -54c4.66699 20 9.66699 38 15 54l455 1307c2 6.66699 6.66699 10 14 10h4
c6 0 10 -3.33301 12 -10l455 -1307l15 -54c4.66699 20 9.66699 38 15 54l409 1307c2 6.66699 6.66699 10 14 10h16z" />
    <glyph glyph-name="X" unicode="X" horiz-adv-x="1201" 
d="M1142 0h-22c-5.33301 -0 -9.16602 1.83301 -11.499 5.5s-4.5 6.5 -6.5 8.5l-501 692c-1.33301 -2 -2.5 -4 -3.5 -6s-2.83301 -4.66699 -5.5 -8l-494 -678c-3.33301 -3.33301 -6.16602 -6.5 -8.49902 -9.5s-5.5 -4.5 -9.5 -4.5h-22l527 717l-503 683h22
c5.33301 0 9.16602 -1.83301 11.499 -5.5s4.5 -6.5 6.5 -8.5l479 -657c1.33301 2.66699 2.66602 5 3.99902 7s3 4.66699 5 8l468 642c2 3.33301 4.5 6.5 7.5 9.5s6.5 4.5 10.5 4.5h22l-501 -681z" />
    <glyph glyph-name="Y" unicode="Y" horiz-adv-x="1140" 
d="M582 595l0.00195312 -594.999h-24v595l-522 805h20c6 0 10.667 -2.66699 14 -8l471 -730c5.33301 -8.66699 10.666 -16.834 15.999 -24.501s9.66602 -15.5 12.999 -23.5c4 8 8.5 15.833 13.5 23.5l15.5 24.5l471 730c3.33301 5.33301 8 8 14 8h20z" />
    <glyph glyph-name="Z" unicode="Z" horiz-adv-x="1188" 
d="M1099 1396c0 -6 -2.66699 -12.666 -8 -19.999l-974 -1354h980v-22h-1014v4c0 4 0.5 7.16699 1.5 9.5s2.5 5.16602 4.5 8.49902l976 1356h-966v22h1000v-4z" />
    <glyph glyph-name="bracketleft" unicode="[" horiz-adv-x="578" 
d="M242 1484v-1708h238c9.33301 0 14 -4 14 -12v-6h-274v1744h274v-6c0 -8 -4.66699 -12 -14 -12h-238z" />
    <glyph glyph-name="backslash" unicode="\" horiz-adv-x="840" 
d="M85 1440l10 0.000976562c9.33301 0 16 -4 20 -12l640 -1506h-8c-4 0 -8.16699 0.666992 -12.5 2s-7.5 4.66602 -9.5 9.99902z" />
    <glyph glyph-name="bracketright" unicode="]" horiz-adv-x="578" 
d="M358 -242h-274v6c0 8 4.66699 12 14 12h238v1708h-238c-9.33301 0 -14 4 -14 12v6h274v-1744z" />
    <glyph glyph-name="asciicircum" unicode="^" horiz-adv-x="1160" 
d="M952 732h-14.001c-8.66699 0 -15.334 4.66699 -20.001 14l-320 586l-10 19.5c-3.33301 6.33301 -6 13.166 -8 20.499c-2 -7.33301 -4.66699 -14.166 -8 -20.499l-10 -19.5l-320 -586c-1.33301 -3.33301 -3.66602 -6.5 -6.99902 -9.5s-7.66602 -4.5 -12.999 -4.5h-14
l366 668h12z" />
    <glyph glyph-name="underscore" unicode="_" horiz-adv-x="886" 
d="M837 -240v-22h-788v22h788z" />
    <glyph glyph-name="grave" unicode="`" 
d="M274 1416c11.333 0 19.666 -1.33301 24.999 -4s11 -8.66699 17 -18l164 -236h-14c-7.33301 0 -12.666 2.66699 -15.999 8l-202 250h26z" />
    <glyph glyph-name="a" unicode="a" horiz-adv-x="946" 
d="M748 502c-210 -6.66699 -366.166 -32.835 -468.499 -78.502s-153.5 -110.167 -153.5 -193.5c0 -39.333 6.5 -73.166 19.5 -101.499s30.167 -51.666 51.5 -69.999s45.666 -32 72.999 -41s55.333 -13.5 84 -13.5c46 0 87.667 5.33301 125 16s71.833 25 103.5 43
s61 38.833 88 62.5s52.833 48.5 77.5 74.5v302zM154.001 839.999c48 50.667 97.666 89.3359 148.999 116.003s111 40 179 40c50 0 93.167 -8 129.5 -24s66.5 -39 90.5 -69s41.667 -66.5 53 -109.5s17 -91.5 17 -145.5v-648h-4c-9.33301 0 -14 5.33301 -14 16l-6 160
c-28 -29.333 -56 -55.833 -84 -79.5s-57.667 -43.834 -89 -60.501s-65 -29.5 -101 -38.5s-76 -13.5 -120 -13.5c-29.333 0 -59 4.5 -89 13.5s-57 23.333 -81 43s-43.667 45 -59 76s-23 68.833 -23 113.5c0 44 13 83.5 39 118.5s65.5 64.833 118.5 89.5s120 44.167 201 58.5
s176.833 22.833 287.5 25.5v126c0 51.333 -5.66699 97.333 -17 138s-28 75 -50 103s-49.667 49.5 -83 64.5s-72 22.5 -116 22.5c-34.667 0 -66 -3.66699 -94 -11s-53 -16.333 -75 -27s-41.167 -22.334 -57.5 -35.001s-30.5 -24.334 -42.5 -35.001s-21.667 -19.667 -29 -27
s-12.666 -11 -15.999 -11c-2.66699 0 -6 2 -10 6z" />
    <glyph glyph-name="b" unicode="b" horiz-adv-x="1087" 
d="M208 195c42.667 -68.667 90.668 -117 144.001 -145s114 -42 182 -42c69.333 0 129.5 12.5 180.5 37.5s93.167 60 126.5 105s58.166 98.5 74.499 160.5s24.5 130.333 24.5 205c0 150 -31.167 264.167 -93.5 342.5s-149.833 117.5 -262.5 117.5
c-41.333 0 -80 -5.33301 -116 -16s-69.5 -25.834 -100.5 -45.501s-59.833 -43.667 -86.5 -72s-51 -60.166 -73 -95.499v-552zM208.001 779c43.333 66.667 95.833 119.497 157.5 158.497s134.5 58.5 218.5 58.5c60 0 113.667 -10.5 161 -31.5s87.166 -51.833 119.499 -92.5
s57 -90.667 74 -150s25.5 -127.333 25.5 -204c0 -79.333 -9.33301 -151.666 -28 -216.999s-46 -121.166 -82 -167.499s-80.667 -82.166 -134 -107.499s-115 -38 -185 -38c-72.667 0 -136 14.333 -190 43s-99.667 73 -137 133l-4 -150c0 -3.33301 -0.666992 -6.5 -2 -9.5
s-4.66602 -4.5 -9.99902 -4.5h-8v1440h24v-661z" />
    <glyph glyph-name="c" unicode="c" horiz-adv-x="933" 
d="M822 888c-2.66699 -2.66699 -5.33105 -4 -7.99805 -4c-4 0 -11.5 4.83301 -22.5 14.5s-27 20.167 -48 31.5s-47.333 21.833 -79 31.5s-69.834 14.5 -114.501 14.5c-63.333 0 -120 -11.333 -170 -34s-92.333 -55 -127 -97s-61.167 -93 -79.5 -153
s-27.5 -127.333 -27.5 -202c0 -77.333 9.16699 -145.833 27.5 -205.5s44.5 -110 78.5 -151s74.833 -72.167 122.5 -93.5s100.834 -32 159.501 -32c52 0 96 6 132 18s65.667 25.333 89 40s41 28 53 40s20 18 24 18c2.66699 0 5.33398 -1.33301 8.00098 -4l4 -4
c-10 -14.667 -24.667 -29.5 -44 -44.5s-42.333 -28.667 -69 -41s-56.667 -22.5 -90 -30.5s-69 -12 -107 -12c-63.333 0 -120.333 11.333 -171 34s-93.834 55.5 -129.501 98.5s-63.167 95.5 -82.5 157.5s-29 132.667 -29 212c0 76 9.66699 145.167 29 207.5
s47.333 115.5 84 159.5s81.5 78.167 134.5 102.5s113.167 36.5 180.5 36.5c59.333 0 112.166 -9.5 158.499 -28.5s86.166 -43.5 119.499 -73.5z" />
    <glyph glyph-name="d" unicode="d" horiz-adv-x="1087" 
d="M879 789c-21.333 34 -43.8281 63 -67.4951 87s-48.834 43.333 -75.501 58s-55.167 25.334 -85.5 32.001s-62.833 10 -97.5 10c-68.667 0 -128.334 -12.5 -179.001 -37.5s-92.834 -59.5 -126.501 -103.5s-58.834 -95.667 -75.501 -155s-25 -123.333 -25 -192
c0 -162.667 31.167 -283.334 93.5 -362.001s153.833 -118 274.5 -118c72.667 0 140.167 20.333 202.5 61s116.166 96.667 161.499 168v552zM903.005 1440v-1440h-6c-9.33301 -0 -14 5.33301 -14 16l-4 190c-44 -67.333 -97.167 -120.5 -159.5 -159.5
s-130.5 -58.5 -204.5 -58.5c-127.333 0 -224.5 40.833 -291.5 122.5s-100.5 207.5 -100.5 377.5c0 70.667 9 137 27 199s45 115.833 81 161.5s80.833 81.667 134.5 108s116.167 39.5 187.5 39.5c144 0 252.667 -58.333 326 -175v619h24z" />
    <glyph glyph-name="e" unicode="e" horiz-adv-x="1031" 
d="M900 582c0 63.333 -8.99805 119.501 -26.998 168.501s-42.833 90.167 -74.5 123.5s-68.834 58.666 -111.501 75.999s-88.334 26 -137.001 26c-58.667 0 -111.5 -9.33301 -158.5 -28s-87.5 -45.334 -121.5 -80.001s-61.167 -76.167 -81.5 -124.5
s-33.5 -102.166 -39.5 -161.499h751zM894.002 116.001c-11.333 -14 -28.1689 -28.5059 -50.502 -43.5059s-48.666 -28.833 -78.999 -41.5s-63.5 -23 -99.5 -31s-73 -12 -111 -12c-67.333 0 -127.666 11.833 -180.999 35.5s-98.5 57.834 -135.5 102.501
s-65.5 99.334 -85.5 164.001s-30 138 -30 220c0 72 9.66699 137.833 29 197.5s47.333 110.834 84 153.501s81.5 75.834 134.5 99.501s113.167 35.5 180.5 35.5c51.333 0 99.666 -9.16699 144.999 -27.5s84.833 -45.5 118.5 -81.5s60.167 -80.167 79.5 -132.5
s29 -112.5 29 -180.5c0 -3.33301 -1.16699 -5.83301 -3.5 -7.5s-5.16602 -2.5 -8.49902 -2.5h-762c-0.666992 -9.33301 -1.16699 -18.333 -1.5 -27s-0.5 -17.667 -0.5 -27c0 -81.333 9.66699 -153.166 29 -215.499s46.833 -114.666 82.5 -156.999s78.667 -74.5 129 -96.5
s106.166 -33 167.499 -33c54.667 0 102 6 142 18s73.333 25.333 100 40s47 28 61 40s22.333 18 25 18s5.33398 -1.33301 8.00098 -4z" />
    <glyph glyph-name="f" unicode="f" horiz-adv-x="664" 
d="M237 0l0.00292969 918l-164 4c-8 0 -12 2.66699 -12 8v8h176v150c0 56 6.66699 104.5 20 145.5s31.666 74.833 54.999 101.5s51.333 46.5 84 59.5s68.667 19.5 108 19.5c19.333 0 39.333 -1.83301 60 -5.5s38 -9.16699 52 -16.5l-2 -8
c-1.33301 -4.66699 -4 -6.66699 -8 -6s-10.167 2.16699 -18.5 4.5s-19.333 4.83301 -33 7.5s-30.5 4 -50.5 4c-34.667 0 -66.834 -5.5 -96.501 -16.5s-55.334 -28.667 -77.001 -53s-38.667 -56 -51 -95s-18.5 -86.167 -18.5 -141.5v-150h349v-20h-349v-918h-24z" />
    <glyph glyph-name="g" unicode="g" horiz-adv-x="1004" 
d="M794 684c0 43.333 -7.16699 83 -21.5 119s-34.833 66.833 -61.5 92.5s-59 45.5 -97 59.5s-80.667 21 -128 21s-90 -7 -128 -21s-70.333 -33.833 -97 -59.5s-47.167 -56.5 -61.5 -92.5s-21.5 -75.667 -21.5 -119s7.16699 -83 21.5 -119s34.833 -66.833 61.5 -92.5
s59 -45.5 97 -59.5s80.667 -21 128 -21c48.667 0 92 7 130 21s70.167 33.833 96.5 59.5s46.5 56.5 60.5 92.5s21 75.667 21 119zM902 -78c0 37.333 -9.16602 67.167 -27.499 89.5s-42.833 39.666 -73.5 51.999s-65.667 20.833 -105 25.5s-80.333 8.16699 -123 10.5
s-85 4.5 -127 6.5s-80.667 6.33301 -116 13c-31.333 -11.333 -60.333 -24.333 -87 -39s-49.5 -31.667 -68.5 -51s-33.833 -40.666 -44.5 -63.999s-16 -49 -16 -77c0 -34 9 -65.833 27 -95.5s43.5 -55.5 76.5 -77.5s73.167 -39.333 120.5 -52s100.666 -19 159.999 -19
c52.667 0 103.334 6.83301 152.001 20.5s91.667 32.667 129 57s67.166 53.5 89.499 87.5s33.5 71.667 33.5 113zM938.001 932.001l0.00292969 -3.99316c0 -4 -1.66699 -7.33301 -5 -10s-7 -4 -11 -4l-196 -4c30 -28 52.833 -61 68.5 -99s23.5 -80.333 23.5 -127
s-7.83301 -89.167 -23.5 -127.5s-38 -71.166 -67 -98.499s-63.833 -48.5 -104.5 -63.5s-86.334 -22.5 -137.001 -22.5c-33.333 0 -64.166 3.16699 -92.499 9.5s-54.833 15.5 -79.5 27.5c-33.333 -18.667 -60.666 -42 -81.999 -70s-32 -55 -32 -81
c0 -33.333 10.333 -58.833 31 -76.5s48 -30.834 82 -39.501s72.667 -14.167 116 -16.5s87.666 -4.5 132.999 -6.5s89.666 -5.33301 132.999 -10s82 -13.834 116 -27.501s61.333 -33 82 -58s31 -58.833 31 -101.5c0 -39.333 -10.167 -76.833 -30.5 -112.5
s-49 -67.334 -86 -95.001s-81.667 -49.667 -134 -66s-110.833 -24.5 -175.5 -24.5c-66 0 -124.333 7 -175 21s-93.334 33 -128.001 57s-60.834 52 -78.501 84s-26.5 66 -26.5 102c0 27.333 5 53.166 15 77.499s24.167 46.5 42.5 66.5s40.5 38 66.5 54s55 29.333 87 40
c-36.667 9.33301 -66.334 24.166 -89.001 44.499s-34 49.5 -34 87.5c0 13.333 2.83301 27.333 8.5 42s13.5 29.167 23.5 43.5s22.167 28 36.5 41s30.5 24.5 48.5 34.5c-45.333 26.667 -80.166 62.667 -104.499 108s-36.5 97.666 -36.5 156.999c0 46 7.66699 88.167 23 126.5
s37.5 71.166 66.5 98.499s63.833 48.666 104.5 63.999s86.667 23 138 23c43.333 0 82.833 -5.5 118.5 -16.5s67.5 -26.833 95.5 -47.5h238z" />
    <glyph glyph-name="h" unicode="h" horiz-adv-x="1087" 
d="M208 776c22.667 33.333 48.1689 63.667 76.502 91s58.833 50.5 91.5 69.5s67 33.667 103 44s73 15.5 111 15.5c108.667 0 189.834 -32.333 243.501 -97s80.5 -155 80.5 -271v-628h-24v628c0 54.667 -6 103.5 -18 146.5s-30.5 79.5 -55.5 109.5s-56.333 52.833 -94 68.5
s-81.834 23.5 -132.501 23.5c-76.667 0 -147.334 -20.333 -212.001 -61s-121.334 -97 -170.001 -169v-746h-24v1440h24v-664z" />
    <glyph glyph-name="i" unicode="i" horiz-adv-x="416" 
d="M220 980v-980h-24v980h24zM264 1344c0 -14 -5.83301 -26.5 -17.5 -37.5s-24.5 -16.5 -38.5 -16.5c-15.333 0 -28.5 5.5 -39.5 16.5s-16.5 23.5 -16.5 37.5c0 15.333 5.5 28.5 16.5 39.5s24.167 16.5 39.5 16.5c14 0 26.833 -5.5 38.5 -16.5s17.5 -24.167 17.5 -39.5z" />
    <glyph glyph-name="j" unicode="j" horiz-adv-x="416" 
d="M220 980l0.000976562 -1152c0 -29.333 -4.66699 -56.333 -14 -81s-22.5 -46 -39.5 -64s-37.5 -32 -61.5 -42s-51 -15 -81 -15c-18 0 -33.5 1.83301 -46.5 5.5s-25.5 9.16699 -37.5 16.5l4 8c2.66699 5.33301 5.66699 7.83301 9 7.5s8 -1.83301 14 -4.5
s13.667 -5.5 23 -8.5s20.666 -4.5 33.999 -4.5c56.667 0 99.5 16.833 128.5 50.5s43.5 77.5 43.5 131.5v1152h24zM263.001 1344c0 -14 -5.83301 -26.5 -17.5 -37.5s-24.5 -16.5 -38.5 -16.5c-15.333 0 -28.5 5.5 -39.5 16.5s-16.5 23.5 -16.5 37.5
c0 15.333 5.5 28.5 16.5 39.5s24.167 16.5 39.5 16.5c14 0 26.833 -5.5 38.5 -16.5s17.5 -24.167 17.5 -39.5z" />
    <glyph glyph-name="k" unicode="k" horiz-adv-x="897" 
d="M208 1440l0.000976562 -903.999h46c6 0 13 0.666992 21 2s17 6.66602 27 15.999l466 410c5.33301 5.33301 10.666 9.33301 15.999 12s12 4 20 4h18l-496 -434c-8.66699 -8 -17 -13.667 -25 -17c9.33301 -2.66699 17.333 -6.16699 24 -10.5s13 -9.16602 19 -14.499
l518 -504h-18c-5.33301 0 -10 0.666992 -14 2s-8.66699 4.66602 -14 9.99902l-492 478c-12 10.667 -22.667 18 -32 22s-24 6 -44 6h-40v-518h-24v1440h24z" />
    <glyph glyph-name="l" unicode="l" horiz-adv-x="416" 
d="M220 1440v-1440h-24v1440h24z" />
    <glyph glyph-name="m" unicode="m" horiz-adv-x="1579" 
d="M184 0l-0.000976562 980.001h6c9.33301 0 14 -5.33301 14 -16l3 -185c38 66 84.333 118.667 139 158s114 59 178 59c78.667 0 140.167 -24.333 184.5 -73s71.833 -118 82.5 -208c8 47.333 21.833 88.666 41.5 123.999s43.5 64.666 71.5 87.999s59.167 40.666 93.5 51.999
s69.833 17 106.5 17c46 0 87.667 -8 125 -24s69 -39.5 95 -70.5s46.167 -69.5 60.5 -115.5s21.5 -98.667 21.5 -158v-628h-24v628c0 112.667 -24.167 198.834 -72.5 258.501s-116.833 89.5 -205.5 89.5c-39.333 0 -77.166 -7.33301 -113.499 -22s-68.5 -36.5 -96.5 -65.5
s-50.333 -65.167 -67 -108.5s-25 -94 -25 -152v-628h-24v628c0 54.667 -5.5 103.5 -16.5 146.5s-27.333 79.5 -49 109.5s-48.5 52.833 -80.5 68.5s-68.667 23.5 -110 23.5c-63.333 0 -121.5 -20.167 -174.5 -60.5s-99.5 -96.166 -139.5 -167.499v-748h-24z" />
    <glyph glyph-name="n" unicode="n" horiz-adv-x="1087" 
d="M208 776c22.667 33.333 48.1689 63.667 76.502 91s58.833 50.5 91.5 69.5s67 33.667 103 44s73 15.5 111 15.5c108.667 0 189.834 -32.333 243.501 -97s80.5 -155 80.5 -271v-628h-24v628c0 54.667 -6 103.5 -18 146.5s-30.5 79.5 -55.5 109.5s-56.333 52.833 -94 68.5
s-81.834 23.5 -132.501 23.5c-76.667 0 -147.334 -20.333 -212.001 -61s-121.334 -97 -170.001 -169v-746h-24v980h6c9.33301 0 14 -5.33301 14 -16z" />
    <glyph glyph-name="o" unicode="o" horiz-adv-x="1101" 
d="M550 996c68.667 0 129.667 -12.167 183 -36.5s98.166 -58.5 134.499 -102.5s63.833 -97.167 82.5 -159.5s28 -131.5 28 -207.5s-9.33301 -144.833 -28 -206.5s-46.167 -114.5 -82.5 -158.5s-81.166 -77.833 -134.499 -101.5s-114.333 -35.5 -183 -35.5
c-69.333 0 -130.5 11.833 -183.5 35.5s-97.667 57.5 -134 101.5s-63.833 96.833 -82.5 158.5s-28 130.5 -28 206.5s9.33301 145.167 28 207.5s46.167 115.5 82.5 159.5s81 78.167 134 102.5s114.167 36.5 183.5 36.5zM550 8c66.667 0 125.334 11.667 176.001 35
s92.834 56 126.501 98s59 92.667 76 152s25.5 125 25.5 197s-8.5 137.833 -25.5 197.5s-42.333 110.834 -76 153.501s-75.834 75.834 -126.501 99.501s-109.334 35.5 -176.001 35.5c-67.333 0 -126.166 -11.833 -176.499 -35.5s-92.333 -56.834 -126 -99.501
s-59 -93.834 -76 -153.501s-25.5 -125.5 -25.5 -197.5s8.5 -137.667 25.5 -197s42.333 -110 76 -152s75.667 -74.667 126 -98s109.166 -35 176.499 -35z" />
    <glyph glyph-name="p" unicode="p" horiz-adv-x="1087" 
d="M208 195c42.667 -68.667 90.3291 -117.001 142.996 -145.001s113.667 -42 183 -42c68.667 0 128.334 12.5 179.001 37.5s92.834 59.5 126.501 103.5s58.834 95.667 75.501 155s25 123.333 25 192c0 162.667 -31.167 283.334 -93.5 362.001s-153.833 118 -274.5 118
c-72.667 0 -140.167 -20.333 -202.5 -61s-116.166 -96.667 -161.499 -168v-552zM207.995 777.999c44 67.333 97.168 120.501 159.501 159.501s130.5 58.5 204.5 58.5c126.667 0 223.667 -40.833 291 -122.5s101 -207.5 101 -377.5c0 -71.333 -9.16699 -137.833 -27.5 -199.5
s-45.5 -115.334 -81.5 -161.001s-80.833 -81.667 -134.5 -108s-115.834 -39.5 -186.501 -39.5c-144 0 -252.667 58.333 -326 175v-523h-24v1340h6c9.33301 0 14 -5.33301 14 -16z" />
    <glyph glyph-name="q" unicode="q" horiz-adv-x="1085" 
d="M879 789c-40 66 -87.1631 113.668 -141.496 143.001s-115.833 44 -184.5 44s-128.334 -12.5 -179.001 -37.5s-92.834 -59.5 -126.501 -103.5s-58.834 -95.667 -75.501 -155s-25 -123.333 -25 -192c0 -162.667 31.167 -283.334 93.5 -362.001s153.833 -118 274.5 -118
c72.667 0 140.167 20.333 202.5 61s116.166 96.667 161.499 168v552zM903.004 980.001l-0.000976562 -1340h-24v565c-44 -66.667 -97.167 -119.5 -159.5 -158.5s-130.5 -58.5 -204.5 -58.5c-127.333 0 -224.5 40.833 -291.5 122.5s-100.5 207.5 -100.5 377.5
c0 70.667 9 137 27 199s45 115.833 81 161.5s80.833 81.667 134.5 108s116.167 39.5 187.5 39.5c72.667 0 135.834 -14.333 189.501 -43s99.167 -73 136.5 -133l4 144c0 10.667 4.66699 16 14 16h6z" />
    <glyph glyph-name="r" unicode="r" horiz-adv-x="688" 
d="M208 693c14 48 30.666 90.832 49.999 128.499s42.5 69.5 69.5 95.5s58 45.667 93 59s74.833 20 119.5 20c19.333 0 39.166 -1.5 59.499 -4.5s38.5 -8.83301 54.5 -17.5l-4 -8c-1.33301 -2 -2.5 -3.83301 -3.5 -5.5s-3.16699 -2.5 -6.5 -2.5
s-7.66602 0.833008 -12.999 2.5s-11.833 3.5 -19.5 5.5s-17 3.83301 -28 5.5s-24.167 2.5 -39.5 2.5c-44 0 -83 -7 -117 -21s-64.167 -34.667 -90.5 -62s-49.666 -61.666 -69.999 -102.999s-38.5 -89.333 -54.5 -144v-644h-24v980h6c9.33301 0 14 -5.33301 14 -16z" />
    <glyph glyph-name="s" unicode="s" horiz-adv-x="837" 
d="M693 894c-2 -4 -5.33398 -6.00098 -10.001 -6.00098c-5.33301 0 -13.166 4.5 -23.499 13.5s-25.333 19 -45 30s-44.5 21.167 -74.5 30.5s-67 14 -111 14c-41.333 0 -79.166 -6.33301 -113.499 -19s-63.833 -29.5 -88.5 -50.5s-43.834 -45.167 -57.501 -72.5
s-20.5 -56 -20.5 -86c0 -35.333 8.33301 -64.833 25 -88.5s38.5 -43.667 65.5 -60s57.833 -30.166 92.5 -41.499l106 -33.5c36 -11 71.333 -22.667 106 -35s65.5 -27.833 92.5 -46.5s48.833 -41.5 65.5 -68.5s25 -60.5 25 -100.5s-7.16699 -77.667 -21.5 -113
s-35.166 -66 -62.499 -92s-60.833 -46.667 -100.5 -62s-84.834 -23 -135.501 -23c-35.333 0 -67 2.83301 -95 8.5s-53.667 13.5 -77 23.5s-45.333 22.333 -66 37s-41 31 -61 49l6 6c2 2 3.66699 3.5 5 4.5s3.66602 1.5 6.99902 1.5c5.33301 0 14 -5.66699 26 -17
s28.833 -24 50.5 -38s49.167 -26.667 82.5 -38s74 -17 122 -17s90.5 7 127.5 21s68.167 33.167 93.5 57.5s44.5 52.666 57.5 84.999s19.5 67.166 19.5 104.499c0 38 -8.33301 69.5 -25 94.5s-38.5 46.167 -65.5 63.5s-57.833 31.833 -92.5 43.5s-70 22.834 -106 33.501
s-71.333 22 -106 34s-65.5 26.833 -92.5 44.5s-48.833 39.5 -65.5 65.5s-25 58.333 -25 97c0 32.667 7.33301 63.834 22 93.501s35.334 56 62.001 79s58.5 41.333 95.5 55s77.833 20.5 122.5 20.5c55.333 0 104 -7.5 146 -22.5s82.667 -39.5 122 -73.5z" />
    <glyph glyph-name="t" unicode="t" horiz-adv-x="657" 
d="M423 -16c-57.333 0 -102.334 15.667 -135.001 47s-49 83 -49 155v732h-162c-9.33301 0 -14 3.33301 -14 10v6l176 4l8 394c0 3.33301 0.833008 6.5 2.5 9.5s4.16699 4.5 7.5 4.5h6v-408h334v-20h-334v-732c0 -33.333 4.16699 -61.5 12.5 -84.5s19.833 -41.667 34.5 -56
s31.667 -24.833 51 -31.5s40 -10 62 -10c28 0 52.5 4.33301 73.5 13s38.833 18 53.5 28s26.5 19.333 35.5 28s15.5 13 19.5 13c2.66699 0 5.33398 -1.33301 8.00098 -4l4 -4c-10 -13.333 -22.167 -25.833 -36.5 -37.5s-30 -21.667 -47 -30s-35 -14.833 -54 -19.5
s-37.833 -7 -56.5 -7z" />
    <glyph glyph-name="u" unicode="u" horiz-adv-x="1085" 
d="M903 980l-0.00195312 -980.001h-6c-9.33301 0 -14 5.33301 -14 16l-4 188c-23.333 -33.333 -49 -63.666 -77 -90.999s-58.333 -50.5 -91 -69.5s-67 -33.667 -103 -44s-73 -15.5 -111 -15.5c-109.333 0 -190.666 32.333 -243.999 97s-80 155 -80 271v628h24v-628
c0 -54.667 6 -103.5 18 -146.5s30.5 -79.5 55.5 -109.5s56.167 -52.833 93.5 -68.5s81.666 -23.5 132.999 -23.5c76.667 0 147.334 20.333 212.001 61s121.334 97 170.001 169v746h24z" />
    <glyph glyph-name="v" unicode="v" horiz-adv-x="978" 
d="M924 980l-426 -980h-18l-426 980h14c5.33301 0 9.33301 -1.5 12 -4.5s4.66699 -6.16699 6 -9.5l390 -898c3.33301 -6 6 -12.167 8 -18.5s3.66699 -12.5 5 -18.5c1.33301 6 3 12.167 5 18.5s4.66699 12.5 8 18.5l390 898c4.66699 9.33301 10.667 14 18 14h14z" />
    <glyph glyph-name="w" unicode="w" horiz-adv-x="1494" 
d="M1429 980l-335.998 -980h-10c-6 -0 -10 3.33301 -12 10l-314 912c-4 10.667 -7 20.334 -9 29.001c-2 -8.66699 -5 -18.334 -9 -29.001l-318 -912c-2 -6.66699 -5.33301 -10 -10 -10h-10l-336 980h14c5.33301 0 9.33301 -1.5 12 -4.5s4.66699 -6.16699 6 -9.5l300 -898
l7.5 -21.5c2.33301 -7 4.16602 -14.167 5.49902 -21.5c1.33301 7.33301 3.16602 14.5 5.49902 21.5l7.5 21.5l312 908c2 6.66699 5.33301 10 10 10h6c4.66699 0 8 -3.33301 10 -10l310 -908c5.33301 -14.667 9.33301 -28 12 -40c2 6.66699 4.16699 13.167 6.5 19.5l7.5 20.5
l300 898c4.66699 9.33301 10.667 14 18 14h14z" />
    <glyph glyph-name="x" unicode="x" horiz-adv-x="888" 
d="M827 0h-22.001c-5.33301 -0 -9.16602 1.83301 -11.499 5.5s-4.5 6.5 -6.5 8.5l-343 474c-1.33301 -2 -2.5 -4 -3.5 -6s-2.83301 -4.66699 -5.5 -8l-334 -460c-3.33301 -3.33301 -6.16602 -6.5 -8.49902 -9.5s-5.5 -4.5 -9.5 -4.5h-22l367 499l-353 481h22
c5.33301 0 9.16602 -1.83301 11.499 -5.5s4.5 -6.5 6.5 -8.5l330 -455c2 4.66699 4.66699 9.66699 8 15l320 440c2 3.33301 4.5 6.5 7.5 9.5s6.5 4.5 10.5 4.5h22l-353 -479z" />
    <glyph glyph-name="y" unicode="y" horiz-adv-x="979" 
d="M927 980l-577.996 -1318c-2 -5.33301 -5 -10.333 -9 -15s-9 -7 -15 -7h-14l168 377l-424 963h14c5.33301 0 9.66602 -1.5 12.999 -4.5s5.66602 -6.16699 6.99902 -9.5l390 -890c5.33301 -11.333 9.66602 -23.666 12.999 -36.999c1.33301 6 3.16602 12.167 5.49902 18.5
s4.83301 12.5 7.5 18.5l390 890c4.66699 9.33301 10.667 14 18 14h14z" />
    <glyph glyph-name="z" unicode="z" horiz-adv-x="872" 
d="M798 980v-9.99902c0 -2 -0.5 -3.66699 -1.5 -5s-2.5 -3.66602 -4.5 -6.99902l-686 -938h662v-20h-696v6c0 3.33301 0.5 5.66602 1.5 6.99902s2.5 3.66602 4.5 6.99902l688 940h-660v20h692z" />
    <glyph glyph-name="braceleft" unicode="{" horiz-adv-x="580" 
d="M438 1484c-31.333 0 -60.166 -5.66211 -86.499 -16.9951s-49.333 -27.5 -69 -48.5s-35 -46.167 -46 -75.5s-16.5 -62.333 -16.5 -99c0 -38 3.5 -75.5 10.5 -112.5s14.833 -74 23.5 -111s16.5 -74 23.5 -111s10.5 -74.167 10.5 -111.5c0 -25.333 -4.5 -47.833 -13.5 -67.5
s-20.667 -36.5 -35 -50.5s-30.166 -25.167 -47.499 -33.5s-34.333 -13.833 -51 -16.5c16.667 -2.66699 33.667 -8.16699 51 -16.5s33.166 -19.5 47.499 -33.5s26 -30.833 35 -50.5s13.5 -42.167 13.5 -67.5c0 -37.333 -3.5 -74.5 -10.5 -111.5s-14.833 -74 -23.5 -111
s-16.5 -74 -23.5 -111s-10.5 -74.5 -10.5 -112.5c0 -36.667 5.5 -69.667 16.5 -99s26.333 -54.5 46 -75.5s42.667 -37.167 69 -48.5s55.166 -17 86.499 -17h44c8 0 12 -3.33301 12 -10v-8h-56c-35.333 0 -67.833 6.66699 -97.5 20s-55 31.666 -76 54.999
s-37.333 50.666 -49 81.999s-17.5 65 -17.5 101c0 39.333 3.5 77.5 10.5 114.5s14.833 73.5 23.5 109.5s16.5 72.167 23.5 108.5s10.5 74.166 10.5 113.499c0 22.667 -4.33301 43.667 -13 63s-20.667 36 -36 50s-33.5 25 -54.5 33s-43.833 12 -68.5 12v20
c24.667 0 47.5 3.83301 68.5 11.5s39.167 18.5 54.5 32.5s27.333 30.667 36 50s13 40.666 13 63.999c0 38.667 -3.5 76.334 -10.5 113.001s-14.833 73 -23.5 109s-16.5 72.5 -23.5 109.5s-10.5 75.167 -10.5 114.5c0 36 5.83301 69.667 17.5 101s28 58.666 49 81.999
s46.333 41.666 76 54.999s62.167 20 97.5 20h56v-8c0 -6.66699 -4 -10 -12 -10h-44z" />
    <glyph glyph-name="bar" unicode="|" horiz-adv-x="456" 
d="M218 1502h20v-1863h-20v1863z" />
    <glyph glyph-name="braceright" unicode="}" horiz-adv-x="580" 
d="M486 620c-24.667 0 -47.5 -4.00488 -68.5 -12.0049s-39.167 -19 -54.5 -33s-27.333 -30.667 -36 -50s-13 -40.333 -13 -63c0 -39.333 3.5 -77.166 10.5 -113.499s14.833 -72.5 23.5 -108.5s16.5 -72.5 23.5 -109.5s10.5 -75.167 10.5 -114.5
c0 -36 -5.83301 -69.667 -17.5 -101s-28 -58.666 -49 -81.999s-46.333 -41.666 -76 -54.999s-62.167 -20 -97.5 -20h-56v8c0 6.66699 4 10 12 10h44c30.667 0 59.334 5.66699 86.001 17s49.834 27.5 69.501 48.5s35 46.167 46 75.5s16.5 62.333 16.5 99
c0 38 -3.5 75.5 -10.5 112.5s-14.833 74 -23.5 111s-16.5 74 -23.5 111s-10.5 74.167 -10.5 111.5c0 25.333 4.5 47.833 13.5 67.5s20.667 36.5 35 50.5s30.166 25.167 47.499 33.5s34.333 13.833 51 16.5c-16.667 2.66699 -33.667 8.16699 -51 16.5
s-33.166 19.5 -47.499 33.5s-26 30.833 -35 50.5s-13.5 42.167 -13.5 67.5c0 37.333 3.5 74.5 10.5 111.5s14.833 74 23.5 111s16.5 74 23.5 111s10.5 74.5 10.5 112.5c0 36.667 -5.5 69.667 -16.5 99s-26.333 54.5 -46 75.5s-42.834 37.167 -69.501 48.5
s-55.334 17 -86.001 17h-44c-8 0 -12 3.33301 -12 10v8h56c35.333 0 67.833 -6.66699 97.5 -20s55 -31.666 76 -54.999s37.333 -50.666 49 -81.999s17.5 -65 17.5 -101c0 -39.333 -3.5 -77.5 -10.5 -114.5s-14.833 -73.5 -23.5 -109.5s-16.5 -72.333 -23.5 -109
s-10.5 -74.334 -10.5 -113.001c0 -23.333 4.33301 -44.666 13 -63.999s20.667 -36 36 -50s33.5 -24.833 54.5 -32.5s43.833 -11.5 68.5 -11.5v-20z" />
    <glyph glyph-name="asciitilde" unicode="~" horiz-adv-x="1160" 
d="M799 528c28 0 53.167 5.16406 75.5 15.4971s41.5 24.5 57.5 42.5s28.333 39.167 37 63.5s13.334 50.5 14.001 78.5h20c0 -29.333 -4.5 -57.166 -13.5 -83.499s-22.167 -49.666 -39.5 -69.999s-38.666 -36.5 -63.999 -48.5s-54.333 -18 -87 -18
c-34 0 -69.667 7.5 -107 22.5s-74.666 31.5 -111.999 49.5s-74.166 34.5 -110.499 49.5s-70.5 22.5 -102.5 22.5c-28 0 -53.167 -5.16699 -75.5 -15.5s-41.5 -24.5 -57.5 -42.5s-28.333 -39.167 -37 -63.5s-13.334 -50.5 -14.001 -78.5h-20c0 28.667 4.5 56.334 13.5 83.001
s22.167 50.167 39.5 70.5s38.666 36.5 63.999 48.5s54.333 18 87 18c34 0 69.667 -7.5 107 -22.5s74.666 -31.5 111.999 -49.5s74.166 -34.5 110.499 -49.5s70.5 -22.5 102.5 -22.5z" />
    <glyph glyph-name="uni0400" unicode="&#x400;" horiz-adv-x="1165" 
d="M1052 22l-2 -22h-818v1400h818v-22h-794v-656h674v-22h-674v-678h796zM441 1832c11.333 0 19.833 -0.833984 25.5 -2.50098s11.167 -5.5 16.5 -11.5l249 -280h-12c-3.33301 0 -6.5 0.333008 -9.5 1s-5.83301 2.33398 -8.5 5.00098l-297 288h36z" />
    <glyph glyph-name="afii10023" unicode="&#x401;" horiz-adv-x="1165" 
d="M1052 22l-2 -22h-818v1400h818v-22h-794v-656h674v-22h-674v-678h796zM520 1664c0 -14 -5.83301 -26.5 -17.5 -37.5s-24.5 -16.5 -38.5 -16.5c-15.333 0 -28.5 5.5 -39.5 16.5s-16.5 23.5 -16.5 37.5c0 15.333 5.5 28.5 16.5 39.5s24.167 16.5 39.5 16.5
c14 0 26.833 -5.5 38.5 -16.5s17.5 -24.167 17.5 -39.5zM888 1664c0 -14 -5.83301 -26.5 -17.5 -37.5s-24.5 -16.5 -38.5 -16.5c-15.333 0 -28.5 5.5 -39.5 16.5s-16.5 23.5 -16.5 37.5c0 15.333 5.5 28.5 16.5 39.5s24.167 16.5 39.5 16.5c14 0 26.833 -5.5 38.5 -16.5
s17.5 -24.167 17.5 -39.5z" />
    <glyph glyph-name="afii10051" unicode="&#x402;" horiz-adv-x="1422" 
d="M888 740c142.667 0 251.999 -30.668 327.999 -92.001s114 -151.333 114 -270c0 -59.333 -9.66699 -112.5 -29 -159.5s-47.833 -86.667 -85.5 -119s-84.167 -57 -139.5 -74s-118.666 -25.5 -189.999 -25.5h-117v20h117c136 0 240 30.667 312 92s108 150 108 266
c0 114.667 -36 200.334 -108 257.001s-175.333 85 -310 85h-396v-720h-24v1378h-443v22h1000v-22h-533v-638h396z" />
    <glyph glyph-name="afii10052" unicode="&#x403;" horiz-adv-x="1060" 
d="M1030 1378h-774v-1378h-24v1400h798v-22zM893 1832l-329 -287.999c-2.66699 -2.66699 -5.5 -4.33398 -8.5 -5.00098s-6.16699 -1 -9.5 -1h-12l281 280c5.33301 5.33301 10.833 9 16.5 11s14.167 3 25.5 3h36z" />
    <glyph glyph-name="afii10053" unicode="&#x404;" horiz-adv-x="1385" 
d="M1266 189c2.66699 0 4.99902 -0.998047 6.99902 -2.99805l9 -8c-29.333 -28.667 -60.833 -54.834 -94.5 -78.501s-70.5 -44 -110.5 -61s-84 -30.333 -132 -40s-101 -14.5 -159 -14.5c-94 0 -180.667 16.5 -260 49.5s-148 80.5 -206 142.5s-103.167 137.167 -135.5 225.5
s-48.5 187.833 -48.5 298.5c0 106.667 16.167 204 48.5 292s78 163.5 137 226.5s129.667 111.667 212 146s173.166 51.5 272.499 51.5c46 0 89.333 -3.5 130 -10.5s79.167 -17.5 115.5 -31.5s71.166 -31.167 104.499 -51.5s66 -43.833 98 -70.5l-4 -6
c-1.33301 -2.66699 -4.66602 -4 -9.99902 -4c-4.66699 0 -16.5 8 -35.5 24s-46.167 33.667 -81.5 53s-79.166 37 -131.499 53s-114.166 24 -185.499 24c-92 0 -176.833 -15.5 -254.5 -46.5s-145 -75.167 -202 -132.5s-102 -127 -135 -209s-51.167 -174.333 -54.5 -277h839
v-22h-839v-9c0 -108.667 15.833 -206 47.5 -292s75.5 -159 131.5 -219s122.167 -105.833 198.5 -137.5s159.166 -47.5 248.499 -47.5c56.667 0 107.334 4 152.001 12s85.5 19.667 122.5 35s71.333 34.166 103 56.499s63.167 47.833 94.5 76.5c3.33301 3.33301 6 5 8 5z" />
    <glyph glyph-name="afii10054" unicode="&#x405;" horiz-adv-x="1058" 
d="M880 1272c-2 -4 -5.33301 -5.99805 -10 -5.99805s-10.334 3.16699 -17.001 9.5l-26 24c-10.667 9.66699 -23.834 20.167 -39.501 31.5s-34.5 21.833 -56.5 31.5s-47.333 17.667 -76 24s-61.667 9.5 -99 9.5c-57.333 0 -108.166 -8.83301 -152.499 -26.5
s-81.5 -41.167 -111.5 -70.5s-52.833 -63.333 -68.5 -102s-23.5 -79 -23.5 -121c0 -54 10.5 -99 31.5 -135s48.5 -66.333 82.5 -91s73 -45.167 117 -61.5s88.667 -32 134 -47s90 -30.833 134 -47.5s83 -37.834 117 -63.501s61.5 -57.334 82.5 -95.001
s31.5 -84.834 31.5 -141.501c0 -57.333 -9.66699 -110.833 -29 -160.5s-47.333 -93 -84 -130s-81.667 -66.167 -135 -87.5s-114 -32 -182 -32c-47.333 0 -89.666 4.16699 -126.999 12.5s-71.5 20.333 -102.5 36s-59.5 34.667 -85.5 57s-51 47.833 -75 76.5l4 4
c2 2 3.66699 3.5 5 4.5s3.66602 1.5 6.99902 1.5c4 0 9.83301 -4.16699 17.5 -12.5s18.167 -19 31.5 -32s29.333 -26.833 48 -41.5s41.334 -28.5 68.001 -41.5s57.167 -23.667 91.5 -32s73.5 -12.5 117.5 -12.5c64.667 0 122.167 10.333 172.5 31s93 48.5 128 83.5
s61.667 75.833 80 122.5s27.5 96.334 27.5 149.001c0 44 -6.83301 82 -20.5 114s-32.167 59.5 -55.5 82.5s-50.5 42.667 -81.5 59s-64.167 31 -99.5 44s-71.333 25 -108 36s-72.667 23.167 -108 36.5s-68.5 28.5 -99.5 45.5s-58.167 37.667 -81.5 62
s-41.833 53.333 -55.5 87s-20.5 73.5 -20.5 119.5c0 44.667 8.33301 87.5 25 128.5s41 77.167 73 108.5s71.5 56.333 118.5 75s100.833 28 161.5 28c68 0 128.167 -11 180.5 -33s101.5 -57 147.5 -105z" />
    <glyph glyph-name="afii10055" unicode="&#x406;" horiz-adv-x="488" 
d="M256 0h-24v1400h24v-1400z" />
    <glyph glyph-name="afii10056" unicode="&#x407;" horiz-adv-x="488" 
d="M256 0h-24v1400h24v-1400zM118 1664c0 -14 -5.83301 -26.5 -17.5 -37.5s-24.5 -16.5 -38.5 -16.5c-15.333 0 -28.5 5.5 -39.5 16.5s-16.5 23.5 -16.5 37.5c0 15.333 5.5 28.5 16.5 39.5s24.167 16.5 39.5 16.5c14 0 26.833 -5.5 38.5 -16.5s17.5 -24.167 17.5 -39.5z
M486 1664c0 -14 -5.83301 -26.5 -17.5 -37.5s-24.5 -16.5 -38.5 -16.5c-15.333 0 -28.5 5.5 -39.5 16.5s-16.5 23.5 -16.5 37.5c0 15.333 5.5 28.5 16.5 39.5s24.167 16.5 39.5 16.5c14 0 26.833 -5.5 38.5 -16.5s17.5 -24.167 17.5 -39.5z" />
    <glyph glyph-name="afii10057" unicode="&#x408;" horiz-adv-x="815" 
d="M598 452c0 -78.667 -9.66699 -147.167 -29 -205.5s-46.5 -107 -81.5 -146s-77 -68.167 -126 -87.5s-102.833 -29 -161.5 -29c-54.667 0 -112 10 -172 30c0 1.33301 0.333008 2.33301 1 3s1 1.66699 1 3c1.33301 2 2.33301 4.16699 3 6.5s3.66699 3.5 9 3.5
c6.66699 0 14.334 -1.33301 23.001 -4s19.167 -5.66699 31.5 -9s26.833 -6.33301 43.5 -9s36.667 -4 60 -4c56.667 0 108.167 9.33301 154.5 28s85.666 46.667 117.999 84s57.333 84 75 140s26.5 121.333 26.5 196v948h24v-948z" />
    <glyph glyph-name="afii10058" unicode="&#x409;" horiz-adv-x="2051" 
d="M1511 20c136 0 240 30.666 312 91.999s108 150 108 266c0 114.667 -36 200.334 -108 257.001s-175.333 85 -310 85h-376v-700h374zM1513 739.999c142.667 0 251.996 -30.6641 327.996 -91.9971s114 -151.333 114 -270c0 -59.333 -9.66699 -112.5 -29 -159.5
s-47.833 -86.667 -85.5 -119s-84.167 -57 -139.5 -74s-118.666 -25.5 -189.999 -25.5h-398v1378h-651c-8.66699 -190 -19.667 -356.333 -33 -499s-29.333 -265.334 -48 -368.001s-40 -187.667 -64 -255s-50.167 -120.666 -78.5 -159.999s-59.166 -66.833 -92.499 -82.5
s-68.666 -23.5 -105.999 -23.5c-4 0 -9.16699 0.166992 -15.5 0.5s-12.166 0.833008 -17.499 1.5s-10 1.66699 -14 3s-6 2.66602 -6 3.99902v14h53c34.667 0 67.5 8.16699 98.5 24.5s59.833 44.666 86.5 84.999s51.167 94.5 73.5 162.5s42.5 153.333 60.5 256
s33.667 224.667 47 366s24.333 305.666 33 492.999h698v-660h376z" />
    <glyph glyph-name="afii10059" unicode="&#x40a;" horiz-adv-x="2178" 
d="M1638 20c136 0 240 30.666 312 91.999s108 150 108 266c0 114.667 -36 200.334 -108 257.001s-175.333 85 -310 85h-376v-700h374zM1640 739.999c142.667 0 251.999 -30.667 327.999 -92s114 -151.333 114 -270c0 -59.333 -9.66699 -112.5 -29 -159.5
s-47.833 -86.667 -85.5 -119s-84.167 -57 -139.5 -74s-118.666 -25.5 -189.999 -25.5h-398v700h-984v-700h-24v1400h24v-678h984v678h24v-660h376z" />
    <glyph glyph-name="afii10060" unicode="&#x40b;" horiz-adv-x="1446" 
d="M492 733c72.667 22.667 143.503 42.1729 212.503 58.5059s134.167 27.166 195.5 32.499s117.666 4.16602 168.999 -3.50098s95.666 -24 132.999 -49s66.333 -60 87 -105s31 -101.833 31 -170.5v-496h-24v496c0 61.333 -9.5 112.666 -28.5 153.999
s-45.667 74.166 -80 98.499s-75.833 40.666 -124.5 48.999s-102.834 10.166 -162.501 5.49902s-124 -15 -193 -31s-140.833 -36.333 -215.5 -61v-711h-24v1378h-443v22h1000v-22h-533v-645z" />
    <glyph glyph-name="afii10061" unicode="&#x40c;" horiz-adv-x="1227" 
d="M1188 0l-14.999 -0.00390625c-7.33301 0 -13.5 1.33301 -18.5 4s-10.5 7.33398 -16.5 14.001l-539 617c-10 11.333 -19.5 21.333 -28.5 30s-19 15.834 -30 21.501s-23.833 10 -38.5 13s-32 4.5 -52 4.5h-194v-704h-24v1400h24v-676h177c18 0 34.333 0.833008 49 2.5
s28.5 5.16699 41.5 10.5s25.667 12.833 38 22.5s25.166 22.5 38.499 38.5l505 589c7.33301 8.66699 17 13 29 13h14l-525 -608c-18 -21.333 -35.833 -38.166 -53.5 -50.499s-40.167 -21.166 -67.5 -26.499c26.667 -4 48.5 -11.833 65.5 -23.5s34.167 -27.167 51.5 -46.5z
M938.001 1832l-329 -287.999c-2.66699 -2.66699 -5.5 -4.33398 -8.5 -5.00098s-6.16699 -1 -9.5 -1h-12l281 280c5.33301 5.33301 10.833 9 16.5 11s14.167 3 25.5 3h36z" />
    <glyph glyph-name="uni040D" unicode="&#x40d;" horiz-adv-x="1496" 
d="M1264 1400v-1400h-24v1286v41c0 13.333 0.666992 27 2 41c-7.33301 -11.333 -14 -21.166 -20 -29.499l-19 -26.5l-942 -1305c-3.33301 -4.66699 -8 -7 -14 -7h-15v1400h24v-1286v-41c0 -13.333 -0.666992 -27 -2 -41c7.33301 11.333 14 21.166 20 29.499l19 26.5
l942 1305c3.33301 4.66699 8 7 14 7h15zM529 1830c11.333 0 19.833 -0.833984 25.5 -2.50098s11.167 -5.5 16.5 -11.5l249 -280h-12c-3.33301 0 -6.5 0.333008 -9.5 1s-5.83301 2.33398 -8.5 5.00098l-297 288h36z" />
    <glyph glyph-name="afii10062" unicode="&#x40e;" horiz-adv-x="1165" 
d="M1124 1400l-578.002 -1247c-26.667 -57.333 -57 -98.833 -91 -124.5s-76.667 -38.5 -128 -38.5c-4 0 -9.16699 0.166992 -15.5 0.5s-12.166 0.833008 -17.499 1.5s-10 1.66699 -14 3s-6 2.66602 -6 3.99902v14h53c44.667 0 83 12.167 115 36.5s59 61.166 81 110.499
l98 220l-565 1020h20c6 0 10.667 -2.66699 14 -8l515 -935l16.5 -30c5.66699 -10.667 10.167 -21.334 13.5 -32.001c3.33301 10.667 7.5 21.167 12.5 31.5l15.5 31.5l427 934c2.66699 5.33301 7.33398 8 14.001 8h20zM589.998 1534c64.667 0 112.502 17 143.502 51
s46.5 86.333 46.5 157h10c3.33301 0 6.16602 -1.16699 8.49902 -3.5s3.5 -6.16602 3.5 -11.499c0 -31.333 -4 -59.666 -12 -84.999s-20.5 -47 -37.5 -65s-39 -32 -66 -42s-59.167 -15 -96.5 -15s-69.5 5 -96.5 15s-49 24 -66 42s-29.5 39.667 -37.5 65
s-12 53.666 -12 84.999c0 5.33301 1.16699 9.16602 3.5 11.499s5.16602 3.5 8.49902 3.5h10c0 -70.667 15.5 -123 46.5 -157s78.833 -51 143.5 -51z" />
    <glyph glyph-name="afii10145" unicode="&#x40f;" horiz-adv-x="1426" 
d="M1194 1400v-1400h-470v-349c0 -7.33301 -3.66699 -11 -11 -11h-11v360h-470v1400h24v-1378h914v1378h24z" />
    <glyph glyph-name="afii10017" unicode="&#x410;" horiz-adv-x="1274" 
d="M998 498l-345.002 828c-3.33301 7.33301 -6.16602 14.333 -8.49902 21l-7.5 21l-7.5 -21c-2.33301 -6.66699 -5.16602 -13.667 -8.49902 -21l-345 -828h722zM1231 0h-18c-6 -0 -10 3.33301 -12 10l-195 468h-738l-195 -468c-2 -6.66699 -6.66699 -10 -14 -10h-16
l584 1400h20z" />
    <glyph glyph-name="afii10018" unicode="&#x411;" horiz-adv-x="1197" 
d="M630 20c136 0 240 30.666 312 91.999s108 150 108 266c0 114.667 -36 200.334 -108 257.001s-175.333 85 -310 85h-376v-700h374zM632 739.999c142.667 0 251.999 -30.667 327.999 -92s114 -151.333 114 -270c0 -59.333 -9.66699 -112.5 -29 -159.5
s-47.833 -86.667 -85.5 -119s-84.167 -57 -139.5 -74s-118.666 -25.5 -189.999 -25.5h-398v1400h802v-20h-778v-640h376z" />
    <glyph glyph-name="afii10019" unicode="&#x412;" horiz-adv-x="1239" 
d="M650 20c67.333 0 127.667 7.33301 181 22s98.5 36.5 135.5 65.5s65.167 65.333 84.5 109s29 94.167 29 151.5c0 50.667 -10.167 96.5 -30.5 137.5s-49 76 -86 105s-82 51.167 -135 66.5s-111.833 23 -176.5 23h-396v-680h394zM256.001 1380l-0.000976562 -660h350
c74.667 0 138 10.333 190 31s94.333 47.167 127 79.5s56.334 68 71.001 107s22 77.167 22 114.5c0 104 -34.5 184.667 -103.5 242s-174.5 86 -316.5 86h-340zM596 1400c148.667 0 259.498 -29.8281 332.498 -89.4951s109.5 -145.834 109.5 -258.501
c0 -41.333 -8.16699 -81.333 -24.5 -120s-38.833 -73.334 -67.5 -104.001s-62.667 -56.167 -102 -76.5s-82 -32.833 -128 -37.5c60 -4 113.833 -14.833 161.5 -32.5s88.334 -41.334 122.001 -71.001s59.5 -64.834 77.5 -105.501s27 -86.334 27 -137.001
c0 -59.333 -10.167 -112 -30.5 -158s-50 -84.5 -89 -115.5s-86.667 -54.5 -143 -70.5s-120.166 -24 -191.499 -24h-418v1400h364z" />
    <glyph glyph-name="afii10020" unicode="&#x413;" horiz-adv-x="1060" 
d="M1030 1378h-774v-1378h-24v1400h798v-22z" />
    <glyph glyph-name="afii10021" unicode="&#x414;" horiz-adv-x="1472" 
d="M1141 22l0.000976562 1356h-651c-6.66699 -154 -15.334 -292.167 -26.001 -414.5s-23 -230.833 -37 -325.5s-29.667 -176.834 -47 -246.501s-36.333 -129 -57 -178s-42.667 -89 -66 -120s-48 -54.833 -74 -71.5h958zM1421 22.001l-0.000976562 -371.001
c0 -7.33301 -3.66699 -11 -11 -11h-11v360h-1362v-349c0 -7.33301 -3.66699 -11 -11 -11h-11v382h117c27.333 8.66699 53.833 25.334 79.5 50.001s49.667 60 72 106s43.166 104 62.499 174s36.833 154.5 52.5 253.5s29.334 214 41.001 345s20.834 280.833 27.501 449.5h698
v-1378h256z" />
    <glyph glyph-name="afii10022" unicode="&#x415;" horiz-adv-x="1165" 
d="M1052 22l-2 -22h-818v1400h818v-22h-794v-656h674v-22h-674v-678h796z" />
    <glyph glyph-name="afii10024" unicode="&#x416;" horiz-adv-x="1946" 
d="M1894 0h-15.0059c-8.66699 0 -16 3.66699 -22 11l-515 618c-19.333 23.333 -41.166 41.666 -65.499 54.999s-56.833 20 -97.5 20h-194v-704h-24v704h-194c-40.667 0 -73.167 -6.66699 -97.5 -20s-46.166 -31.666 -65.499 -54.999l-514 -618
c-6 -7.33301 -13.333 -11 -22 -11h-16l532 639c16.667 20 35.334 36.5 56.001 49.5s45.667 21.833 75 26.5c-29.333 5.33301 -53.666 14.333 -72.999 27s-38 29.667 -56 51l-517 607h15c4.66699 0 8.83398 -1.33301 12.501 -4s7.16699 -5.66699 10.5 -9l502 -588
c13.333 -16 26.666 -28.833 39.999 -38.5s27 -17.167 41 -22.5s28.667 -9 44 -11s32 -3 50 -3h177v676h24v-676h177c18 0 34.667 1 50 3s30 5.66699 44 11s27.667 12.833 41 22.5s26.666 22.5 39.999 38.5l502 588c3.33301 3.33301 6.83301 6.33301 10.5 9
s7.83398 4 12.501 4h15l-517 -607c-18 -21.333 -36.667 -38.333 -56 -51s-43.666 -21.667 -72.999 -27c29.333 -4.66699 54.333 -13.5 75 -26.5s39.334 -29.5 56.001 -49.5z" />
    <glyph glyph-name="afii10025" unicode="&#x417;" horiz-adv-x="1123" 
d="M149 1275c25.333 23.333 51.502 43.666 78.502 60.999s55.5 31.666 85.5 42.999s62.333 19.833 97 25.5s72.667 8.5 114 8.5c63.333 0 120.333 -8.66699 171 -26s93.834 -41.166 129.501 -71.499s63 -66 82 -107s28.5 -85.167 28.5 -132.5
c0 -46 -8.33301 -87.167 -25 -123.5s-38.5 -67.666 -65.5 -93.999s-57.5 -47.833 -91.5 -64.5s-68.333 -28.334 -103 -35.001c54.667 -7.33301 102.834 -22 144.501 -44s76.667 -49.333 105 -82s49.666 -69.334 63.999 -110.001s21.5 -83.667 21.5 -129
c0 -57.333 -10.5 -110.666 -31.5 -159.999s-51.667 -92.5 -92 -129.5s-89.833 -66 -148.5 -87s-125.334 -31.5 -200.001 -31.5c-52 0 -98.5 4.16699 -139.5 12.5s-78.5 20.333 -112.5 36s-65.333 34.667 -94 57s-56 47.833 -82 76.5l4 4c2 2 3.66699 3.5 5 4.5
s3.66602 1.5 6.99902 1.5c4 0 10.333 -4.16699 19 -12.5l34.5 -32c14.333 -13 32 -26.833 53 -41.5s46 -28.5 75 -41.5s62.5 -23.667 100.5 -32s81.333 -12.5 130 -12.5c71.333 0 134.833 10.167 190.5 30.5s102.5 48 140.5 83s67 75.667 87 122s30 95.833 30 148.5
c0 48.667 -8.5 94.834 -25.5 138.501s-42 81.667 -75 114s-74 58 -123 77s-105.167 28.5 -168.5 28.5h-177v23h191c40.667 0 80.5 6.83301 119.5 20.5s74 33.5 105 59.5s56 58 75 96s28.5 81 28.5 129c0 46 -9 88.333 -27 127s-43.5 72.167 -76.5 100.5
s-73.167 50.333 -120.5 66s-100 23.5 -158 23.5c-44.667 0 -84 -3.16699 -118 -9.5s-63.833 -14.333 -89.5 -24s-47.5 -20.167 -65.5 -31.5s-33 -21.833 -45 -31.5l-29.5 -24c-7.66699 -6.33301 -13.834 -9.5 -18.501 -9.5s-8 2 -10 6z" />
    <glyph glyph-name="afii10026" unicode="&#x418;" horiz-adv-x="1496" 
d="M1264 1400v-1400h-24v1286v41c0 13.333 0.666992 27 2 41c-7.33301 -11.333 -14 -21.166 -20 -29.499l-19 -26.5l-942 -1305c-3.33301 -4.66699 -8 -7 -14 -7h-15v1400h24v-1286v-41c0 -13.333 -0.666992 -27 -2 -41c7.33301 11.333 14 21.166 20 29.499l19 26.5
l942 1305c3.33301 4.66699 8 7 14 7h15z" />
    <glyph glyph-name="afii10027" unicode="&#x419;" horiz-adv-x="1496" 
d="M1264 1400v-1400h-24v1286v41c0 13.333 0.666992 27 2 41c-7.33301 -11.333 -14 -21.166 -20 -29.499l-19 -26.5l-942 -1305c-3.33301 -4.66699 -8 -7 -14 -7h-15v1400h24v-1286v-41c0 -13.333 -0.666992 -27 -2 -41c7.33301 11.333 14 21.166 20 29.499l19 26.5
l942 1305c3.33301 4.66699 8 7 14 7h15zM736 1532c64.667 0 112.502 17 143.502 51s46.5 86.333 46.5 157h10c3.33301 0 6.16602 -1.16699 8.49902 -3.5s3.5 -6.16602 3.5 -11.499c0 -31.333 -4 -59.666 -12 -84.999s-20.5 -47 -37.5 -65s-39 -32 -66 -42
s-59.167 -15 -96.5 -15s-69.5 5 -96.5 15s-49 24 -66 42s-29.5 39.667 -37.5 65s-12 53.666 -12 84.999c0 5.33301 1.16699 9.16602 3.5 11.499s5.16602 3.5 8.49902 3.5h10c0 -70.667 15.5 -123 46.5 -157s78.833 -51 143.5 -51z" />
    <glyph glyph-name="afii10028" unicode="&#x41a;" horiz-adv-x="1227" 
d="M1188 0l-14.999 -0.00390625c-7.33301 0 -13.5 1.33301 -18.5 4s-10.5 7.33398 -16.5 14.001l-539 617c-10 11.333 -19.5 21.333 -28.5 30s-19 15.834 -30 21.501s-23.833 10 -38.5 13s-32 4.5 -52 4.5h-194v-704h-24v1400h24v-676h177c18 0 34.333 0.833008 49 2.5
s28.5 5.16699 41.5 10.5s25.667 12.833 38 22.5s25.166 22.5 38.499 38.5l505 589c7.33301 8.66699 17 13 29 13h14l-525 -608c-18 -21.333 -35.833 -38.166 -53.5 -50.499s-40.167 -21.166 -67.5 -26.499c26.667 -4 48.5 -11.833 65.5 -23.5s34.167 -27.167 51.5 -46.5z
" />
    <glyph glyph-name="afii10029" unicode="&#x41b;" horiz-adv-x="1369" 
d="M1137 0l-24.0029 0.00292969v1378h-651c-8.66699 -190 -19.667 -356.333 -33 -499s-29.333 -265.334 -48 -368.001s-40 -187.667 -64 -255s-50.167 -120.666 -78.5 -159.999s-59.166 -66.833 -92.499 -82.5s-68.666 -23.5 -105.999 -23.5
c-4 0 -9.16699 0.166992 -15.5 0.5s-12.166 0.833008 -17.499 1.5s-10 1.66699 -14 3s-6 2.66602 -6 3.99902v14h53c34.667 0 67.5 8.16699 98.5 24.5s59.833 44.666 86.5 84.999s51.167 94.5 73.5 162.5s42.5 153.333 60.5 256s33.667 224.667 47 366
s24.333 305.666 33 492.999h698v-1400z" />
    <glyph glyph-name="afii10030" unicode="&#x41c;" horiz-adv-x="1782" 
d="M1550 1400v-1400h-20v1338v9.5c0 3 0.333008 6.16699 1 9.5l-613 -1067c-4.66699 -6.66699 -9.33398 -10 -14.001 -10h-6c-4.66699 0 -9.33398 3.33301 -14.001 10l-633 1068c0.666992 -3.33301 1 -6.66602 1 -9.99902v-10v-1338h-20v1400h8c6 0 10.667 -2.66699 14 -8
l636 -1071c2.66699 -4 4.83398 -7.66699 6.50098 -11s3.16699 -6.66602 4.5 -9.99902c1.33301 3.33301 2.83301 6.66602 4.5 9.99902s3.83398 7 6.50098 11l616 1071c3.33301 5.33301 8 8 14 8h8z" />
    <glyph glyph-name="afii10031" unicode="&#x41d;" horiz-adv-x="1496" 
d="M1264 1400v-1400h-24v700h-984v-700h-24v1400h24v-678h984v678h24z" />
    <glyph glyph-name="afii10032" unicode="&#x41e;" horiz-adv-x="1568" 
d="M1431 700c0 -110.667 -15.833 -210 -47.5 -298s-76 -162.833 -133 -224.5s-125.167 -109 -204.5 -142s-167 -49.5 -263 -49.5c-95.333 0 -182.5 16.5 -261.5 49.5s-147 80.333 -204 142s-101.333 136.5 -133 224.5s-47.5 187.333 -47.5 298
c0 110 15.833 209.167 47.5 297.5s76 163.5 133 225.5s125 109.667 204 143s166.167 50 261.5 50c96 0 183.667 -16.5 263 -49.5s147.5 -80.5 204.5 -142.5s101.333 -137.167 133 -225.5s47.5 -187.833 47.5 -298.5zM1405 700c0 108.667 -15.167 206 -45.5 292
s-72.833 159 -127.5 219s-120.167 105.833 -196.5 137.5s-160.5 47.5 -252.5 47.5c-90.667 0 -174 -15.833 -250 -47.5s-141.5 -77.5 -196.5 -137.5s-98 -133 -129 -219s-46.5 -183.333 -46.5 -292s15.5 -205.834 46.5 -291.501s74 -158.334 129 -218.001
s120.5 -105.334 196.5 -137.001s159.333 -47.5 250 -47.5c92 0 176.167 15.833 252.5 47.5s141.833 77.334 196.5 137.001s97.167 132.334 127.5 218.001s45.5 182.834 45.5 291.501z" />
    <glyph glyph-name="afii10033" unicode="&#x41f;" horiz-adv-x="1426" 
d="M1194 0h-24v1378h-914v-1378h-24v1400h962v-1400z" />
    <glyph glyph-name="afii10034" unicode="&#x420;" horiz-adv-x="1118" 
d="M548 620c68.667 0 130.667 9.83301 186 29.5s102.5 46.667 141.5 81s69.167 74.5 90.5 120.5s32 95.667 32 149c0 124.667 -37.5 219.167 -112.5 283.5s-187.5 96.5 -337.5 96.5h-292v-760h292zM548 1400c152.667 0 269.833 -33 351.5 -99s122.5 -166.333 122.5 -301
c0 -58 -11.5 -111.5 -34.5 -160.5s-55.5 -91.167 -97.5 -126.5s-92 -63 -150 -83s-122 -30 -192 -30h-292v-600h-24v1400h316z" />
    <glyph glyph-name="afii10035" unicode="&#x421;" horiz-adv-x="1366" 
d="M1266 189c2.66699 0 4.99902 -0.999023 6.99902 -2.99902l9 -8c-29.333 -28.667 -60.833 -54.834 -94.5 -78.501s-70.5 -44 -110.5 -61s-84 -30.333 -132 -40s-101 -14.5 -159 -14.5c-94 0 -180.667 16.5 -260 49.5s-148 80.5 -206 142.5s-103.167 137.167 -135.5 225.5
s-48.5 187.833 -48.5 298.5c0 106.667 16.167 204 48.5 292s78 163.5 137 226.5s129.667 111.667 212 146s173.166 51.5 272.499 51.5c46 0 89.333 -3.5 130 -10.5s79.167 -17.5 115.5 -31.5s71.166 -31.167 104.499 -51.5s66 -43.833 98 -70.5l-4 -6
c-1.33301 -2.66699 -4.66602 -4 -9.99902 -4c-4.66699 0 -16.5 8 -35.5 24s-46.167 33.667 -81.5 53s-79.166 37 -131.499 53s-114.166 24 -185.499 24c-94.667 0 -181.5 -16.167 -260.5 -48.5s-147 -78.666 -204 -138.999s-101.5 -133.5 -133.5 -219.5
s-48 -182.333 -48 -289c0 -108.667 15.833 -206 47.5 -292s75.5 -159 131.5 -219s122.167 -105.833 198.5 -137.5s159.166 -47.5 248.499 -47.5c56.667 0 107.334 4 152.001 12s85.5 19.667 122.5 35s71.333 34.166 103 56.499s63.167 47.833 94.5 76.5
c3.33301 3.33301 6 5 8 5z" />
    <glyph glyph-name="afii10036" unicode="&#x422;" horiz-adv-x="1138" 
d="M1109 1378h-526v-1378h-24v1378h-530v22h1080v-22z" />
    <glyph glyph-name="afii10037" unicode="&#x423;" horiz-adv-x="1165" 
d="M1124 1400l-578.002 -1247c-26.667 -57.333 -57 -98.833 -91 -124.5s-76.667 -38.5 -128 -38.5c-4 0 -9.16699 0.166992 -15.5 0.5s-12.166 0.833008 -17.499 1.5s-10 1.66699 -14 3s-6 2.66602 -6 3.99902v14h53c44.667 0 83 12.167 115 36.5s59 61.166 81 110.499
l98 220l-565 1020h20c6 0 10.667 -2.66699 14 -8l515 -935l16.5 -30c5.66699 -10.667 10.167 -21.334 13.5 -32.001c3.33301 10.667 7.5 21.167 12.5 31.5l15.5 31.5l427 934c2.66699 5.33301 7.33398 8 14.001 8h20z" />
    <glyph glyph-name="afii10038" unicode="&#x424;" horiz-adv-x="1466" 
d="M745 196c89.333 0 170 14.667 242 44s133.167 69 183.5 119s89.166 108.333 116.499 175s41 137 41 211s-13.667 144.167 -41 210.5s-66.166 124.5 -116.499 174.5s-111.5 89.833 -183.5 119.5s-152.667 44.5 -242 44.5v-1098zM721 1294
c-90 0 -170.833 -14.833 -242.5 -44.5s-132.834 -69.5 -183.501 -119.5s-89.5 -108.167 -116.5 -174.5s-40.5 -136.5 -40.5 -210.5s13.5 -144.333 40.5 -211s65.833 -125 116.5 -175s111.834 -89.667 183.501 -119s152.5 -44 242.5 -44v1098zM745 1313
c96.667 0 182.668 -15.333 258.001 -46s138.833 -72 190.5 -124s91 -112.333 118 -181s40.5 -141 40.5 -217c0 -76.667 -13.5 -149.334 -40.5 -218.001s-66.333 -129 -118 -181s-115.167 -93.333 -190.5 -124s-161.333 -46 -258 -46v-176h-24v176
c-96.667 0 -182.667 15.333 -258 46s-139 72 -191 124s-91.5 112.333 -118.5 181s-40.5 141.334 -40.5 218.001c0 76 14 148.333 42 217s68.167 129 120.5 181s116.166 93.333 191.499 124s160 46 254 46v163h24v-163z" />
    <glyph glyph-name="afii10039" unicode="&#x425;" horiz-adv-x="1201" 
d="M1142 0h-22c-5.33301 -0 -9.16602 1.83301 -11.499 5.5s-4.5 6.5 -6.5 8.5l-501 692c-1.33301 -2 -2.5 -4 -3.5 -6s-2.83301 -4.66699 -5.5 -8l-494 -678c-3.33301 -3.33301 -6.16602 -6.5 -8.49902 -9.5s-5.5 -4.5 -9.5 -4.5h-22l527 717l-503 683h22
c5.33301 0 9.16602 -1.83301 11.499 -5.5s4.5 -6.5 6.5 -8.5l479 -657c1.33301 2.66699 2.66602 5 3.99902 7s3 4.66699 5 8l468 642c2 3.33301 4.5 6.5 7.5 9.5s6.5 4.5 10.5 4.5h22l-501 -681z" />
    <glyph glyph-name="afii10040" unicode="&#x426;" horiz-adv-x="1495" 
d="M1440 22v-371c0 -7.33301 -3.66699 -11 -11 -11h-11v360h-1186v1400h24v-1378h914v1378h24v-1378h246z" />
    <glyph glyph-name="afii10041" unicode="&#x427;" horiz-adv-x="1256" 
d="M1024 1400l0.00292969 -1400.01h-24v717c-72.667 -22.667 -144.834 -42.167 -216.501 -58.5s-140 -27.166 -205 -32.499s-125.333 -4.16602 -181 3.50098s-103.834 24 -144.501 49s-72.667 60 -96 105s-35 101.833 -35 170.5v446h24v-446
c0 -61.333 10 -112.666 30 -153.999s48.5 -74 85.5 -98s81.333 -40.167 133 -48.5s109 -10.166 172 -5.49902s131.167 14.834 204.5 30.501s149.666 35.834 228.999 60.501v661h24z" />
    <glyph glyph-name="afii10042" unicode="&#x428;" horiz-adv-x="2114" 
d="M1882 1400v-1400h-1650v1400h24v-1378h784v1378h24v-1378h794v1378h24z" />
    <glyph glyph-name="afii10043" unicode="&#x429;" horiz-adv-x="2183" 
d="M2128 22v-371c0 -7.33301 -3.66699 -11 -11 -11h-11v360h-1874v1400h24v-1378h784v1378h24v-1378h794v1378h24v-1378h246z" />
    <glyph glyph-name="afii10044" unicode="&#x42a;" horiz-adv-x="1387" 
d="M847 20c136 0 240 30.666 312 91.999s108 150 108 266c0 114.667 -36 200.334 -108 257.001s-175.333 85 -310 85h-376v-700h374zM849 739.999c142.667 0 251.999 -30.667 327.999 -92s114 -151.333 114 -270c0 -59.333 -9.66699 -112.5 -29 -159.5
s-47.833 -86.667 -85.5 -119s-84.167 -57 -139.5 -74s-118.666 -25.5 -189.999 -25.5h-398v1378h-420v22h444v-660h376z" />
    <glyph glyph-name="afii10045" unicode="&#x42b;" horiz-adv-x="1710" 
d="M630 20c136 0 240 30.666 312 91.999s108 150 108 266c0 114.667 -36 200.334 -108 257.001s-175.333 85 -310 85h-376v-700h374zM632 739.999c142.667 0 251.999 -30.667 327.999 -92s114 -151.333 114 -270c0 -59.333 -9.66699 -112.5 -29 -159.5
s-47.833 -86.667 -85.5 -119s-84.167 -57 -139.5 -74s-118.666 -25.5 -189.999 -25.5h-398v1400h24v-660h376zM1478 -0.000976562h-24v1400h24v-1400z" />
    <glyph glyph-name="afii10046" unicode="&#x42c;" horiz-adv-x="1170" 
d="M630 20c136 0 240 30.666 312 91.999s108 150 108 266c0 114.667 -36 200.334 -108 257.001s-175.333 85 -310 85h-376v-700h374zM632 739.999c142.667 0 251.999 -30.667 327.999 -92s114 -151.333 114 -270c0 -59.333 -9.66699 -112.5 -29 -159.5
s-47.833 -86.667 -85.5 -119s-84.167 -57 -139.5 -74s-118.666 -25.5 -189.999 -25.5h-398v1400h24v-660h376z" />
    <glyph glyph-name="afii10047" unicode="&#x42d;" horiz-adv-x="1384" 
d="M130 1252c32 26.667 64.4971 50.165 97.4971 70.498s67.833 37.5 104.5 51.5s75.334 24.5 116.001 31.5s84 10.5 130 10.5c99.333 0 190.166 -17.167 272.499 -51.5s153 -83 212 -146s104.667 -138.5 137 -226.5s48.5 -185.333 48.5 -292
c0 -110.667 -16.167 -210.167 -48.5 -298.5s-77.5 -163.5 -135.5 -225.5s-126.667 -109.5 -206 -142.5s-166 -49.5 -260 -49.5c-58 0 -111 4.83301 -159 14.5s-92 23 -132 40s-76.833 37.333 -110.5 61s-65.167 49.834 -94.5 78.501l9 8c2 2 4.33301 3 7 3
c2 0 4.66699 -1.66699 8 -5c30.667 -28.667 61.834 -54.167 93.501 -76.5s66 -41.166 103 -56.499s77.833 -27 122.5 -35s95.667 -12 153 -12c89.333 0 172.166 15.833 248.499 47.5s142.5 77.5 198.5 137.5s99.833 133 131.5 219s47.5 183.333 47.5 292v9h-838v22h838
c-3.33301 102.667 -21.5 195 -54.5 277s-78 151.667 -135 209s-124.333 101.5 -202 132.5s-162.5 46.5 -254.5 46.5c-71.333 0 -133.166 -8 -185.499 -24s-96.166 -33.667 -131.499 -53s-62.5 -37 -81.5 -53s-30.833 -24 -35.5 -24c-5.33301 0 -8.66602 1.33301 -9.99902 4z
" />
    <glyph glyph-name="afii10048" unicode="&#x42e;" horiz-adv-x="1987" 
d="M1262 8c82 0 157.333 15.667 226 47s127.834 76.666 177.501 135.999s88.334 131.833 116.001 217.5s41.5 182.834 41.5 291.501s-13.833 206 -41.5 292s-66.334 159 -116.001 219s-108.834 105.833 -177.501 137.5s-144 47.5 -226 47.5s-157.333 -15.833 -226 -47.5
s-127.834 -77.5 -177.501 -137.5s-88.334 -133 -116.001 -219s-41.5 -183.333 -41.5 -292s13.833 -205.834 41.5 -291.501s66.334 -158.167 116.001 -217.5s108.834 -104.666 177.501 -135.999s144 -47 226 -47zM677 716c1.33301 108 16.832 205.169 46.499 291.502
s70.167 159.666 121.5 219.999s112.5 106.833 183.5 139.5s148.833 49 233.5 49c85.333 0 163.833 -16.667 235.5 -50s133.334 -81 185.001 -143s92 -137.167 121 -225.5s43.5 -187.5 43.5 -297.5c0 -110.667 -14.5 -210 -43.5 -298s-69.333 -162.667 -121 -224
s-113.334 -108.333 -185.001 -141s-150.167 -49 -235.5 -49s-163.666 16.167 -234.999 48.5s-132.833 79 -184.5 140s-92 135.167 -121 222.5s-43.833 185.666 -44.5 294.999h-421v-694h-24v1400h24v-684h421z" />
    <glyph glyph-name="afii10049" unicode="&#x42f;" horiz-adv-x="1267" 
d="M1011 680l-0.000976562 700h-374c-135.333 0 -239.166 -29.5 -311.499 -88.5s-108.5 -145.833 -108.5 -260.5c0 -116 35.667 -203.5 107 -262.5s175 -88.5 311 -88.5h376zM1035 0l-24.001 0.000976562v660h-301c-20 0 -38.833 -1.33301 -56.5 -4s-35 -8.16699 -52 -16.5
s-34.167 -19.833 -51.5 -34.5s-35.666 -34 -54.999 -58l-437 -536c-6 -7.33301 -13.333 -11 -22 -11h-16l456 557c25.333 30.667 49.333 54.167 72 70.5s45.667 28.166 69 35.499c-139.333 3.33301 -244.833 36.833 -316.5 100.5s-107.5 153.167 -107.5 268.5
c0 119.333 38 210.5 114 273.5s186 94.5 330 94.5h398v-1400z" />
    <glyph glyph-name="afii10065" unicode="&#x430;" horiz-adv-x="946" 
d="M748 502c-210 -6.66699 -366.166 -32.835 -468.499 -78.502s-153.5 -110.167 -153.5 -193.5c0 -39.333 6.5 -73.166 19.5 -101.499s30.167 -51.666 51.5 -69.999s45.666 -32 72.999 -41s55.333 -13.5 84 -13.5c46 0 87.667 5.33301 125 16s71.833 25 103.5 43
s61 38.833 88 62.5s52.833 48.5 77.5 74.5v302zM154.001 839.999c48 50.667 97.666 89.3359 148.999 116.003s111 40 179 40c50 0 93.167 -8 129.5 -24s66.5 -39 90.5 -69s41.667 -66.5 53 -109.5s17 -91.5 17 -145.5v-648h-4c-9.33301 0 -14 5.33301 -14 16l-6 160
c-28 -29.333 -56 -55.833 -84 -79.5s-57.667 -43.834 -89 -60.501s-65 -29.5 -101 -38.5s-76 -13.5 -120 -13.5c-29.333 0 -59 4.5 -89 13.5s-57 23.333 -81 43s-43.667 45 -59 76s-23 68.833 -23 113.5c0 44 13 83.5 39 118.5s65.5 64.833 118.5 89.5s120 44.167 201 58.5
s176.833 22.833 287.5 25.5v126c0 51.333 -5.66699 97.333 -17 138s-28 75 -50 103s-49.667 49.5 -83 64.5s-72 22.5 -116 22.5c-34.667 0 -66 -3.66699 -94 -11s-53 -16.333 -75 -27s-41.167 -22.334 -57.5 -35.001s-30.5 -24.334 -42.5 -35.001s-21.667 -19.667 -29 -27
s-12.666 -11 -15.999 -11c-2.66699 0 -6 2 -10 6z" />
    <glyph glyph-name="afii10066" unicode="&#x431;" horiz-adv-x="1145" 
d="M584 7c66.667 0 125.833 10.999 177.5 32.999s95 53.167 130 93.5s61.5 88.666 79.5 144.999s27 118.833 27 187.5s-8.5 131.334 -25.5 188.001s-42 105.334 -75 146.001s-74 72.167 -123 94.5s-105.833 33.5 -170.5 33.5c-59.333 0 -114.5 -9.5 -165.5 -28.5
s-95.167 -46 -132.5 -81s-66.666 -77.667 -87.999 -128s-32 -106.833 -32 -169.5c0 -76.667 8.83301 -146.5 26.5 -209.5s43.5 -117 77.5 -162s75.667 -80 125 -105s105.666 -37.5 168.999 -37.5zM646.999 1343c-80 -9.33301 -149.501 -31.165 -208.501 -65.498
s-107.667 -81.5 -146 -141.5s-67.166 -133 -86.499 -219s-29.666 -185.667 -30.999 -299c10.667 53.333 29.5 100.5 56.5 141.5s59.667 75.333 98 103s81 48.667 128 63s95.833 21.5 146.5 21.5c66.667 0 125.834 -11.5 177.501 -34.5s95.334 -55.5 131.001 -97.5
s62.834 -92.667 81.501 -152s28 -125 28 -197c0 -71.333 -10 -136.333 -30 -195s-48.833 -109 -86.5 -151s-83.667 -74.5 -138 -97.5s-115.5 -34.5 -183.5 -34.5c-55.333 0 -108.833 9.66699 -160.5 29s-97.334 53.166 -137.001 101.499s-71.334 113.333 -95.001 195
s-35.5 184.5 -35.5 308.5c0 111.333 10 211 30 299s50.167 163.333 90.5 226s91.166 112.5 152.499 149.5s133.666 60.167 216.999 69.5l355 41l1 -9c0.666992 -8.66699 -3 -13.334 -11 -14.001z" />
    <glyph glyph-name="afii10067" unicode="&#x432;" horiz-adv-x="966" 
d="M505 20c50 0 94.8311 5.83203 134.498 17.499s73.334 28.334 101.001 50.001s49 48 64 79s22.5 65.5 22.5 103.5c0 35.333 -6.16699 67.5 -18.5 96.5s-31.5 53.667 -57.5 74s-59.167 36 -99.5 47s-88.166 16.5 -143.499 16.5h-299v-484h296zM208.998 959.999
l-0.000976562 -435.999h270c42 0 80.833 5.66699 116.5 17s66.334 27.166 92.001 47.499s45.667 44.833 60 73.5s21.5 60.667 21.5 96c0 26 -5 51 -15 75s-26.167 45.5 -48.5 64.5s-52 34.167 -89 45.5s-82.5 17 -136.5 17h-271zM480.997 980
c57.333 0 105.67 -6.16895 145.003 -18.502s71.166 -28.666 95.499 -48.999s41.833 -44 52.5 -71s16 -54.833 16 -83.5c0 -22 -3.5 -45.667 -10.5 -71s-19.333 -49.333 -37 -72s-41.167 -43 -70.5 -61s-66 -30.667 -110 -38c54 -3.33301 99.333 -12 136 -26
s66.167 -32 88.5 -54s38.5 -47 48.5 -75s15 -57.667 15 -89c0 -41.333 -7.83301 -78.666 -23.5 -111.999s-38.334 -61.833 -68.001 -85.5s-65.834 -42 -108.501 -55s-91 -19.5 -145 -19.5h-321v980h297z" />
    <glyph glyph-name="afii10068" unicode="&#x433;" horiz-adv-x="792" 
d="M754 960h-546v-960h-24v980h570v-20z" />
    <glyph glyph-name="afii10069" unicode="&#x434;" horiz-adv-x="1166" 
d="M911 20l-0.000976562 937.998h-474c-5.33301 -114.667 -13.333 -216.5 -24 -305.5s-23.5 -167 -38.5 -234s-31.5 -124 -49.5 -171s-36.5 -86.167 -55.5 -117.5s-38.167 -55.666 -57.5 -72.999s-37.666 -29.666 -54.999 -36.999h754zM1114 19.998v-369.001
c0 -7.33301 -3.66699 -11 -11 -11h-9v360h-1040v-353c0 -4.66699 -2.33301 -7 -7 -7h-13v380h44c24 0 48.333 5.83301 73 17.5s48.5 31.834 71.5 60.501s45 66.667 66 114s40 106.5 57 177.5s31.5 155.167 43.5 252.5s21 210 27 338h519v-960h179z" />
    <glyph glyph-name="afii10070" unicode="&#x435;" horiz-adv-x="1031" 
d="M900 582c0 63.333 -8.99805 119.501 -26.998 168.501s-42.833 90.167 -74.5 123.5s-68.834 58.666 -111.501 75.999s-88.334 26 -137.001 26c-58.667 0 -111.5 -9.33301 -158.5 -28s-87.5 -45.334 -121.5 -80.001s-61.167 -76.167 -81.5 -124.5
s-33.5 -102.166 -39.5 -161.499h751zM894.002 116.001c-11.333 -14 -28.1689 -28.5059 -50.502 -43.5059s-48.666 -28.833 -78.999 -41.5s-63.5 -23 -99.5 -31s-73 -12 -111 -12c-67.333 0 -127.666 11.833 -180.999 35.5s-98.5 57.834 -135.5 102.501
s-65.5 99.334 -85.5 164.001s-30 138 -30 220c0 72 9.66699 137.833 29 197.5s47.333 110.834 84 153.501s81.5 75.834 134.5 99.501s113.167 35.5 180.5 35.5c51.333 0 99.666 -9.16699 144.999 -27.5s84.833 -45.5 118.5 -81.5s60.167 -80.167 79.5 -132.5
s29 -112.5 29 -180.5c0 -3.33301 -1.16699 -5.83301 -3.5 -7.5s-5.16602 -2.5 -8.49902 -2.5h-762c-0.666992 -9.33301 -1.16699 -18.333 -1.5 -27s-0.5 -17.667 -0.5 -27c0 -81.333 9.66699 -153.166 29 -215.499s46.833 -114.666 82.5 -156.999s78.667 -74.5 129 -96.5
s106.166 -33 167.499 -33c54.667 0 102 6 142 18s73.333 25.333 100 40s47 28 61 40s22.333 18 25 18s5.33398 -1.33301 8.00098 -4z" />
    <glyph glyph-name="afii10072" unicode="&#x436;" horiz-adv-x="1444" 
d="M1398 0h-17.002c-11.333 0 -19 3 -23 9l-299 387c-22.667 29.333 -48.834 51.833 -78.501 67.5s-63.167 23.5 -100.5 23.5h-146v-489h-24v489h-146c-37.333 0 -70.833 -7.83301 -100.5 -23.5s-55.834 -38.167 -78.501 -67.5l-299 -387c-4 -6 -11.667 -9 -23 -9h-17
l323 410c20 25.333 41.667 45.5 65 60.5s50 24.833 80 29.5c-26 7.33301 -48.5 18.333 -67.5 33s-36.167 31.334 -51.5 50.001l-317 397h16c8.66699 0 15.334 -3.33301 20.001 -10l307 -383c18.667 -23.333 42.334 -42.5 71.001 -57.5s57 -22.5 85 -22.5h133v474h24v-474
h133c28 0 56.333 7.5 85 22.5s52.334 34.167 71.001 57.5l307 383c4.66699 6.66699 11.334 10 20.001 10h16l-317 -397c-15.333 -18.667 -32.5 -35.334 -51.5 -50.001s-41.5 -25.667 -67.5 -33c30 -4.66699 56.667 -14.5 80 -29.5s45 -35.167 65 -60.5z" />
    <glyph glyph-name="afii10073" unicode="&#x437;" horiz-adv-x="890" 
d="M111 894c33.333 30 74.8291 54.5 124.496 73.5s107.834 28.5 174.501 28.5c56.667 0 105.834 -7.16699 147.501 -21.5s76 -33 103 -56s47 -48.667 60 -77s19.5 -56.833 19.5 -85.5c0 -23.333 -4.66699 -47.333 -14 -72s-24.333 -47.834 -45 -69.501s-48 -40.667 -82 -57
s-75.333 -27.5 -124 -33.5c50.667 -5.33301 94.5 -15.666 131.5 -30.999s67.667 -34.5 92 -57.5s42.333 -48.833 54 -77.5s17.5 -58.667 17.5 -90c0 -40 -8.83301 -77.167 -26.5 -111.5s-42.5 -64 -74.5 -89s-69.833 -44.5 -113.5 -58.5s-91.5 -21 -143.5 -21
c-40 0 -77 4 -111 12s-64.667 18.167 -92 30.5s-50.666 26 -69.999 41s-34 29.833 -44 44.5l4 4c2.66699 2.66699 5.33398 4 8.00098 4c4 0 12.333 -6 25 -18s31 -25.333 55 -40s54.333 -28 91 -40s81 -18 133 -18c50 0 95.667 6.33301 137 19s76.666 30.5 105.999 53.5
s52.166 50.5 68.499 82.5s24.5 67 24.5 105c0 36 -7.66699 69 -23 99s-37.833 55.833 -67.5 77.5s-66.167 38.667 -109.5 51s-92.666 18.5 -147.999 18.5h-111v20h111c48 0 91.667 5.66699 131 17s73 27 101 47s49.667 43.5 65 70.5s23 56.167 23 87.5
c0 26.667 -6.16699 53.167 -18.5 79.5s-31.166 50 -56.499 71s-57.333 37.833 -96 50.5s-84.667 19 -138 19c-48.667 0 -90.167 -4.83301 -124.5 -14.5s-62.666 -20.167 -84.999 -31.5s-39.5 -21.833 -51.5 -31.5s-20 -14.5 -24 -14.5
c-2.66699 0 -5.33398 1.33301 -8.00098 4z" />
    <glyph glyph-name="afii10074" unicode="&#x438;" horiz-adv-x="1118" 
d="M934 980v-980.001h-24v900v19c0 6 0.333008 12.333 1 19l-18 -27c-0.666992 -1.33301 -5.66699 -8.16602 -15 -20.499l-38.5 -50.5l-57.5 -75l-71 -93l-80 -105.5l-85 -111.5l-341 -448c-3.33301 -4.66699 -7 -7 -11 -7h-10v980h24v-900v-19
c0 -6 -0.333008 -12.333 -1 -19c6.66699 10.667 12.667 19.667 18 27c0.666992 1.33301 11.167 15.333 31.5 42l79.5 103.5l110.5 145l125.5 165.5l341 448c3.33301 4.66699 7 7 11 7h10z" />
    <glyph glyph-name="afii10075" unicode="&#x439;" horiz-adv-x="1118" 
d="M934 980v-980.001h-24v900v19c0 6 0.333008 12.333 1 19l-18 -27c-0.666992 -1.33301 -5.66699 -8.16602 -15 -20.499l-38.5 -50.5l-57.5 -75l-71 -93l-80 -105.5l-85 -111.5l-341 -448c-3.33301 -4.66699 -7 -7 -11 -7h-10v980h24v-900v-19
c0 -6 -0.333008 -12.333 -1 -19c6.66699 10.667 12.667 19.667 18 27c0.666992 1.33301 11.167 15.333 31.5 42l79.5 103.5l110.5 145l125.5 165.5l341 448c3.33301 4.66699 7 7 11 7h10zM565 1192c64.667 0 112.502 17 143.502 51s46.5 86.333 46.5 157h10
c3.33301 0 6.16602 -1.16699 8.49902 -3.5s3.5 -6.16602 3.5 -11.499c0 -31.333 -4 -59.666 -12 -84.999s-20.5 -47 -37.5 -65s-39 -32 -66 -42s-59.167 -15 -96.5 -15s-69.5 5 -96.5 15s-49 24 -66 42s-29.5 39.667 -37.5 65s-12 53.666 -12 84.999
c0 5.33301 1.16699 9.16602 3.5 11.499s5.16602 3.5 8.49902 3.5h10c0 -70.667 15.5 -123 46.5 -157s78.833 -51 143.5 -51z" />
    <glyph glyph-name="afii10076" unicode="&#x43a;" horiz-adv-x="918" 
d="M804 970c2.66699 2.66699 5.66797 5.00098 9.00098 7.00098s7 3 11 3h16l-317 -397c-15.333 -18.667 -32.5 -35.334 -51.5 -50.001s-41.5 -25.667 -67.5 -33c57.333 -10 105.666 -40 144.999 -90l323 -410h-17c-9.33301 0 -17 3 -23 9l-299 387
c-22.667 29.333 -48.834 51.833 -78.501 67.5s-63.167 23.5 -100.5 23.5h-146v-489h-24v982h24v-473h133c28 0 56.333 7.5 85 22.5s52.334 34.167 71.001 57.5z" />
    <glyph glyph-name="afii10077" unicode="&#x43b;" horiz-adv-x="1112" 
d="M928 0l-24.001 0.00195312v958h-474c-6 -133.333 -16.5 -249.833 -31.5 -349.5s-33 -185.334 -54 -257.001s-44.167 -130.834 -69.5 -177.501s-51.833 -83.667 -79.5 -111s-55.667 -46.333 -84 -57s-55.833 -16 -82.5 -16c-6 0 -13.667 0.5 -23 1.5s-14 2.5 -14 4.5v16
h37c24.667 0 50.334 5.5 77.001 16.5s53.167 30.333 79.5 58s51.5 65 75.5 112s46 106.333 66 178s37.167 157 51.5 256s24.5 214.833 30.5 347.5h519v-980z" />
    <glyph glyph-name="afii10078" unicode="&#x43c;" horiz-adv-x="1362" 
d="M1178 987l0.00195312 -987h-20v913c0 4 0.166992 8.16699 0.5 12.5s0.833008 8.5 1.5 12.5l-460 -745c-1.33301 -2 -2.66602 -4.16699 -3.99902 -6.5s-3.33301 -3.5 -6 -3.5h-4c-2 0 -3.83301 1.16699 -5.5 3.5l-4.5 6.5l-474 745
c0.666992 -4 1.16699 -8.16699 1.5 -12.5s0.5 -8.5 0.5 -12.5v-913h-20v987h6c3.33301 0 6.66602 -2 9.99902 -6l480 -755l4 -8c1.33301 -2.66699 2.66602 -5 3.99902 -7c1.33301 2 2.66602 4.33301 3.99902 7l4 8l467 755c2.66699 4 6 6 10 6h5z" />
    <glyph glyph-name="afii10079" unicode="&#x43d;" horiz-adv-x="1098" 
d="M914 980v-980h-24v521h-682v-521h-24v980h24v-439h682v439h24z" />
    <glyph glyph-name="afii10080" unicode="&#x43e;" horiz-adv-x="1101" 
d="M550 996c68.667 0 129.667 -12.167 183 -36.5s98.166 -58.5 134.499 -102.5s63.833 -97.167 82.5 -159.5s28 -131.5 28 -207.5s-9.33301 -144.833 -28 -206.5s-46.167 -114.5 -82.5 -158.5s-81.166 -77.833 -134.499 -101.5s-114.333 -35.5 -183 -35.5
c-69.333 0 -130.5 11.833 -183.5 35.5s-97.667 57.5 -134 101.5s-63.833 96.833 -82.5 158.5s-28 130.5 -28 206.5s9.33301 145.167 28 207.5s46.167 115.5 82.5 159.5s81 78.167 134 102.5s114.167 36.5 183.5 36.5zM550 8c66.667 0 125.334 11.667 176.001 35
s92.834 56 126.501 98s59 92.667 76 152s25.5 125 25.5 197s-8.5 137.833 -25.5 197.5s-42.333 110.834 -76 153.501s-75.834 75.834 -126.501 99.501s-109.334 35.5 -176.001 35.5c-67.333 0 -126.166 -11.833 -176.499 -35.5s-92.333 -56.834 -126 -99.501
s-59 -93.834 -76 -153.501s-25.5 -125.5 -25.5 -197.5s8.5 -137.667 25.5 -197s42.333 -110 76 -152s75.667 -74.667 126 -98s109.166 -35 176.499 -35z" />
    <glyph glyph-name="afii10081" unicode="&#x43f;" horiz-adv-x="1098" 
d="M914 0h-24v960h-682v-960h-24v980h730v-980z" />
    <glyph glyph-name="afii10082" unicode="&#x440;" horiz-adv-x="1087" 
d="M208 195c42.667 -68.667 90.3291 -117.001 142.996 -145.001s113.667 -42 183 -42c68.667 0 128.334 12.5 179.001 37.5s92.834 59.5 126.501 103.5s58.834 95.667 75.501 155s25 123.333 25 192c0 162.667 -31.167 283.334 -93.5 362.001s-153.833 118 -274.5 118
c-72.667 0 -140.167 -20.333 -202.5 -61s-116.166 -96.667 -161.499 -168v-552zM207.995 777.999c44 67.333 97.168 120.501 159.501 159.501s130.5 58.5 204.5 58.5c126.667 0 223.667 -40.833 291 -122.5s101 -207.5 101 -377.5c0 -71.333 -9.16699 -137.833 -27.5 -199.5
s-45.5 -115.334 -81.5 -161.001s-80.833 -81.667 -134.5 -108s-115.834 -39.5 -186.501 -39.5c-144 0 -252.667 58.333 -326 175v-523h-24v1340h6c9.33301 0 14 -5.33301 14 -16z" />
    <glyph glyph-name="afii10083" unicode="&#x441;" horiz-adv-x="933" 
d="M822 888c-2.66699 -2.66699 -5.33105 -4 -7.99805 -4c-4 0 -11.5 4.83301 -22.5 14.5s-27 20.167 -48 31.5s-47.333 21.833 -79 31.5s-69.834 14.5 -114.501 14.5c-63.333 0 -120 -11.333 -170 -34s-92.333 -55 -127 -97s-61.167 -93 -79.5 -153
s-27.5 -127.333 -27.5 -202c0 -77.333 9.16699 -145.833 27.5 -205.5s44.5 -110 78.5 -151s74.833 -72.167 122.5 -93.5s100.834 -32 159.501 -32c52 0 96 6 132 18s65.667 25.333 89 40s41 28 53 40s20 18 24 18c2.66699 0 5.33398 -1.33301 8.00098 -4l4 -4
c-10 -14.667 -24.667 -29.5 -44 -44.5s-42.333 -28.667 -69 -41s-56.667 -22.5 -90 -30.5s-69 -12 -107 -12c-63.333 0 -120.333 11.333 -171 34s-93.834 55.5 -129.501 98.5s-63.167 95.5 -82.5 157.5s-29 132.667 -29 212c0 76 9.66699 145.167 29 207.5
s47.333 115.5 84 159.5s81.5 78.167 134.5 102.5s113.167 36.5 180.5 36.5c59.333 0 112.166 -9.5 158.499 -28.5s86.166 -43.5 119.499 -73.5z" />
    <glyph glyph-name="afii10084" unicode="&#x442;" horiz-adv-x="976" 
d="M940 960h-440v-960h-24v960h-440v20h904v-20z" />
    <glyph glyph-name="afii10085" unicode="&#x443;" horiz-adv-x="979" 
d="M927 980l-577.996 -1318c-2 -5.33301 -5 -10.333 -9 -15s-9 -7 -15 -7h-14l168 377l-424 963h14c5.33301 0 9.66602 -1.5 12.999 -4.5s5.66602 -6.16699 6.99902 -9.5l390 -890c5.33301 -11.333 9.66602 -23.666 12.999 -36.999c1.33301 6 3.16602 12.167 5.49902 18.5
s4.83301 12.5 7.5 18.5l390 890c4.66699 9.33301 10.667 14 18 14h14z" />
    <glyph glyph-name="afii10086" unicode="&#x444;" horiz-adv-x="1292" 
d="M658 8c84.667 1.33301 157.834 13.835 219.501 37.502s112.5 56.667 152.5 99s69.667 92.666 89 150.999s29 123.166 29 194.499c0 70.667 -9.66699 135.667 -29 195s-49 110.333 -89 153s-90.833 76 -152.5 100s-134.834 36.667 -219.501 38v-968zM634 976.002
c-84.667 -1.33301 -157.834 -14.002 -219.501 -38.002s-112.5 -57.333 -152.5 -100s-69.667 -93.667 -89 -153s-29 -124.333 -29 -195c0 -71.333 9.66699 -136.166 29 -194.499s49 -108.666 89 -150.999s90.833 -75.333 152.5 -99s134.834 -36.167 219.501 -37.5v968z
M658 996c86.667 -1.33301 162.167 -14.333 226.5 -39s117.833 -59.167 160.5 -103.5s74.5 -97.333 95.5 -159s31.5 -129.834 31.5 -204.501c0 -75.333 -10.5 -143.5 -31.5 -204.5s-52.833 -113.333 -95.5 -157s-96.167 -77.667 -160.5 -102s-139.833 -37.166 -226.5 -38.499
v-348h-24v348c-86.667 1.33301 -162.167 14.166 -226.5 38.499s-117.833 58.333 -160.5 102s-74.5 96 -95.5 157s-31.5 129.167 -31.5 204.5c0 74.667 10.5 142.834 31.5 204.501s52.833 114.667 95.5 159s96.167 78.833 160.5 103.5s139.833 37.667 226.5 39v404h24v-404z
" />
    <glyph glyph-name="afii10087" unicode="&#x445;" horiz-adv-x="888" 
d="M827 0h-22.001c-5.33301 -0 -9.16602 1.83301 -11.499 5.5s-4.5 6.5 -6.5 8.5l-343 474c-1.33301 -2 -2.5 -4 -3.5 -6s-2.83301 -4.66699 -5.5 -8l-334 -460c-3.33301 -3.33301 -6.16602 -6.5 -8.49902 -9.5s-5.5 -4.5 -9.5 -4.5h-22l367 499l-353 481h22
c5.33301 0 9.16602 -1.83301 11.499 -5.5s4.5 -6.5 6.5 -8.5l330 -455c2 4.66699 4.66699 9.66699 8 15l320 440c2 3.33301 4.5 6.5 7.5 9.5s6.5 4.5 10.5 4.5h22l-353 -479z" />
    <glyph glyph-name="afii10088" unicode="&#x446;" horiz-adv-x="1145" 
d="M1093 20v-369c0 -7.33301 -3.66699 -11 -11 -11h-9v360h-889v980h24v-960h682v960h24v-960h179z" />
    <glyph glyph-name="afii10089" unicode="&#x447;" horiz-adv-x="974" 
d="M790 980l0.000976562 -980.001h-24v491c-54 -15.333 -107.833 -28.666 -161.5 -39.999s-104.834 -18.666 -153.501 -21.999s-93.834 -2.16602 -135.501 3.50098s-77.667 17.5 -108 35.5s-54.166 42.833 -71.499 74.5s-26 71.5 -26 119.5v318h24v-318
c0 -43.333 7.83301 -79.333 23.5 -108s37.5 -51.334 65.5 -68.001s61.5 -27.834 100.5 -33.501s82 -6.83398 129 -3.50098s97 10.333 150 21s107.5 24.334 163.5 41.001v469h24z" />
    <glyph glyph-name="afii10090" unicode="&#x448;" horiz-adv-x="1604" 
d="M1420 980v-980h-1236v980h24v-960h582v960h24v-960h582v960h24z" />
    <glyph glyph-name="afii10091" unicode="&#x449;" horiz-adv-x="1652" 
d="M1396 980h24v-980h-1236v980h24v-960h582v960h24v-960h582v960zM1600 20v-369c0 -7.33301 -3.66699 -11 -11 -11h-9v360h-159v20h179z" />
    <glyph glyph-name="afii10092" unicode="&#x44a;" horiz-adv-x="1126" 
d="M701 20c53.333 0 99.6689 6.50098 139.002 19.501s71.833 30.833 97.5 53.5s44.667 49.5 57 80.5s18.5 64.833 18.5 101.5c0 34.667 -5.16699 67.167 -15.5 97.5s-27.833 56.666 -52.5 78.999s-57.334 40 -98.001 53s-91.334 19.5 -152.001 19.5h-291v-504h297z
M695.003 544.001c66.667 0 121.833 -7.66699 165.5 -23s78.5 -35.5 104.5 -60.5s44.333 -53.5 55 -85.5s16 -64.667 16 -98c0 -39.333 -7 -75.833 -21 -109.5s-34.833 -63 -62.5 -88s-62.5 -44.5 -104.5 -58.5s-91 -21 -147 -21h-321v958h-344v22h368v-436h291z" />
    <glyph glyph-name="afii10093" unicode="&#x44b;" horiz-adv-x="1352" 
d="M505 20c53.333 0 99.6689 6.50098 139.002 19.501s71.833 30.833 97.5 53.5s44.667 49.5 57 80.5s18.5 64.833 18.5 101.5c0 34.667 -5.16699 67.167 -15.5 97.5s-27.833 56.666 -52.5 78.999s-57.334 40 -98.001 53s-91.334 19.5 -152.001 19.5h-291v-504h297z
M499.003 544.001c66.667 0 121.833 -7.66699 165.5 -23s78.5 -35.5 104.5 -60.5s44.333 -53.5 55 -85.5s16 -64.667 16 -98c0 -39.333 -7 -75.833 -21 -109.5s-34.833 -63 -62.5 -88s-62.5 -44.5 -104.5 -58.5s-91 -21 -147 -21h-321v980h24v-436h291zM1168 980.001v-980
h-24v980h24z" />
    <glyph glyph-name="afii10094" unicode="&#x44c;" horiz-adv-x="930" 
d="M505 20c53.333 0 99.6689 6.50098 139.002 19.501s71.833 30.833 97.5 53.5s44.667 49.5 57 80.5s18.5 64.833 18.5 101.5c0 34.667 -5.16699 67.167 -15.5 97.5s-27.833 56.666 -52.5 78.999s-57.334 40 -98.001 53s-91.334 19.5 -152.001 19.5h-290v-504h296z
M499.003 544.001c66.667 0 121.833 -7.66699 165.5 -23s78.5 -35.5 104.5 -60.5s44.333 -53.5 55 -85.5s16 -64.667 16 -98c0 -39.333 -7 -75.833 -21 -109.5s-34.833 -63 -62.5 -88s-62.5 -44.5 -104.5 -58.5s-91 -21 -147 -21h-321v980h25v-436h290z" />
    <glyph glyph-name="afii10095" unicode="&#x44d;" horiz-adv-x="943" 
d="M115 894c33.333 30 73.165 54.502 119.498 73.502s99.166 28.5 158.499 28.5c67.333 0 127.5 -12.167 180.5 -36.5s97.833 -58.5 134.5 -102.5s64.667 -97.167 84 -159.5s29 -131.5 29 -207.5c0 -79.333 -9.66699 -150 -29 -212s-46.833 -114.5 -82.5 -157.5
s-79 -75.833 -130 -98.5s-107.833 -34 -170.5 -34c-38 0 -73.667 4 -107 12s-63.333 18.167 -90 30.5s-49.667 26 -69 41s-34 29.833 -44 44.5l4 4c2.66699 2.66699 5.33398 4 8.00098 4c4 0 12 -6 24 -18s29.667 -25.333 53 -40s53 -28 89 -40s80 -18 132 -18
c58.667 0 111.834 10.667 159.501 32s88.5 52.5 122.5 93.5s60.167 91.333 78.5 151s27.5 128.167 27.5 205.5v1h-577v20h577c-2 71.333 -12.5 135.666 -31.5 192.999s-45.667 106.166 -80 146.499s-76.166 71.333 -125.499 93s-105 32.5 -167 32.5
c-45.333 0 -83.666 -4.83301 -114.999 -14.5s-57.5 -20.167 -78.5 -31.5s-37 -21.833 -48 -31.5s-18.5 -14.5 -22.5 -14.5c-2.66699 0 -5.33398 1.33301 -8.00098 4z" />
    <glyph glyph-name="afii10096" unicode="&#x44e;" horiz-adv-x="1475" 
d="M952 8c62.667 0 117.5 11.667 164.5 35s86.167 56 117.5 98s54.833 92.667 70.5 152s23.5 125 23.5 197s-7.83301 137.833 -23.5 197.5s-39.167 110.834 -70.5 153.501s-70.5 75.834 -117.5 99.501s-101.833 35.5 -164.5 35.5s-117.5 -11.833 -164.5 -35.5
s-86.167 -56.834 -117.5 -99.501s-54.833 -93.834 -70.5 -153.501s-23.5 -125.5 -23.5 -197.5s7.83301 -137.667 23.5 -197s39.167 -110 70.5 -152s70.5 -74.667 117.5 -98s101.833 -35 164.5 -35zM552 499c0.666992 74.667 10 142.499 28 203.499s43.833 113.333 77.5 157
s75.167 77.334 124.5 101.001s106 35.5 170 35.5c64.667 0 121.834 -12.167 171.501 -36.5s91.5 -58.5 125.5 -102.5s59.667 -97.167 77 -159.5s26 -131.5 26 -207.5s-8.66699 -144.833 -26 -206.5s-43 -114.5 -77 -158.5s-75.833 -77.833 -125.5 -101.5
s-106.834 -35.5 -171.501 -35.5c-64 0 -120.667 11.667 -170 35s-90.833 56.333 -124.5 99s-59.5 94.167 -77.5 154.5s-27.333 127.833 -28 202.5h-344v-479h-24v980h24v-481h344z" />
    <glyph glyph-name="afii10097" unicode="&#x44f;" horiz-adv-x="921" 
d="M712 484l-0.000976562 476.001h-251c-54 0 -99.5 -7.66699 -136.5 -23s-66.667 -34.833 -89 -58.5s-38.5 -50 -48.5 -79s-15 -57.5 -15 -85.5c0 -36 7.66699 -68.333 23 -97s37.5 -52.834 66.5 -72.501s64.333 -34.667 106 -45s88.834 -15.5 141.501 -15.5h203z
M736.999 980.001l0.000976562 -980.003h-25v464h-157c-15.333 0 -28.5 -0.666992 -39.5 -2s-21 -3.66602 -30 -6.99902s-17.333 -8.16602 -25 -14.499s-15.834 -14.5 -24.501 -24.5l-350 -407c-4 -6 -11.667 -9 -23 -9h-17l374 430c14 20.667 33.667 34 59 40
c-58.667 2 -108.667 9.66699 -150 23s-75.166 31 -101.499 53s-45.666 48 -57.999 78s-18.5 62.667 -18.5 98c0 28.667 5.33301 58.334 16 89.001s28.167 58.5 52.5 83.5s56.166 45.5 95.499 61.5s87.666 24 144.999 24h277z" />
    <glyph glyph-name="uni0450" unicode="&#x450;" horiz-adv-x="1031" 
d="M900 582c0 63.333 -8.99805 119.501 -26.998 168.501s-42.833 90.167 -74.5 123.5s-68.834 58.666 -111.501 75.999s-88.334 26 -137.001 26c-58.667 0 -111.5 -9.33301 -158.5 -28s-87.5 -45.334 -121.5 -80.001s-61.167 -76.167 -81.5 -124.5
s-33.5 -102.166 -39.5 -161.499h751zM894.002 116.001c-11.333 -14 -28.1689 -28.5059 -50.502 -43.5059s-48.666 -28.833 -78.999 -41.5s-63.5 -23 -99.5 -31s-73 -12 -111 -12c-67.333 0 -127.666 11.833 -180.999 35.5s-98.5 57.834 -135.5 102.501
s-65.5 99.334 -85.5 164.001s-30 138 -30 220c0 72 9.66699 137.833 29 197.5s47.333 110.834 84 153.501s81.5 75.834 134.5 99.501s113.167 35.5 180.5 35.5c51.333 0 99.666 -9.16699 144.999 -27.5s84.833 -45.5 118.5 -81.5s60.167 -80.167 79.5 -132.5
s29 -112.5 29 -180.5c0 -3.33301 -1.16699 -5.83301 -3.5 -7.5s-5.16602 -2.5 -8.49902 -2.5h-762c-0.666992 -9.33301 -1.16699 -18.333 -1.5 -27s-0.5 -17.667 -0.5 -27c0 -81.333 9.66699 -153.166 29 -215.499s46.833 -114.666 82.5 -156.999s78.667 -74.5 129 -96.5
s106.166 -33 167.499 -33c54.667 0 102 6 142 18s73.333 25.333 100 40s47 28 61 40s22.333 18 25 18s5.33398 -1.33301 8.00098 -4zM421.999 1416c11.333 0 19.666 -1.33301 24.999 -4s11 -8.66699 17 -18l164 -236h-14c-7.33301 0 -12.666 2.66699 -15.999 8l-202 250h26z
" />
    <glyph glyph-name="afii10071" unicode="&#x451;" horiz-adv-x="1031" 
d="M900 582c0 63.333 -8.99805 119.501 -26.998 168.501s-42.833 90.167 -74.5 123.5s-68.834 58.666 -111.501 75.999s-88.334 26 -137.001 26c-58.667 0 -111.5 -9.33301 -158.5 -28s-87.5 -45.334 -121.5 -80.001s-61.167 -76.167 -81.5 -124.5
s-33.5 -102.166 -39.5 -161.499h751zM894.002 116.001c-11.333 -14 -28.1689 -28.5059 -50.502 -43.5059s-48.666 -28.833 -78.999 -41.5s-63.5 -23 -99.5 -31s-73 -12 -111 -12c-67.333 0 -127.666 11.833 -180.999 35.5s-98.5 57.834 -135.5 102.501
s-65.5 99.334 -85.5 164.001s-30 138 -30 220c0 72 9.66699 137.833 29 197.5s47.333 110.834 84 153.501s81.5 75.834 134.5 99.501s113.167 35.5 180.5 35.5c51.333 0 99.666 -9.16699 144.999 -27.5s84.833 -45.5 118.5 -81.5s60.167 -80.167 79.5 -132.5
s29 -112.5 29 -180.5c0 -3.33301 -1.16699 -5.83301 -3.5 -7.5s-5.16602 -2.5 -8.49902 -2.5h-762c-0.666992 -9.33301 -1.16699 -18.333 -1.5 -27s-0.5 -17.667 -0.5 -27c0 -81.333 9.66699 -153.166 29 -215.499s46.833 -114.666 82.5 -156.999s78.667 -74.5 129 -96.5
s106.166 -33 167.499 -33c54.667 0 102 6 142 18s73.333 25.333 100 40s47 28 61 40s22.333 18 25 18s5.33398 -1.33301 8.00098 -4zM439.999 1280c0 -14 -5.83301 -26.5 -17.5 -37.5s-24.5 -16.5 -38.5 -16.5c-15.333 0 -28.5 5.5 -39.5 16.5s-16.5 23.5 -16.5 37.5
c0 15.333 5.5 28.5 16.5 39.5s24.167 16.5 39.5 16.5c14 0 26.833 -5.5 38.5 -16.5s17.5 -24.167 17.5 -39.5zM767.999 1280c0 -14 -5.83301 -26.5 -17.5 -37.5s-24.5 -16.5 -38.5 -16.5c-15.333 0 -28.5 5.5 -39.5 16.5s-16.5 23.5 -16.5 37.5c0 15.333 5.5 28.5 16.5 39.5
s24.167 16.5 39.5 16.5c14 0 26.833 -5.5 38.5 -16.5s17.5 -24.167 17.5 -39.5z" />
    <glyph glyph-name="afii10099" unicode="&#x452;" horiz-adv-x="1056" 
d="M208 706c22.667 33.333 48.1689 63.668 76.502 91.001s58.833 50.5 91.5 69.5s67 33.667 103 44s73 15.5 111 15.5c54.667 0 102.834 -9.33301 144.501 -28s76.5 -45 104.5 -79s49.167 -74.833 63.5 -122.5s21.5 -100.5 21.5 -158.5c0 -86 -6.83301 -167.333 -20.5 -244
s-33.834 -150.834 -60.501 -222.501s-59.5 -141.834 -98.5 -210.501s-83.5 -137.667 -133.5 -207l-18 13c46 64 88 129.167 126 195.5s70.333 135 97 206s47.334 145.333 62.001 223s22 159.834 22 246.501c0 54.667 -6.66699 104.5 -20 149.5s-33 83.667 -59 116
s-58.333 57.5 -97 75.5s-83.334 27 -134.001 27c-76.667 0 -147.334 -20.333 -212.001 -61s-121.334 -97 -170.001 -169v-676h-24v1146h-224v22h224v272h24v-272h430v-22h-430v-440z" />
    <glyph glyph-name="afii10100" unicode="&#x453;" horiz-adv-x="792" 
d="M754 960h-546v-960h-24v980h570v-20zM607 1416l-202 -250c-3.33301 -5.33301 -8.66602 -8 -15.999 -8h-14l164 236c6 9.33301 11.667 15.333 17 18s13.666 4 24.999 4h26z" />
    <glyph glyph-name="afii10101" unicode="&#x454;" horiz-adv-x="943" 
d="M822 888c-2.66699 -2.66699 -5.33203 -4.00195 -7.99902 -4.00195c-4 0 -11.5 4.83301 -22.5 14.5s-27 20.167 -48 31.5s-47.333 21.833 -79 31.5s-69.834 14.5 -114.501 14.5c-62 0 -117.667 -10.833 -167 -32.5s-91.166 -52.667 -125.499 -93s-61 -89.166 -80 -146.499
s-29.5 -121.666 -31.5 -192.999h577v-20h-577v-1c0 -77.333 9.16699 -145.833 27.5 -205.5s44.5 -110 78.5 -151s74.833 -72.167 122.5 -93.5s100.834 -32 159.501 -32c52 0 96 6 132 18s65.667 25.333 89 40s41 28 53 40s20 18 24 18
c2.66699 0 5.33398 -1.33301 8.00098 -4l4 -4c-10 -14.667 -24.667 -29.5 -44 -44.5s-42.333 -28.667 -69 -41s-56.667 -22.5 -90 -30.5s-69 -12 -107 -12c-63.333 0 -120.333 11.333 -171 34s-93.834 55.5 -129.501 98.5s-63.167 95.5 -82.5 157.5s-29 132.667 -29 212
c0 76 9.66699 145.167 29 207.5s47.333 115.5 84 159.5s81.5 78.167 134.5 102.5s113.167 36.5 180.5 36.5c59.333 0 112.166 -9.5 158.499 -28.5s86.166 -43.5 119.499 -73.5z" />
    <glyph glyph-name="afii10102" unicode="&#x455;" horiz-adv-x="837" 
d="M693 894c-2 -4 -5.33398 -6.00098 -10.001 -6.00098c-5.33301 0 -13.166 4.5 -23.499 13.5s-25.333 19 -45 30s-44.5 21.167 -74.5 30.5s-67 14 -111 14c-41.333 0 -79.166 -6.33301 -113.499 -19s-63.833 -29.5 -88.5 -50.5s-43.834 -45.167 -57.501 -72.5
s-20.5 -56 -20.5 -86c0 -35.333 8.33301 -64.833 25 -88.5s38.5 -43.667 65.5 -60s57.833 -30.166 92.5 -41.499l106 -33.5c36 -11 71.333 -22.667 106 -35s65.5 -27.833 92.5 -46.5s48.833 -41.5 65.5 -68.5s25 -60.5 25 -100.5s-7.16699 -77.667 -21.5 -113
s-35.166 -66 -62.499 -92s-60.833 -46.667 -100.5 -62s-84.834 -23 -135.501 -23c-35.333 0 -67 2.83301 -95 8.5s-53.667 13.5 -77 23.5s-45.333 22.333 -66 37s-41 31 -61 49l6 6c2 2 3.66699 3.5 5 4.5s3.66602 1.5 6.99902 1.5c5.33301 0 14 -5.66699 26 -17
s28.833 -24 50.5 -38s49.167 -26.667 82.5 -38s74 -17 122 -17s90.5 7 127.5 21s68.167 33.167 93.5 57.5s44.5 52.666 57.5 84.999s19.5 67.166 19.5 104.499c0 38 -8.33301 69.5 -25 94.5s-38.5 46.167 -65.5 63.5s-57.833 31.833 -92.5 43.5s-70 22.834 -106 33.501
s-71.333 22 -106 34s-65.5 26.833 -92.5 44.5s-48.833 39.5 -65.5 65.5s-25 58.333 -25 97c0 32.667 7.33301 63.834 22 93.501s35.334 56 62.001 79s58.5 41.333 95.5 55s77.833 20.5 122.5 20.5c55.333 0 104 -7.5 146 -22.5s82.667 -39.5 122 -73.5z" />
    <glyph glyph-name="afii10103" unicode="&#x456;" horiz-adv-x="416" 
d="M220 980v-980h-24v980h24zM264 1344c0 -14 -5.83301 -26.5 -17.5 -37.5s-24.5 -16.5 -38.5 -16.5c-15.333 0 -28.5 5.5 -39.5 16.5s-16.5 23.5 -16.5 37.5c0 15.333 5.5 28.5 16.5 39.5s24.167 16.5 39.5 16.5c14 0 26.833 -5.5 38.5 -16.5s17.5 -24.167 17.5 -39.5z" />
    <glyph glyph-name="afii10104" unicode="&#x457;" horiz-adv-x="416" 
d="M220 980v-980h-24v980h24zM140 1280c0 -14 -5.83301 -26.5 -17.5 -37.5s-24.5 -16.5 -38.5 -16.5c-15.333 0 -28.5 5.5 -39.5 16.5s-16.5 23.5 -16.5 37.5c0 15.333 5.5 28.5 16.5 39.5s24.167 16.5 39.5 16.5c14 0 26.833 -5.5 38.5 -16.5s17.5 -24.167 17.5 -39.5z
M388 1280c0 -14 -5.83301 -26.5 -17.5 -37.5s-24.5 -16.5 -38.5 -16.5c-15.333 0 -28.5 5.5 -39.5 16.5s-16.5 23.5 -16.5 37.5c0 15.333 5.5 28.5 16.5 39.5s24.167 16.5 39.5 16.5c14 0 26.833 -5.5 38.5 -16.5s17.5 -24.167 17.5 -39.5z" />
    <glyph glyph-name="afii10105" unicode="&#x458;" horiz-adv-x="416" 
d="M220 980l0.000976562 -1152c0 -29.333 -4.66699 -56.333 -14 -81s-22.5 -46 -39.5 -64s-37.5 -32 -61.5 -42s-51 -15 -81 -15c-18 0 -33.5 1.83301 -46.5 5.5s-25.5 9.16699 -37.5 16.5l4 8c2.66699 5.33301 5.66699 7.83301 9 7.5s8 -1.83301 14 -4.5
s13.667 -5.5 23 -8.5s20.666 -4.5 33.999 -4.5c56.667 0 99.5 16.833 128.5 50.5s43.5 77.5 43.5 131.5v1152h24zM263.001 1344c0 -14 -5.83301 -26.5 -17.5 -37.5s-24.5 -16.5 -38.5 -16.5c-15.333 0 -28.5 5.5 -39.5 16.5s-16.5 23.5 -16.5 37.5
c0 15.333 5.5 28.5 16.5 39.5s24.167 16.5 39.5 16.5c14 0 26.833 -5.5 38.5 -16.5s17.5 -24.167 17.5 -39.5z" />
    <glyph glyph-name="afii10106" unicode="&#x459;" horiz-adv-x="1649" 
d="M1224 20c53.333 0 99.6689 6.50098 139.002 19.501s71.833 30.833 97.5 53.5s44.667 49.5 57 80.5s18.5 64.833 18.5 101.5c0 34.667 -5.16699 67.167 -15.5 97.5s-27.833 56.666 -52.5 78.999s-57.334 40 -98.001 53s-91.334 19.5 -152.001 19.5h-290v-504h296z
M1218 544.001c66.667 0 121.832 -7.66504 165.499 -22.998s78.5 -35.5 104.5 -60.5s44.333 -53.5 55 -85.5s16 -64.667 16 -98c0 -39.333 -7 -75.833 -21 -109.5s-34.833 -63 -62.5 -88s-62.5 -44.5 -104.5 -58.5s-91 -21 -147 -21h-320v958h-474
c-6 -133.333 -16.5 -249.833 -31.5 -349.5s-33 -185.334 -54 -257.001s-44.167 -130.834 -69.5 -177.501s-51.833 -83.667 -79.5 -111s-55.667 -46.333 -84 -57s-55.833 -16 -82.5 -16c-6 0 -13.667 0.5 -23 1.5s-14 2.5 -14 4.5v16h37c24.667 0 50.334 5.5 77.001 16.5
s53.167 30.333 79.5 58s51.5 65 75.5 112s46 106.333 66 178s37.167 157 51.5 256s24.5 214.833 30.5 347.5h519v-436h290z" />
    <glyph glyph-name="afii10107" unicode="&#x45a;" horiz-adv-x="1637" 
d="M1210 20c53.333 0 99.6689 6.50098 139.002 19.501s71.833 30.833 97.5 53.5s44.667 49.5 57 80.5s18.5 64.833 18.5 101.5c0 34.667 -5.16699 67.167 -15.5 97.5s-27.833 56.666 -52.5 78.999s-57.334 40 -98.001 53s-91.334 19.5 -152.001 19.5h-290v-504h296z
M1204 544.001c66.667 0 121.833 -7.66699 165.5 -23s78.5 -35.5 104.5 -60.5s44.333 -53.5 55 -85.5s16 -64.667 16 -98c0 -39.333 -7 -75.833 -21 -109.5s-34.833 -63 -62.5 -88s-62.5 -44.5 -104.5 -58.5s-91 -21 -147 -21h-320v521h-682v-521h-24v980h24v-439h682v439h24
v-436h290z" />
    <glyph glyph-name="afii10108" unicode="&#x45b;" horiz-adv-x="1087" 
d="M208 776c22.667 33.333 48.1689 63.667 76.502 91s58.833 50.5 91.5 69.5s67 33.667 103 44s73 15.5 111 15.5c108.667 0 189.834 -32.333 243.501 -97s80.5 -155 80.5 -271v-628h-24v628c0 54.667 -6 103.5 -18 146.5s-30.5 79.5 -55.5 109.5s-56.333 52.833 -94 68.5
s-81.834 23.5 -132.501 23.5c-76.667 0 -147.334 -20.333 -212.001 -61s-121.334 -97 -170.001 -169v-746h-24v1200h-176v20h176v220h24v-220h320v-20h-320v-424z" />
    <glyph glyph-name="afii10109" unicode="&#x45c;" horiz-adv-x="916" 
d="M804 970c2.66699 2.66699 5.66797 5.00098 9.00098 7.00098s7 3 11 3h16l-317 -397c-15.333 -18.667 -32.5 -35.334 -51.5 -50.001s-41.5 -25.667 -67.5 -33c57.333 -10 105.666 -40 144.999 -90l323 -410h-17c-9.33301 0 -17 3 -23 9l-299 387
c-22.667 29.333 -48.834 51.833 -78.501 67.5s-63.167 23.5 -100.5 23.5h-146v-489h-24v982h24v-473h133c28 0 56.333 7.5 85 22.5s52.334 34.167 71.001 57.5zM658.001 1416l-202 -250c-3.33301 -5.33301 -8.66602 -8 -15.999 -8h-14l164 236
c6 9.33301 11.667 15.333 17 18s13.666 4 24.999 4h26z" />
    <glyph glyph-name="uni045D" unicode="&#x45d;" horiz-adv-x="1118" 
d="M934 980v-980.001h-24v900v19c0 6 0.333008 12.333 1 19l-18 -27c-0.666992 -1.33301 -5.66699 -8.16602 -15 -20.499l-38.5 -50.5l-57.5 -75l-71 -93l-80 -105.5l-85 -111.5l-341 -448c-3.33301 -4.66699 -7 -7 -11 -7h-10v980h24v-900v-19
c0 -6 -0.333008 -12.333 -1 -19c6.66699 10.667 12.667 19.667 18 27c0.666992 1.33301 11.167 15.333 31.5 42l79.5 103.5l110.5 145l125.5 165.5l341 448c3.33301 4.66699 7 7 11 7h10zM439 1416c11.333 0 19.666 -1.33301 24.999 -4s11 -8.66699 17 -18l164 -236h-14
c-7.33301 0 -12.666 2.66699 -15.999 8l-202 250h26z" />
    <glyph glyph-name="afii10110" unicode="&#x45e;" horiz-adv-x="979" 
d="M927 980l-577.996 -1318c-2 -5.33301 -5 -10.333 -9 -15s-9 -7 -15 -7h-14l168 377l-424 963h14c5.33301 0 9.66602 -1.5 12.999 -4.5s5.66602 -6.16699 6.99902 -9.5l390 -890c5.33301 -11.333 9.66602 -23.666 12.999 -36.999c1.33301 6 3.16602 12.167 5.49902 18.5
s4.83301 12.5 7.5 18.5l390 890c4.66699 9.33301 10.667 14 18 14h14zM519.004 1192c64.667 0 112.502 17 143.502 51s46.5 86.333 46.5 157h10c3.33301 0 6.16602 -1.16699 8.49902 -3.5s3.5 -6.16602 3.5 -11.499c0 -31.333 -4 -59.666 -12 -84.999s-20.5 -47 -37.5 -65
s-39 -32 -66 -42s-59.167 -15 -96.5 -15s-69.5 5 -96.5 15s-49 24 -66 42s-29.5 39.667 -37.5 65s-12 53.666 -12 84.999c0 5.33301 1.16699 9.16602 3.5 11.499s5.16602 3.5 8.49902 3.5h10c0 -70.667 15.5 -123 46.5 -157s78.833 -51 143.5 -51z" />
    <glyph glyph-name="afii10193" unicode="&#x45f;" horiz-adv-x="1098" 
d="M914 980v-980h-355v-349c0 -7.33301 -3.66699 -11 -11 -11h-9v360h-355v980h24v-960h682v960h24z" />
    <glyph glyph-name="uni0460" unicode="&#x460;" horiz-adv-x="2148" 
d="M1279 1312c16.667 14.667 33.6787 28.334 51.0117 41.001s36 23.5 56 32.5s42.167 16 66.5 21s51.5 7.5 81.5 7.5c81.333 0 151.666 -18 210.999 -54s108.166 -85.5 146.499 -148.5s66.666 -137 84.999 -222s27.5 -176.5 27.5 -274.5c0 -122 -13.167 -228.667 -39.5 -320
s-62.666 -167.5 -108.999 -228.5s-100.833 -106.667 -163.5 -137s-130.334 -45.5 -203.001 -45.5c-44.667 0 -87.334 5.33301 -128.001 16s-78.667 25.5 -114 44.5s-67.5 41.333 -96.5 67s-54.5 53.5 -76.5 83.5c-22 -30 -47.5 -57.833 -76.5 -83.5s-61.167 -48 -96.5 -67
s-73.333 -33.833 -114 -44.5s-83.334 -16 -128.001 -16c-72.667 0 -140.334 15.167 -203.001 45.5s-117.167 76 -163.5 137s-82.666 137.167 -108.999 228.5s-39.5 198 -39.5 320c0 98 9.16699 189.5 27.5 274.5s46.666 159 84.999 222s87.166 112.5 146.499 148.5
s129.666 54 210.999 54c30 0 57.167 -2.5 81.5 -7.5s46.5 -12 66.5 -21s38.667 -19.833 56 -32.5s34.333 -26.334 51 -41.001l-6 -6c-2.66699 -2.66699 -5.33398 -4 -8.00098 -4c-4 0 -10.5 4.83301 -19.5 14.5s-22.333 20.167 -40 31.5s-40.834 21.833 -69.501 31.5
s-65 14.5 -109 14.5c-74.667 0 -140 -16.167 -196 -48.5s-102.833 -78 -140.5 -137s-65.834 -129.833 -84.501 -212.5s-28 -174.334 -28 -275.001c0 -121.333 12.833 -226.833 38.5 -316.5s60.834 -164.167 105.501 -223.5s97.167 -103.666 157.5 -132.999
s125.166 -44 194.499 -44c46 0 89.167 5.83301 129.5 17.5s77.333 27.167 111 46.5s63.834 41.5 90.501 66.5s49 50.833 67 77.5v591h24v-591c18 -26.667 40.333 -52.5 67 -77.5s56.834 -47.167 90.501 -66.5s70.667 -34.833 111 -46.5s83.5 -17.5 129.5 -17.5
c69.333 0 134.166 14.667 194.499 44s112.833 73.666 157.5 132.999s79.834 133.833 105.501 223.5s38.5 195.167 38.5 316.5c0 100.667 -9.33301 192.334 -28 275.001s-46.834 153.5 -84.501 212.5s-84.5 104.667 -140.5 137s-121.333 48.5 -196 48.5
c-44 0 -80.333 -4.83301 -109 -14.5s-51.834 -20.167 -69.501 -31.5s-31 -21.833 -40 -31.5s-15.5 -14.5 -19.5 -14.5c-2.66699 0 -5.33398 1.33301 -8.00098 4z" />
    <glyph glyph-name="uni0461" unicode="&#x461;" horiz-adv-x="1519" 
d="M1330 980c12 -40.667 23.3389 -87.6689 34.0059 -141.002s16 -110.333 16 -171c0 -66.667 -7.33301 -131.167 -22 -193.5s-35.5 -121.833 -62.5 -178.5s-59.667 -109.834 -98 -159.501s-80.833 -95.167 -127.5 -136.5h-16c-4.66699 0 -10.667 3 -18 9
c-34.667 30.667 -67.334 68.167 -98.001 112.5s-58 92 -82 143s-44.167 103.833 -60.5 158.5s-27.833 108 -34.5 160c-6.66699 -52 -18.167 -105.333 -34.5 -160s-36.666 -107.667 -60.999 -159s-52 -99.166 -83 -143.499s-64.167 -82.166 -99.5 -113.499
c-4.66699 -4.66699 -8.66699 -7 -12 -7h-19c-98 86 -172.333 184.833 -223 296.5s-76 236.167 -76 373.5v310h9c5.33301 0 9.16602 -1.33301 11.499 -4s3.5 -5.66699 3.5 -9v-297c0 -132 23.5 -251.167 70.5 -357.5s118.833 -203.833 215.5 -292.5
c41.333 36.667 79.5 81.167 114.5 133.5s65.167 107.833 90.5 166.5s45.166 118.5 59.499 179.5s21.5 119.167 21.5 174.5v306h9c5.33301 0 9.16602 -1.33301 11.499 -4s3.5 -5.66699 3.5 -9v-293c0 -55.333 7.16699 -113.666 21.5 -174.999s34.166 -121.5 59.499 -180.5
s55.666 -114.667 90.999 -167s73.666 -96.833 114.999 -133.5c44.667 44 85.167 90 121.5 138s67.333 98.667 93 152s45.5 109.833 59.5 169.5s21 123.167 21 190.5c0 45.333 -2.5 85.166 -7.5 119.499s-10.5 63.833 -16.5 88.5s-11.5 44.334 -16.5 59.001s-7.5 25 -7.5 31
c0 9.33301 4.33301 14 13 14h10z" />
    <glyph glyph-name="afii10146" unicode="&#x462;" horiz-adv-x="1406" 
d="M864 20c136 0 240 30.666 312 91.999s108 150 108 266c0 114.667 -36 200.334 -108 257.001s-175.333 85 -310 85h-376v-700h374zM866 739.999c142.667 0 251.999 -30.667 327.999 -92s114 -151.333 114 -270c0 -59.333 -9.66699 -112.5 -29 -159.5
s-47.833 -86.667 -85.5 -119s-84.167 -57 -139.5 -74s-118.666 -25.5 -189.999 -25.5h-398v1110h-394v22h394v268h24v-268h487v-22h-487v-370h376z" />
    <glyph glyph-name="afii10194" unicode="&#x463;" horiz-adv-x="1099" 
d="M680 20c53.333 0 99.6689 6.50098 139.002 19.501s71.833 30.833 97.5 53.5s44.667 49.5 57 80.5s18.5 64.833 18.5 101.5c0 34.667 -5.16699 67.167 -15.5 97.5s-27.833 56.666 -52.5 78.999s-57.334 40 -98.001 53s-91.334 19.5 -152.001 19.5h-311v-504h317z
M674.003 544.001c66.667 0 121.833 -7.66699 165.5 -23s78.5 -35.5 104.5 -60.5s44.333 -53.5 55 -85.5s16 -64.667 16 -98c0 -39.333 -7 -75.833 -21 -109.5s-34.833 -63 -62.5 -88s-62.5 -44.5 -104.5 -58.5s-91 -21 -147 -21h-341v958h-303v22h303v323h24v-323h351v-22
h-351v-414h311z" />
    <glyph glyph-name="uni0464" unicode="&#x464;" horiz-adv-x="1890" 
d="M1787 178c-28 -28.667 -58.1641 -54.832 -90.4971 -78.499s-67.833 -44 -106.5 -61s-81 -30.333 -127 -40s-96.667 -14.5 -152 -14.5c-90 0 -173.167 16.5 -249.5 49.5s-142.333 80.5 -198 142.5s-99 137.167 -130 225.5s-46.5 187.833 -46.5 298.5v9h-431v-709h-24v1400
h24v-669h431c3.33301 102.667 21.166 196.167 53.499 280.5s76.666 156.5 132.999 216.5s123.166 106.333 200.499 139s162.666 49 255.999 49c44.667 0 86.334 -3.5 125.001 -10.5s75.5 -17.5 110.5 -31.5s68.5 -31.167 100.5 -51.5s63.333 -43.833 94 -70.5l-4 -6
c-1.33301 -2.66699 -4.66602 -4 -9.99902 -4c-4.66699 0 -16 8 -34 24s-44 33.667 -78 53s-76 37 -126 53s-109.333 24 -178 24c-88 0 -169.167 -15.5 -243.5 -46.5s-138.833 -75.167 -193.5 -132.5s-97.834 -127 -129.501 -209s-49.167 -174.333 -52.5 -277h777v-22h-777
v-9c0 -108.667 15.167 -206 45.5 -292s72.333 -159 126 -219s117 -105.833 190 -137.5s152.5 -47.5 238.5 -47.5c54.667 0 103.334 4 146.001 12s81.667 19.667 117 35s68.166 34.166 98.499 56.499s60.5 47.833 90.5 76.5c3.33301 3.33301 6 5 8 5c2.66699 0 5 -1 7 -3z
" />
    <glyph glyph-name="uni0465" unicode="&#x465;" horiz-adv-x="1375" 
d="M1262 136c2.66699 0 4.66895 -0.666016 6.00195 -1.99902l10 -9c-20 -20 -41.333 -38.333 -64 -55s-47.667 -31 -75 -43s-57.166 -21.333 -89.499 -28s-67.833 -10 -106.5 -10c-63.333 0 -121.833 11.667 -175.5 35s-100 56.666 -139 99.999s-69.333 96 -91 158
s-32.5 131.667 -32.5 209v3h-297v-494h-24v980h24v-466h297c2 71.333 14.5 136.5 37.5 195.5s54.167 109.5 93.5 151.5s86.166 74.5 140.499 97.5s114.166 34.5 179.499 34.5c63.333 0 118.833 -9.83301 166.5 -29.5s93.167 -48.5 136.5 -86.5l-6 -8
c-1.33301 -2 -4 -3 -8 -3c-3.33301 0 -11.333 5.5 -24 16.5s-30.667 23.167 -54 36.5s-52.333 25.5 -87 36.5s-76 16.5 -124 16.5c-61.333 0 -117.5 -10.667 -168.5 -32s-95.333 -51.833 -133 -91.5s-67.5 -87.667 -89.5 -144s-34 -119.833 -36 -190.5h539v-20h-539v-3
c0 -75.333 10.5 -142.833 31.5 -202.5s50 -110.334 87 -152.001s80.833 -73.5 131.5 -95.5s105.667 -33 165 -33c37.333 0 70.666 2.83301 99.999 8.5s56.333 13.834 81 24.501s47.5 23.667 68.5 39s41.833 33 62.5 53c2 2 4 3 6 3z" />
    <glyph glyph-name="uni0466" unicode="&#x466;" horiz-adv-x="1274" 
d="M901 730l-248.002 596c-3.33301 7.33301 -6.16602 14.333 -8.49902 21l-7.5 21l-7.5 -21c-2.33301 -6.66699 -5.16602 -13.667 -8.49902 -21l-248 -596h528zM1231 0h-18c-6 -0 -10 3.33301 -12 10l-291 700h-263v-710h-24v710h-259l-291 -700
c-2 -6.66699 -6.66699 -10 -14 -10h-16l584 1400h20z" />
    <glyph glyph-name="uni0467" unicode="&#x467;" horiz-adv-x="1005" 
d="M699 514l-183.001 406c-2.66699 5.33301 -5.16699 10.833 -7.5 16.5s-4.16602 11.167 -5.49902 16.5l-6 -16.5c-2 -5.66699 -4.33301 -11.167 -7 -16.5l-183 -406h392zM954.999 0h-18c-4.66699 0 -8 2.66699 -10 8l-219 487h-195v-495h-23v495h-192l-219 -487
c-1.33301 -5.33301 -5.33301 -8 -12 -8h-17l443 981h20z" />
    <glyph glyph-name="uni0468" unicode="&#x468;" horiz-adv-x="1843" 
d="M1470 730l-248.002 596c-3.33301 7.33301 -6.16602 14.333 -8.49902 21l-7.5 21l-7.5 -21c-2.33301 -6.66699 -5.16602 -13.667 -8.49902 -21l-248 -596h528zM1800 0h-18c-6 -0 -10 3.33301 -12 10l-291 700h-263v-710h-24v710h-259l-291 -700
c-2 -6.66699 -6.66699 -10 -14 -10h-16l296 710h-652v-710h-24v1400h24v-670h661l279 670h20z" />
    <glyph glyph-name="uni0469" unicode="&#x469;" horiz-adv-x="1428" 
d="M1378 0h-18.001c-4.66699 0 -8 2.66699 -10 8l-219 487h-194v-495h-23v495h-192l-219 -487c-1.33301 -5.33301 -5.66602 -8 -12.999 -8h-17l224 495h-489v-495h-24v981h24v-467h497l211 467h21zM1123 514l-183.001 406c-2.66699 5.33301 -5.16699 10.833 -7.5 16.5
s-4.5 11.167 -6.5 16.5c-1.33301 -5.33301 -3.16602 -10.833 -5.49902 -16.5s-4.83301 -11.167 -7.5 -16.5l-183 -406h393z" />
    <glyph glyph-name="uni046A" unicode="&#x46a;" horiz-adv-x="1498" 
d="M719 770c15.333 -17.333 25.333 -31.666 30 -42.999c4.66699 11.333 14.667 25.666 30 42.999l513 610h-1086zM1441 0h-16c-7.33301 -0 -12 3.33301 -14 10l-187 484c-15.333 40.667 -30.833 74.667 -46.5 102s-34.667 49.5 -57 66.5s-49.333 29.167 -81 36.5
s-71.5 11 -119.5 11h-159v-710h-24v710h-159c-48 0 -87.833 -3.66699 -119.5 -11s-58.667 -19.5 -81 -36.5s-41.333 -39.167 -57 -66.5s-31.167 -61.333 -46.5 -102l-187 -484c-2 -6.66699 -6.66699 -10 -14 -10h-16l192 501c16 40.667 32.333 75.5 49 104.5
s37 52.667 61 71s53.5 31.833 88.5 40.5s78.5 13 130.5 13h147l-564 670h1176l-564 -670h147c52 0 95.5 -4.33301 130.5 -13s64.5 -22.167 88.5 -40.5s44.333 -42 61 -71s33 -63.833 49 -104.5z" />
    <glyph glyph-name="uni046B" unicode="&#x46b;" horiz-adv-x="1159" 
d="M554 545c6.66699 -7.33301 12 -13.666 16 -18.999s7.33301 -10.666 10 -15.999c2 5.33301 5 10.666 9 15.999s9.33301 11.666 16 18.999l380 417h-811zM1106 0h-16.9961c-5.33301 0 -9.66602 2.66699 -12.999 8l-139 336c-12 29.333 -24.833 53.666 -38.5 72.999
s-28.834 34.833 -45.501 46.5s-35.334 19.834 -56.001 24.501s-44.334 7 -71.001 7h-135v-495h-23v495h-135c-26.667 0 -50.334 -2.33301 -71.001 -7s-39.334 -12.834 -56.001 -24.501s-31.834 -27.167 -45.501 -46.5s-26.5 -43.666 -38.5 -72.999l-139 -336
c-3.33301 -5.33301 -7.66602 -8 -12.999 -8h-17l146 350c12.667 30 26.5 55.5 41.5 76.5s32 38 51 51s40.167 22.333 63.5 28s49.333 8.5 78 8.5h120l-422 467h897l-423 -467h121c28.667 0 54.5 -2.83301 77.5 -8.5s44 -15 63 -28s36.167 -30 51.5 -51
s29.333 -46.5 42 -76.5z" />
    <glyph glyph-name="uni046C" unicode="&#x46c;" horiz-adv-x="2053" 
d="M1274 770c15.333 -17.333 25.333 -31.666 30 -42.999c4.66699 11.333 14.667 25.666 30 42.999l513 610h-1086zM1996 0h-16.002c-7.33301 -0 -12 3.33301 -14 10l-187 484c-15.333 40.667 -30.833 74.667 -46.5 102s-34.667 49.5 -57 66.5s-49.333 29.167 -81 36.5
s-71.5 11 -119.5 11h-159v-710h-24v710h-179c-29.333 0 -57.666 -3.83301 -84.999 -11.5s-53 -20 -77 -37s-46.167 -39.167 -66.5 -66.5s-38.166 -61 -53.499 -101l-189 -484c-2 -6.66699 -6.66699 -10 -14 -10h-16l190 494c23.333 60.667 52.333 108.5 87 143.5
s76 59.167 124 72.5h-757v-710h-24v1400h24v-670h1024l-564 670h1176l-564 -670h147c52 0 95.5 -4.33301 130.5 -13s64.5 -22.167 88.5 -40.5s44.333 -42 61 -71s33 -63.833 49 -104.5z" />
    <glyph glyph-name="uni046D" unicode="&#x46d;" horiz-adv-x="1580" 
d="M975 545c12.667 -14 21 -25.665 25 -34.998c2 5.33301 5 10.666 9 15.999s9.66699 11.666 17 18.999l378 417h-808zM1527 0.00195312l-16.9961 0.00195312c-5.33301 0 -9.66602 2.66699 -12.999 8l-139 336c-12 29.333 -24.833 53.666 -38.5 72.999
s-28.834 34.833 -45.501 46.5s-35.334 19.834 -56.001 24.501s-44.334 7 -71.001 7h-135v-495h-23v495h-149c-17.333 0 -35 -2.5 -53 -7.5s-35.5 -13.167 -52.5 -24.5s-33.333 -26.833 -49 -46.5s-29.5 -43.834 -41.5 -72.501l-141 -336c-2 -5.33301 -6 -8 -12 -8h-17
l145 351c17.333 42 38.166 74.167 62.499 96.5s51.166 38.166 80.499 47.499h-554v-495h-24v981h24v-467h766l-423 467h899l-425 -467h122c28.667 0 54.5 -2.83301 77.5 -8.5s44 -15 63 -28s36.167 -30 51.5 -51s29.333 -46.5 42 -76.5z" />
    <glyph glyph-name="uni046E" unicode="&#x46e;" horiz-adv-x="1074" 
d="M791 -423c0 22 -2.49707 40.6631 -7.49707 55.9961s-13.833 27.833 -26.5 37.5s-29.834 16.5 -51.501 20.5s-48.834 6 -81.501 6c-18.667 0 -36.167 -0.5 -52.5 -1.5s-33.333 -2.16699 -51 -3.5s-36.334 -2.5 -56.001 -3.5s-42.167 -1.5 -67.5 -1.5
c-66.667 0 -122.834 4.16699 -168.501 12.5s-82.5 20.666 -110.5 36.999s-48.167 36.333 -60.5 60s-18.5 50.834 -18.5 81.501c0 54 17.167 93.667 51.5 119s83.833 38 148.5 38c21.333 0 42 -1.16699 62 -3.5l60.5 -7l61.5 -7c20.667 -2.33301 42.667 -3.5 66 -3.5
c64.667 0 123.167 9.66699 175.5 29s96.833 46 133.5 80s64.834 74 84.501 120s29.5 95.333 29.5 148c0 48.667 -8.5 94.667 -25.5 138s-42 81.166 -75 113.499s-74 58 -123 77s-105.167 28.5 -168.5 28.5h-177v23h191c40.667 0 80.5 6.83301 119.5 20.5s74 33.5 105 59.5
s56 58 75 96s28.5 81 28.5 129c0 46 -9 88.333 -27 127s-43.5 72.167 -76.5 100.5s-73.167 50.333 -120.5 66s-100 23.5 -158 23.5c-44.667 0 -84 -3.16699 -118 -9.5s-63.833 -14.333 -89.5 -24s-47.5 -20.167 -65.5 -31.5s-33 -21.833 -45 -31.5l-29.5 -24
c-7.66699 -6.33301 -13.834 -9.5 -18.501 -9.5s-8 2 -10 6l-4 6c25.333 23.333 51.5 43.666 78.5 60.999s55.5 31.666 85.5 42.999s62.333 19.833 97 25.5s72.667 8.5 114 8.5c63.333 0 120.333 -8.66699 171 -26s93.834 -41.166 129.501 -71.499s63 -66 82 -107
s28.5 -85.167 28.5 -132.5c0 -46.667 -8.33301 -88.167 -25 -124.5s-38.5 -67.666 -65.5 -93.999s-57.5 -47.666 -91.5 -63.999s-68.333 -27.833 -103 -34.5c54.667 -7.33301 102.834 -22.166 144.501 -44.499s76.667 -49.833 105 -82.5s49.666 -69.5 63.999 -110.5
s21.5 -84.5 21.5 -130.5c0 -56 -10.667 -108.333 -32 -157s-51.666 -90.667 -90.999 -126s-87.333 -63.166 -144 -83.499s-120 -30.5 -190 -30.5c-24.667 0 -47.5 1.16699 -68.5 3.5l-61 7l-57.5 7c-18.667 2.33301 -38 3.5 -58 3.5
c-58.667 0 -101.834 -11.167 -129.501 -33.5s-41.5 -56.166 -41.5 -101.499c0 -27.333 5.5 -51.666 16.5 -72.999s29.333 -39.333 55 -54s60 -26 103 -34s96.5 -12 160.5 -12c24.667 0 47 0.5 67 1.5s38.667 2.16699 56 3.5s34.166 2.5 50.499 3.5s33.5 1.5 51.5 1.5
c36 0 66 -2.33301 90 -7s43 -11.667 57 -21s23.833 -20.833 29.5 -34.5s8.5 -29.167 8.5 -46.5c0 -12.667 -1.16699 -21 -3.5 -25s-5.16602 -6 -8.49902 -6h-5v0z" />
    <glyph glyph-name="uni046F" unicode="&#x46f;" horiz-adv-x="868" 
d="M439 994c48 -4.66699 89.334 -14.667 124.001 -30s63.5 -34 86.5 -56s40 -46.333 51 -73s16.5 -53 16.5 -79c0 -23.333 -4.66699 -47.333 -14 -72s-24.333 -47.834 -45 -69.501s-48 -40.667 -82 -57s-75.333 -27.5 -124 -33.5
c50.667 -5.33301 94.5 -15.666 131.5 -30.999s67.667 -34.5 92 -57.5s42.333 -48.833 54 -77.5s17.5 -58.667 17.5 -90c0 -40 -8.5 -77.167 -25.5 -111.5s-41 -64 -72 -89s-68.5 -44.5 -112.5 -58.5s-93 -21 -147 -21c-39.333 0 -74 2.66699 -104 8s-58.333 8 -85 8
c-44.667 0 -79 -11 -103 -33s-36 -53.333 -36 -94c0 -57.333 22.667 -101 68 -131s107 -45 185 -45c31.333 0 66.166 1.66699 104.499 5s75.833 5 112.5 5c36 0 66 -2.33301 90 -7s43 -11.667 57 -21s23.833 -20.833 29.5 -34.5s8.5 -29.167 8.5 -46.5
c0 -12.667 -1.16699 -21 -3.5 -25s-5.16602 -6 -8.49902 -6h-5c0 22 -2.5 40.667 -7.5 56s-13.833 27.833 -26.5 37.5s-29.834 16.5 -51.501 20.5s-48.834 6 -81.501 6c-37.333 0 -75.166 -1.66699 -113.499 -5s-73.5 -5 -105.5 -5c-40.667 0 -77.834 4.16699 -111.501 12.5
s-62.667 20.5 -87 36.5s-43.333 36.167 -57 60.5s-20.5 52.5 -20.5 84.5c0 44.667 13.667 80.667 41 108s67.333 41 120 41c27.333 0 56 -2.66699 86 -8s65.333 -8 106 -8c52.667 0 99.667 6.33301 141 19s76.166 30.5 104.499 53.5s50 50.5 65 82.5s22.5 67 22.5 105
c0 36 -7.66699 69 -23 99s-37.833 55.833 -67.5 77.5s-66.167 38.667 -109.5 51s-92.666 18.5 -147.999 18.5h-111v20h111c48 0 91.667 5.66699 131 17s73 27 101 47s49.667 43.5 65 70.5s23 56.167 23 87.5c0 26.667 -6.16699 53.167 -18.5 79.5s-31.166 50 -56.499 71
s-57.333 37.833 -96 50.5s-84.667 19 -138 19c-48.667 0 -90.167 -4.83301 -124.5 -14.5s-62.666 -20.167 -84.999 -31.5s-39.5 -21.833 -51.5 -31.5s-20 -14.5 -24 -14.5c-2.66699 0 -5.33398 1.33301 -8.00098 4l-6 6c33.333 30 74.833 54.5 124.5 73.5
s107.834 28.5 174.501 28.5h16l-201 218h18c5.33301 0 10.666 -2.66699 15.999 -8l180 -196c2.66699 -2.66699 4.66699 -5 6 -7c1.33301 2 3.33301 4.33301 6 7l123 158c17.333 22.667 35 37.5 53 44.5s34.667 10.5 50 10.5c6.66699 0 12 -0.333008 16 -1
s7.66699 -1.66699 11 -3v-13h-27c-17.333 0 -33.333 -4.33301 -48 -13s-28 -20.667 -40 -36z" />
    <glyph glyph-name="uni0470" unicode="&#x470;" horiz-adv-x="1554" 
d="M1424 1400v-491c0 -85.333 -13.833 -161.833 -41.5 -229.5s-68.5 -125.334 -122.5 -173.001s-120.5 -84.334 -199.5 -110.001s-169.5 -38.5 -271.5 -38.5v-358h-24v358c-102 0 -192.5 12.833 -271.5 38.5s-145.5 62.334 -199.5 110.001s-94.833 105.334 -122.5 173.001
s-41.5 144.167 -41.5 229.5v491h13c4 0 6.83301 -1.16699 8.5 -3.5s2.5 -5.16602 2.5 -8.49902v-479c0 -82.667 13.5 -156.834 40.5 -222.501s66.5 -121.334 118.5 -167.001s116 -80.834 192 -105.501s162.667 -37 260 -37v1023h24v-1023c97.333 0 184 12.333 260 37
s140 59.834 192 105.501s91.5 101.334 118.5 167.001s40.5 139.834 40.5 222.501v479c0 3.33301 0.833008 6.16602 2.5 8.49902s4.5 3.5 8.5 3.5h13z" />
    <glyph glyph-name="uni0471" unicode="&#x471;" horiz-adv-x="1408" 
d="M1199 980l24.4971 -113.995c7.66699 -35.333 14 -70.333 19 -105s9 -70.334 12 -107.001s4.5 -76.334 4.5 -119.001c0 -68 -7.5 -128.667 -22.5 -182s-35.667 -100.333 -62 -141s-57 -75.167 -92 -103.5s-72.667 -51.5 -113 -69.5s-82 -31.5 -125 -40.5
s-85.5 -13.833 -127.5 -14.5v-344h-24v344c-70.667 0.666992 -137.667 10.5 -201 29.5s-119 46.833 -167 83.5s-86 82.167 -114 136.5s-42 117.166 -42 188.499v558h14c3.33301 0 5.83301 -1.33301 7.5 -4s2.5 -5.33398 2.5 -8.00098v-546
c0 -61.333 12.333 -117.5 37 -168.5s59.167 -94.833 103.5 -131.5s97 -65.334 158 -86.001s128.167 -31.334 201.5 -32.001v1396h24v-1396c36.667 0.666992 74.834 5 114.501 13s78.834 20.5 117.501 37.5s75.334 39 110.001 66s65.167 60 91.5 99s47.333 84.5 63 136.5
s23.5 111.667 23.5 179c0 69.333 -5.83301 141.333 -17.5 216s-26.167 146.334 -43.5 215.001c-1.33301 4.66699 -1 8.16699 1 10.5s4.66699 3.5 8 3.5h14z" />
    <glyph glyph-name="afii10147" unicode="&#x472;" horiz-adv-x="1568" 
d="M161 700c0 -108.667 15.5 -205.834 46.5 -291.501s74 -158.334 129 -218.001s120.5 -105.334 196.5 -137.001s159.333 -47.5 250 -47.5c92 0 176.167 15.833 252.5 47.5s141.833 77.334 196.5 137.001s97.167 132.334 127.5 218.001s45.5 182.834 45.5 291.501v9h-1244
v-9zM1405 731c-3.33301 104 -20.666 197 -51.999 279s-74.333 151.667 -129 209s-119.334 101.166 -194.001 131.499s-157 45.5 -247 45.5c-88 0 -169.333 -15.167 -244 -45.5s-139.5 -74.166 -194.5 -131.499s-98.5 -127 -130.5 -209s-49.667 -175 -53 -279h1244zM783 1416
c96 0 183.667 -16.5 263 -49.5s147.5 -80.5 204.5 -142.5s101.333 -137.167 133 -225.5s47.5 -187.833 47.5 -298.5s-15.833 -210 -47.5 -298s-76 -162.833 -133 -224.5s-125.167 -109 -204.5 -142s-167 -49.5 -263 -49.5c-95.333 0 -182.5 16.5 -261.5 49.5
s-147 80.333 -204 142s-101.333 136.5 -133 224.5s-47.5 187.333 -47.5 298c0 110 15.833 209.167 47.5 297.5s76 163.5 133 225.5s125 109.667 204 143s166.167 50 261.5 50z" />
    <glyph glyph-name="afii10195" unicode="&#x473;" horiz-adv-x="1101" 
d="M146 479c0.666992 -70.667 9.66699 -134.834 27 -192.501s42.833 -107.167 76.5 -148.5s75.667 -73.333 126 -96s108.5 -34 174.5 -34s124.167 11.333 174.5 34s92.333 54.667 126 96s59.167 90.833 76.5 148.5s26.333 121.834 27 192.501h-808zM954 499
c-0.666992 70.667 -9.66699 135.334 -27 194.001s-42.833 109 -76.5 151s-75.667 74.5 -126 97.5s-108.5 34.5 -174.5 34.5s-124.167 -11.5 -174.5 -34.5s-92.333 -55.5 -126 -97.5s-59.167 -92.333 -76.5 -151s-26.333 -123.334 -27 -194.001h808zM550 996
c68.667 0 129.667 -12.167 183 -36.5s98.166 -58.5 134.499 -102.5s63.833 -97.167 82.5 -159.5s28 -131.5 28 -207.5s-9.33301 -144.833 -28 -206.5s-46.167 -114.5 -82.5 -158.5s-81.166 -77.833 -134.499 -101.5s-114.333 -35.5 -183 -35.5
c-69.333 0 -130.5 11.833 -183.5 35.5s-97.667 57.5 -134 101.5s-63.833 96.833 -82.5 158.5s-28 130.5 -28 206.5s9.33301 145.167 28 207.5s46.167 115.5 82.5 159.5s81 78.167 134 102.5s114.167 36.5 183.5 36.5z" />
    <glyph glyph-name="afii10148" unicode="&#x474;" horiz-adv-x="1329" 
d="M1080 1274c7.33301 20.667 17.1689 39 29.502 55s25.833 29.167 40.5 39.5s30 18.166 46 23.499s31.333 8 46 8c4 0 9.16699 -0.166992 15.5 -0.5s12.166 -0.833008 17.499 -1.5s10 -1.66699 14 -3s6 -2.66602 6 -3.99902v-10h-53c-28 0 -54.833 -10.167 -80.5 -30.5
s-44.5 -47.5 -56.5 -81.5l-458 -1269h-20l-584 1400h18c6 0 10 -3.33301 12 -10l548 -1316c3.33301 -7.33301 6.33301 -14.333 9 -21s5 -13.667 7 -21l7.5 21c2.33301 6.66699 5.16602 13.667 8.49902 21z" />
    <glyph glyph-name="afii10196" unicode="&#x475;" horiz-adv-x="1027" 
d="M801 872c10 24.667 20.6689 44.667 32.002 60s23.333 27 36 35s25.5 13.333 38.5 16s25.833 4 38.5 4c10 0 18 -0.666992 24 -2s9 -3 9 -5v-13h-26c-33.333 0 -59.833 -7.66699 -79.5 -23s-36.167 -40.333 -49.5 -75l-340 -869h-18l-413 980h14
c5.33301 0 9.33301 -1.5 12 -4.5s4.66699 -6.16699 6 -9.5l377 -898l7.5 -19c2.33301 -6 4.16602 -12.667 5.49902 -20c1.33301 6.66699 3.16602 13.167 5.49902 19.5l7.5 19.5z" />
    <glyph glyph-name="uni0476" unicode="&#x476;" horiz-adv-x="1329" 
d="M1080 1274c7.33301 20.667 17.1689 39 29.502 55s25.833 29.167 40.5 39.5s30 18.166 46 23.499s31.333 8 46 8c4 0 9.16699 -0.166992 15.5 -0.5s12.166 -0.833008 17.499 -1.5s10 -1.66699 14 -3s6 -2.66602 6 -3.99902v-10h-53c-28 0 -54.833 -10.167 -80.5 -30.5
s-44.5 -47.5 -56.5 -81.5l-458 -1269h-20l-584 1400h18c6 0 10 -3.33301 12 -10l548 -1316c3.33301 -7.33301 6.33301 -14.333 9 -21s5 -13.667 7 -21l7.5 21c2.33301 6.66699 5.16602 13.667 8.49902 21zM610.003 1803c11.333 0 19.999 -1.5 25.999 -4.5
s12 -8.83301 18 -17.5l170 -243h-14c-7.33301 0 -12.666 2.66699 -15.999 8l-204 257h20zM298.002 1803c11.333 0 19.667 -1.33301 25 -4s11.666 -8.66699 18.999 -18l190 -243h-14c-5.33301 0 -10.666 2.66699 -15.999 8l-228 257h24z" />
    <glyph glyph-name="uni0477" unicode="&#x477;" horiz-adv-x="1027" 
d="M801 872c10 24.667 20.6689 44.667 32.002 60s23.333 27 36 35s25.5 13.333 38.5 16s25.833 4 38.5 4c10 0 18 -0.666992 24 -2s9 -3 9 -5v-13h-26c-33.333 0 -59.833 -7.66699 -79.5 -23s-36.167 -40.333 -49.5 -75l-340 -869h-18l-413 980h14
c5.33301 0 9.33301 -1.5 12 -4.5s4.66699 -6.16699 6 -9.5l377 -898l7.5 -19c2.33301 -6 4.16602 -12.667 5.49902 -20c1.33301 6.66699 3.16602 13.167 5.49902 19.5l7.5 19.5zM410.002 1416c11.333 0 19.666 -1.33301 24.999 -4s11 -8.66699 17 -18l164 -236h-14
c-7.33301 0 -12.666 2.66699 -15.999 8l-198 250h22zM178.002 1416c11.333 0 19.332 -1.33301 23.999 -4s10.667 -8.66699 18 -18l184 -236h-14c-7.33301 0 -12.666 2.66699 -15.999 8l-222 250h26z" />
    <glyph glyph-name="uni0478" unicode="&#x478;" horiz-adv-x="2535" 
d="M1431 700c0 -110.667 -15.833 -210 -47.5 -298s-76 -162.833 -133 -224.5s-125.167 -109 -204.5 -142s-167 -49.5 -263 -49.5c-95.333 0 -182.5 16.5 -261.5 49.5s-147 80.333 -204 142s-101.333 136.5 -133 224.5s-47.5 187.333 -47.5 298
c0 110 15.833 209.167 47.5 297.5s76 163.5 133 225.5s125 109.667 204 143s166.167 50 261.5 50c96 0 183.667 -16.5 263 -49.5s147.5 -80.5 204.5 -142.5s101.333 -137.167 133 -225.5s47.5 -187.833 47.5 -298.5zM1405 700c0 108.667 -15.167 206 -45.5 292
s-72.833 159 -127.5 219s-120.167 105.833 -196.5 137.5s-160.5 47.5 -252.5 47.5c-90.667 0 -174 -15.833 -250 -47.5s-141.5 -77.5 -196.5 -137.5s-98 -133 -129 -219s-46.5 -183.333 -46.5 -292s15.5 -205.834 46.5 -291.501s74 -158.334 129 -218.001
s120.5 -105.334 196.5 -137.001s159.333 -47.5 250 -47.5c92 0 176.167 15.833 252.5 47.5s141.833 77.334 196.5 137.001s97.167 132.334 127.5 218.001s45.5 182.834 45.5 291.501zM2483 980l-577.997 -1318c-2 -5.33301 -5 -10.333 -9 -15s-9 -7 -15 -7h-14l168 377
l-424 963h14c5.33301 0 9.66602 -1.5 12.999 -4.5s5.66602 -6.16699 6.99902 -9.5l390 -890c5.33301 -11.333 9.66602 -23.666 12.999 -36.999c1.33301 6 3.16602 12.167 5.5 18.5c2.33301 6.33301 4.83301 12.5 7.5 18.5l390 890c4.66699 9.33301 10.667 14 18 14h14z" />
    <glyph glyph-name="uni0479" unicode="&#x479;" horiz-adv-x="2032" 
d="M550 996c68.667 0 129.667 -12.167 183 -36.5s98.166 -58.5 134.499 -102.5s63.833 -97.167 82.5 -159.5s28 -131.5 28 -207.5s-9.33301 -144.833 -28 -206.5s-46.167 -114.5 -82.5 -158.5s-81.166 -77.833 -134.499 -101.5s-114.333 -35.5 -183 -35.5
c-69.333 0 -130.5 11.833 -183.5 35.5s-97.667 57.5 -134 101.5s-63.833 96.833 -82.5 158.5s-28 130.5 -28 206.5s9.33301 145.167 28 207.5s46.167 115.5 82.5 159.5s81 78.167 134 102.5s114.167 36.5 183.5 36.5zM550 8c66.667 0 125.334 11.667 176.001 35
s92.834 56 126.501 98s59 92.667 76 152s25.5 125 25.5 197s-8.5 137.833 -25.5 197.5s-42.333 110.834 -76 153.501s-75.834 75.834 -126.501 99.501s-109.334 35.5 -176.001 35.5c-67.333 0 -126.166 -11.833 -176.499 -35.5s-92.333 -56.834 -126 -99.501
s-59 -93.834 -76 -153.501s-25.5 -125.5 -25.5 -197.5s8.5 -137.667 25.5 -197s42.333 -110 76 -152s75.667 -74.667 126 -98s109.166 -35 176.499 -35zM1980 980l-577.996 -1318c-2 -5.33301 -5 -10.333 -9 -15s-9 -7 -15 -7h-14l168 377l-424 963h14
c5.33301 0 9.66602 -1.5 12.999 -4.5s5.66602 -6.16699 6.99902 -9.5l390 -890c5.33301 -11.333 9.66602 -23.666 12.999 -36.999c1.33301 6 3.16602 12.167 5.49902 18.5s4.83301 12.5 7.5 18.5l390 890c4.66699 9.33301 10.667 14 18 14h14z" />
    <glyph glyph-name="uni047A" unicode="&#x47a;" horiz-adv-x="1616" 
d="M872 7c85.333 4.66699 163.666 23.834 234.999 57.501s132.833 80.334 184.5 140.001s91.834 131.334 120.501 215.001s43 177.834 43 282.501s-14.333 198.667 -43 282s-68.834 154.833 -120.501 214.5s-113.167 106.167 -184.5 139.5s-149.666 52.333 -234.999 57
c-2.66699 -15.333 -10 -28.166 -22 -38.499s-26.333 -15.5 -43 -15.5s-30.834 5.16699 -42.501 15.5s-18.5 23.166 -20.5 38.499c-85.333 -4.66699 -163.833 -23.834 -235.5 -57.501s-133.167 -80.334 -184.5 -140.001s-91.333 -131.334 -120 -215.001
s-43 -177.834 -43 -282.501s14.333 -198.667 43 -282s68.667 -154.833 120 -214.5s112.833 -106.167 184.5 -139.5s150.167 -52.333 235.5 -57c2.66699 15.333 9.83398 28.333 21.501 39s25.5 16 41.5 16s30.167 -5.33301 42.5 -16s19.833 -23.667 22.5 -39zM1479 702
c0 -106 -14.833 -202.167 -44.5 -288.5s-71.167 -160.333 -124.5 -222s-117.166 -110 -191.499 -145s-156.5 -54.833 -246.5 -59.5c-2 -16 -9.16699 -29.167 -21.5 -39.5s-26.833 -15.5 -43.5 -15.5s-30.834 5.16699 -42.501 15.5s-18.5 23.5 -20.5 39.5
c-90 4.66699 -172.167 24.334 -246.5 59.001s-138.166 82.667 -191.499 144s-94.833 135 -124.5 221s-44.5 182.333 -44.5 289c0 106 14.833 202.167 44.5 288.5s71.167 160.333 124.5 222s117.166 110 191.499 145s156.5 54.833 246.5 59.5
c2 15.333 8.83301 28.5 20.5 39.5s25.834 16.5 42.501 16.5s31 -5.5 43 -16.5s19.333 -24.167 22 -39.5c90 -4.66699 172.167 -24.334 246.5 -59.001s138.166 -82.667 191.499 -144s94.833 -135 124.5 -221s44.5 -182.333 44.5 -289z" />
    <glyph glyph-name="uni047B" unicode="&#x47b;" horiz-adv-x="1151" 
d="M637 9c60.667 4 114.002 18.499 160.002 43.499s84.333 58.5 115 100.5s53.667 91.5 69 148.5s23 119.833 23 188.5s-7.66699 131.667 -23 189s-38.333 107.166 -69 149.499s-69 76.166 -115 101.499s-99.333 40.333 -160 45
c-2.66699 -15.333 -10.167 -28.166 -22.5 -38.499s-26.5 -15.5 -42.5 -15.5s-29.833 5 -41.5 15s-18.834 22.667 -21.501 38c-60.667 -4.66699 -113.667 -19.667 -159 -45s-83.166 -59.166 -113.499 -101.499s-53.166 -92.166 -68.499 -149.499s-23 -120 -23 -188
s7.66699 -130.5 23 -187.5s38.166 -106.5 68.499 -148.5s68.333 -75.5 114 -100.5s98.5 -39.833 158.5 -44.5c3.33301 15.333 10.833 28 22.5 38s25.167 15 40.5 15s29.166 -5 41.499 -15s20.166 -22.667 23.499 -38zM1028 489.999
c0 -72.667 -8.50098 -138.668 -25.501 -198.001s-42 -110.833 -75 -154.5s-73.833 -78.167 -122.5 -103.5s-104.334 -40.333 -167.001 -45c-2 -16 -9.16699 -29.5 -21.5 -40.5s-27.166 -16.5 -44.499 -16.5s-32 5.5 -44 16.5s-18.667 24.5 -20 40.5
c-62.667 4.66699 -118 19.834 -166 45.501s-88.333 60.167 -121 103.5s-57.5 94.833 -74.5 154.5s-25.5 125.5 -25.5 197.5s8.5 138 25.5 198s41.833 112 74.5 156s73.167 79 121.5 105s103.833 41.333 166.5 46c2 15.333 8.83301 28.5 20.5 39.5s25.834 16.5 42.501 16.5
s31 -5.5 43 -16.5s19.333 -24.167 22 -39.5c63.333 -4.66699 119.333 -20 168 -46s89.5 -60.833 122.5 -104.5s58 -95.5 75 -155.5s25.5 -126.333 25.5 -199z" />
    <glyph glyph-name="uni047C" unicode="&#x47c;" horiz-adv-x="2148" 
d="M1539 1646c-35.333 0 -69.1699 4.00195 -101.503 12.002s-63.5 18.167 -93.5 30.5s-59.167 25.666 -87.5 39.999s-56.666 27.666 -84.999 39.999s-57 22.5 -86 30.5s-58.5 12 -88.5 12c-29.333 0 -55.666 -4 -78.999 -12s-43 -19.333 -59 -34s-28.333 -32 -37 -52
s-13 -42 -13 -66h-22c0 26 4.66699 50.167 14 72.5s22.833 41.666 40.5 57.999s39.334 29.166 65.001 38.499s54.5 14 86.5 14c30.667 0 60.667 -4 90 -12s58.333 -18.167 87 -30.5s57.334 -25.666 86.001 -39.999s58 -27.666 88 -39.999s61.167 -22.5 93.5 -30.5
s66.166 -12 101.499 -12v-19zM1058 1408c0 2 1.5 3.33301 4.5 4s6.16699 1.33398 9.5 2.00098c22 5.33301 39 18.166 51 38.499s18.667 50.5 20 90.5c-11.333 -11.333 -24.333 -17 -39 -17c-15.333 0 -27.666 4.5 -36.999 13.5s-14 21.167 -14 36.5
c0 16 5.16699 28.667 15.5 38s23.5 14 39.5 14c15.333 0 28.666 -5.83301 39.999 -17.5s17 -33.834 17 -66.501c0 -17.333 -1.83301 -34.666 -5.5 -51.999s-9.66699 -33.333 -18 -48s-19.333 -26.5 -33 -35.5s-30.5 -13.5 -50.5 -13.5v13zM1279 1312
c16.667 14.667 33.6826 28.334 51.0156 41.001s36 23.5 56 32.5s42.167 16 66.5 21s51.5 7.5 81.5 7.5c81.333 0 151.666 -18 210.999 -54s108.166 -85.5 146.499 -148.5s66.666 -137 84.999 -222s27.5 -176.5 27.5 -274.5c0 -122 -13.167 -228.667 -39.5 -320
s-62.666 -167.5 -108.999 -228.5s-100.833 -106.667 -163.5 -137s-130.334 -45.5 -203.001 -45.5c-44.667 0 -87.334 5.33301 -128.001 16s-78.667 25.5 -114 44.5s-67.5 41.333 -96.5 67s-54.5 53.5 -76.5 83.5c-22 -30 -47.5 -57.833 -76.5 -83.5s-61.167 -48 -96.5 -67
s-73.333 -33.833 -114 -44.5s-83.334 -16 -128.001 -16c-72.667 0 -140.334 15.167 -203.001 45.5s-117.167 76 -163.5 137s-82.666 137.167 -108.999 228.5s-39.5 198 -39.5 320c0 98 9.16699 189.5 27.5 274.5s46.666 159 84.999 222s87.166 112.5 146.499 148.5
s129.666 54 210.999 54c30 0 57.167 -2.5 81.5 -7.5s46.5 -12 66.5 -21s38.667 -19.833 56 -32.5s34.333 -26.334 51 -41.001l-6 -6c-2.66699 -2.66699 -5.33398 -4 -8.00098 -4c-4 0 -10.5 4.83301 -19.5 14.5s-22.333 20.167 -40 31.5s-40.834 21.833 -69.501 31.5
s-65 14.5 -109 14.5c-74.667 0 -140 -16.167 -196 -48.5s-102.833 -78 -140.5 -137s-65.834 -129.833 -84.501 -212.5s-28 -174.334 -28 -275.001c0 -121.333 12.833 -226.833 38.5 -316.5s60.834 -164.167 105.501 -223.5s97.167 -103.666 157.5 -132.999
s125.166 -44 194.499 -44c46 0 89 5.83301 129 17.5s76.667 27.167 110 46.5s63.166 41.5 89.499 66.5s48.5 50.833 66.5 77.5h30c18 -26.667 40.167 -52.5 66.5 -77.5s56.166 -47.167 89.499 -66.5s70 -34.833 110 -46.5s83 -17.5 129 -17.5
c69.333 0 134.166 14.667 194.499 44s112.833 73.666 157.5 132.999s79.834 133.833 105.501 223.5s38.5 195.167 38.5 316.5c0 100.667 -9.33301 192.334 -28 275.001s-46.834 153.5 -84.501 212.5s-84.5 104.667 -140.5 137s-121.333 48.5 -196 48.5
c-44 0 -80.333 -4.83301 -109 -14.5s-51.834 -20.167 -69.501 -31.5s-31 -21.833 -40 -31.5s-15.5 -14.5 -19.5 -14.5c-2.66699 0 -5.33398 1.33301 -8.00098 4z" />
    <glyph glyph-name="uni047D" unicode="&#x47d;" horiz-adv-x="1556" 
d="M1233 1276c-35.333 0 -69.1699 4.00195 -101.503 12.002s-63.5 18.167 -93.5 30.5s-59.167 25.666 -87.5 39.999s-56.666 27.666 -84.999 39.999s-57 22.5 -86 30.5s-58.5 12 -88.5 12c-29.333 0 -55.666 -4 -78.999 -12s-43 -19.333 -59 -34s-28.333 -32 -37 -52
s-13 -42 -13 -66h-22c0 26 4.66699 50.167 14 72.5s22.833 41.666 40.5 57.999s39.334 29.166 65.001 38.499s54.5 14 86.5 14c30.667 0 60.667 -4 90 -12s58.333 -18.167 87 -30.5s57.334 -25.666 86.001 -39.999s58 -27.666 88 -39.999s61.167 -22.5 93.5 -30.5
s66.166 -12 101.499 -12v-19zM751.996 1038c0 2 1.5 3.33301 4.5 4s6.16699 1.33398 9.5 2.00098c22 5.33301 39 18.166 51 38.499s18.667 50.5 20 90.5c-11.333 -11.333 -24.333 -17 -39 -17c-15.333 0 -27.666 4.5 -36.999 13.5s-14 21.167 -14 36.5
c0 16 5.16699 28.667 15.5 38s23.5 14 39.5 14c15.333 0 28.666 -5.83301 39.999 -17.5s17 -33.834 17 -66.501c0 -17.333 -1.83301 -34.666 -5.5 -51.999s-9.66699 -33.333 -18 -48s-19.333 -26.5 -33 -35.5s-30.5 -13.5 -50.5 -13.5v13zM918.996 919.002
c12 10.667 24.1719 20.334 36.5049 29.001s25.666 16.167 39.999 22.5s30.166 11.333 47.499 15s36.666 5.5 57.999 5.5c57.333 0 106.666 -12.667 147.999 -38s75.5 -60 102.5 -104s47 -95.833 60 -155.5s19.5 -123.834 19.5 -192.501c0 -85.333 -9.16699 -160 -27.5 -224
s-43.833 -117.333 -76.5 -160s-71 -74.667 -115 -96s-91.667 -32 -143 -32c-30.667 0 -60.167 3.66699 -88.5 11s-54.833 17.5 -79.5 30.5s-47.334 28.333 -68.001 46s-39 36.834 -55 57.501c-15.333 -20.667 -33.333 -39.834 -54 -57.501s-43.334 -33 -68.001 -46
s-51.334 -23.167 -80.001 -30.5s-58.334 -11 -89.001 -11c-51.333 0 -99 10.667 -143 32s-82.167 53.333 -114.5 96s-57.666 96 -75.999 160s-27.5 138.667 -27.5 224c0 68.667 6.33301 132.834 19 192.501s32.5 111.5 59.5 155.5s61.333 78.667 103 104s91.167 38 148.5 38
c21.333 0 40.666 -1.83301 57.999 -5.5s33.166 -8.66699 47.499 -15s27.5 -13.833 39.5 -22.5s24 -18.334 36 -29.001l-6 -8c-1.33301 -2.66699 -3.33301 -4 -6 -4c-3.33301 0 -8 3.33301 -14 10s-15.333 14 -28 22s-29 15.333 -49 22s-45 10 -75 10
c-51.333 0 -96.333 -11.167 -135 -33.5s-71 -53.833 -97 -94.5s-45.5 -89.667 -58.5 -147s-19.5 -121 -19.5 -191c0 -84 8.83301 -157.167 26.5 -219.5s41.834 -114 72.501 -155s66.834 -71.667 108.501 -92s86.834 -30.5 135.501 -30.5c32 0 61.667 4 89 12
s52.5 18.833 75.5 32.5s43.667 29.167 62 46.5s33.833 35.666 46.5 54.999h26c12.667 -19.333 28.167 -37.666 46.5 -54.999s39 -32.833 62 -46.5s48.333 -24.5 76 -32.5s57.5 -12 89.5 -12c48 0 92.833 10.167 134.5 30.5s77.834 51 108.501 92s54.834 92.667 72.501 155
s26.5 135.5 26.5 219.5c0 70 -6.5 133.667 -19.5 191s-32.333 106.333 -58 147s-57.834 72.167 -96.501 94.5s-83.667 33.5 -135 33.5c-30 0 -55 -3.33301 -75 -10s-36.333 -14 -49 -22s-22.167 -15.333 -28.5 -22s-10.833 -10 -13.5 -10c-2 0 -3.33301 0.333008 -4 1l-3 3z
" />
    <glyph glyph-name="uni047E" unicode="&#x47e;" horiz-adv-x="2148" 
d="M1279 1312c16.667 14.667 33.6787 28.334 51.0117 41.001s36 23.5 56 32.5s42.167 16 66.5 21s51.5 7.5 81.5 7.5c81.333 0 151.666 -18 210.999 -54s108.166 -85.5 146.499 -148.5s66.666 -137 84.999 -222s27.5 -176.5 27.5 -274.5c0 -122 -13.167 -228.667 -39.5 -320
s-62.666 -167.5 -108.999 -228.5s-100.833 -106.667 -163.5 -137s-130.334 -45.5 -203.001 -45.5c-44.667 0 -87.334 5.33301 -128.001 16s-78.667 25.5 -114 44.5s-67.5 41.333 -96.5 67s-54.5 53.5 -76.5 83.5c-22 -30 -47.5 -57.833 -76.5 -83.5s-61.167 -48 -96.5 -67
s-73.333 -33.833 -114 -44.5s-83.334 -16 -128.001 -16c-72.667 0 -140.334 15.167 -203.001 45.5s-117.167 76 -163.5 137s-82.666 137.167 -108.999 228.5s-39.5 198 -39.5 320c0 98 9.16699 189.5 27.5 274.5s46.666 159 84.999 222s87.166 112.5 146.499 148.5
s129.666 54 210.999 54c30 0 57.167 -2.5 81.5 -7.5s46.5 -12 66.5 -21s38.667 -19.833 56 -32.5s34.333 -26.334 51 -41.001l-6 -6c-2.66699 -2.66699 -5.33398 -4 -8.00098 -4c-4 0 -10.5 4.83301 -19.5 14.5s-22.333 20.167 -40 31.5s-40.834 21.833 -69.501 31.5
s-65 14.5 -109 14.5c-74.667 0 -140 -16.167 -196 -48.5s-102.833 -78 -140.5 -137s-65.834 -129.833 -84.501 -212.5s-28 -174.334 -28 -275.001c0 -121.333 12.833 -226.833 38.5 -316.5s60.834 -164.167 105.501 -223.5s97.167 -103.666 157.5 -132.999
s125.166 -44 194.499 -44c46 0 89.167 5.83301 129.5 17.5s77.333 27.167 111 46.5s63.834 41.5 90.501 66.5s49 50.833 67 77.5v591h24v-591c18 -26.667 40.333 -52.5 67 -77.5s56.834 -47.167 90.501 -66.5s70.667 -34.833 111 -46.5s83.5 -17.5 129.5 -17.5
c69.333 0 134.166 14.667 194.499 44s112.833 73.666 157.5 132.999s79.834 133.833 105.501 223.5s38.5 195.167 38.5 316.5c0 100.667 -9.33301 192.334 -28 275.001s-46.834 153.5 -84.501 212.5s-84.5 104.667 -140.5 137s-121.333 48.5 -196 48.5
c-44 0 -80.333 -4.83301 -109 -14.5s-51.834 -20.167 -69.501 -31.5s-31 -21.833 -40 -31.5s-15.5 -14.5 -19.5 -14.5c-2.66699 0 -5.33398 1.33301 -8.00098 4zM1464.01 1710v-5.00098c0 -2 -0.333008 -5 -1 -9l-9 -91c0 -3.33301 -1.83301 -5 -5.5 -5s-5.5 1.66699 -5.5 5
l-8 85h-348l-8 -85c0 -3.33301 -1.83301 -5 -5.5 -5s-5.5 1.66699 -5.5 5l-8 85h-347l-8 -85c0 -3.33301 -1.83301 -5 -5.5 -5s-5.5 1.66699 -5.5 5l-9 91c-0.666992 4.66699 -1 7.83398 -1 9.50098v4.5h780z" />
    <glyph glyph-name="uni047F" unicode="&#x47f;" horiz-adv-x="1519" 
d="M1330 980c12 -40.667 23.3389 -87.6689 34.0059 -141.002s16 -110.333 16 -171c0 -66.667 -7.33301 -131.167 -22 -193.5s-35.5 -121.833 -62.5 -178.5s-59.667 -109.834 -98 -159.501s-80.833 -95.167 -127.5 -136.5h-16c-4.66699 0 -10.667 3 -18 9
c-34.667 30.667 -67.334 68.167 -98.001 112.5s-58 92 -82 143s-44.167 103.833 -60.5 158.5s-27.833 108 -34.5 160c-6.66699 -52 -18.167 -105.333 -34.5 -160s-36.666 -107.667 -60.999 -159s-52 -99.166 -83 -143.499s-64.167 -82.166 -99.5 -113.499
c-4.66699 -4.66699 -8.66699 -7 -12 -7h-19c-98 86 -172.333 184.833 -223 296.5s-76 236.167 -76 373.5v310h9c5.33301 0 9.16602 -1.33301 11.499 -4s3.5 -5.66699 3.5 -9v-297c0 -132 23.5 -251.167 70.5 -357.5s118.833 -203.833 215.5 -292.5
c41.333 36.667 79.5 81.167 114.5 133.5s65.167 107.833 90.5 166.5s45.166 118.5 59.499 179.5s21.5 119.167 21.5 174.5v306h9c5.33301 0 9.16602 -1.33301 11.499 -4s3.5 -5.66699 3.5 -9v-293c0 -55.333 7.16699 -113.666 21.5 -174.999s34.166 -121.5 59.499 -180.5
s55.666 -114.667 90.999 -167s73.666 -96.833 114.999 -133.5c44.667 44 85.167 90 121.5 138s67.333 98.667 93 152s45.5 109.833 59.5 169.5s21 123.167 21 190.5c0 45.333 -2.5 85.166 -7.5 119.499s-10.5 63.833 -16.5 88.5s-11.5 44.334 -16.5 59.001s-7.5 25 -7.5 31
c0 9.33301 4.33301 14 13 14h10zM1151.01 1290v-5.00098c0 -2 -0.333008 -5 -1 -9l-9 -91c0 -3.33301 -1.83301 -5 -5.5 -5s-5.5 1.66699 -5.5 5l-8 85h-348l-8 -85c0 -3.33301 -1.83301 -5 -5.5 -5s-5.5 1.66699 -5.5 5l-8 85h-347l-8 -85c0 -3.33301 -1.83301 -5 -5.5 -5
s-5.5 1.66699 -5.5 5l-9 91c-0.666992 4.66699 -1 7.83398 -1 9.50098v4.5h780z" />
    <glyph glyph-name="uni0480" unicode="&#x480;" horiz-adv-x="1286" 
d="M911 -7c-17.333 -3.33301 -38 -6.00195 -62 -8.00195s-45 -3 -63 -3c-94 0 -180.667 16.667 -260 50s-148 81 -206 143s-103.167 137.333 -135.5 226s-48.5 188.334 -48.5 299.001c0 106.667 16.167 204 48.5 292s78 163.5 137 226.5s129.667 111.667 212 146
s173.166 51.5 272.499 51.5c46 0 89.333 -3.5 130 -10.5s79.167 -17.5 115.5 -31.5s71.166 -31.167 104.499 -51.5s66 -43.833 98 -70.5l-4 -6c-1.33301 -2.66699 -4.66602 -4 -9.99902 -4c-4.66699 0 -16.5 8 -35.5 24s-46.167 33.667 -81.5 53s-79.166 37 -131.499 53
s-114.166 24 -185.499 24c-94.667 0 -181.5 -16.167 -260.5 -48.5s-147 -78.666 -204 -138.999s-101.5 -133.5 -133.5 -219.5s-48 -182.333 -48 -289c0 -108.667 15.833 -206.167 47.5 -292.5s75.5 -159.5 131.5 -219.5s122.167 -106 198.5 -138s159.166 -48 248.499 -48
c38 0 68.833 2 92.5 6s38.5 6 44.5 6h8v-363c0 -7.33301 -3.66699 -11 -11 -11h-9v353z" />
    <glyph glyph-name="uni0481" unicode="&#x481;" horiz-adv-x="881" 
d="M636 -1c-32.667 -7.33301 -66.6621 -11 -101.995 -11c-63.333 0 -120.333 11.333 -171 34s-93.834 55.5 -129.501 98.5s-63.167 95.5 -82.5 157.5s-29 132.667 -29 212c0 76 9.66699 145.167 29 207.5s47.333 115.5 84 159.5s81.5 78.167 134.5 102.5
s113.167 36.5 180.5 36.5c59.333 0 112.166 -9.5 158.499 -28.5s86.166 -43.5 119.499 -73.5l-6 -6c-2.66699 -2.66699 -5.33398 -4 -8.00098 -4c-4 0 -11.5 4.83301 -22.5 14.5s-27 20.167 -48 31.5s-47.333 21.833 -79 31.5s-69.834 14.5 -114.501 14.5
c-63.333 0 -120 -11.333 -170 -34s-92.333 -55 -127 -97s-61.167 -93 -79.5 -153s-27.5 -127.333 -27.5 -202c0 -77.333 9.16699 -145.833 27.5 -205.5s44.5 -110 78.5 -151s74.833 -72.167 122.5 -93.5s100.834 -32 159.501 -32c37.333 0 64.166 2 80.499 6s27.5 6 33.5 6
h8v-369c0 -7.33301 -3.66699 -11 -11 -11h-9v359z" />
    <glyph glyph-name="uni0482" unicode="&#x482;" horiz-adv-x="1426" 
d="M926 972l-388 -563l392 -270l-11 -21l-394 272l-278 -403l-17 12l277 403l-412 284l12 20l414 -285l387 563l-412 284l11 21l415 -286l278 404l18 -12l-279 -404l392 -270l-12 -20z" />
    <glyph glyph-name="uni0483" unicode="&#x483;" 
d="M103 1202v-75h-25c-14.667 0 -28 3.33301 -40 10s-18 18.334 -18 35.001c0 19.333 5.83301 32.333 17.5 39s25.834 10 42.501 10h617v75h25c14.667 0 28 -3.33301 40 -10s18 -18.334 18 -35.001c0 -19.333 -5.83301 -32.333 -17.5 -39s-25.834 -10 -42.501 -10h-617z" />
    <glyph glyph-name="uni0484" unicode="&#x484;" 
d="M594 1308c-34.667 0 -67.6689 -4.00195 -99.002 -12.002s-62 -18.167 -92 -30.5s-59.833 -25.666 -89.5 -39.999s-59.667 -27.666 -90 -39.999s-61.666 -22.5 -93.999 -30.5s-66.166 -12 -101.499 -12v19c33.333 0 65.666 4 96.999 12s62.333 18.167 93 30.5
s61.167 25.666 91.5 39.999s61 27.666 92 39.999s62.333 22.5 94 30.5s64.5 12 98.5 12c27.333 0 52.333 -4.66699 75 -14s42.334 -22.166 59.001 -38.499s29.5 -35.666 38.5 -57.999s13.5 -46.5 13.5 -72.5h-22c0 24 -4.16699 46 -12.5 66s-19.833 37.333 -34.5 52
s-32 26 -52 34s-41.667 12 -65 12z" />
    <glyph glyph-name="uni0485" unicode="&#x485;" 
d="M466 1182c-20 0 -36.833 4.5 -50.5 13.5s-24.667 20.833 -33 35.5s-14.333 30.667 -18 48s-5.5 34.666 -5.5 51.999c0 32.667 5.66699 54.834 17 66.501s24.666 17.5 39.999 17.5c16 0 29.167 -4.66699 39.5 -14s15.5 -22 15.5 -38c0 -15.333 -4.66699 -27.5 -14 -36.5
s-21.666 -13.5 -36.999 -13.5c-14.667 0 -27.667 5.66699 -39 17c1.33301 -40 8 -70.167 20 -90.5s29 -33.166 51 -38.499c3.33301 -0.666992 6.5 -1.33398 9.5 -2.00098s4.5 -2 4.5 -4v-13z" />
    <glyph glyph-name="uni0486" unicode="&#x486;" 
d="M364 1185c0 2 1.5 3.33301 4.5 4s6.16699 1.33398 9.5 2.00098c22 5.33301 39 18.166 51 38.499s18.667 50.5 20 90.5c-11.333 -11.333 -24.333 -17 -39 -17c-15.333 0 -27.666 4.5 -36.999 13.5s-14 21.167 -14 36.5c0 16 5.16699 28.667 15.5 38s23.5 14 39.5 14
c15.333 0 28.666 -5.83301 39.999 -17.5s17 -33.834 17 -66.501c0 -17.333 -1.83301 -34.666 -5.5 -51.999s-9.66699 -33.333 -18 -48s-19.333 -26.5 -33 -35.5s-30.5 -13.5 -50.5 -13.5v13z" />
    <glyph glyph-name="uni0488" unicode="&#x488;" horiz-adv-x="2178" 
d="M1089 34c55.333 0 97.5 -15.667 126.5 -47s43.5 -78.333 43.5 -141h-20c0 54 -12.5 95.5 -37.5 124.5s-62.5 43.5 -112.5 43.5s-87.5 -14.5 -112.5 -43.5s-37.5 -70.5 -37.5 -124.5h-20c0 62.667 14.5 109.667 43.5 141s71.167 47 126.5 47zM1089 1526
c55.333 0 97.5 -15.667 126.5 -47s43.5 -78.333 43.5 -141h-20c0 54 -12.5 95.5 -37.5 124.5s-62.5 43.5 -112.5 43.5s-87.5 -14.5 -112.5 -43.5s-37.5 -70.5 -37.5 -124.5h-20c0 62.667 14.5 109.667 43.5 141s71.167 47 126.5 47zM337 780
c55.333 0 97.5 -15.667 126.5 -47s43.5 -78.333 43.5 -141h-20c0 54 -12.5 95.5 -37.5 124.5s-62.5 43.5 -112.5 43.5s-87.5 -14.5 -112.5 -43.5s-37.5 -70.5 -37.5 -124.5h-20c0 62.667 14.5 109.667 43.5 141s71.167 47 126.5 47zM1841 780
c55.333 0 97.5 -15.667 126.5 -47s43.5 -78.333 43.5 -141h-20c0 54 -12.5 95.5 -37.5 124.5s-62.5 43.5 -112.5 43.5s-87.5 -14.5 -112.5 -43.5s-37.5 -70.5 -37.5 -124.5h-20c0 62.667 14.5 109.667 43.5 141s71.167 47 126.5 47zM526 322
c55.333 0 97.5 -15.667 126.5 -47s43.5 -78.333 43.5 -141h-20c0 54 -12.5 95.5 -37.5 124.5s-62.5 43.5 -112.5 43.5s-87.5 -14.5 -112.5 -43.5s-37.5 -70.5 -37.5 -124.5h-20c0 62.667 14.5 109.667 43.5 141s71.167 47 126.5 47zM1652 322
c55.333 0 97.5 -15.667 126.5 -47s43.5 -78.333 43.5 -141h-20c0 54 -12.5 95.5 -37.5 124.5s-62.5 43.5 -112.5 43.5s-87.5 -14.5 -112.5 -43.5s-37.5 -70.5 -37.5 -124.5h-20c0 62.667 14.5 109.667 43.5 141s71.167 47 126.5 47zM526 1238
c55.333 0 97.5 -15.667 126.5 -47s43.5 -78.333 43.5 -141h-20c0 54 -12.5 95.5 -37.5 124.5s-62.5 43.5 -112.5 43.5s-87.5 -14.5 -112.5 -43.5s-37.5 -70.5 -37.5 -124.5h-20c0 62.667 14.5 109.667 43.5 141s71.167 47 126.5 47zM1652 1238
c55.333 0 97.5 -15.667 126.5 -47s43.5 -78.333 43.5 -141h-20c0 54 -12.5 95.5 -37.5 124.5s-62.5 43.5 -112.5 43.5s-87.5 -14.5 -112.5 -43.5s-37.5 -70.5 -37.5 -124.5h-20c0 62.667 14.5 109.667 43.5 141s71.167 47 126.5 47z" />
    <glyph glyph-name="uni0489" unicode="&#x489;" horiz-adv-x="2118" 
d="M1825 1209c0 -4 -1.00098 -6.33789 -3.00098 -7.00488c-1.33301 -1.33301 -3.66602 -2.33301 -6.99902 -3c-8 -0.666992 -20.833 -2.16699 -38.5 -4.5s-37.667 -6.66602 -60 -12.999s-45.5 -15.333 -69.5 -27s-46.333 -27.5 -67 -47.5
c16 0.666992 31.333 -5.66602 46 -18.999c11.333 -11.333 16.833 -24.666 16.5 -39.999s-6.83301 -29.666 -19.5 -42.999c-11.333 -11.333 -25.333 -17.5 -42 -18.5s-31.334 4.83301 -44.001 17.5c-13.333 13.333 -19.166 28.833 -17.499 46.5s11.167 35.167 28.5 52.5
c18 18 37.833 33.833 59.5 47.5s44.5 25 68.5 34s48.667 15.833 74 20.5s50.333 7.33398 75 8.00098v-4zM141.999 771.995c2.66699 2.66699 5.00391 3.66699 7.00391 3c1.33301 0 3.66602 -1 6.99902 -3c6 -5.33301 16.167 -13.333 30.5 -24s31.666 -21.667 51.999 -33
s43.166 -21.333 68.499 -30s52.333 -13.334 81 -14.001c-12 10.667 -18.667 26 -20 46c0.666992 16 6.5 29.333 17.5 40s25.5 16.334 43.5 17.001c16 -0.666992 30.333 -6.5 43 -17.5s19 -25.5 19 -43.5s-6.83301 -32.833 -20.5 -44.5s-32.834 -17.5 -57.501 -17.5
c-51.333 0 -100.833 11.167 -148.5 33.5s-89.5 50.5 -125.5 84.5zM323.003 74.9951c0 3.33301 1.00098 5.67188 3.00098 7.00488c1.33301 1.33301 3.66602 2.33301 6.99902 3c8 0.666992 20.833 2.16699 38.5 4.5s37.667 6.66602 60 12.999s45.5 15.333 69.5 27
s46.333 27.5 67 47.5c-16 -0.666992 -31.333 5.66602 -46 18.999c-11.333 11.333 -16.833 24.666 -16.5 39.999s6.83301 29.666 19.5 42.999c11.333 11.333 25.333 17.5 42 18.5s31.334 -4.83301 44.001 -17.5c13.333 -13.333 19.166 -28.833 17.499 -46.5
s-11.167 -35.167 -28.5 -52.5c-18 -18 -37.833 -33.833 -59.5 -47.5s-44.5 -25 -68.5 -34s-48.667 -15.833 -74 -20.5s-50.333 -7.33398 -75 -8.00098v4zM507.004 1393c3.33301 0 5.67188 -1.00098 7.00488 -3.00098c1.33301 -1.33301 2.33301 -3.66602 3 -6.99902
c0.666992 -8 2.16699 -20.833 4.5 -38.5s6.66602 -37.667 12.999 -60s15.333 -45.5 27 -69.5s27.5 -46.333 47.5 -67c-0.666992 16 5.66602 31.333 18.999 46c11.333 11.333 24.666 16.833 39.999 16.5s29.666 -6.83301 42.999 -19.5c11.333 -11.333 17.5 -25.333 18.5 -42
s-4.83301 -31.667 -17.5 -45c-12.667 -12.667 -28 -18.167 -46 -16.5s-35.667 11.167 -53 28.5c-18 18 -33.833 37.833 -47.5 59.5s-25 44.5 -34 68.5s-15.833 48.667 -20.5 74s-7.33398 50.333 -8.00098 75h4zM944.01 -290c-2.66699 2.66699 -3.66699 5.00391 -3 7.00391
c0 1.33301 1 3.66602 3 6.99902l23.5 30.5c11 14.333 22.167 31.666 33.5 51.999s21.333 43.166 30 68.499s13.334 52.333 14.001 81c-10.667 -12 -26 -18.667 -46 -20c-16 0.666992 -29.333 6.5 -40 17.5s-16.334 25.5 -17.001 43.5c0.666992 16 6.5 30.333 17.5 43
s25.5 19 43.5 19s32.833 -6.83301 44.5 -20.5s17.5 -32.834 17.5 -57.501c0 -51.333 -11.167 -100.833 -33.5 -148.5s-50.5 -89.5 -84.5 -125.5zM1204.01 1574c2.66699 -2.66699 3.66699 -5.00293 3 -7.00293c0 -2 -1 -4.33301 -3 -7c-5.33301 -6 -13.333 -16.167 -24 -30.5
s-21.667 -31.666 -33 -51.999s-21.333 -43.166 -30 -68.499s-13.334 -52.333 -14.001 -81c10.667 12 26 18.667 46 20c16 -0.666992 29.333 -6.5 40 -17.5s16.334 -25.5 17.001 -43.5c-0.666992 -16 -6.5 -30.333 -17.5 -43s-25.5 -19 -43.5 -19s-32.833 6.83301 -44.5 20.5
s-17.5 32.834 -17.5 57.501c0 51.333 11.167 100.833 33.5 148.5s50.5 89.5 84.5 125.5zM1641.01 -108.999c-4 0 -6.33789 1.00098 -7.00488 3.00098c-1.33301 1.33301 -2.33301 3.66602 -3 6.99902c-0.666992 8 -2.16699 20.833 -4.5 38.5s-6.66602 37.667 -12.999 60
s-15.333 45.5 -27 69.5s-27.5 46.333 -47.5 67c0.666992 -16 -5.66602 -31.333 -18.999 -46c-11.333 -11.333 -24.666 -16.833 -39.999 -16.5s-29.666 6.83301 -42.999 19.5c-11.333 11.333 -17.5 25.333 -18.5 42s4.83301 31.667 17.5 45c12.667 12.667 28 18.167 46 16.5
s35.667 -11.167 53 -28.5c18 -18 33.833 -37.833 47.5 -59.5s25 -44.5 34 -68.5s15.833 -48.667 20.5 -74s7.33398 -50.333 8.00098 -75h-4zM2006 512.002c-2.66699 -2.66699 -5.00293 -3.66699 -7.00293 -3c-2 0 -4.33301 1 -7 3l-30.5 23.5
c-14.333 11 -31.666 22.167 -51.999 33.5s-43.166 21.333 -68.499 30s-52.333 13.334 -81 14.001c12 -10.667 18.667 -26 20 -46c-0.666992 -16 -6.5 -29.333 -17.5 -40s-25.5 -16.334 -43.5 -17.001c-16 0.666992 -30.333 6.5 -43 17.5s-19 25.5 -19 43.5
s6.83301 32.833 20.5 44.5s32.834 17.5 57.501 17.5c51.333 0 100.833 -11.167 148.5 -33.5s89.5 -50.5 125.5 -84.5z" />
    <glyph glyph-name="uni048A" unicode="&#x48a;" horiz-adv-x="1526" 
d="M936 1740c3.33301 0 6.16797 -1.16699 8.50098 -3.5s3.5 -6.16602 3.5 -11.499c0 -31.333 -4 -59.666 -12 -84.999s-20.5 -47 -37.5 -65s-39 -32 -66 -42s-59.167 -15 -96.5 -15s-69.5 5 -96.5 15s-49 24 -66 42s-29.5 39.667 -37.5 65s-12 53.666 -12 84.999
c0 5.33301 1.16699 9.16602 3.5 11.499s5.16602 3.5 8.49902 3.5h10c0 -70.667 15.5 -123 46.5 -157s78.833 -51 143.5 -51s112.5 17 143.5 51s46.5 86.333 46.5 157h10zM1450 22l-138 -382h-23l130 360h-179v1286v41c0 13.333 0.666992 27 2 41
c-7.33301 -11.333 -14 -21.166 -20 -29.499l-19 -26.5l-942 -1305c-3.33301 -4.66699 -8 -7 -14 -7h-15v1400h24v-1286v-41c0 -13.333 -0.666992 -27 -2 -41c7.33301 11.333 14 21.166 20 29.499l19 26.5l942 1305c3.33301 4.66699 8 7 14 7h15v-1378h186z" />
    <glyph glyph-name="uni048B" unicode="&#x48b;" horiz-adv-x="1158" 
d="M765 1400c3.33301 0 6.16797 -1.16699 8.50098 -3.5s3.5 -6.16602 3.5 -11.499c0 -31.333 -4 -59.666 -12 -84.999s-20.5 -47 -37.5 -65s-39 -32 -66 -42s-59.167 -15 -96.5 -15s-69.5 5 -96.5 15s-49 24 -66 42s-29.5 39.667 -37.5 65s-12 53.666 -12 84.999
c0 5.33301 1.16699 9.16602 3.5 11.499s5.16602 3.5 8.49902 3.5h10c0 -70.667 15.5 -123 46.5 -157s78.833 -51 143.5 -51s112.5 17 143.5 51s46.5 86.333 46.5 157h10zM1118 20l-137 -380.001h-23l130 360h-178v900v19c0 6 0.333008 12.333 1 19l-18 -27
c-0.666992 -1.33301 -5.66699 -8.16602 -15 -20.499l-38.5 -50.5l-57.5 -75l-71 -93l-80 -105.5l-85 -111.5l-341 -448c-3.33301 -4.66699 -7 -7 -11 -7h-10v980h24v-900v-19c0 -6 -0.333008 -12.333 -1 -19c6.66699 10.667 12.667 19.667 18 27
c0.666992 1.33301 11.167 15.333 31.5 42l79.5 103.5l110.5 145l125.5 165.5l341 448c3.33301 4.66699 7 7 11 7h10v-960h184z" />
    <glyph glyph-name="uni048C" unicode="&#x48c;" horiz-adv-x="1246" 
d="M706 20c136 0 240 30.666 312 91.999s108 150 108 266c0 114.667 -36 200.334 -108 257.001s-175.333 85 -310 85h-376v-700h374zM708 739.999c142.667 0 251.999 -30.667 327.999 -92s114 -151.333 114 -270c0 -59.333 -9.66699 -112.5 -29 -159.5
s-47.833 -86.667 -85.5 -119s-84.167 -57 -139.5 -74s-118.666 -25.5 -189.999 -25.5h-398v1101h-260v22h260v277h24v-277h342v-22h-342v-361h376z" />
    <glyph glyph-name="uni048D" unicode="&#x48d;" horiz-adv-x="1013" 
d="M588 20c53.333 0 99.6689 6.50098 139.002 19.501s71.833 30.833 97.5 53.5s44.667 49.5 57 80.5s18.5 64.833 18.5 101.5c0 34.667 -5.16699 67.167 -15.5 97.5s-27.833 56.666 -52.5 78.999s-57.334 40 -98.001 53s-91.334 19.5 -152.001 19.5h-291v-504h297z
M582.003 544.001c66.667 0 121.833 -7.66699 165.5 -23s78.5 -35.5 104.5 -60.5s44.333 -53.5 55 -85.5s16 -64.667 16 -98c0 -39.333 -7 -75.833 -21 -109.5s-34.833 -63 -62.5 -88s-62.5 -44.5 -104.5 -58.5s-91 -21 -147 -21h-321v814h-210v20h210v146h24v-146h241v-20
h-241v-270h291z" />
    <glyph glyph-name="uni048E" unicode="&#x48e;" horiz-adv-x="1118" 
d="M761 660c37.333 15.333 70.668 34.6699 100.001 58.0029s54.166 49.666 74.499 78.999s35.833 61.166 46.5 95.499s16 70.166 16 107.499c0 124.667 -37.5 219.167 -112.5 283.5s-187.5 96.5 -337.5 96.5h-292v-760h292c72 0 136.333 10.667 193 32l-119 178l16 12z
M548.002 1400c152.667 0 269.836 -33 351.503 -99s122.5 -166.333 122.5 -301c0 -40.667 -5.83301 -79.167 -17.5 -115.5s-28.334 -69.833 -50.001 -100.5s-47.834 -58 -78.501 -82s-65.334 -44 -104.001 -60l112 -166l-16 -12l-115 171c-60.667 -23.333 -129 -35 -205 -35
h-292v-600h-24v1400h316z" />
    <glyph glyph-name="uni048F" unicode="&#x48f;" horiz-adv-x="1087" 
d="M208 195c42.667 -68.667 90.334 -117.001 143.001 -145.001s113.667 -42 183 -42c35.333 0 68.166 3.33301 98.499 10s58.166 16.334 83.499 29.001l-122 182l16 12l124 -184c34.667 19.333 65 44 91 74s47.5 63.833 64.5 101.5s29.667 78.667 38 123
s12.5 91.166 12.5 140.499c0 162.667 -31.167 283.334 -93.5 362.001s-153.833 118 -274.5 118c-72.667 0 -140.167 -20.333 -202.5 -61s-116.166 -96.667 -161.499 -168v-552zM208 777.999c44 67.333 97.165 120.5 159.498 159.5s130.5 58.5 204.5 58.5
c126.667 0 223.667 -40.833 291 -122.5s101 -207.5 101 -377.5c0 -50.667 -4.66699 -99 -14 -145s-23.166 -88.667 -41.499 -128s-41.166 -74.5 -68.499 -105.5s-59 -56.833 -95 -77.5l111 -165l-16 -12l-113 168c-56 -28.667 -120.333 -43 -193 -43
c-144 0 -252.667 58.333 -326 175v-523h-24v1340h6c9.33301 0 14 -5.33301 14 -16z" />
    <glyph glyph-name="afii10050" unicode="&#x490;" horiz-adv-x="1060" 
d="M1030 1378h-774v-1378h-24v1400h776v329h22v-351z" />
    <glyph glyph-name="afii10098" unicode="&#x491;" horiz-adv-x="792" 
d="M755 1241v-281h-547v-960h-24v980h551v261h20z" />
    <glyph glyph-name="uni0492" unicode="&#x492;" horiz-adv-x="1140" 
d="M332 1378v-613h342v-22h-342v-743h-24v743h-260v22h260v635h798v-22h-774z" />
    <glyph glyph-name="uni0493" unicode="&#x493;" horiz-adv-x="877" 
d="M293 960v-399h241v-20h-241v-541h-24v541h-210v20h210v419h570v-20h-546z" />
    <glyph glyph-name="uni0494" unicode="&#x494;" horiz-adv-x="1250" 
d="M256 705c42 34 93.9922 61.999 155.992 83.999s133.333 33 214 33c74 0 142 -10 204 -30s115.333 -52.5 160 -97.5s79.334 -103.833 104.001 -176.5s37 -161.667 37 -267c0 -102 -12.667 -192 -38 -270s-60.333 -143.333 -105 -196s-98 -92.5 -160 -119.5
s-129.333 -40.5 -202 -40.5c-54.667 0 -112 10 -172 30c0 1.33301 0.333008 2.33301 1 3s1 1.66699 1 3c1.33301 2 2.33301 4.16699 3 6.5s3.66699 3.5 9 3.5c6.66699 0 14.334 -1.33301 23.001 -4s19.167 -5.66699 31.5 -9s26.833 -6.33301 43.5 -9s36.667 -4 60 -4
c70.667 0 135.334 13 194.001 39s109.334 64.667 152.001 116s75.834 114.833 99.501 190.5s35.5 163.167 35.5 262.5c0 100.667 -11.667 186.167 -35 256.5s-56.166 127.333 -98.499 171s-93.166 75.334 -152.499 95.001s-125 29.5 -197 29.5
c-51.333 0 -96.666 -4.33301 -135.999 -13s-74 -19 -104 -31s-55.333 -24.833 -76 -38.5l-52 -35.5v-687h-24v1400h798v-22h-774v-673z" />
    <glyph glyph-name="uni0495" unicode="&#x495;" horiz-adv-x="935" 
d="M754 980v-19.998h-546v-494c30 25.333 66.833 46.5 110.5 63.5s94.5 25.5 152.5 25.5c51.333 0 99 -8.5 143 -25.5s82.333 -43.5 115 -79.5s58.167 -82.333 76.5 -139s27.5 -124.334 27.5 -203.001c0 -76 -9.33301 -144 -28 -204s-44.5 -110.833 -77.5 -152.5
s-71.667 -73.334 -116 -95.001s-92.166 -32.5 -143.499 -32.5c-40 0 -80.667 7.33301 -122 22c0 1.33301 0.333008 2.83301 1 4.5s1 3.16699 1 4.5l2.5 5c1 2 3.5 3 7.5 3c8.66699 0 21.167 -3.16699 37.5 -9.5s40.166 -9.5 71.499 -9.5c48.667 0 93.834 10.5 135.501 31.5
s77.834 51.333 108.501 91s54.667 88.334 72 146.001s26 123.167 26 196.5c0 75.333 -8.66699 140 -26 194s-41.333 98.333 -72 133s-67.334 60.167 -110.001 76.5s-89.334 24.5 -140.001 24.5c-35.333 0 -66.5 -3.33301 -93.5 -10s-50.833 -14.834 -71.5 -24.501
s-38.167 -19.667 -52.5 -30l-35.5 -25.5v-447h-24v980h570z" />
    <glyph glyph-name="uni0496" unicode="&#x496;" horiz-adv-x="2058" 
d="M2044 22l-0.00585938 -371c0 -7.33301 -3.66699 -11 -11 -11h-11v360h-143c-8.66699 0 -16 3.66699 -22 11l-515 618c-19.333 23.333 -41.166 41.666 -65.499 54.999s-56.833 20 -97.5 20h-194v-704h-24v704h-194c-40.667 0 -73.167 -6.66699 -97.5 -20
s-46.166 -31.666 -65.499 -54.999l-514 -618c-6 -7.33301 -13.333 -11 -22 -11h-16l532 639c16.667 20 35.334 36.5 56.001 49.5s45.667 21.833 75 26.5c-29.333 5.33301 -53.666 14.333 -72.999 27s-38 29.667 -56 51l-517 607h15c4.66699 0 8.83398 -1.33301 12.501 -4
s7.16699 -5.66699 10.5 -9l502 -588c13.333 -16 26.666 -28.833 39.999 -38.5s27 -17.167 41 -22.5s28.667 -9 44 -11s32 -3 50 -3h177v676h24v-676h177c18 0 34.667 1 50 3s30 5.66699 44 11s27.667 12.833 41 22.5s26.666 22.5 39.999 38.5l502 588
c3.33301 3.33301 6.83301 6.33301 10.5 9s7.83398 4 12.501 4h15l-517 -607c-18 -21.333 -36.667 -38.333 -56 -51s-43.666 -21.667 -72.999 -27c29.333 -4.66699 54.333 -13.5 75 -26.5s39.334 -29.5 56.001 -49.5l514 -617h168z" />
    <glyph glyph-name="uni0497" unicode="&#x497;" horiz-adv-x="1578" 
d="M1558 20l-0.00195312 -369c0 -7.33301 -3.66699 -11 -11 -11h-9v360h-159c-10 0 -17 3 -21 9l-299 387c-22.667 29.333 -48.834 51.833 -78.501 67.5s-63.167 23.5 -100.5 23.5h-146v-489h-24v489h-146c-37.333 0 -70.833 -7.83301 -100.5 -23.5
s-55.834 -38.167 -78.501 -67.5l-299 -387c-4 -6 -11.667 -9 -23 -9h-17l323 410c20 25.333 41.667 45.5 65 60.5s50 24.833 80 29.5c-26 7.33301 -48.5 18.333 -67.5 33s-36.167 31.334 -51.5 50.001l-317 397h16c8.66699 0 15.334 -3.33301 20.001 -10l307 -383
c18.667 -23.333 42.334 -42.5 71.001 -57.5s57 -22.5 85 -22.5h133v474h24v-474h133c28 0 56.333 7.5 85 22.5s52.334 34.167 71.001 57.5l307 383c4.66699 6.66699 11.334 10 20.001 10h16l-317 -397c-15.333 -18.667 -32.5 -35.334 -51.5 -50.001s-41.5 -25.667 -67.5 -33
c30 -4.66699 56.667 -14.5 80 -29.5s45 -35.167 65 -60.5l307 -390h176z" />
    <glyph glyph-name="uni0498" unicode="&#x498;" horiz-adv-x="1123" 
d="M149 1275c25.333 23.333 51.501 43.6719 78.501 61.0049s55.5 31.666 85.5 42.999s62.333 19.833 97 25.5s72.667 8.5 114 8.5c63.333 0 120.333 -8.66699 171 -26s93.834 -41.166 129.501 -71.499s63 -66 82 -107s28.5 -85.167 28.5 -132.5
c0 -46 -8.33301 -87.167 -25 -123.5s-38.5 -67.666 -65.5 -93.999s-57.5 -47.833 -91.5 -64.5s-68.333 -28.334 -103 -35.001c54.667 -7.33301 102.834 -22 144.501 -44s76.667 -49.333 105 -82s49.666 -69.334 63.999 -110.001s21.5 -83.667 21.5 -129
c0 -52 -8.83301 -100.833 -26.5 -146.5s-43.167 -86.334 -76.5 -122.001s-74.333 -65.334 -123 -89.001s-104.334 -39.167 -167.001 -46.5c34 -12.667 61.667 -33.334 83 -62.001s32 -62.334 32 -101.001c0 -24 -4 -46.333 -12 -67s-19.333 -38.667 -34 -54
s-31.834 -27.333 -51.501 -36s-41.167 -13 -64.5 -13c-28 0 -55 4.66699 -81 14s-47.667 22.666 -65 39.999l6 6c2.66699 2.66699 5.33398 4 8.00098 4c3.33301 0 8 -2.33301 14 -7s14 -9.66699 24 -15s22.5 -10.333 37.5 -15s33.167 -7 54.5 -7
c42 0 76.167 13.5 102.5 40.5s39.5 64.5 39.5 112.5c0 40 -11 74.333 -33 103s-53.667 46.667 -95 54c-7.33301 -0.666992 -14.666 -1 -21.999 -1h-22c-52 0 -98.5 4.16699 -139.5 12.5s-78.5 20.333 -112.5 36s-65.333 34.667 -94 57s-56 47.833 -82 76.5l4 4
c2 2 3.66699 3.5 5 4.5s3.66602 1.5 6.99902 1.5c4 0 10.333 -4.16699 19 -12.5l34.5 -32c14.333 -13 32 -26.833 53 -41.5s46 -28.5 75 -41.5s62.5 -23.667 100.5 -32s81.333 -12.5 130 -12.5c71.333 0 134.833 10.167 190.5 30.5s102.5 48 140.5 83s67 75.667 87 122
s30 95.833 30 148.5c0 48.667 -8.5 94.834 -25.5 138.501s-42 81.667 -75 114s-74 58 -123 77s-105.167 28.5 -168.5 28.5h-177v23h191c40.667 0 80.5 6.83301 119.5 20.5s74 33.5 105 59.5s56 58 75 96s28.5 81 28.5 129c0 46 -9 88.333 -27 127s-43.5 72.167 -76.5 100.5
s-73.167 50.333 -120.5 66s-100 23.5 -158 23.5c-44.667 0 -84 -3.16699 -118 -9.5s-63.833 -14.333 -89.5 -24s-47.5 -20.167 -65.5 -31.5s-33 -21.833 -45 -31.5l-29.5 -24c-7.66699 -6.33301 -13.834 -9.5 -18.501 -9.5s-8 2 -10 6z" />
    </font>
</defs>
</svg>
