<svg xmlns="http://www.w3.org/2000/svg">
<defs>
<font id="Lato-Semibold" horiz-adv-x="800" >
  <font-face 
    font-family="Lato Semibold"
    font-weight="600"
    font-stretch="normal"
    units-per-em="2000"
    panose-1="2 15 5 2 2 2 4 3 2 3"
    ascent="1610"
    descent="-390"
    x-height="1020"
    cap-height="1440"
    bbox="-105 -411.001 2636 1905"
    underline-thickness="96"
    underline-position="-414"
    unicode-range="U+0020-U+04FF"
  />
<missing-glyph horiz-adv-x="1080" 
d="M244 1144c35.333 30 76.3369 55.498 123.004 76.498s102 31.5 166 31.5c44.667 0 84.834 -6 120.501 -18s66.167 -29.167 91.5 -51.5s44.833 -49.333 58.5 -81s20.5 -66.834 20.5 -105.501c0 -36.667 -4.83301 -68.167 -14.5 -94.5s-21.834 -49.166 -36.501 -68.499
s-30.667 -36.333 -48 -51l-49.5 -40.5c-15.667 -12.333 -29.334 -24.5 -41.001 -36.5s-18.834 -25.667 -21.501 -41l-19 -100h-147l-15 116c-3.33301 24 -0.833008 44.667 7.5 62s19.666 33 33.999 47s30.166 27.333 47.499 40s33.833 26.334 49.5 41.001s28.667 31 39 49
s15.5 39.333 15.5 64c0 28.667 -10 51.334 -30 68.001s-47 25 -81 25c-25.333 0 -46.833 -2.5 -64.5 -7.5s-32.667 -10.667 -45 -17l-32.5 -17c-9.33301 -5 -18.333 -7.5 -27 -7.5c-20 0 -34.667 8.33301 -44 25zM390.004 303.998c0 17.333 3.16699 33.666 9.5 48.999
s15 28.666 26 39.999s24 20.166 39 26.499s31.5 9.5 49.5 9.5c16.667 0 32.5 -3.16699 47.5 -9.5s28 -15.166 39 -26.499s19.667 -24.666 26 -39.999s9.5 -31.666 9.5 -48.999s-3.16699 -33.666 -9.5 -48.999s-15 -28.5 -26 -39.5s-24 -19.667 -39 -26
s-30.833 -9.5 -47.5 -9.5c-18 0 -34.5 3.16699 -49.5 9.5s-28 15 -39 26s-19.667 24.167 -26 39.5s-9.5 31.666 -9.5 48.999zM43.0039 1440h993v-1440h-993v1440zM101.004 61.998h871v1316h-871v-1316z" />
    <glyph glyph-name="f_b.liga" unicode="fb" horiz-adv-x="1848" 
d="M200 0v848.998l-100 14c-16.667 3.33301 -30.167 9.33301 -40.5 18s-15.5 21 -15.5 37v88h156v75c0 60.667 9.16699 116.834 27.5 168.501s47.333 96.334 87 134.001s90.834 67 153.501 88s138.334 31.5 227.001 31.5c31.333 0 60.833 -1.16699 88.5 -3.5s56 -5 85 -8
s59.333 -5.66699 91 -8s67.167 -3.5 106.5 -3.5v-595c42 46 89 82.667 141 110s111.333 41 178 41c59.333 0 112.833 -11.5 160.5 -34.5s88.167 -56.167 121.5 -99.5s59 -95.833 77 -157.5s27 -131.167 27 -208.5c0 -82.667 -10.167 -157.834 -30.5 -225.501
s-49.5 -125.667 -87.5 -174s-84 -85.666 -138 -111.999s-114.333 -39.5 -181 -39.5c-32.667 0 -62.334 3.16699 -89.001 9.5s-51.334 15.5 -74.001 27.5s-43.5 26.333 -62.5 43s-37.167 35.667 -54.5 57l-9 -79c-3.33301 -15.333 -9.33301 -26.333 -18 -33
s-20.667 -10 -36 -10h-140v1333c-27.333 8.66699 -55.5 15.5 -84.5 20.5s-57.167 7.5 -84.5 7.5c-46.667 0 -87.167 -7 -121.5 -21s-62.833 -33.5 -85.5 -58.5s-39.5 -54.667 -50.5 -89s-16.5 -71.5 -16.5 -111.5v-75h279v-155h-272v-851h-215zM1066 255.998
c30 -38.667 62.833 -65.833 98.5 -81.5s74.5 -23.5 116.5 -23.5c84.667 0 150.667 30.667 198 92s71 156.333 71 285c0 117.333 -20.5 203 -61.5 257s-99.5 81 -175.5 81c-52.667 0 -98.5 -11.833 -137.5 -35.5s-75.5 -57.5 -109.5 -101.5v-473z" />
    <glyph glyph-name="f_f_b.liga" unicode="ffb" horiz-adv-x="2488" 
d="M200 0v848.998l-100 14c-16.667 3.33301 -30.167 9.33301 -40.5 18s-15.5 21 -15.5 37v88h156v69c0 58.667 8.5 111 25.5 157s41.333 85 73 117s70.167 56.333 115.5 73s96.333 25 153 25c23.333 0 45.5 -1.66699 66.5 -5s41.5 -8 61.5 -14l-4 -109
c-1.33301 -17.333 -10.166 -27.833 -26.499 -31.5s-36.833 -5.5 -61.5 -5.5c-30 0 -57 -3.5 -81 -10.5s-44.5 -18.833 -61.5 -35.5s-30 -38.667 -39 -66s-13.5 -61 -13.5 -101v-63h432v75c0 60.667 9.16699 116.834 27.5 168.501s47.166 96.334 86.499 134.001
s90.333 67 153 88s138.334 31.5 227.001 31.5c31.333 0 60.833 -1.16699 88.5 -3.5s56 -5 85 -8s59.333 -5.66699 91 -8s67.167 -3.5 106.5 -3.5v-595c42 46 89 82.667 141 110s111.333 41 178 41c59.333 0 112.833 -11.5 160.5 -34.5s88.167 -56.167 121.5 -99.5
s59 -95.833 77 -157.5s27 -131.167 27 -208.5c0 -82.667 -10.167 -157.834 -30.5 -225.501s-49.5 -125.667 -87.5 -174s-84 -85.666 -138 -111.999s-114.333 -39.5 -181 -39.5c-32.667 0 -62.334 3.16699 -89.001 9.5s-51.334 15.5 -74.001 27.5s-43.5 26.333 -62.5 43
s-37.167 35.667 -54.5 57l-9 -79c-3.33301 -15.333 -9.33301 -26.333 -18 -33s-20.667 -10 -36 -10h-140v1333c-26.667 8.66699 -54.667 15.5 -84 20.5s-57.666 7.5 -84.999 7.5c-46.667 0 -87.167 -7 -121.5 -21s-62.833 -33.5 -85.5 -58.5s-39.5 -54.667 -50.5 -89
s-16.5 -71.5 -16.5 -111.5v-75h279v-155h-272v-851h-214v851h-425v-851h-215zM1705 255.998c30 -38.667 62.832 -65.833 98.499 -81.5s74.5 -23.5 116.5 -23.5c84.667 0 150.667 30.667 198.001 92c47.333 61.333 71 156.333 71 285c0 117.333 -20.5 203 -61.5 257
s-99.5 81 -175.5 81c-52.667 0 -98.5 -11.833 -137.5 -35.5s-75.5 -57.5 -109.5 -101.5v-473z" />
    <glyph glyph-name="f_f.liga" unicode="ff" horiz-adv-x="1349" 
d="M200 0l-0.000976562 849l-100 14c-16.667 3.33301 -30.167 9.33301 -40.5 18s-15.5 21 -15.5 37v88h156v69c0 58.667 8.5 111 25.5 157s41.333 85 73 117s70.167 56.333 115.5 73s96.333 25 153 25c23.333 0 45.5 -1.66699 66.5 -5s41.5 -8 61.5 -14l-4 -109
c-1.33301 -17.333 -10.166 -27.833 -26.499 -31.5s-36.833 -5.5 -61.5 -5.5c-30 0 -57 -3.5 -81 -10.5s-44.5 -18.833 -61.5 -35.5s-30 -38.667 -39 -66s-13.5 -61 -13.5 -101v-63h432v99c0 58.667 8.5 111 25.5 157s41.333 85 73 117s70.167 56.333 115.5 73s96 25 152 25
c23.333 0 45.666 -1.66699 66.999 -5s42 -8 62 -14l-5 -109c-1.33301 -17.333 -10.166 -27.833 -26.499 -31.5s-36.833 -5.5 -61.5 -5.5c-30 0 -57 -3.5 -81 -10.5s-44.5 -18.833 -61.5 -35.5s-30 -38.667 -39 -66s-13.5 -61 -13.5 -101v-93h279v-155h-272v-851h-214v851
h-425v-851h-215z" />
    <glyph glyph-name="f_h.liga" unicode="fh" horiz-adv-x="1842" 
d="M200 0l-0.000976562 848.998l-100 14c-16.667 3.33301 -30.167 9.33301 -40.5 18s-15.5 21 -15.5 37v88h156v75c0 60.667 9.16699 116.834 27.5 168.501s47.333 96.334 87 134.001s90.834 67 153.501 88s138.334 31.5 227.001 31.5c31.333 0 60.833 -1.16699 88.5 -3.5
s56 -5 85 -8s59.333 -5.66699 91 -8s67.167 -3.5 106.5 -3.5v-581c42 41.333 88 74.5 138 99.5s108.333 37.5 175 37.5c56 0 105.167 -9.33301 147.5 -28s78 -45 107 -79s50.833 -74.833 65.5 -122.5s22 -100.167 22 -157.5v-649h-214v649c0 68.667 -15.833 122 -47.5 160
s-79.834 57 -144.501 57c-48 0 -92.5 -11 -133.5 -33s-79.5 -52 -115.5 -90v-743h-215v1333c-27.333 8.66699 -55.5 15.5 -84.5 20.5s-57.167 7.5 -84.5 7.5c-46.667 0 -87.167 -7 -121.5 -21s-62.833 -33.5 -85.5 -58.5s-39.5 -54.667 -50.5 -89s-16.5 -71.5 -16.5 -111.5
v-75h279v-155h-272v-851h-215z" />
    <glyph glyph-name="f_f_h.liga" unicode="ffh" horiz-adv-x="2482" 
d="M200 0l-0.000976562 848.998l-100 14c-16.667 3.33301 -30.167 9.33301 -40.5 18s-15.5 21 -15.5 37v88h156v69c0 58.667 8.5 111 25.5 157s41.333 85 73 117s70.167 56.333 115.5 73s96.333 25 153 25c23.333 0 45.5 -1.66699 66.5 -5s41.5 -8 61.5 -14l-4 -109
c-1.33301 -17.333 -10.166 -27.833 -26.499 -31.5s-36.833 -5.5 -61.5 -5.5c-30 0 -57 -3.5 -81 -10.5s-44.5 -18.833 -61.5 -35.5s-30 -38.667 -39 -66s-13.5 -61 -13.5 -101v-63h432v75c0 60.667 9.16699 116.834 27.5 168.501s47.166 96.334 86.499 134.001
s90.333 67 153 88s138.334 31.5 227.001 31.5c31.333 0 60.833 -1.16699 88.5 -3.5s56 -5 85 -8s59.333 -5.66699 91 -8s67.167 -3.5 106.5 -3.5v-581c42 41.333 88 74.5 138 99.5s108.333 37.5 175 37.5c56 0 105.167 -9.33301 147.5 -28s78 -45 107 -79
s50.833 -74.833 65.5 -122.5s22 -100.167 22 -157.5v-649h-214v649c0 68.667 -15.833 122 -47.5 160s-79.834 57 -144.501 57c-48 0 -92.5 -11 -133.5 -33s-79.5 -52 -115.5 -90v-743h-215v1333c-26.667 8.66699 -54.667 15.5 -84 20.5s-57.666 7.5 -84.999 7.5
c-46.667 0 -87.167 -7 -121.5 -21s-62.833 -33.5 -85.5 -58.5s-39.5 -54.667 -50.5 -89s-16.5 -71.5 -16.5 -111.5v-75h279v-155h-272v-851h-214v851h-425v-851h-215z" />
    <glyph glyph-name="f_i.liga" unicode="fi" horiz-adv-x="1175" 
d="M201 0l-0.00390625 848.998l-100 14c-16.667 3.33301 -30.167 9.33301 -40.5 18s-15.5 21 -15.5 37v88h156v43c0 62.667 10 120.334 30 173.001s50.333 98.334 91 137.001s91.5 68.834 152.5 90.501s132.5 32.5 214.5 32.5c26.667 0 54.167 -1.66699 82.5 -5
s52.5 -8.33301 72.5 -15l-7 -112c-1.33301 -14 -9.66602 -21.833 -24.999 -23.5s-35.666 -2.5 -60.999 -2.5c-62 0 -114.667 -5.83301 -158 -17.5s-78.666 -29.334 -105.999 -53.001s-47.166 -53 -59.499 -88s-18.5 -75.833 -18.5 -122.5v-37h625v-1006h-215v851h-403v-851
h-215z" />
    <glyph glyph-name="f_f_i.liga" unicode="ffi" horiz-adv-x="1814" 
d="M201 0l-0.00390625 848.998l-100 14c-16.667 3.33301 -30.167 9.33301 -40.5 18s-15.5 21 -15.5 37v88h156v69c0 58.667 8.5 111 25.5 157s41.333 85 73 117s70.167 56.333 115.5 73s96.333 25 153 25c23.333 0 45.5 -1.66699 66.5 -5s41.5 -8 61.5 -14l-4 -109
c-1.33301 -17.333 -10.166 -27.833 -26.499 -31.5s-36.833 -5.5 -61.5 -5.5c-30 0 -57 -3.5 -81 -10.5s-44.5 -18.833 -61.5 -35.5s-30 -38.667 -39 -66s-13.5 -61 -13.5 -101v-63h432v43c0 62.667 10 120.334 30 173.001s50.167 98.334 90.5 137.001
s91.166 68.834 152.499 90.501s133 32.5 215 32.5c26 0 53.167 -1.66699 81.5 -5s52.5 -8.33301 72.5 -15l-7 -112c-1.33301 -14 -9.66602 -21.833 -24.999 -23.5s-35.666 -2.5 -60.999 -2.5c-62 0 -114.667 -5.83301 -158 -17.5s-78.666 -29.334 -105.999 -53.001
s-47.166 -53 -59.499 -88s-18.5 -75.833 -18.5 -122.5v-37h625v-1006h-214v851h-404v-851h-214v851h-425v-851h-215z" />
    <glyph glyph-name="f_j.liga" unicode="fj" horiz-adv-x="1175" 
d="M201 0l-0.00390625 849l-100 14c-16.667 3.33301 -30.167 9.33301 -40.5 18s-15.5 21 -15.5 37v88h156v43c0 62.667 10 120.334 30 173.001s50.333 98.334 91 137.001s91.5 68.834 152.5 90.501s132.5 32.5 214.5 32.5c26.667 0 54.167 -1.66699 82.5 -5
s52.5 -8.33301 72.5 -15l-7 -112c-1.33301 -14 -9.66602 -21.833 -24.999 -23.5s-35.666 -2.5 -60.999 -2.5c-62 0 -114.667 -5.83301 -158 -17.5s-78.666 -29.334 -105.999 -53.001s-47.166 -53 -59.499 -88s-18.5 -75.833 -18.5 -122.5v-37h625v-1059
c0 -42.667 -5.66699 -82.834 -17 -120.501s-29.333 -70.5 -54 -98.5s-56.5 -50 -95.5 -66s-86.167 -24 -141.5 -24c-22.667 0 -43.5 1.66699 -62.5 5s-38.167 8 -57.5 14l8 117c1.33301 6.66699 3.33301 11.667 6 15s6.5 5.83301 11.5 7.5s11.5 2.66699 19.5 3
s18.333 0.5 31 0.5c50.667 0 86.167 11.167 106.5 33.5s30.5 60.166 30.5 113.499v904h-403v-851h-215z" />
    <glyph glyph-name="f_f_j.liga" unicode="ffj" horiz-adv-x="1814" 
d="M201 0l-0.00488281 848.997l-100 14c-16.667 3.33301 -30.167 9.33301 -40.5 18s-15.5 21 -15.5 37v88h156v69c0 58.667 8.5 111 25.5 157s41.333 85 73 117s70.167 56.333 115.5 73s96.333 25 153 25c23.333 0 45.5 -1.66699 66.5 -5s41.5 -8 61.5 -14l-4 -109
c-1.33301 -17.333 -10.166 -27.833 -26.499 -31.5s-36.833 -5.5 -61.5 -5.5c-30 0 -57 -3.5 -81 -10.5s-44.5 -18.833 -61.5 -35.5s-30 -38.667 -39 -66s-13.5 -61 -13.5 -101v-63h432v43c0 62.667 10 120.334 30 173.001s50.167 98.334 90.5 137.001
s91.166 68.834 152.499 90.501s133 32.5 215 32.5c26 0 53.167 -1.66699 81.5 -5s52.5 -8.33301 72.5 -15l-7 -112c-1.33301 -14 -9.66602 -21.833 -24.999 -23.5s-35.666 -2.5 -60.999 -2.5c-62 0 -114.667 -5.83301 -158 -17.5s-78.666 -29.334 -105.999 -53.001
s-47.166 -53 -59.499 -88s-18.5 -75.833 -18.5 -122.5v-37h625v-1059c0 -42.667 -5.66699 -82.834 -17 -120.501s-29.166 -70.5 -53.499 -98.5s-56 -50 -95 -66s-86.5 -24 -142.5 -24c-22.667 0 -43.5 1.66699 -62.5 5s-38.167 8 -57.5 14l8 117
c1.33301 6.66699 3.33301 11.667 6 15s6.5 5.83301 11.5 7.5s11.5 2.66699 19.5 3s18.333 0.5 31 0.5c25.333 0 46.833 2.66699 64.5 8s32 13.833 43 25.5s18.833 26.834 23.5 45.501s7 41.334 7 68.001v904h-404v-851h-214v851h-425v-851h-215z" />
    <glyph glyph-name="f_k.liga" unicode="fk" horiz-adv-x="1763" 
d="M200 0l-0.00390625 849l-100 14c-16.667 3.33301 -30.167 9.33301 -40.5 18s-15.5 21 -15.5 37v88h156v75c0 60.667 9.16699 116.834 27.5 168.501s47.333 96.334 87 134.001s90.834 67 153.501 88s138.334 31.5 227.001 31.5c31.333 0 60.833 -1.16699 88.5 -3.5
s56 -5 85 -8s59.333 -5.66699 91 -8s67.167 -3.5 106.5 -3.5v-858h46c14.667 0 26.667 2 36 6s19 12.333 29 25l286 327c10 13.333 21 23.333 33 30s27.333 10 46 10h195l-344 -388c-20 -26 -42 -46.667 -66 -62c13.333 -9.33301 25 -19.833 35 -31.5
s19.667 -24.834 29 -39.501l367 -499h-192c-17.333 0 -32.166 2.83301 -44.499 8.5s-23.166 16.167 -32.499 31.5l-295 400c-10 15.333 -20 25.166 -30 29.499s-25 6.5 -45 6.5h-53v-476h-215v1333c-27.333 8.66699 -55.5 15.5 -84.5 20.5s-57.167 7.5 -84.5 7.5
c-46.667 0 -87.167 -7 -121.5 -21s-62.833 -33.5 -85.5 -58.5s-39.5 -54.667 -50.5 -89s-16.5 -71.5 -16.5 -111.5v-75h279v-155h-272v-851h-215z" />
    <glyph glyph-name="f_f_k.liga" unicode="ffk" horiz-adv-x="2404" 
d="M201 0l-0.00292969 849l-100 14c-16.667 3.33301 -30.167 9.33301 -40.5 18s-15.5 21 -15.5 37v88h156v69c0 58.667 8.5 111 25.5 157s41.333 85 73 117s70.167 56.333 115.5 73s96.333 25 153 25c23.333 0 45.5 -1.66699 66.5 -5s41.5 -8 61.5 -14l-4 -109
c-1.33301 -17.333 -10.166 -27.833 -26.499 -31.5s-36.833 -5.5 -61.5 -5.5c-30 0 -57 -3.5 -81 -10.5s-44.5 -18.833 -61.5 -35.5s-30 -38.667 -39 -66s-13.5 -61 -13.5 -101v-63h432v75c0 60.667 9.16699 116.834 27.5 168.501s47.166 96.334 86.499 134.001
s90.333 67 153 88s138.334 31.5 227.001 31.5c29.333 0 57.333 -1.16699 84 -3.5s53.5 -4.83301 80.5 -7.5s55.333 -5.16699 85 -7.5s62.5 -3.83301 98.5 -4.5h23v-858h46c14.667 0 26.667 2 36 6s19 12.333 29 25l286 327c10 13.333 21 23.333 33 30s27.333 10 46 10h195
l-344 -388c-20 -26 -42 -46.667 -66 -62c13.333 -9.33301 25 -19.833 35 -31.5s19.667 -24.834 29 -39.501l367 -499h-192c-17.333 0 -32.166 2.83301 -44.5 8.5c-12.333 5.66699 -23.166 16.167 -32.499 31.5l-295 400c-10 15.333 -20 25.166 -30 29.499s-25 6.5 -45 6.5
h-53v-476h-215v1333c-26.667 8.66699 -54.667 15.5 -84 20.5s-57.666 7.5 -84.999 7.5c-46.667 0 -87.167 -7 -121.5 -21s-62.833 -33.5 -85.5 -58.5s-39.5 -54.667 -50.5 -89s-16.5 -71.5 -16.5 -111.5v-75h279v-155h-272v-851h-214v851h-425v-851h-215z" />
    <glyph glyph-name="f_l.liga" unicode="fl" horiz-adv-x="1203" 
d="M201 0v849l-100 14c-16.667 3.33301 -30.167 9.33301 -40.5 18s-15.5 21 -15.5 37v88h156v48c0 55.333 8.66699 108 26 158s43.5 94 78.5 132s79 68.333 132 91s115.5 34 187.5 34c54 0 105.333 -2 154 -6s97 -6.33301 145 -7h143v-1456h-213v1306
c-36 1.33301 -71.333 3 -106 5s-64.667 3 -90 3c-80 0 -141.5 -22.667 -184.5 -68s-64.5 -109.333 -64.5 -192v-48h253v-155h-246v-851h-215z" />
    <glyph glyph-name="f_f_l.liga" unicode="ffl" horiz-adv-x="1841" 
d="M200 0l-0.000976562 849l-100 14c-16.667 3.33301 -30.167 9.33301 -40.5 18s-15.5 21 -15.5 37v88h156v69c0 58.667 8.5 111 25.5 157s41.333 85 73 117s70.167 56.333 115.5 73s96.333 25 153 25c23.333 0 45.5 -1.66699 66.5 -5s41.5 -8 61.5 -14l-4 -109
c-1.33301 -17.333 -10.166 -27.833 -26.499 -31.5s-36.833 -5.5 -61.5 -5.5c-30 0 -57 -3.5 -81 -10.5s-44.5 -18.833 -61.5 -35.5s-30 -38.667 -39 -66s-13.5 -61 -13.5 -101v-63h432v48c0 55.333 8.5 108 25.5 158s43 94 78 132s79 68.333 132 91s115.5 34 187.5 34
c54 0 105.5 -2 154.5 -6s97.5 -6.33301 145.5 -7h142v-1456h-213v1306c-36 1.33301 -71.333 3 -106 5s-64.667 3 -90 3c-80 0 -141.5 -22.667 -184.5 -68s-64.5 -109.333 -64.5 -192v-48h279v-155h-272v-851h-214v851h-425v-851h-215z" />
    <glyph glyph-name="f_t.liga" unicode="ft" horiz-adv-x="1393" 
d="M1071 851l-0.000976562 -579.001c0 -36.667 9 -64.667 27 -84s42 -29 72 -29c16.667 0 31 2.16699 43 6.5s22.333 9 31 14s16.167 9.66699 22.5 14s12.5 6.5 18.5 6.5c12 0 21.667 -6.66699 29 -20l64 -105c-33.333 -29.333 -72.666 -51.833 -117.999 -67.5
s-92 -23.5 -140 -23.5c-84.667 0 -149.834 23.833 -195.501 71.5s-68.5 114.834 -68.5 201.501v594h-441v-851h-215v849l-100 14c-16.667 3.33301 -30.167 9.33301 -40.5 18s-15.5 21 -15.5 37v88h156v86c0 58 8.5 110 25.5 156s41.333 85 73 117s70.167 56.5 115.5 73.5
s96.333 25.5 153 25.5c23.333 0 45.5 -1.66699 66.5 -5s41.5 -8.33301 61.5 -15l-4 -108c-1.33301 -18 -10.166 -28.667 -26.499 -32s-36.833 -5 -61.5 -5c-30 0 -57 -3.5 -81 -10.5s-44.5 -18.833 -61.5 -35.5s-30 -38.667 -39 -66s-13.5 -61.333 -13.5 -102v-79h456
l48 297c3.33301 11.333 9 20.5 17 27.5s18.667 10.5 32 10.5h110v-335h283v-155h-283z" />
    <glyph glyph-name="f_f_t.liga" unicode="fft" horiz-adv-x="2033" 
d="M201 0l-0.00195312 848.999l-100 14c-16.667 3.33301 -30.167 9.33301 -40.5 18s-15.5 21 -15.5 37v88h156v69c0 58.667 8.5 111 25.5 157s41.333 85 73 117s70.167 56.333 115.5 73s96.333 25 153 25c23.333 0 45.5 -1.66699 66.5 -5s41.5 -8 61.5 -14l-4 -109
c-1.33301 -17.333 -10.166 -27.833 -26.499 -31.5s-36.833 -5.5 -61.5 -5.5c-30 0 -57 -3.5 -81 -10.5s-44.5 -18.833 -61.5 -35.5s-30 -38.667 -39 -66s-13.5 -61 -13.5 -101v-63h432v86c0 58 8.5 110 25.5 156s41.333 85 73 117s70.167 56.5 115.5 73.5s96 25.5 152 25.5
c44.667 0 87.667 -6.66699 129 -20l-5 -108c-1.33301 -18 -10.166 -28.667 -26.499 -32s-36.833 -5 -61.5 -5c-30 0 -57 -3.5 -81 -10.5s-44.5 -18.833 -61.5 -35.5s-30 -38.667 -39 -66s-13.5 -61.333 -13.5 -102v-79h457l48 297c2.66699 11.333 8 20.5 16 27.5
s18.667 10.5 32 10.5h110v-335h283v-155h-283v-579c0 -36.667 9 -64.667 27 -84s42 -29 72 -29c16.667 0 31.167 2.16699 43.5 6.5s22.833 9 31.5 14s16.167 9.66699 22.5 14s12.166 6.5 17.499 6.5c7.33301 0 13 -1.5 17 -4.5s8.33301 -8.16699 13 -15.5l63 -105
c-33.333 -29.333 -72.5 -51.833 -117.5 -67.5s-91.5 -23.5 -139.5 -23.5c-85.333 0 -150.666 23.833 -195.999 71.5s-68 114.834 -68 201.501v594h-442v-851h-214v851h-425v-851h-215z" />
    <glyph glyph-name="t_f.liga" unicode="tf" horiz-adv-x="1391" 
d="M881 0l-0.000976562 850.999h-472v-579c0 -36.667 9 -64.667 27 -84s42 -29 72 -29c16.667 0 31 2.16699 43 6.5s22.333 9 31 14s16.167 9.66699 22.5 14s12.5 6.5 18.5 6.5c12 0 21.667 -6.66699 29 -20l64 -105c-33.333 -29.333 -72.666 -51.833 -117.999 -67.5
s-92 -23.5 -140 -23.5c-84.667 0 -149.834 23.833 -195.501 71.5s-68.5 114.834 -68.5 201.501v594h-112c-12 0 -22.333 3.83301 -31 11.5s-13 19.167 -13 34.5v87l165 24l47 295c3.33301 11.333 9 20.5 17 27.5s18.667 10.5 32 10.5h110v-335h472v86c0 58 8.5 110 25.5 156
s41.333 85 73 117s70.167 56.5 115.5 73.5s96 25.5 152 25.5c44.667 0 87.667 -6.66699 129 -20l-5 -108c-1.33301 -18 -10.166 -28.667 -26.499 -32s-36.833 -5 -61.5 -5c-30 0 -57 -3.5 -81 -10.5s-44.5 -18.833 -61.5 -35.5s-30 -38.667 -39 -66
s-13.5 -61.333 -13.5 -102v-79h279v-155h-272v-851h-214z" />
    <glyph glyph-name="t_t.liga" unicode="tt" horiz-adv-x="1387" 
d="M458 -16c-84.667 0 -149.834 23.8311 -195.501 71.498s-68.5 114.834 -68.5 201.501v594h-112c-12 0 -22.333 3.83301 -31 11.5s-13 19.167 -13 34.5v87l165 24l47 295c3.33301 11.333 9 20.5 17 27.5s18.667 10.5 32 10.5h110v-335h450l48 297
c2.66699 11.333 8 20.5 16 27.5s18.667 10.5 32 10.5h110v-335h283v-155h-283v-579c0 -36.667 9 -64.667 27 -84s42 -29 72 -29c16.667 0 31.167 2.16699 43.5 6.5s22.833 9 31.5 14s16.167 9.66699 22.5 14s12.166 6.5 17.499 6.5c7.33301 0 13 -1.5 17 -4.5
s8.33301 -8.16699 13 -15.5l64 -105c-34 -29.333 -73.5 -51.833 -118.5 -67.5s-91.5 -23.5 -139.5 -23.5c-85.333 0 -150.666 23.833 -195.999 71.5s-68 114.834 -68 201.501v594h-442v-579c0 -36.667 9 -64.667 27 -84s42 -29 72 -29c16.667 0 31 2.16699 43 6.5
s22.333 9 31 14s16.167 9.66699 22.5 14s12.5 6.5 18.5 6.5c12 0 21.667 -6.66699 29 -20l64 -105c-33.333 -29.333 -72.666 -51.833 -117.999 -67.5s-92 -23.5 -140 -23.5z" />
    <glyph glyph-name="t_t_f.liga" unicode="ttf" horiz-adv-x="2047" 
d="M2027 1336c-1.33301 -18 -10 -28.6689 -26 -32.002s-36.667 -5 -62 -5c-30 0 -56.833 -3.5 -80.5 -10.5s-44 -18.833 -61 -35.5s-30 -38.667 -39 -66s-13.5 -61.333 -13.5 -102v-79h278v-155h-272v-851h-214v851h-472v-579c0 -36.667 9 -64.667 27 -84s42 -29 72 -29
c16.667 0 31.167 2.16699 43.5 6.5s22.833 9 31.5 14s16.167 9.66699 22.5 14s12.166 6.5 17.499 6.5c7.33301 0 13 -1.5 17 -4.5s8.33301 -8.16699 13 -15.5l64 -105c-34 -29.333 -73.5 -51.833 -118.5 -67.5s-91.5 -23.5 -139.5 -23.5
c-85.333 0 -150.666 23.833 -195.999 71.5s-68 114.834 -68 201.501v594h-442v-579c0 -36.667 9 -64.667 27 -84s42 -29 72 -29c16.667 0 31 2.16699 43 6.5s22.333 9 31 14s16.167 9.66699 22.5 14s12.5 6.5 18.5 6.5c12 0 21.667 -6.66699 29 -20l64 -105
c-33.333 -29.333 -72.666 -51.833 -117.999 -67.5s-92 -23.5 -140 -23.5c-84.667 0 -149.834 23.833 -195.501 71.5s-68.5 114.834 -68.5 201.501v594h-112c-12 0 -22.333 3.83301 -31 11.5s-13 19.167 -13 34.5v87l165 24l47 295c3.33301 11.333 9 20.5 17 27.5
s18.667 10.5 32 10.5h110v-335h451l47 297c2.66699 11.333 8 20.5 16 27.5s18.667 10.5 32 10.5h110v-335h472v86c0 58 8.5 110 25.5 156s41.333 85 73 117s70.167 56.5 115.5 73.5s96 25.5 152 25.5c44.667 0 87.667 -6.66699 129 -20z" />
    <glyph glyph-name="t_i.liga" unicode="ti" horiz-adv-x="1261" 
d="M1121 0l-215 -0.000976562v851h-497v-579c0 -36.667 9 -64.667 27 -84s42 -29 72 -29c16.667 0 31 2.16699 43 6.5s22.333 9 31 14s16.167 9.66699 22.5 14s12.5 6.5 18.5 6.5c12 0 21.667 -6.66699 29 -20l64 -105c-33.333 -29.333 -72.666 -51.833 -117.999 -67.5
s-92 -23.5 -140 -23.5c-84.667 0 -149.834 23.833 -195.501 71.5s-68.5 114.834 -68.5 201.501v594h-112c-12 0 -22.333 3.83301 -31 11.5s-13 19.167 -13 34.5v87l165 24l47 295c3.33301 11.333 9 20.5 17 27.5s18.667 10.5 32 10.5h110v-335h712v-1006zM1165 1333
c0 -19.333 -3.83301 -37.5 -11.5 -54.5s-18.167 -32 -31.5 -45s-28.833 -23.333 -46.5 -31s-36.167 -11.5 -55.5 -11.5s-37.5 3.83301 -54.5 11.5s-32 18 -45 31s-23.333 28 -31 45s-11.5 35.167 -11.5 54.5c0 20 3.83301 38.833 11.5 56.5s18 33 31 46s28 23.333 45 31
s35.167 11.5 54.5 11.5s37.833 -3.83301 55.5 -11.5s33.167 -18 46.5 -31s23.833 -28.333 31.5 -46s11.5 -36.5 11.5 -56.5z" />
    <glyph glyph-name="t_t_i.liga" unicode="tti" horiz-adv-x="1897" 
d="M1757 0l-214 -0.00195312v851h-478v-579c0 -36.667 9 -64.667 27 -84s42 -29 72 -29c16.667 0 31.167 2.16699 43.5 6.5s22.833 9 31.5 14s16.167 9.66699 22.5 14s12.166 6.5 17.499 6.5c7.33301 0 13 -1.5 17 -4.5s8.33301 -8.16699 13 -15.5l64 -105
c-34 -29.333 -73.5 -51.833 -118.5 -67.5s-91.5 -23.5 -139.5 -23.5c-85.333 0 -150.666 23.833 -195.999 71.5s-68 114.834 -68 201.501v594h-442v-579c0 -36.667 9 -64.667 27 -84s42 -29 72 -29c16.667 0 31 2.16699 43 6.5s22.333 9 31 14s16.167 9.66699 22.5 14
s12.5 6.5 18.5 6.5c12 0 21.667 -6.66699 29 -20l64 -105c-33.333 -29.333 -72.666 -51.833 -117.999 -67.5s-92 -23.5 -140 -23.5c-84.667 0 -149.834 23.833 -195.501 71.5s-68.5 114.834 -68.5 201.501v594h-112c-12 0 -22.333 3.83301 -31 11.5s-13 19.167 -13 34.5v87
l165 24l47 295c3.33301 11.333 9 20.5 17 27.5s18.667 10.5 32 10.5h110v-335h451l47 297c2.66699 11.333 8 20.5 16 27.5s18.667 10.5 32 10.5h110v-335h692v-1006zM1797 1333c0 -19.333 -3.83301 -37.5 -11.5 -54.5s-18.167 -32 -31.5 -45s-28.833 -23.333 -46.5 -31
s-36.167 -11.5 -55.5 -11.5s-37.5 3.83301 -54.5 11.5s-32 18 -45 31s-23.333 28 -31 45s-11.5 35.167 -11.5 54.5c0 20 3.83301 38.833 11.5 56.5s18 33 31 46s28 23.333 45 31s35.167 11.5 54.5 11.5s37.833 -3.83301 55.5 -11.5s33.167 -18 46.5 -31
s23.833 -28.333 31.5 -46s11.5 -36.5 11.5 -56.5z" />
    <glyph glyph-name=".notdef" horiz-adv-x="1080" 
d="M244 1144c35.333 30 76.3369 55.498 123.004 76.498s102 31.5 166 31.5c44.667 0 84.834 -6 120.501 -18s66.167 -29.167 91.5 -51.5s44.833 -49.333 58.5 -81s20.5 -66.834 20.5 -105.501c0 -36.667 -4.83301 -68.167 -14.5 -94.5s-21.834 -49.166 -36.501 -68.499
s-30.667 -36.333 -48 -51l-49.5 -40.5c-15.667 -12.333 -29.334 -24.5 -41.001 -36.5s-18.834 -25.667 -21.501 -41l-19 -100h-147l-15 116c-3.33301 24 -0.833008 44.667 7.5 62s19.666 33 33.999 47s30.166 27.333 47.499 40s33.833 26.334 49.5 41.001s28.667 31 39 49
s15.5 39.333 15.5 64c0 28.667 -10 51.334 -30 68.001s-47 25 -81 25c-25.333 0 -46.833 -2.5 -64.5 -7.5s-32.667 -10.667 -45 -17l-32.5 -17c-9.33301 -5 -18.333 -7.5 -27 -7.5c-20 0 -34.667 8.33301 -44 25zM390.004 303.998c0 17.333 3.16699 33.666 9.5 48.999
s15 28.666 26 39.999s24 20.166 39 26.499s31.5 9.5 49.5 9.5c16.667 0 32.5 -3.16699 47.5 -9.5s28 -15.166 39 -26.499s19.667 -24.666 26 -39.999s9.5 -31.666 9.5 -48.999s-3.16699 -33.666 -9.5 -48.999s-15 -28.5 -26 -39.5s-24 -19.667 -39 -26
s-30.833 -9.5 -47.5 -9.5c-18 0 -34.5 3.16699 -49.5 9.5s-28 15 -39 26s-19.667 24.167 -26 39.5s-9.5 31.666 -9.5 48.999zM43.0039 1440h993v-1440h-993v1440zM101.004 61.998h871v1316h-871v-1316z" />
    <glyph glyph-name="glyph1" horiz-adv-x="0" 
 />
    <glyph glyph-name="glyph1" horiz-adv-x="0" 
 />
    <glyph glyph-name="space" unicode=" " horiz-adv-x="498" 
 />
    <glyph glyph-name="exclam" unicode="!" horiz-adv-x="551" 
d="M378 1440v-572c0 -60 -2.66699 -118.833 -8 -176.5s-12.333 -119.834 -21 -186.501h-145c-9.33301 66.667 -16.5 128.834 -21.5 186.501s-7.5 116.5 -7.5 176.5v572h203zM134 124c0 19.333 3.5 37.5 10.5 54.5s16.833 31.833 29.5 44.5s27.334 22.667 44.001 30
s35 11 55 11c19.333 0 37.5 -3.66699 54.5 -11s31.667 -17.333 44 -30s22.166 -27.5 29.499 -44.5s11 -35.167 11 -54.5c0 -20 -3.66699 -38.333 -11 -55s-17.166 -31.334 -29.499 -44.001s-27 -22.5 -44 -29.5s-35.167 -10.5 -54.5 -10.5c-20 0 -38.333 3.5 -55 10.5
s-31.334 16.833 -44.001 29.5s-22.5 27.334 -29.5 44.001s-10.5 35 -10.5 55z" />
    <glyph glyph-name="quotedbl" unicode="&#x22;" horiz-adv-x="767" 
d="M301 1440v-288l-19 -156c-4 -25.333 -11.333 -45.166 -22 -59.499s-28.334 -21.5 -53.001 -21.5c-21.333 0 -37.666 7.16699 -48.999 21.5s-19.333 34.166 -24 59.499l-19 156v288h186zM652 1440v-288l-19 -156c-4 -25.333 -11.333 -45.166 -22 -59.499
s-28.334 -21.5 -53.001 -21.5c-21.333 0 -37.666 7.16699 -48.999 21.5s-19.333 34.166 -24 59.499l-19 156v288h186z" />
    <glyph glyph-name="numbersign" unicode="#" horiz-adv-x="1160" 
d="M715 870h-225l-58 -298h225zM1120 1027l-16.0029 -89.999c-4 -23.333 -13.167 -40.333 -27.5 -51s-36.833 -16 -67.5 -16h-118l-57 -298h159c22 0 38 -6.66699 48 -20s12.333 -36.333 7 -69l-10 -69h-227l-80 -414h-98c-10 0 -19.5 2.33301 -28.5 7
s-16.5 11.167 -22.5 19.5s-10.167 18 -12.5 29s-2.16602 22.833 0.500977 35.5l64 323h-224l-64 -334c-5.33301 -28.667 -17.166 -49.167 -35.499 -61.5s-39.166 -18.5 -62.499 -18.5h-95l80 414h-129c-22 0 -38 6.83301 -48 20.5s-12.667 36.5 -8 68.5l11 69h197l57 298
h-222l16 90c4 23.333 13.167 40.333 27.5 51s36.833 16 67.5 16h134l66 338c4.66699 23.333 15.5 41.666 32.5 54.999s37.167 20 60.5 20h97l-80 -413h225l80 413h95c23.333 0 41.5 -7.33301 54.5 -22s17.5 -33 13.5 -55l-66 -336h206z" />
    <glyph glyph-name="dollar" unicode="$" horiz-adv-x="1160" 
d="M622 168c79.333 9.33301 139.498 35.333 180.498 78s61.5 97.667 61.5 165c0 28.667 -5.33301 53.667 -16 75s-25.167 40 -43.5 56s-40.166 29.833 -65.499 41.5s-52.666 22.5 -81.999 32.5zM572.998 1269c-40 -4 -74.3311 -12.1689 -102.998 -24.502
s-52.334 -27.333 -71.001 -45s-32.334 -37.5 -41.001 -59.5s-13 -45.333 -13 -70c0 -28 5 -52.667 15 -74s23.833 -40.166 41.5 -56.499s38.5 -30.666 62.5 -42.999s50 -23.833 78 -34.5zM673 819.998c48 -14.667 95.499 -30.8311 142.499 -48.498
s89.167 -40.334 126.5 -68.001s67.5 -62.167 90.5 -103.5s34.5 -93 34.5 -155c0 -60.667 -10.167 -117.834 -30.5 -171.501s-50.166 -101 -89.499 -142s-87.5 -74.333 -144.5 -100s-121.833 -40.834 -194.5 -45.501l-12 -160c-0.666992 -14 -6.33398 -26.833 -17.001 -38.5
s-24.334 -17.5 -41.001 -17.5h-80l17 219c-78.667 9.33301 -151.834 30.166 -219.501 62.499s-125.5 72.833 -173.5 121.5l65 99c6 8.66699 13.833 15.834 23.5 21.501s20.167 8.5 31.5 8.5c14 0 29.167 -5.66699 45.5 -17l57.5 -39.5c22 -15 48 -29.667 78 -44
s65.333 -24.833 106 -31.5l37 485c-46.667 14 -92.834 29.833 -138.501 47.5s-86.667 41.167 -123 70.5s-65.666 66 -87.999 110s-33.5 99.333 -33.5 166c0 50 9.83301 98.667 29.5 146s48.334 89.5 86.001 126.5s84.167 67.333 139.5 91s118.666 37.167 189.999 40.5
l10 134c0.666992 14.667 6.33398 27.667 17.001 39s24.334 17 41.001 17h80l-15 -196c70 -10 130.667 -29.167 182 -57.5s96 -61.166 134 -98.499l-52 -80c-14.667 -23.333 -32.667 -35 -54 -35c-10 0 -21.833 3.66699 -35.5 11l-48 26c-18.333 10 -39.166 20 -62.499 30
s-49.333 17.667 -78 23z" />
    <glyph glyph-name="percent" unicode="%" horiz-adv-x="1622" 
d="M734 1092c0 -55.333 -8.83496 -105 -26.502 -149s-41.5 -81.5 -71.5 -112.5s-64.667 -54.667 -104 -71s-80.666 -24.5 -123.999 -24.5c-46.667 0 -89.834 8.16699 -129.501 24.5s-74 40 -103 71s-51.833 68.5 -68.5 112.5s-25 93.667 -25 149
c0 56.667 8.33301 107.5 25 152.5s39.5 83 68.5 114s63.333 54.833 103 71.5s82.834 25 129.501 25s89.834 -8.33301 129.501 -25s74 -40.5 103 -71.5s51.833 -69 68.5 -114s25 -95.833 25 -152.5zM567.998 1092c0 40.667 -4.16699 75.167 -12.5 103.5
s-19.666 51.333 -33.999 69s-31.333 30.334 -51 38.001s-40.5 11.5 -62.5 11.5c-22.667 0 -43.667 -3.83301 -63 -11.5s-36 -20.334 -50 -38.001s-25 -40.667 -33 -69s-12 -62.833 -12 -103.5c0 -40 4 -73.667 12 -101s19 -49.5 33 -66.5s30.667 -29.167 50 -36.5
s40.333 -11 63 -11c22 0 42.833 3.66699 62.5 11s36.667 19.5 51 36.5s25.666 39.167 33.999 66.5s12.5 61 12.5 101zM1228 1405c7.33301 9.33301 16.167 17.499 26.5 24.499s24.833 10.5 43.5 10.5h155l-1061 -1407c-7.33301 -9.33301 -16.333 -17.166 -27 -23.499
s-23.667 -9.5 -39 -9.5h-160zM1540 338.999c0 -55.333 -9.00098 -105 -27.001 -149s-42 -81.333 -72 -112s-64.667 -54.167 -104 -70.5s-80.666 -24.5 -123.999 -24.5c-46.667 0 -89.834 8.16699 -129.501 24.5s-74 39.833 -103 70.5s-51.667 68 -68 112
s-24.5 93.667 -24.5 149c0 56.667 8.16699 107.5 24.5 152.5s39 83.167 68 114.5s63.333 55.166 103 71.499s82.834 24.5 129.501 24.5s90 -8.16699 130 -24.5s74.5 -40.166 103.5 -71.499s51.833 -69.5 68.5 -114.5s25 -95.833 25 -152.5zM1374 338.999
c0 40.667 -4.16699 75.167 -12.5 103.5s-19.833 51.333 -34.5 69s-31.834 30.334 -51.501 38.001s-40.5 11.5 -62.5 11.5s-42.667 -3.83301 -62 -11.5s-36.166 -20.334 -50.499 -38.001s-25.5 -40.667 -33.5 -69s-12 -62.833 -12 -103.5c0 -40 4 -73.667 12 -101
s19.167 -49.5 33.5 -66.5s31.166 -29.167 50.499 -36.5s40 -11 62 -11s42.833 3.66699 62.5 11s36.834 19.5 51.501 36.5s26.167 39.167 34.5 66.5s12.5 61 12.5 101z" />
    <glyph glyph-name="ampersand" unicode="&#x26;" horiz-adv-x="1436" 
d="M479 690c-61.333 -36 -106.667 -78.001 -136 -126.001s-44 -100 -44 -156c0 -39.333 7.16699 -74.5 21.5 -105.5s33.333 -57.167 57 -78.5s51 -37.666 82 -48.999s63.167 -17 96.5 -17c66 0 126 11.167 180 33.5s102 52.5 144 90.5zM1425 -0.000976562h-209.002
c-11.333 0 -21.5 0.666992 -30.5 2s-17.333 3.5 -25 6.5s-15 7.16699 -22 12.5s-14.5 12.333 -22.5 21l-120 122c-63.333 -56 -135.166 -100 -215.499 -132s-167.5 -48 -261.5 -48c-54.667 0 -108.167 9.33301 -160.5 28s-99.166 45.5 -140.499 80.5
s-74.666 77.667 -99.999 128s-38 107.166 -38 170.499c0 46 7.5 89.333 22.5 130s36 78.5 63 113.5s58.833 66.5 95.5 94.5s77 52 121 72c-38 50.667 -65.667 100 -83 148s-26 96.667 -26 146s9 96 27 140s44.167 82.333 78.5 115s76 58.5 125 77.5s104.5 28.5 166.5 28.5
c56 0 106.5 -8.66699 151.5 -26s83.667 -40.666 116 -69.999s57.666 -63 75.999 -101s29.166 -77.333 32.499 -118l-136 -28c-12 -2.66699 -23.167 -1 -33.5 5s-18.166 16 -23.499 30c-5.33301 17.333 -13 34.5 -23 51.5s-22.333 32.167 -37 45.5
s-32.167 24.166 -52.5 32.499s-43.833 12.5 -70.5 12.5c-30.667 0 -58.167 -5 -82.5 -15s-45 -23.833 -62 -41.5s-30 -38.167 -39 -61.5s-13.5 -48.333 -13.5 -75c0 -21.333 2.33301 -42 7 -62s12.334 -40 23.001 -60s24.167 -40.5 40.5 -61.5s36.166 -43.5 59.499 -67.5
l397 -409c24 44 43 89.833 57 137.5s23.333 95.834 28 144.501c1.33301 14 6 25.167 14 33.5s18.667 12.5 32 12.5h133c-0.666992 -83.333 -13.167 -163.5 -37.5 -240.5s-58.5 -148.5 -102.5 -214.5z" />
    <glyph glyph-name="quotesingle" unicode="'" horiz-adv-x="416" 
d="M301 1440v-288l-19 -156c-4 -25.333 -11.333 -45.166 -22 -59.499s-28.334 -21.5 -53.001 -21.5c-21.333 0 -37.666 7.16699 -48.999 21.5s-19.333 34.166 -24 59.499l-19 156v288h186z" />
    <glyph glyph-name="parenleft" unicode="(" horiz-adv-x="542" 
d="M267 628c0 -140 17.333 -276.834 52 -410.501s85 -259.5 151 -377.5c6 -12 9.66699 -22.667 11 -32s0.666016 -17.5 -2.00098 -24.5s-6.5 -12.833 -11.5 -17.5s-10.5 -9 -16.5 -13l-95 -59c-50 76.667 -92.333 152.834 -127 228.501s-63 152 -85 229s-38 155 -48 234
s-15 159.833 -15 242.5c0 82 5 162.5 15 241.5s26 157 48 234s50.333 153.5 85 229.5s77 152.333 127 229l95 -59c6 -4 11.5 -8.33301 16.5 -13s8.83301 -10.5 11.5 -17.5s3.33398 -15.167 2.00098 -24.5s-5 -20 -11 -32c-66 -118.667 -116.333 -244.667 -151 -378
s-52 -270 -52 -410z" />
    <glyph glyph-name="parenright" unicode=")" horiz-adv-x="542" 
d="M274 628c0 140 -17.333 276.668 -52 410.001s-84.667 259.333 -150 378c-6 12 -9.66699 22.667 -11 32s-0.833008 17.5 1.5 24.5s6 12.833 11 17.5s10.5 9 16.5 13l96 59c49.333 -76.667 91.333 -153 126 -229s63 -152.5 85 -229.5s38 -155 48 -234s15 -159.5 15 -241.5
c0 -82.667 -5 -163.5 -15 -242.5s-26 -157 -48 -234s-50.333 -153.333 -85 -229s-76.667 -151.834 -126 -228.501l-96 59c-6 4 -11.5 8.33301 -16.5 13s-8.66699 10.5 -11 17.5s-2.83301 15.167 -1.5 24.5s5 20 11 32c65.333 118 115.333 243.833 150 377.5
s52 270.5 52 410.5z" />
    <glyph glyph-name="asterisk" unicode="*" horiz-adv-x="850" 
d="M738 1057l-50.999 -88.998l-166 96c-11.333 7.33301 -22 14.666 -32 21.999s-18.667 15.666 -26 24.999c9.33301 -20.667 14 -44.667 14 -72v-191h-104v189c0 28.667 3.66699 52.667 11 72c-12.667 -16.667 -31 -31.667 -55 -45l-165 -95l-51 89l164 95
c24 14 47.667 23 71 27c-23.333 2.66699 -47 11.667 -71 27l-165 96l51 89l166 -96c11.333 -7.33301 21.833 -14.833 31.5 -22.5s18.167 -16.167 25.5 -25.5c-8.66699 21.333 -13 45.666 -13 72.999v190h104v-189c0 -13.333 -0.833008 -26 -2.5 -38
s-4.83398 -23.333 -9.50098 -34c15.333 18 34 33.333 56 46l165 95l51 -89l-164 -95c-11.333 -6.66699 -22.666 -12.5 -33.999 -17.5s-22.666 -8.16699 -33.999 -9.5c11.333 -2 22.666 -5.16699 33.999 -9.5s22.666 -10.166 33.999 -17.499z" />
    <glyph glyph-name="plus" unicode="+" horiz-adv-x="1160" 
d="M1064 590h-397v-419h-175v419h-395v162h395v418h175v-418h397v-162z" />
    <glyph glyph-name="comma" unicode="," horiz-adv-x="461" 
d="M227 1c-19.333 0 -37 3.50098 -53 10.501s-29.833 16.667 -41.5 29s-20.667 26.833 -27 43.5s-9.5 35 -9.5 55c0 17.333 3.16699 33.666 9.5 48.999s15.333 28.666 27 39.999s25.667 20.166 42 26.499s34.166 9.5 53.499 9.5c22.667 0 42.667 -4.16699 60 -12.5
s31.833 -19.666 43.5 -33.999s20.334 -31 26.001 -50s8.5 -39.167 8.5 -60.5c0 -30.667 -4.5 -63 -13.5 -97s-22.333 -67.833 -40 -101.5s-39.334 -66.5 -65.001 -98.5s-54.834 -61.333 -87.501 -88l-37 34c-5.33301 5.33301 -9.16602 10.333 -11.499 15
s-3.5 10.667 -3.5 18c0 11.333 5.66699 22 17 32l26 29c10.667 12 21.334 25.667 32.001 41s20.5 32.333 29.5 51s15.5 38.334 19.5 59.001h-5z" />
    <glyph glyph-name="hyphen" unicode="-" horiz-adv-x="745" 
d="M119 693h507v-182h-507v182z" />
    <glyph glyph-name="period" unicode="." horiz-adv-x="473" 
d="M98 124c0 19.333 3.5 37.5 10.5 54.5s16.667 31.833 29 44.5s27 22.667 44 30s35.167 11 54.5 11s37.5 -3.66699 54.5 -11s31.833 -17.333 44.5 -30s22.667 -27.5 30 -44.5s11 -35.167 11 -54.5c0 -20 -3.66699 -38.333 -11 -55s-17.333 -31.334 -30 -44.001
s-27.5 -22.5 -44.5 -29.5s-35.167 -10.5 -54.5 -10.5s-37.5 3.5 -54.5 10.5s-31.667 16.833 -44 29.5s-22 27.334 -29 44.001s-10.5 35 -10.5 55z" />
    <glyph glyph-name="slash" unicode="/" horiz-adv-x="919" 
d="M268 -11c-10 -27.333 -26 -47.833 -48 -61.5s-44.333 -20.5 -67 -20.5h-91l592 1496c9.33301 24.667 23.833 43.667 43.5 57s42.167 20 67.5 20h91z" />
    <glyph glyph-name="zero" unicode="0" horiz-adv-x="1160" 
d="M1105 720c0 -126 -13.5 -235 -40.5 -327s-64.167 -168.333 -111.5 -229s-103 -105.667 -167 -135s-133 -44 -207 -44s-143 14.667 -207 44s-119.5 74.333 -166.5 135s-83.833 137 -110.5 229s-40 201 -40 327s13.333 235.167 40 327.5s63.5 168.666 110.5 228.999
s102.5 105.333 166.5 135s133 44.5 207 44.5s143 -14.833 207 -44.5s119.667 -74.667 167 -135s84.5 -136.666 111.5 -228.999s40.5 -201.5 40.5 -327.5zM883 720c0 106.667 -8.5 195.5 -25.5 266.5s-39.5 127.833 -67.5 170.5s-60.333 73 -97 91s-74.667 27 -114 27
c-40 0 -78.167 -9 -114.5 -27s-68.5 -48.333 -96.5 -91s-50.333 -99.5 -67 -170.5s-25 -159.833 -25 -266.5s8.33301 -195.5 25 -266.5s39 -127.833 67 -170.5s60.167 -73 96.5 -91s74.5 -27 114.5 -27c39.333 0 77.333 9 114 27s69 48.333 97 91s50.5 99.5 67.5 170.5
s25.5 159.833 25.5 266.5z" />
    <glyph glyph-name="one" unicode="1" horiz-adv-x="1160" 
d="M1027 163v-162.999h-785v163h300v902c0 32 1 64.667 3 98l-231 -195c-10 -8 -20.167 -13.167 -30.5 -15.5s-20 -2.5 -29 -0.5s-17 5.16699 -24 9.5s-12.5 9.16602 -16.5 14.499l-67 94l434 373h175v-1280h271z" />
    <glyph glyph-name="two" unicode="2" horiz-adv-x="1160" 
d="M984 203c23.333 0 41.6709 -6.83691 55.0039 -20.5039s20 -31.167 20 -52.5v-130h-974v73c0 14.667 3 30 9 46s15.667 30.667 29 44l448 449c38 38 71.833 74.333 101.5 109s55 69.334 76 104.001s37 69.834 48 105.501s16.5 73.167 16.5 112.5
c0 38 -5.83301 71.5 -17.5 100.5s-27.667 53 -48 72s-44.666 33.333 -72.999 43s-59.5 14.5 -93.5 14.5c-32.667 0 -62.834 -4.66699 -90.501 -14s-52.334 -22.333 -74.001 -39s-39.667 -36.5 -54 -59.5s-24.833 -48.167 -31.5 -75.5
c-10 -27.333 -22.833 -45.666 -38.5 -54.999s-38.5 -11.333 -68.5 -6l-113 20c10 68 28.833 127.667 56.5 179s62.5 94.166 104.5 128.499s90.167 60.333 144.5 78s113.166 26.5 176.499 26.5c64 0 122.833 -9.5 176.5 -28.5s100 -46 139 -81s69.5 -77.5 91.5 -127.5
s33 -106.333 33 -169c0 -53.333 -7.83301 -102.666 -23.5 -147.999s-36.834 -88.666 -63.501 -129.999s-57.834 -81.5 -93.501 -120.5l-112.5 -118.5l-348 -356c28.667 8 57.5 14.333 86.5 19s56.5 7 82.5 7h423z" />
    <glyph glyph-name="three" unicode="3" horiz-adv-x="1160" 
d="M118 1044c10 68 28.835 127.666 56.502 178.999s62.5 94.166 104.5 128.499s90.167 60.333 144.5 78s113.166 26.5 176.499 26.5c64 0 122.167 -9.16699 174.5 -27.5s97.333 -43.833 135 -76.5s66.667 -71.667 87 -117s30.5 -95 30.5 -149c0 -46 -5.5 -86.5 -16.5 -121.5
s-26.667 -65.833 -47 -92.5s-45.166 -49 -74.499 -67s-62.333 -33 -99 -45c89.333 -26 156.333 -67.5 201 -124.5s67 -128.5 67 -214.5c0 -69.333 -13 -131 -39 -185s-61.167 -99.667 -105.5 -137s-96 -65.833 -155 -85.5s-121.5 -29.5 -187.5 -29.5
c-74 0 -138 8.83301 -192 26.5s-100.5 43 -139.5 76s-71.5 72.833 -97.5 119.5s-48 99 -66 157l93 39c24.667 10.667 48.167 13.667 70.5 9s38.5 -17 48.5 -37c10.667 -21.333 22.667 -44.166 36 -68.499s30.5 -46.666 51.5 -66.999s47 -37.333 78 -51
s69.167 -20.5 114.5 -20.5c46 0 86.167 7.5 120.5 22.5s63 34.333 86 58s40.167 50.167 51.5 79.5s17 58.333 17 87c0 36 -4.33301 69.167 -13 99.5s-25.5 56.166 -50.5 77.499s-60.333 38.166 -106 50.499s-105.5 18.5 -179.5 18.5v155
c60.667 0.666992 111.834 6.83398 153.501 18.501s75 27.667 100 48s43 44.833 54 73.5s16.5 60 16.5 94c0 36.667 -5.66699 69 -17 97s-27.166 51.5 -47.499 70.5s-44.5 33.167 -72.5 42.5s-59 14 -93 14c-32.667 0 -62.834 -4.66699 -90.501 -14
s-52.334 -22.333 -74.001 -39s-39.834 -36.5 -54.501 -59.5s-25.334 -48.167 -32.001 -75.5c-9.33301 -27.333 -21.833 -45.666 -37.5 -54.999s-38.5 -11.333 -68.5 -6z" />
    <glyph glyph-name="four" unicode="4" horiz-adv-x="1160" 
d="M721 532v526c0 42 3 88 9 138l-484 -664h475zM1107 532v-124c0 -12 -3.83301 -22.333 -11.5 -31s-19.167 -13 -34.5 -13h-153v-364h-187v364h-623c-15.333 0 -28.5 4.5 -39.5 13.5s-18.167 20.167 -21.5 33.5l-22 110l691 920h202v-909h199z" />
    <glyph glyph-name="five" unicode="5" horiz-adv-x="1160" 
d="M385 908c34.667 7.33301 67.832 12.668 99.499 16.001s62.167 5 91.5 5c75.333 0 141.833 -11.167 199.5 -33.5s106 -53.166 145 -92.499s68.333 -85.5 88 -138.5s29.5 -110.5 29.5 -172.5c0 -76.667 -13.333 -146.334 -40 -209.001s-63.667 -116.167 -111 -160.5
s-103.166 -78.5 -167.499 -102.5s-133.833 -36 -208.5 -36c-44 0 -85.833 4.33301 -125.5 13s-76.834 20.5 -111.501 35.5s-66.667 32.333 -96 52s-55.666 40.167 -78.999 61.5l66 92c14 20 32.667 30 56 30c14.667 0 30.667 -5.33301 48 -16s37.5 -22.167 60.5 -34.5
s50.167 -23.833 81.5 -34.5s68.666 -16 111.999 -16c47.333 0 89.666 7.66699 126.999 23s68.833 36.833 94.5 64.5s45.167 60.834 58.5 99.501s20 81 20 127c0 42 -6.16699 79.667 -18.5 113s-30.666 61.666 -54.999 84.999s-54.833 41.166 -91.5 53.499
s-79 18.5 -127 18.5c-35.333 0 -71.5 -3 -108.5 -9s-74.5 -15.333 -112.5 -28l-134 38l118 688h697v-93c0 -30.667 -9.66699 -55.667 -29 -75s-51.666 -29 -96.999 -29h-422z" />
    <glyph glyph-name="six" unicode="6" horiz-adv-x="1160" 
d="M578 162c43.333 0 83.001 7.16699 119.001 21.5s66.833 34.166 92.5 59.499s45.5 55.333 59.5 90s21 72.334 21 113.001c0 44 -6.83301 83.5 -20.5 118.5s-33 64.5 -58 88.5s-55 42.5 -90 55.5s-73.5 19.5 -115.5 19.5c-43.333 0 -82.5 -7.33301 -117.5 -22
s-64.833 -34.667 -89.5 -60s-43.667 -55 -57 -89s-20 -70 -20 -108c0 -42.667 6 -81.667 18 -117s29.667 -65.5 53 -90.5s52.166 -44.5 86.499 -58.5s73.833 -21 118.5 -21zM499.001 910l-30.499 -37.999l-28.5 -36c30.667 17.333 64.334 31 101.001 41s76 15 118 15
c56 0 109.667 -9.16699 161 -27.5s96.5 -45.666 135.5 -81.999s70.167 -81.333 93.5 -135s35 -115.5 35 -185.5c0 -66.667 -12.167 -129 -36.5 -187s-58.5 -108.5 -102.5 -151.5s-96.833 -77 -158.5 -102s-129.834 -37.5 -204.501 -37.5s-142 12 -202 36
s-111.167 57.833 -153.5 101.5s-74.833 96.167 -97.5 157.5s-34 129.666 -34 204.999c0 65.333 14 133.666 42 204.999s71.333 146.333 130 225l354 475c10.667 14 26.167 26 46.5 36s43.166 15 68.499 15h190z" />
    <glyph glyph-name="seven" unicode="7" horiz-adv-x="1160" 
d="M1087 1440l-0.000976562 -95.001c0 -28 -3 -50.667 -9 -68s-12 -32 -18 -44l-569 -1158c-10 -21.333 -24.167 -39.166 -42.5 -53.499s-42.5 -21.5 -72.5 -21.5h-155l580 1139c10.667 20.667 21.334 39.334 32.001 56.001s22.667 32.667 36 48h-719
c-13.333 0 -25 5.16699 -35 15.5s-15 22.166 -15 35.499v146h987z" />
    <glyph glyph-name="eight" unicode="8" horiz-adv-x="1160" 
d="M580 154c43.333 0 81.998 6.16699 115.998 18.5s62.5 29.666 85.5 51.999s40.5 48.833 52.5 79.5s18 64 18 100c0 44 -6.83301 82 -20.5 114s-32.667 58.5 -57 79.5s-53.166 36.667 -86.499 47s-69.333 15.5 -108 15.5s-74.667 -5.16699 -108 -15.5
s-62.166 -26 -86.499 -47s-43.333 -47.5 -57 -79.5s-20.5 -70 -20.5 -114c0 -36 6 -69.333 18 -100s29.5 -57.167 52.5 -79.5s51.5 -39.666 85.5 -51.999s72.667 -18.5 116 -18.5zM579.998 1291c-39.333 0 -73.8311 -6 -103.498 -18s-54.167 -28 -73.5 -48
s-33.833 -43.5 -43.5 -70.5s-14.5 -55.5 -14.5 -85.5s4.16699 -59.333 12.5 -88s21.666 -54.167 39.999 -76.5s42.5 -40.166 72.5 -53.499s66.667 -20 110 -20s80 6.66699 110 20s54.167 31.166 72.5 53.499s31.666 47.833 39.999 76.5s12.5 58 12.5 88
s-4.83301 58.5 -14.5 85.5s-24.334 50.5 -44.001 70.5s-44.167 36 -73.5 48s-63.666 18 -102.999 18zM807 751c88.667 -27.333 155.163 -70.666 199.496 -129.999s66.5 -133 66.5 -221c0 -63.333 -12 -120.666 -36 -171.999s-57.667 -95 -101 -131
s-95.166 -63.833 -155.499 -83.5s-127.166 -29.5 -200.499 -29.5s-140.166 9.83301 -200.499 29.5s-112.166 47.5 -155.499 83.5s-77 79.667 -101 131s-36 108.666 -36 171.999c0 88 22.167 161.667 66.5 221s110.833 102.666 199.5 129.999
c-72 28.667 -126.167 70.334 -162.5 125.001s-54.5 120.334 -54.5 197.001c0 54 10.667 104.333 32 151s51.5 87.167 90.5 121.5s85.833 61.333 140.5 81s115 29.5 181 29.5s126.167 -9.83301 180.5 -29.5s101 -46.667 140 -81s69.333 -74.833 91 -121.5s32.5 -97 32.5 -151
c0 -76.667 -18.167 -142.334 -54.5 -197.001s-90.5 -96.334 -162.5 -125.001z" />
    <glyph glyph-name="nine" unicode="9" horiz-adv-x="1160" 
d="M308 1012c0 -85.333 22.8359 -150.833 68.5029 -196.5s109.5 -68.5 191.5 -68.5c44 0 82.833 7 116.5 21s62.167 32.833 85.5 56.5s41 51.334 53 83.001s18 65.5 18 101.5c0 42 -6.5 79.5 -19.5 112.5s-31.333 61.167 -55 84.5s-51.834 41.166 -84.501 53.499
s-68.334 18.5 -107.001 18.5c-40.667 0 -77.334 -6.66699 -110.001 -20s-60.667 -31.833 -84 -55.5s-41.333 -51.667 -54 -84s-19 -67.833 -19 -106.5zM677.003 565l36.998 47.501c11.333 15 22 30.167 32 45.5c-34.667 -24.667 -73.334 -43.5 -116.001 -56.5
s-88 -19.5 -136 -19.5c-52 0 -102 8.83301 -150 26.5s-90.667 44 -128 79s-67.166 78.333 -89.499 130s-33.5 111.167 -33.5 178.5c0 63.333 11.833 123 35.5 179s56.834 104.833 99.501 146.5s93.667 74.5 153 98.5s125 36 197 36c71.333 0 136 -11.5 194 -34.5
s107.333 -55.333 148 -97s72 -91.334 94 -149.001s33 -121.167 33 -190.5c0 -43.333 -3.83301 -84.333 -11.5 -123s-18.667 -76.167 -33 -112.5s-31.666 -72 -51.999 -107s-43.166 -70.5 -68.499 -106.5l-339 -486c-10 -14.667 -24.833 -26.667 -44.5 -36
s-41.834 -14 -66.501 -14h-197z" />
    <glyph glyph-name="colon" unicode=":" horiz-adv-x="508" 
d="M115 124c0 19.333 3.5 37.5 10.5 54.5s16.667 31.833 29 44.5s27 22.667 44 30s35.167 11 54.5 11s37.5 -3.66699 54.5 -11s31.833 -17.333 44.5 -30s22.667 -27.5 30 -44.5s11 -35.167 11 -54.5c0 -20 -3.66699 -38.333 -11 -55s-17.333 -31.334 -30 -44.001
s-27.5 -22.5 -44.5 -29.5s-35.167 -10.5 -54.5 -10.5s-37.5 3.5 -54.5 10.5s-31.667 16.833 -44 29.5s-22 27.334 -29 44.001s-10.5 35 -10.5 55zM115 853c0 19.333 3.5 37.5 10.5 54.5s16.667 31.833 29 44.5s27 22.667 44 30s35.167 11 54.5 11s37.5 -3.66699 54.5 -11
s31.833 -17.333 44.5 -30s22.667 -27.5 30 -44.5s11 -35.167 11 -54.5c0 -20 -3.66699 -38.333 -11 -55s-17.333 -31.334 -30 -44.001s-27.5 -22.5 -44.5 -29.5s-35.167 -10.5 -54.5 -10.5s-37.5 3.5 -54.5 10.5s-31.667 16.833 -44 29.5s-22 27.334 -29 44.001
s-10.5 35 -10.5 55z" />
    <glyph glyph-name="semicolon" unicode=";" horiz-adv-x="533" 
d="M263 1c-19.333 0 -37 3.50098 -53 10.501s-29.833 16.667 -41.5 29s-20.667 26.833 -27 43.5s-9.5 35 -9.5 55c0 17.333 3.16699 33.666 9.5 48.999s15.333 28.666 27 39.999s25.667 20.166 42 26.499s34.166 9.5 53.499 9.5c22.667 0 42.667 -4.16699 60 -12.5
s31.833 -19.666 43.5 -33.999s20.334 -31 26.001 -50s8.5 -39.167 8.5 -60.5c0 -30.667 -4.5 -63 -13.5 -97s-22.333 -67.833 -40 -101.5s-39.334 -66.5 -65.001 -98.5s-54.834 -61.333 -87.501 -88l-37 34c-5.33301 5.33301 -9.16602 10.333 -11.499 15
s-3.5 10.667 -3.5 18c0 11.333 5.66699 22 17 32l26 29c10.667 12 21.334 25.667 32.001 41s20.5 32.333 29.5 51s15.5 38.334 19.5 59.001h-5zM126 853.001c0 19.333 3.5 37.5 10.5 54.5s16.667 31.833 29 44.5s27 22.667 44 30s35.167 11 54.5 11s37.5 -3.66699 54.5 -11
s31.833 -17.333 44.5 -30s22.667 -27.5 30 -44.5s11 -35.167 11 -54.5c0 -20 -3.66699 -38.333 -11 -55s-17.333 -31.334 -30 -44.001s-27.5 -22.5 -44.5 -29.5s-35.167 -10.5 -54.5 -10.5s-37.5 3.5 -54.5 10.5s-31.667 16.833 -44 29.5s-22 27.334 -29 44.001
s-10.5 35 -10.5 55z" />
    <glyph glyph-name="less" unicode="&#x3c;" horiz-adv-x="1160" 
d="M496 707c-14 -7.33301 -29.167 -13.667 -45.5 -19s-33.166 -10.333 -50.499 -15c17.333 -4 34.166 -8.83301 50.499 -14.5s31.5 -12.167 45.5 -19.5l404 -204c14.667 -7.33301 25 -16 31 -26s9 -21.333 9 -34v-154l-784 408v89l784 408v-155c0 -12 -3 -23 -9 -33
s-16.333 -18.667 -31 -26z" />
    <glyph glyph-name="equal" unicode="=" horiz-adv-x="1160" 
d="M143 582h874v-163h-874v163zM143 926h874v-162h-874v162z" />
    <glyph glyph-name="greater" unicode="&#x3e;" horiz-adv-x="1160" 
d="M1004 718v-88.999l-784 -408v154c0 12.667 3 24 9 34s16.333 18.667 31 26l404 204c14 7.33301 29.167 13.833 45.5 19.5s33.166 10.5 50.499 14.5c-17.333 4.66699 -34.166 9.66699 -50.499 15s-31.5 11.666 -45.5 18.999l-404 205c-14.667 7.33301 -25 16 -31 26
s-9 21 -9 33v155z" />
    <glyph glyph-name="question" unicode="?" horiz-adv-x="908" 
d="M76 1311c22 20 46.002 38.668 72.002 56.001s54.167 32.666 84.5 45.999s63.333 23.833 99 31.5s74.167 11.5 115.5 11.5c55.333 0 106.166 -7.83301 152.499 -23.5s86.333 -38 120 -67s59.834 -64 78.501 -105s28 -86.833 28 -137.5s-7.33301 -94.5 -22 -131.5
s-33.334 -69.167 -56.001 -96.5s-47.334 -51.166 -74.001 -71.499l-75.5 -57c-23.667 -17.667 -44 -35.334 -61 -53.001s-27.167 -37.167 -30.5 -58.5l-21 -150h-146l-15 165c-3.33301 31.333 1.66699 58.333 15 81s31.166 44 53.499 64s47 39.167 74 57.5
s52.167 38.833 75.5 61.5s43 48 59 76s24 61.667 24 101c0 26 -5 49.5 -15 70.5s-24 38.833 -42 53.5s-39 26 -63 34s-50 12 -78 12c-39.333 0 -72.666 -4.66699 -99.999 -14s-50.666 -19.5 -69.999 -30.5s-35.333 -21 -48 -30s-23.334 -13.5 -32.001 -13.5
c-20.667 0 -36 9 -46 27zM268.002 124.001c0 19.333 3.5 37.5 10.5 54.5s16.667 31.833 29 44.5s27 22.667 44 30s35.167 11 54.5 11s37.5 -3.66699 54.5 -11s31.833 -17.333 44.5 -30s22.667 -27.5 30 -44.5s11 -35.167 11 -54.5c0 -20 -3.66699 -38.333 -11 -55
s-17.333 -31.334 -30 -44.001s-27.5 -22.5 -44.5 -29.5s-35.167 -10.5 -54.5 -10.5s-37.5 3.5 -54.5 10.5s-31.667 16.833 -44 29.5s-22 27.334 -29 44.001s-10.5 35 -10.5 55z" />
    <glyph glyph-name="at" unicode="@" horiz-adv-x="1680" 
d="M1041 811c-21.333 4.66699 -46.333 7 -75 7c-45.333 0 -87.333 -9.66699 -126 -29s-72.167 -45 -100.5 -77s-50.5 -68.833 -66.5 -110.5s-24 -84.5 -24 -128.5c0 -45.333 10.167 -81 30.5 -107s49.833 -39 88.5 -39c18.667 0 37.667 3 57 9s37.833 16.5 55.5 31.5
s34 35.167 49 60.5s27.5 57 37.5 95zM1133 545c-12 -46 -17.998 -83.6689 -17.998 -113.002s4.5 -52.166 13.5 -68.499s21.5 -27.666 37.5 -33.999s33.667 -9.5 53 -9.5c30 0 58.667 9 86 27s51.166 43.333 71.499 76s36.5 71.834 48.5 117.501s18 95.834 18 150.501
c0 89.333 -14.167 167.666 -42.5 234.999s-67.5 123.666 -117.5 168.999s-109.333 79.333 -178 102s-143.334 34 -224.001 34c-88 0 -170.167 -16.667 -246.5 -50s-142.666 -79.333 -198.999 -138s-100.666 -128 -132.999 -208s-48.5 -166.333 -48.5 -259
c0 -111.333 17.333 -209 52 -293s82.167 -154.333 142.5 -211s131.5 -99.334 213.5 -128.001s170 -43 264 -43c102.667 0 192 10.667 268 32s140 47.333 192 78c15.333 9.33301 29 12.166 41 8.49902s20.667 -12.5 26 -26.5l30 -79
c-70.667 -46.667 -151.834 -84 -243.501 -112s-196.167 -42 -313.5 -42c-118 0 -227.667 18.667 -329 56s-189 91 -263 161s-132 155.5 -174 256.5s-63 215.167 -63 342.5c0 72 9.16699 141.5 27.5 208.5s44.333 130 78 189s74.167 113 121.5 162s100 91 158 126
s120.667 62.167 188 81.5s137.666 29 210.999 29c62 0 122.833 -6.83301 182.5 -20.5s116 -33.834 169 -60.501s101.833 -59.667 146.5 -99s83.167 -84.166 115.5 -134.499s57.5 -106.166 75.5 -167.499s27 -127.666 27 -198.999s-10.333 -137.833 -31 -199.5
s-49.334 -115.167 -86.001 -160.5s-80 -81 -130 -107s-104 -39 -162 -39c-48.667 0 -90 11.333 -124 34s-57 59 -69 109c-39.333 -50 -81.166 -86 -125.499 -108s-92.5 -33 -144.5 -33c-40.667 0 -76.167 7.16699 -106.5 21.5s-55.5 34 -75.5 59s-35 54.667 -45 89
s-15 71.5 -15 111.5c0 38 4.83301 76.333 14.5 115s24 76 43 112s43 69.833 72 101.5s62.667 59.167 101 82.5s81.5 41.833 129.5 55.5s100.667 20.5 158 20.5c48 0 89.667 -3.66699 125 -11s69 -18 101 -32z" />
    <glyph glyph-name="A" unicode="A" horiz-adv-x="1373" 
d="M933 540l-198 525.998c-16 40.667 -32.333 92.334 -49 155.001c-7.33301 -31.333 -15.333 -60.166 -24 -86.499s-16.667 -49.5 -24 -69.5l-198 -525h493zM1376 -0.00195312h-180.999c-20.667 0 -37.334 5.16699 -50.001 15.5s-22.334 23.166 -29.001 38.499l-120 318
h-620l-120 -318c-5.33301 -13.333 -14.666 -25.666 -27.999 -36.999s-30 -17 -50 -17h-181l571 1440h237z" />
    <glyph glyph-name="B" unicode="B" horiz-adv-x="1306" 
d="M695 185c52.667 0 97.167 6.16797 133.5 18.501s66 29.166 89 50.499s39.667 46.5 50 75.5s15.5 60.167 15.5 93.5c0 68 -23.167 121.5 -69.5 160.5s-119.5 58.5 -219.5 58.5h-289v-457h290zM405 1257v-450h234c100 0 174.667 19.333 224 58s74 94.334 74 167.001
c0 79.333 -23.167 136.666 -69.5 171.999s-118.833 53 -217.5 53h-245zM650 1440c92 0 170.669 -8.83203 236.002 -26.499s119 -42.834 161 -75.501s72.833 -72.5 92.5 -119.5s29.5 -99.833 29.5 -158.5c0 -34 -5.16699 -66.833 -15.5 -98.5s-26.333 -61.334 -48 -89.001
s-48.834 -52.5 -81.501 -74.5s-71.334 -40.333 -116.001 -55c204 -43.333 306 -151.666 306 -324.999c0 -61.333 -11.5 -117.5 -34.5 -168.5s-56.333 -95 -100 -132s-97.5 -65.833 -161.5 -86.5s-137 -31 -219 -31h-528v1440h479z" />
    <glyph glyph-name="C" unicode="C" horiz-adv-x="1329" 
d="M1171 321c12.667 0 23.6641 -5.00195 32.9971 -15.002l93 -101c-58.667 -70.667 -130.667 -125.167 -216 -163.5s-187.333 -57.5 -306 -57.5c-105.333 0 -200.5 18.167 -285.5 54.5s-157.5 87 -217.5 152s-106.167 142.5 -138.5 232.5s-48.5 189 -48.5 297
s17.167 207.167 51.5 297.5s82.666 168 144.999 233s137 115.5 224 151.5s182.833 54 287.5 54c104 0 195.833 -16.833 275.5 -50.5s148.834 -78.5 207.501 -134.5l-77 -109c-5.33301 -7.33301 -11.666 -13.666 -18.999 -18.999s-17.333 -8 -30 -8
c-13.333 0 -28.5 6.16699 -45.5 18.5s-38.667 26 -65 41s-59.333 28.667 -99 41s-89.167 18.5 -148.5 18.5c-68.667 0 -131.667 -12 -189 -36s-106.666 -59 -147.999 -105s-73.5 -102 -96.5 -168s-34.5 -141 -34.5 -225c0 -84.667 12 -160.167 36 -226.5
s57 -122.333 99 -168s91.333 -80.5 148 -104.5s117.667 -36 183 -36c40 0 75.833 2.16699 107.5 6.5s60.834 11.333 87.501 21s51.834 21.834 75.501 36.501s47.167 32.667 70.5 54c13.333 12 26.666 18 39.999 18z" />
    <glyph glyph-name="D" unicode="D" horiz-adv-x="1521" 
d="M1435 720c0 -106.667 -17.333 -204.169 -52 -292.502s-83.5 -164.166 -146.5 -227.499s-138.667 -112.5 -227 -147.5s-186.5 -52.5 -294.5 -52.5h-544v1440h544c108 0 206.167 -17.5 294.5 -52.5s164 -84.167 227 -147.5s111.833 -139.166 146.5 -227.499
s52 -185.833 52 -292.5zM1196 719.998c0 82.667 -11.167 157 -33.5 223s-54.333 121.667 -96 167s-92.167 80.166 -151.5 104.499s-126 36.5 -200 36.5h-309v-1062h309c74 0 140.667 12 200 36s109.833 58.833 151.5 104.5s73.667 101.334 96 167.001
s33.5 140.167 33.5 223.5z" />
    <glyph glyph-name="E" unicode="E" horiz-adv-x="1152" 
d="M1070 189l-1 -189h-898v1440h898v-189h-663v-434h530v-183h-530v-445h664z" />
    <glyph glyph-name="F" unicode="F" horiz-adv-x="1131" 
d="M406 1251v-461h563v-189h-563v-601h-235v1440h898v-189h-663z" />
    <glyph glyph-name="G" unicode="G" horiz-adv-x="1456" 
d="M1350 709l0.000976562 -570c-143.333 -103.333 -310 -155 -500 -155c-116.667 0 -222.167 18.167 -316.5 54.5s-174.833 87 -241.5 152s-118 142.5 -154 232.5s-54 189 -54 297c0 108.667 17.333 208.167 52 298.5s84.334 168 149.001 233s142.667 115.333 234 151
s194 53.5 308 53.5c58 0 111.833 -4.5 161.5 -13.5s95.834 -21.5 138.501 -37.5s82 -35.333 118 -58s69 -48 99 -76l-67 -107c-10.667 -16.667 -24.334 -27 -41.001 -31s-34.667 0 -54 12l-61.5 36c-21.667 12.667 -46.5 24.5 -74.5 35.5s-60.333 20 -97 27
s-80 10.5 -130 10.5c-76 0 -144.5 -12.5 -205.5 -37.5s-113.167 -60.667 -156.5 -107s-76.666 -102.5 -99.999 -168.5s-35 -139.667 -35 -221c0 -86 12.333 -162.833 37 -230.5s59.667 -125 105 -172s100.166 -82.833 164.499 -107.5s136.166 -37 215.499 -37
c59.333 0 112.166 6.33301 158.499 19s91.833 30.334 136.5 53.001v286h-201c-15.333 0 -27.333 4.16699 -36 12.5s-13 19.166 -13 32.499v133h461z" />
    <glyph glyph-name="H" unicode="H" horiz-adv-x="1535" 
d="M1363 1440v-1440h-234v641h-723v-641h-235v1440h235v-630h723v630h234z" />
    <glyph glyph-name="I" unicode="I" horiz-adv-x="577" 
d="M406 0h-235v1440h235v-1440z" />
    <glyph glyph-name="J" unicode="J" horiz-adv-x="852" 
d="M695 506c0 -80.667 -9.83496 -153.165 -29.502 -217.498s-49 -119 -88 -164s-87.333 -79.667 -145 -104s-124.5 -36.5 -200.5 -36.5c-34.667 0 -69 2.16699 -103 6.5s-69.333 11.166 -106 20.499l12 140c2 13.333 7.16699 24 15.5 32s20.5 12 36.5 12
c12 0 27.5 -2.5 46.5 -7.5s43.833 -7.5 74.5 -7.5c40.667 0 76.834 6 108.501 18s58.334 30.833 80.001 56.5s38 58.667 49 99s16.5 89.166 16.5 146.499v940h233v-934z" />
    <glyph glyph-name="K" unicode="K" horiz-adv-x="1349" 
d="M405 824h67.0029c25.333 0 46 3.5 62 10.5s30.333 18.167 43 33.5l436 520c15.333 19.333 31.166 32.833 47.499 40.5s36.833 11.5 61.5 11.5h200l-515 -608c-14 -17.333 -27.5 -31.833 -40.5 -43.5s-27.167 -21.167 -42.5 -28.5c20 -7.33301 38 -17.5 54 -30.5
s31.667 -30.167 47 -51.5l534 -678h-204c-14.667 0 -27.167 1 -37.5 3s-19.333 5 -27 9s-14.334 9 -20.001 15s-10.834 12.667 -15.501 20l-450 550c-6.66699 8.66699 -13.334 16 -20.001 22s-14.5 11 -23.5 15s-19.167 6.83301 -30.5 8.5s-24.666 2.5 -39.999 2.5h-86v-645
h-234v1440h234v-616z" />
    <glyph glyph-name="L" unicode="L" horiz-adv-x="1033" 
d="M1003 196v-196h-832v1440h234v-1244h598z" />
    <glyph glyph-name="M" unicode="M" horiz-adv-x="1874" 
d="M1703 1440l0.00195312 -1440h-206v987c0 16 0.5 33.5 1.5 52.5s2.5 38.167 4.5 57.5l-463 -855c-18 -35.333 -45.667 -53 -83 -53h-33c-38 0 -65.667 17.667 -83 53l-470 857c2 -19.333 3.5 -38.666 4.5 -57.999s1.5 -37.333 1.5 -54v-987h-206v1440h175
c20.667 0 36.667 -1.83301 48 -5.5s21.666 -14.834 30.999 -33.501l462 -837c10 -19.333 19.5 -39.166 28.5 -59.499s17.167 -41.166 24.5 -62.499c8 21.333 16.5 42.5 25.5 63.5s18.5 41.167 28.5 60.5l455 835c9.33301 18.667 19.666 29.834 30.999 33.501
s27.333 5.5 48 5.5h175z" />
    <glyph glyph-name="N" unicode="N" horiz-adv-x="1535" 
d="M1363 1440v-1440h-119c-18 0 -33.333 3.16699 -46 9.5s-24.667 16.833 -36 31.5l-791 1016c2 -19.333 3.5 -38.5 4.5 -57.5s1.5 -36.5 1.5 -52.5v-947h-206v1440h122c10 0 18.5 -0.5 25.5 -1.5s13.5 -2.83301 19.5 -5.5s11.667 -6.66699 17 -12s11 -12 17 -20l792 -1017
c-2 20.667 -3.5 41 -4.5 61s-1.5 38.667 -1.5 56v939h205z" />
    <glyph glyph-name="O" unicode="O" horiz-adv-x="1609" 
d="M1524 720c0 -106.667 -17.333 -205 -52 -295s-83.5 -167.5 -146.5 -232.5s-138.667 -115.833 -227 -152.5s-186.5 -55 -294.5 -55c-107.333 0 -205.166 18.333 -293.499 55s-164.166 87.5 -227.499 152.5s-112.333 142.5 -147 232.5s-52 188.333 -52 295
s17.333 205 52 295s83.667 167.667 147 233s139.166 116.333 227.499 153s186.166 55 293.499 55c108 0 206.167 -18.333 294.5 -55s164 -87.667 227 -153s111.833 -143 146.5 -233s52 -188.333 52 -295zM1285 720c0 82.667 -11.167 157 -33.5 223s-54.333 122 -96 168
s-92.167 81.333 -151.5 106s-126 37 -200 37c-73.333 0 -139.666 -12.333 -198.999 -37s-110 -60 -152 -106s-74.333 -102 -97 -168s-34 -140.333 -34 -223c0 -83.333 11.333 -158 34 -224s55 -121.833 97 -167.5s92.667 -80.667 152 -105s125.666 -36.5 198.999 -36.5
c74 0 140.667 12.167 200 36.5s109.833 59.333 151.5 105s73.667 101.5 96 167.5s33.5 140.667 33.5 224z" />
    <glyph glyph-name="P" unicode="P" horiz-adv-x="1221" 
d="M619 706c52 0 97.834 6.66895 137.501 20.002s72.667 32.166 99 56.499s46.166 53.833 59.499 88.5s20 73.334 20 116.001c0 42 -6.5 79.667 -19.5 113s-32.5 61.666 -58.5 84.999s-58.833 41.166 -98.5 53.499s-86.167 18.5 -139.5 18.5h-214v-551h214zM619.001 1440
c94 0 175.5 -10.999 244.5 -32.999s126 -52.833 171 -92.5s78.5 -87.334 100.5 -143.001s33 -117.167 33 -184.5c0 -68.667 -11.667 -131.5 -35 -188.5s-58 -106 -104 -147s-103.167 -73 -171.5 -96s-147.833 -34.5 -238.5 -34.5h-214v-521h-234v1440h448z" />
    <glyph glyph-name="Q" unicode="Q" horiz-adv-x="1609" 
d="M323 720c0 -83.333 11.333 -158 34 -224s55 -121.833 97 -167.5s92.667 -80.667 152 -105s125.666 -36.5 198.999 -36.5c74 0 140.667 12.167 200 36.5s109.833 59.333 151.5 105s73.667 101.5 96 167.5s33.5 140.667 33.5 224c0 82.667 -11.167 157 -33.5 223
s-54.333 122 -96 168s-92.167 81.333 -151.5 106s-126 37 -200 37c-73.333 0 -139.666 -12.333 -198.999 -37s-110 -60 -152 -106s-74.333 -102 -97 -168s-34 -140.333 -34 -223zM1596 -288l-192 0.000976562c-28.667 0 -54 3.83301 -76 11.5s-42.333 21.5 -61 41.5
l-230 253c-72 -22 -149.333 -33 -232 -33c-107.333 0 -205.166 18.333 -293.499 55s-164.166 87.5 -227.499 152.5s-112.333 142.5 -147 232.5s-52 188.333 -52 295s17.333 205 52 295s83.667 167.667 147 233s139.166 116.333 227.499 153s186.166 55 293.499 55
c108 0 206.167 -18.333 294.5 -55s164 -87.667 227 -153s111.833 -143 146.5 -233s52 -188.333 52 -295c0 -66 -6.66699 -128.833 -20 -188.5s-32.666 -115.334 -57.999 -167.001s-56.333 -99 -93 -142s-78.334 -80.5 -125.001 -112.5z" />
    <glyph glyph-name="R" unicode="R" horiz-adv-x="1270" 
d="M589 750c53.333 0 100 6.50195 140 19.502s73.333 31.167 100 54.5s46.667 51.166 60 83.499s20 68.166 20 107.499c0 78.667 -26 138.667 -78 180s-130.667 62 -236 62h-190v-507h184zM1267 0.00195312l-209.003 -0.00195312c-41.333 0 -71.333 16 -90 48l-336 485
c-11.333 16.667 -23.666 28.667 -36.999 36s-33.333 11 -60 11h-130v-580h-234v1440h424c94.667 0 176.167 -9.66699 244.5 -29s124.5 -46.833 168.5 -82.5s76.5 -78.5 97.5 -128.5s31.5 -105.667 31.5 -167c0 -50 -7.5 -96.667 -22.5 -140s-36.667 -82.666 -65 -117.999
s-63.166 -66 -104.499 -92s-88.333 -46.333 -141 -61c28.667 -17.333 53.334 -41.666 74.001 -72.999z" />
    <glyph glyph-name="S" unicode="S" horiz-adv-x="1091" 
d="M924 1194c-7.33301 -12 -14.9951 -20.835 -22.9951 -26.502s-18 -8.5 -30 -8.5c-12.667 0 -26.834 5.33301 -42.501 16s-35 22.5 -58 35.5s-50.167 25 -81.5 36s-68.666 16.5 -111.999 16.5c-40 0 -75.167 -5 -105.5 -15s-55.833 -24 -76.5 -42
s-36.167 -39.167 -46.5 -63.5s-15.5 -50.833 -15.5 -79.5c0 -36.667 9.66699 -67.167 29 -91.5s44.833 -45.166 76.5 -62.499s67.834 -32.5 108.501 -45.5l124.5 -41.5c42.333 -14.667 83.833 -31.334 124.5 -50.001s76.834 -42.334 108.501 -71.001
s57.167 -63.667 76.5 -105s29 -91.666 29 -150.999c0 -64 -11 -124 -33 -180s-53.833 -104.833 -95.5 -146.5s-93 -74.5 -154 -98.5s-130.5 -36 -208.5 -36c-46 0 -90.833 4.5 -134.5 13.5s-85.334 21.667 -125.001 38s-76.834 36.166 -111.501 59.499
s-65.667 49.333 -93 78l68 112c6 9.33301 13.667 16.666 23 21.999s19.666 8 30.999 8c15.333 0 32.333 -7.16699 51 -21.5s41.167 -30 67.5 -47s58.166 -32.667 95.499 -47s82 -21.5 134 -21.5c84.667 0 150.167 20.667 196.5 62s69.5 98.333 69.5 171
c0 40.667 -9.66699 73.834 -29 99.501s-44.833 47.167 -76.5 64.5s-67.834 32 -108.501 44l-124 38.5c-42 13.667 -83.333 29.667 -124 48s-76.834 42.333 -108.501 72s-57.167 66.334 -76.5 110.001s-29 98.167 -29 163.5c0 52 10.167 102.333 30.5 151
s50 91.834 89 129.501s87.167 67.834 144.5 90.501s122.666 34 195.999 34c82.667 0 158.5 -13 227.5 -39s128.5 -63 178.5 -111z" />
    <glyph glyph-name="T" unicode="T" horiz-adv-x="1191" 
d="M1162 1245h-449v-1245h-233v1245h-450v195h1132v-195z" />
    <glyph glyph-name="U" unicode="U" horiz-adv-x="1479" 
d="M739 189c55.333 0 104.833 9.33398 148.5 28.001s80.667 44.667 111 78s53.5 73.5 69.5 120.5s24 99.167 24 156.5v868h233v-868c0 -84.667 -13.5 -163 -40.5 -235s-65.833 -134.167 -116.5 -186.5s-112.167 -93.333 -184.5 -123s-153.833 -44.5 -244.5 -44.5
s-172.167 14.833 -244.5 44.5s-133.833 70.667 -184.5 123s-89.5 114.5 -116.5 186.5s-40.5 150.333 -40.5 235v868h234v-867c0 -57.333 8 -109.5 24 -156.5s39 -87.333 69 -121s66.833 -59.834 110.5 -78.501s93.167 -28 148.5 -28z" />
    <glyph glyph-name="V" unicode="V" horiz-adv-x="1373" 
d="M1376 1440l-584 -1440h-211l-584 1440h187c20.667 0 37.334 -5.16699 50.001 -15.5s22.334 -23.166 29.001 -38.499l371 -939c20 -52.667 38.333 -113.334 55 -182.001c7.33301 34 15.166 66.333 23.499 97s17.5 59 27.5 85l370 939
c5.33301 13.333 14.666 25.666 27.999 36.999s30 17 50 17h188z" />
    <glyph glyph-name="W" unicode="W" horiz-adv-x="2087" 
d="M2064 1440l-448.005 -1440h-211l-338 1034c-4 11.333 -7.83301 23.666 -11.5 36.999s-7.16699 27.666 -10.5 42.999c-3.33301 -15.333 -6.83301 -29.666 -10.5 -42.999s-7.5 -25.666 -11.5 -36.999l-341 -1034h-211l-448 1440h196c20 0 36.833 -4.83301 50.5 -14.5
s22.834 -22.834 27.501 -39.501l270 -923c5.33301 -20 10.333 -41.667 15 -65l14 -73c4.66699 25.333 9.83398 49.833 15.501 73.5s11.834 45.167 18.501 64.5l309 923c4.66699 13.333 14 25.666 28 36.999s30.667 17 50 17h68c20.667 0 37.334 -5.16699 50.001 -15.5
s22.334 -23.166 29.001 -38.499l308 -923c6.66699 -19.333 12.834 -40.166 18.501 -62.499s10.834 -45.833 15.501 -70.5l13.5 70.5c4.33301 22.333 9.16602 43.166 14.499 62.499l269 923c4 14.667 13.167 27.334 27.5 38.001s31.166 16 50.499 16h183z" />
    <glyph glyph-name="X" unicode="X" horiz-adv-x="1320" 
d="M1308 0h-233c-16 -0 -29 4.33301 -39 13s-18 18.334 -24 29.001l-358 577c-2.66699 -8 -5.5 -15.667 -8.5 -23s-6.5 -14.333 -10.5 -21l-346 -533c-7.33301 -10.667 -15.5 -20.334 -24.5 -29.001s-20.833 -13 -35.5 -13h-218l486 740l-466 700h232
c16.667 0 28.834 -2.5 36.501 -7.5s14.5 -12.5 20.5 -22.5l350 -550l10 24c3.33301 8 7.66602 16.333 12.999 25l326 497c6.66699 11.333 14 19.833 22 25.5s17.667 8.5 29 8.5h223l-470 -690z" />
    <glyph glyph-name="Y" unicode="Y" horiz-adv-x="1273" 
d="M753 564l-0.000976562 -564h-233v564l-526 876h205c20.667 0 37 -5 49 -15s22 -22.667 30 -38l295 -516l36.5 -74c11 -23.333 20.833 -46.333 29.5 -69c7.33301 23.333 16.333 46.5 27 69.5s22.667 47.5 36 73.5l293 516c6.66699 13.333 16.334 25.5 29.001 36.5
s29 16.5 49 16.5h206z" />
    <glyph glyph-name="Z" unicode="Z" horiz-adv-x="1208" 
d="M1149 1353c0 -13.333 -2.16797 -26.333 -6.50098 -39s-10.166 -24.667 -17.499 -36l-773 -1089h782v-189h-1088v92c0 12.667 2 24.5 6 35.5s9.33301 21.5 16 31.5l776 1092h-755v189h1060v-87z" />
    <glyph glyph-name="bracketleft" unicode="[" horiz-adv-x="620" 
d="M353 1400v-1558h152c17.333 0 31.333 -5.66699 42 -17s16 -24.666 16 -39.999v-85h-390v1841h390v-85c0 -15.333 -5.33301 -28.5 -16 -39.5s-24.667 -16.5 -42 -16.5h-152z" />
    <glyph glyph-name="backslash" unicode="\" horiz-adv-x="919" 
d="M62 1480h92.002c25.333 0 47.666 -6.66699 66.999 -20s33.666 -32.333 42.999 -57l592 -1496h-90c-23.333 0 -46 6.83301 -68 20.5s-38 34.167 -48 61.5z" />
    <glyph glyph-name="bracketright" unicode="]" horiz-adv-x="620" 
d="M447 -300l-390 0.000976562v85c0 15.333 5.33301 28.666 16 39.999s24.667 17 42 17h152v1558h-152c-17.333 0 -31.333 5.5 -42 16.5s-16 24.167 -16 39.5v85h390v-1841z" />
    <glyph glyph-name="asciicircum" unicode="^" horiz-adv-x="1160" 
d="M1045 688l-156.002 0.00195312c-13.333 0 -24.666 3.5 -33.999 10.5s-16.666 16.167 -21.999 27.5l-210 410c-9.33301 19.333 -17.666 38.166 -24.999 56.499s-13.666 36.166 -18.999 53.499c-5.33301 -18 -11.333 -36 -18 -54s-14.334 -36.667 -23.001 -56l-200 -410
c-4.66699 -11.333 -11.834 -20.5 -21.501 -27.5s-22.167 -10.5 -37.5 -10.5h-164l392 752h139z" />
    <glyph glyph-name="underscore" unicode="_" horiz-adv-x="926" 
d="M857 -148v-142h-788v142h788z" />
    <glyph glyph-name="grave" unicode="`" 
d="M306 1456c24.667 0 43 -4 55 -12s22.667 -20.333 32 -37l146 -242h-122c-16.667 0 -30.167 2.33301 -40.5 7s-20.833 13 -31.5 25l-241 259h202z" />
    <glyph glyph-name="a" unicode="a" horiz-adv-x="1005" 
d="M676 446c-76.667 -2.66699 -141.333 -8.83203 -194 -18.499s-95.334 -22 -128.001 -37s-56.167 -32.833 -70.5 -53.5s-21.5 -43.334 -21.5 -68.001c0 -24 3.83301 -44.5 11.5 -61.5s18.334 -31 32.001 -42s29.667 -19 48 -24s38.5 -7.5 60.5 -7.5
c56 0 104.167 10.5 144.5 31.5s79.5 51.5 117.5 91.5v189zM106.001 878.002c115.333 107.333 252.667 161.002 412 161.002c58.667 0 110.834 -9.5 156.501 -28.5s84 -45.833 115 -80.5s54.667 -75.834 71 -123.501s24.5 -100.5 24.5 -158.5v-648h-96
c-20.667 0 -36.334 3.16699 -47.001 9.5s-19.667 19.166 -27 38.499l-21 83c-26 -23.333 -51.667 -44.166 -77 -62.499s-51.5 -33.833 -78.5 -46.5s-56 -22.167 -87 -28.5s-65.167 -9.5 -102.5 -9.5c-41.333 0 -79.833 5.66699 -115.5 17s-66.5 28.5 -92.5 51.5
s-46.5 51.5 -61.5 85.5s-22.5 74 -22.5 120c0 39.333 10.5 77.666 31.5 114.999s55.667 70.833 104 100.5s112 54.167 191 73.5s176.5 30.333 292.5 33v68c0 73.333 -15.667 128 -47 164s-77.333 54 -138 54c-41.333 0 -76 -5.16699 -104 -15.5s-52.333 -21.5 -73 -33.5
s-39 -23.167 -55 -33.5s-33 -15.5 -51 -15.5c-14.667 0 -27.167 3.83301 -37.5 11.5s-18.833 17.167 -25.5 28.5z" />
    <glyph glyph-name="b" unicode="b" horiz-adv-x="1128" 
d="M346 256c30 -38.667 62.833 -65.833 98.5 -81.5s74.5 -23.5 116.5 -23.5c84.667 0 150.667 30.667 198 92s71 156.333 71 285c0 117.333 -20.5 203 -61.5 257s-99.5 81 -175.5 81c-52.667 0 -98.5 -11.833 -137.5 -35.5s-75.5 -57.5 -109.5 -101.5v-473zM346 885.001
c42 46 89.002 82.667 141.002 110s111.333 41 178 41c59.333 0 112.833 -11.5 160.5 -34.5s88.167 -56.167 121.5 -99.5s59 -95.833 77 -157.5s27 -131.167 27 -208.5c0 -82.667 -10.167 -157.834 -30.5 -225.501s-49.5 -125.667 -87.5 -174s-84 -85.666 -138 -111.999
s-114.333 -39.5 -181 -39.5c-32.667 0 -62.334 3.16699 -89.001 9.5s-51.334 15.5 -74.001 27.5s-43.5 26.333 -62.5 43s-37.167 35.667 -54.5 57l-9 -79c-3.33301 -15.333 -9.33301 -26.333 -18 -33s-20.667 -10 -36 -10h-140v1480h215v-595z" />
    <glyph glyph-name="c" unicode="c" horiz-adv-x="960" 
d="M852 820c-6.66699 -8.66699 -13 -15.332 -19 -19.999s-14.667 -7 -26 -7s-23.166 4 -35.499 12s-27 16.833 -44 26.5s-37.5 18.5 -61.5 26.5s-54 12 -90 12c-46.667 0 -87.5 -8.33301 -122.5 -25s-64.333 -40.5 -88 -71.5s-41.334 -68.667 -53.001 -113
s-17.5 -94.166 -17.5 -149.499c0 -57.333 6.33301 -108.333 19 -153s30.834 -82.334 54.501 -113.001s52.334 -54 86.001 -70s71.5 -24 113.5 -24c41.333 0 75 5 101 15s47.667 21 65 33s32.166 23 44.499 33s25.5 15 39.5 15c17.333 0 30.666 -6.66699 39.999 -20l61 -79
c-24.667 -30 -52 -55.333 -82 -76s-61.667 -37.5 -95 -50.5s-68 -22.333 -104 -28s-72.333 -8.5 -109 -8.5c-63.333 0 -122.5 11.833 -177.5 35.5s-103 58 -144 103s-73.333 100 -97 165s-35.5 139.167 -35.5 222.5c0 75.333 10.667 145.166 32 209.499
s52.5 119.833 93.5 166.5s91.833 83.167 152.5 109.5s130.667 39.5 210 39.5c74 0 139.167 -12 195.5 -36s106.5 -58 150.5 -102z" />
    <glyph glyph-name="d" unicode="d" horiz-adv-x="1128" 
d="M782 769c-30 38.667 -63.001 65.668 -99.001 81.001s-75 23 -117 23c-84 0 -149.667 -30.833 -197 -92.5s-71 -152.834 -71 -273.501c0 -62.667 5.33301 -116.167 16 -160.5s26 -80.5 46 -108.5s44.333 -48.333 73 -61s61 -19 97 -19
c54.667 0 101.834 11.833 141.501 35.5s76.5 57.167 110.5 100.5v475zM996.999 1480v-1480h-130c-28.667 0 -47 13.667 -55 41l-19 111c-42.667 -50 -91.167 -90.333 -145.5 -121s-117.5 -46 -189.5 -46c-57.333 0 -109.333 11.5 -156 34.5s-86.667 56.5 -120 100.5
s-59.166 98.5 -77.499 163.5s-27.5 139.5 -27.5 223.5c0 76 10.167 146.333 30.5 211s49.5 120.834 87.5 168.501s84.167 85 138.5 112s115.166 40.5 182.499 40.5c60 0 111 -9.5 153 -28.5s79.667 -45.5 113 -79.5v549h215z" />
    <glyph glyph-name="e" unicode="e" horiz-adv-x="1062" 
d="M800 625c0 36 -5.16602 69.501 -15.499 100.501s-25.5 58 -45.5 81s-44.833 41 -74.5 54s-63.834 19.5 -102.501 19.5c-78 0 -139.333 -22.333 -184 -67s-73 -107.334 -85 -188.001h507zM287.001 493.001c2.66699 -58 11.6621 -108.169 26.9951 -150.502
s35.833 -77.5 61.5 -105.5s56.334 -48.833 92.001 -62.5s75.5 -20.5 119.5 -20.5c42 0 78.333 4.83301 109 14.5s57.334 20.334 80.001 32.001s42 22.334 58 32.001s30.667 14.5 44 14.5c17.333 0 30.666 -6.66699 39.999 -20l61 -79c-25.333 -30 -54 -55.333 -86 -76
s-66 -37.5 -102 -50.5s-73 -22.333 -111 -28s-75 -8.5 -111 -8.5c-70.667 0 -136.167 11.833 -196.5 35.5s-112.666 58.5 -156.999 104.5s-79 103 -104 171s-37.5 146.333 -37.5 235c0 70.667 11.167 136.667 33.5 198s54.333 114.666 96 159.999
s92.334 81.166 152.001 107.499s127.167 39.5 202.5 39.5c62.667 0 120.667 -10.167 174 -30.5s99.333 -50.166 138 -89.499s68.834 -87.5 90.501 -144.5s32.5 -121.833 32.5 -194.5c0 -33.333 -3.66699 -55.666 -11 -66.999s-20.666 -17 -39.999 -17h-655z" />
    <glyph glyph-name="f" unicode="f" horiz-adv-x="709" 
d="M200 0l-0.000976562 849l-100 14c-16.667 3.33301 -30.167 9.33301 -40.5 18s-15.5 21 -15.5 37v88h156v86c0 58 8.5 110 25.5 156s41.333 85 73 117s70.167 56.5 115.5 73.5s96.333 25.5 153 25.5c23.333 0 45.5 -1.66699 66.5 -5s41.5 -8.33301 61.5 -15l-4 -108
c-1.33301 -18 -10.166 -28.667 -26.499 -32s-36.833 -5 -61.5 -5c-30 0 -57 -3.5 -81 -10.5s-44.5 -18.833 -61.5 -35.5s-30 -38.667 -39 -66s-13.5 -61.333 -13.5 -102v-79h279v-155h-272v-851h-215z" />
    <glyph glyph-name="g" unicode="g" horiz-adv-x="1049" 
d="M495 519c66.667 0 116.666 17.001 149.999 51.001s50 78.333 50 133c0 56 -16.667 100.333 -50 133s-83.333 49 -150 49c-66 0 -115.833 -16.333 -149.5 -49s-50.5 -77 -50.5 -133c0 -26.667 4.33301 -51.334 13 -74.001s21.334 -42.167 38.001 -58.5s37.5 -29 62.5 -38
s53.833 -13.5 86.5 -13.5zM793.999 -49.999c0 22.667 -6.50098 40.8291 -19.501 54.4961s-30.5 24.334 -52.5 32.001s-47.667 13.334 -77 17.001s-60.5 6.33398 -93.5 8.00098l-101 5c-34.333 1.66699 -67.5 4.83398 -99.5 9.50098c-32 -16.667 -58.167 -36.667 -78.5 -60
s-30.5 -50.333 -30.5 -81c0 -20 5.16699 -38.667 15.5 -56s26.333 -32.333 48 -45s49.334 -22.667 83.001 -30s74.167 -11 121.5 -11c94.667 0 165.667 14.667 213 44s71 67 71 113zM1010 982.996l-0.00195312 -79.999c0 -26.667 -16 -43 -48 -49l-102 -17
c17.333 -38.667 26 -81.667 26 -129c0 -50 -9.83301 -95.333 -29.5 -136s-46.834 -75.334 -81.501 -104.001s-76 -50.667 -124 -66s-100 -23 -156 -23c-21.333 0 -42.166 1.16699 -62.499 3.5s-40.166 5.5 -59.499 9.5c-19.333 -11.333 -33.666 -23.333 -42.999 -36
s-14 -25.667 -14 -39c0 -22 9.66699 -38.333 29 -49s44.833 -18.334 76.5 -23.001s67.834 -7.66699 108.501 -9s82 -3.66602 124 -6.99902s83.333 -8.83301 124 -16.5s76.834 -20.334 108.501 -38.001s57.167 -41.5 76.5 -71.5s29 -69 29 -117c0 -44 -11 -87 -33 -129
s-53.833 -79.333 -95.5 -112s-92.5 -58.834 -152.5 -78.501s-128.333 -29.5 -205 -29.5c-76 0 -142.167 7.33301 -198.5 22s-103.333 34.5 -141 59.5s-65.667 53.833 -84 86.5s-27.5 66.667 -27.5 102c0 48 15.167 89 45.5 123s71.5 60.667 123.5 80
c-28 13.333 -50.5 31.666 -67.5 54.999s-25.5 54 -25.5 92c0 30 11 61.333 33 94s55 60.334 99 83.001c-50.667 28 -90.667 65.167 -120 111.5s-44 100.5 -44 162.5c0 50.667 9.83301 96.334 29.5 137.001s47.167 75.334 82.5 104.001s77.166 50.667 125.499 66
s101.166 23 158.499 23c88 0 164.667 -18.333 230 -55h285z" />
    <glyph glyph-name="h" unicode="h" horiz-adv-x="1122" 
d="M346 899c42 41.333 88.001 74.5 138.001 99.5s108.333 37.5 175 37.5c56 0 105.167 -9.33301 147.5 -28s78 -45 107 -79s50.833 -74.833 65.5 -122.5s22 -100.167 22 -157.5v-649h-214v649c0 68.667 -15.833 122 -47.5 160s-79.834 57 -144.501 57
c-48 0 -92.5 -11 -133.5 -33s-79.5 -52 -115.5 -90v-743h-215v1480h215v-581z" />
    <glyph glyph-name="i" unicode="i" horiz-adv-x="495" 
d="M355 1020v-1020h-215v1020h215zM391 1328c0 -19.333 -3.83301 -37.666 -11.5 -54.999s-18.167 -32.5 -31.5 -45.5s-28.833 -23.333 -46.5 -31s-36.5 -11.5 -56.5 -11.5c-19.333 0 -37.5 3.83301 -54.5 11.5s-31.833 18 -44.5 31s-22.834 28.167 -30.501 45.5
s-11.5 35.666 -11.5 54.999c0 20 3.83301 38.667 11.5 56s17.834 32.5 30.501 45.5s27.5 23.333 44.5 31s35.167 11.5 54.5 11.5c20 0 38.833 -3.83301 56.5 -11.5s33.167 -18 46.5 -31s23.833 -28.167 31.5 -45.5s11.5 -36 11.5 -56z" />
    <glyph glyph-name="j" unicode="j" horiz-adv-x="495" 
d="M355 1020v-1073c0 -42.667 -5.66699 -82.834 -17 -120.501s-29.333 -70.5 -54 -98.5s-56.5 -50 -95.5 -66s-86.167 -24 -141.5 -24c-23.333 0 -44.333 1.66699 -63 5s-37.667 8 -57 14l8 117c2 13.333 7.5 21 16.5 23s26.167 3 51.5 3c50.667 0 86.167 11.167 106.5 33.5
s30.5 60.166 30.5 113.499v1073h215zM390 1328c0 -19.333 -3.83301 -37.666 -11.5 -54.999s-18.167 -32.5 -31.5 -45.5s-28.666 -23.333 -45.999 -31s-36 -11.5 -56 -11.5c-19.333 0 -37.5 3.83301 -54.5 11.5s-32 18 -45 31s-23.167 28.167 -30.5 45.5
s-11 35.666 -11 54.999c0 20 3.66699 38.667 11 56s17.5 32.5 30.5 45.5s28 23.333 45 31s35.167 11.5 54.5 11.5c20 0 38.667 -3.83301 56 -11.5s32.666 -18 45.999 -31s23.833 -28.167 31.5 -45.5s11.5 -36 11.5 -56z" />
    <glyph glyph-name="k" unicode="k" horiz-adv-x="1044" 
d="M346 1480l-0.00195312 -857.998h46c14.667 0 26.667 2 36 6s19 12.333 29 25l286 327c10 13.333 21 23.333 33 30s27.333 10 46 10h195l-344 -388c-20 -26 -42 -46.667 -66 -62c13.333 -9.33301 25 -19.833 35 -31.5s19.667 -24.834 29 -39.501l367 -499h-192
c-17.333 0 -32.166 2.83301 -44.499 8.5s-23.166 16.167 -32.499 31.5l-295 400c-10 15.333 -20 25.166 -30 29.499s-25 6.5 -45 6.5h-53v-476h-215v1480h215z" />
    <glyph glyph-name="l" unicode="l" horiz-adv-x="485" 
d="M350 1480v-1480h-215v1480h215z" />
    <glyph glyph-name="m" unicode="m" horiz-adv-x="1661" 
d="M131 0l0.00195312 1020h130c29.333 0 48 -13.667 56 -41l14 -89c18.667 21.333 38 40.833 58 58.5s41.5 33 64.5 46s47.667 23.167 74 30.5s54.833 11 85.5 11c32.667 0 62.667 -4.66699 90 -14s51.5 -22.666 72.5 -39.999s39.167 -38.333 54.5 -63
s28 -52.334 38 -83.001c15.333 35.333 34.666 65.666 57.999 90.999s49.333 46 78 62s59.167 27.833 91.5 35.5s65.166 11.5 98.499 11.5c54.667 0 103.5 -8.66699 146.5 -26s79.333 -42.5 109 -75.5s52.167 -73.5 67.5 -121.5s23 -102.667 23 -164v-649h-215v649
c0 72 -15.5 126.167 -46.5 162.5s-76.833 54.5 -137.5 54.5c-27.333 0 -53 -4.66699 -77 -14s-45 -23 -63 -41s-32.167 -40.5 -42.5 -67.5s-15.5 -58.5 -15.5 -94.5v-649h-215v649c0 74.667 -15 129.5 -45 164.5s-74 52.5 -132 52.5c-40 0 -77 -10.167 -111 -30.5
s-65.333 -48.166 -94 -83.499v-752h-215z" />
    <glyph glyph-name="n" unicode="n" horiz-adv-x="1122" 
d="M332 885c22 22.667 44.833 43.1689 68.5 61.502s48.834 34.166 75.501 47.499s55 23.666 85 30.999s62.667 11 98 11c56 0 105.167 -9.33301 147.5 -28s78 -45 107 -79s50.833 -74.833 65.5 -122.5s22 -100.167 22 -157.5v-649h-214v649c0 68.667 -15.833 122 -47.5 160
s-79.834 57 -144.501 57c-48 0 -92.5 -11 -133.5 -33s-79.5 -52 -115.5 -90v-743h-215v1020h130c29.333 0 48 -13.667 56 -41z" />
    <glyph glyph-name="o" unicode="o" horiz-adv-x="1142" 
d="M572 1036c75.333 0 143.5 -12.333 204.5 -37s113 -59.667 156 -105s76.167 -100.333 99.5 -165s35 -137.334 35 -218.001s-11.667 -153.334 -35 -218.001s-56.5 -119.834 -99.5 -165.501s-95 -80.834 -156 -105.501s-129.167 -37 -204.5 -37
c-76 0 -144.5 12.333 -205.5 37s-113.167 59.834 -156.5 105.501s-76.666 100.834 -99.999 165.501s-35 137.334 -35 218.001s11.667 153.334 35 218.001s56.666 119.667 99.999 165s95.5 80.333 156.5 105s129.5 37 205.5 37zM572 153c92 0 160.5 30.833 205.5 92.5
s67.5 149.834 67.5 264.501s-22.5 203.167 -67.5 265.5s-113.5 93.5 -205.5 93.5c-93.333 0 -162.666 -31.167 -207.999 -93.5s-68 -150.833 -68 -265.5s22.667 -202.834 68 -264.501s114.666 -92.5 207.999 -92.5z" />
    <glyph glyph-name="p" unicode="p" horiz-adv-x="1129" 
d="M346 256c30 -38.667 62.834 -65.832 98.501 -81.499s75.167 -23.5 118.5 -23.5c84 0 149.5 30.667 196.5 92s70.5 152.666 70.5 273.999c0 62.667 -5.33301 116.167 -16 160.5s-26 80.5 -46 108.5s-44.333 48.333 -73 61s-61 19 -97 19
c-54.667 0 -101.834 -11.833 -141.501 -35.5s-76.5 -57.5 -110.5 -101.5v-473zM335.001 872.002c42.667 50 91.168 90.333 145.501 121s117.5 46 189.5 46c57.333 0 109.333 -11.5 156 -34.5s86.667 -56.5 120 -100.5s59.166 -98.5 77.499 -163.5s27.5 -139.5 27.5 -223.5
c0 -75.333 -10.167 -145.5 -30.5 -210.5s-49.5 -121.333 -87.5 -169s-84 -85 -138 -112s-115 -40.5 -183 -40.5c-60 0 -110.833 9.66699 -152.5 29s-79.5 46 -113.5 80v-433h-215v1359h130c29.333 0 48 -13.667 56 -41z" />
    <glyph glyph-name="q" unicode="q" horiz-adv-x="1128" 
d="M782 769c-30 38 -63.001 64.834 -99.001 80.501s-75 23.5 -117 23.5c-84 0 -149.667 -30.833 -197 -92.5s-71 -152.834 -71 -273.501c0 -62.667 5.33301 -116.167 16 -160.5s26 -80.5 46 -108.5s44.333 -48.333 73 -61s61 -19 97 -19
c54.667 0 101.834 11.833 141.501 35.5s76.5 57.167 110.5 100.5v475zM996.999 1020v-1359h-215v478c-42 -46 -89.167 -83.167 -141.5 -111.5s-113.166 -42.5 -182.499 -42.5c-57.333 0 -109.333 11.5 -156 34.5s-86.667 56.5 -120 100.5s-59.166 98.5 -77.499 163.5
s-27.5 139.5 -27.5 223.5c0 76 10.167 146.333 30.5 211s49.5 120.834 87.5 168.501s84.167 85 138.5 112s115.166 40.5 182.499 40.5c32.667 0 62.5 -2.83301 89.5 -8.5s52 -14 75 -25s44.167 -24.333 63.5 -40s37.666 -33.5 54.999 -53.5l13 67c8 27.333 26.333 41 55 41
h130z" />
    <glyph glyph-name="r" unicode="r" horiz-adv-x="738" 
d="M334 831c32 64.667 70.6699 115.5 116.003 152.5s99.666 55.5 162.999 55.5c22 0 42.667 -2.5 62 -7.5s36.666 -12.5 51.999 -22.5l-15 -162c-2.66699 -11.333 -6.83398 -19.166 -12.501 -23.499s-13.167 -6.5 -22.5 -6.5c-10 0 -24.333 1.83301 -43 5.5
s-38.334 5.5 -59.001 5.5c-30 0 -56.5 -4.33301 -79.5 -13s-43.667 -21.334 -62 -38.001s-34.5 -37 -48.5 -61s-27 -51.333 -39 -82v-634h-215v1020h125c22.667 0 38.334 -4.16699 47.001 -12.5s14.667 -22.833 18 -43.5z" />
    <glyph glyph-name="s" unicode="s" horiz-adv-x="873" 
d="M740 835c-5.33301 -9.33301 -11.3311 -16 -17.998 -20s-15 -6 -25 -6c-11.333 0 -23.666 3.5 -36.999 10.5l-47 23.5c-18 8.66699 -39.167 16.5 -63.5 23.5s-52.833 10.5 -85.5 10.5c-26.667 0 -50.834 -3.16699 -72.501 -9.5s-40 -15.333 -55 -27
s-26.5 -25.334 -34.5 -41.001s-12 -32.5 -12 -50.5c0 -24 7.33301 -44 22 -60s34 -29.833 58 -41.5s51.333 -22.167 82 -31.5l94 -30c32 -10.667 63.333 -23 94 -37s58 -31.167 82 -51.5s43.333 -45 58 -74s22 -64.167 22 -105.5c0 -48 -8.66699 -92.333 -26 -133
s-42.666 -76 -75.999 -106s-74.833 -53.333 -124.5 -70s-106.5 -25 -170.5 -25c-35.333 0 -69.5 3.16699 -102.5 9.5s-64.333 15 -94 26s-57.334 24.167 -83.001 39.5s-48.5 32 -68.5 50l50 82c6 10 13.5 17.833 22.5 23.5s20.167 8.5 33.5 8.5c14 0 27.833 -4.5 41.5 -13.5
s29.667 -18.833 48 -29.5s40.5 -20.5 66.5 -29.5s58.333 -13.5 97 -13.5c32 0 59.667 3.83301 83 11.5s42.666 18.167 57.999 31.5s26.666 28.5 33.999 45.5s11 35.167 11 54.5c0 26 -7.33301 47.333 -22 64s-34.167 31 -58.5 43s-52 22.667 -83 32s-62.5 19.333 -94.5 30
s-63.5 23 -94.5 37s-58.667 31.833 -83 53.5s-43.833 48 -58.5 79s-22 68.833 -22 113.5c0 40.667 8.16699 79.334 24.5 116.001s40.333 69 72 97s70.667 50.167 117 66.5s99.833 24.5 160.5 24.5c68.667 0 131 -11 187 -33s103 -52 141 -90z" />
    <glyph glyph-name="t" unicode="t" horiz-adv-x="731" 
d="M458 -16c-84.667 0 -149.834 23.832 -195.501 71.499s-68.5 114.834 -68.5 201.501v594h-112c-12 0 -22.333 3.83301 -31 11.5s-13 19.167 -13 34.5v87l165 24l47 295c3.33301 11.333 9 20.5 17 27.5s18.667 10.5 32 10.5h110v-335h283v-155h-283v-579
c0 -36.667 9 -64.667 27 -84s42 -29 72 -29c16.667 0 31 2.16699 43 6.5s22.333 9 31 14s16.167 9.66699 22.5 14s12.5 6.5 18.5 6.5c12 0 21.667 -6.66699 29 -20l64 -105c-33.333 -29.333 -72.666 -51.833 -117.999 -67.5s-92 -23.5 -140 -23.5z" />
    <glyph glyph-name="u" unicode="u" horiz-adv-x="1122" 
d="M991 1020v-1020h-130c-28.667 0 -47 13.667 -55 41l-16 95c-21.333 -22.667 -43.833 -43.334 -67.5 -62.001s-48.834 -34.667 -75.501 -48s-55.167 -23.666 -85.5 -30.999s-62.833 -11 -97.5 -11c-56 0 -105.333 9.33301 -148 28s-78.5 45 -107.5 79
s-50.833 74.833 -65.5 122.5s-22 100.167 -22 157.5v649h215v-649c0 -68.667 15.833 -122 47.5 -160s79.834 -57 144.501 -57c47.333 0 91.5 10.833 132.5 32.5s79.5 51.5 115.5 89.5v744h215z" />
    <glyph glyph-name="v" unicode="v" horiz-adv-x="1045" 
d="M1029 1020l-409.998 -1020h-194l-410 1020h177c16.667 0 30.5 -4.16699 41.5 -12.5s18.167 -18.166 21.5 -29.499l226 -594c9.33301 -28 17.666 -55.667 24.999 -83s13.666 -55 18.999 -83c5.33301 28 11.833 55.5 19.5 82.5s16.167 54.833 25.5 83.5l230 594
c4 12 11.333 22 22 30s23.667 12 39 12h168z" />
    <glyph glyph-name="w" unicode="w" horiz-adv-x="1589" 
d="M1564 1020l-327 -1020h-171c-20 0 -34 13 -42 39l-203 635c-5.33301 18 -10.166 36 -14.499 54s-8.16602 35.667 -11.499 53c-7.33301 -36 -16.333 -72 -27 -108l-206 -634c-7.33301 -26 -23 -39 -47 -39h-163l-327 1020h170c16.667 0 30.5 -4.16699 41.5 -12.5
s18.167 -18.166 21.5 -29.499l170 -594c6.66699 -27.333 12.5 -53.833 17.5 -79.5s9.5 -51.167 13.5 -76.5l21 76.5l23 79.5l191 597c3.33301 12 10.166 21.833 20.499 29.5s22.833 11.5 37.5 11.5h94c15.333 0 28.333 -3.83301 39 -11.5s17.667 -17.5 21 -29.5l186 -597
l22.5 -80c7 -26 13.5 -52 19.5 -78c4.66699 25.333 9.66699 51 15 77s11.666 53 18.999 81l173 594c4 12 11.333 22 22 30s23.667 12 39 12h162z" />
    <glyph glyph-name="x" unicode="x" horiz-adv-x="1021" 
d="M1007 0l-206 0.000976562c-16.667 0 -29.834 4.33301 -39.501 13s-17.5 18.334 -23.5 29.001l-235 377c-6 -22.667 -14 -42.334 -24 -59.001l-213 -318c-7.33301 -10.667 -15.5 -20.334 -24.5 -29.001s-20.833 -13 -35.5 -13h-192l353 526l-339 494h206
c16.667 0 28.834 -2.5 36.501 -7.5s14.5 -12.5 20.5 -22.5l231 -360c6 22 15.333 43 28 63l195 293c13.333 22.667 30.333 34 51 34h197l-339 -485z" />
    <glyph glyph-name="y" unicode="y" horiz-adv-x="1044" 
d="M1036 1020l-562.003 -1310c-7.33301 -15.333 -16.166 -27.333 -26.499 -36s-26.166 -13 -47.499 -13h-159l188 408l-416 951h187c18 0 31.833 -4.16699 41.5 -12.5s16.834 -18.166 21.501 -29.499l243 -579c6 -16.667 11.5 -33.167 16.5 -49.5
s9.83301 -33.166 14.5 -50.499l16 51c5.33301 16.667 11.333 33.334 18 50.001l233 578c4.66699 12 12.5 22 23.5 30s23.167 12 36.5 12h172z" />
    <glyph glyph-name="z" unicode="z" horiz-adv-x="912" 
d="M850 930c0 -15.333 -2.5 -30.333 -7.5 -45s-12.167 -27 -21.5 -37l-517 -681h529v-167h-778v90c0 10 2.33301 22 7 36s11.667 27.333 21 40l521 687h-519v167h765v-90z" />
    <glyph glyph-name="braceleft" unicode="{" horiz-adv-x="607" 
d="M485 1400c-49.333 0 -87.334 -15.6641 -114.001 -46.9971s-40 -74 -40 -128c0 -37.333 2.16699 -72.833 6.5 -106.5s9 -66.834 14 -99.501s9.66699 -64.834 14 -96.501s6.5 -63.5 6.5 -95.5c0 -24.667 -3.66699 -48.167 -11 -70.5s-17.666 -42.5 -30.999 -60.5
s-29.5 -33.5 -48.5 -46.5s-40.167 -22.5 -63.5 -28.5c46.667 -13.333 84 -38.666 112 -75.999s42 -81 42 -131c0 -32 -2.16699 -63.833 -6.5 -95.5s-9 -63.834 -14 -96.501s-9.66699 -66 -14 -100s-6.5 -69.333 -6.5 -106c0 -54 13.333 -96.5 40 -127.5
s64.667 -46.5 114 -46.5h14c9.33301 0 19.5 -3.66699 30.5 -11s16.5 -18.666 16.5 -33.999v-97h-53c-59.333 0 -110.833 8 -154.5 24s-80 38.5 -109 67.5s-50.667 63.667 -65 104s-21.5 84.833 -21.5 133.5c0 33.333 2.5 66.166 7.5 98.499s10.333 64.5 16 96.5s11 64 16 96
s7.5 64 7.5 96c0 42 -10.5 76 -31.5 102s-53.167 39 -96.5 39v127c43.333 0 75.5 13 96.5 39s31.5 60 31.5 102c0 32 -2.5 64 -7.5 96s-10.333 64 -16 96s-11 64.167 -16 96.5s-7.5 65.166 -7.5 98.499c0 48.667 7.16699 93.167 21.5 133.5s36 75 65 104
s65.333 51.5 109 67.5s95.167 24 154.5 24h53v-97c0 -15.333 -5.5 -26.5 -16.5 -33.5s-21.167 -10.5 -30.5 -10.5h-14z" />
    <glyph glyph-name="bar" unicode="|" horiz-adv-x="512" 
d="M173 1541h166v-1887h-166v1887z" />
    <glyph glyph-name="braceright" unicode="}" horiz-adv-x="607" 
d="M545 557c-43.333 0 -75.501 -13.0029 -96.501 -39.0029s-31.5 -60 -31.5 -102c0 -32 2.5 -64 7.5 -96s10.333 -64 16 -96s11 -64.167 16 -96.5s7.5 -65.166 7.5 -98.499c0 -48.667 -7.16699 -93.167 -21.5 -133.5s-36 -75 -65 -104s-65.333 -51.5 -109 -67.5
s-94.834 -24 -153.501 -24h-54v97c0 15.333 5.66699 26.666 17 33.999s21.333 11 30 11h15c48.667 0 86.5 15.5 113.5 46.5s40.5 73.5 40.5 127.5c0 36.667 -2.16699 72 -6.5 106s-9.16602 67.333 -14.499 100s-10.166 64.834 -14.499 96.501s-6.5 63.5 -6.5 95.5
c0 50 14 93.667 42 131s65.333 62.666 112 75.999c-23.333 6 -44.5 15.5 -63.5 28.5s-35.167 28.5 -48.5 46.5s-23.666 38.167 -30.999 60.5s-11 45.833 -11 70.5c0 32 2.16699 63.833 6.5 95.5s9.16602 63.834 14.499 96.501s10.166 65.834 14.499 99.501
s6.5 69.167 6.5 106.5c0 54 -13.5 96.667 -40.5 128s-64.833 47 -113.5 47h-15c-8.66699 0 -18.667 3.5 -30 10.5s-17 18.167 -17 33.5v97h54c58.667 0 109.834 -8 153.501 -24s80 -38.5 109 -67.5s50.667 -63.667 65 -104s21.5 -84.833 21.5 -133.5
c0 -33.333 -2.5 -66.166 -7.5 -98.499s-10.333 -64.5 -16 -96.5s-11 -64 -16 -96s-7.5 -64 -7.5 -96c0 -42 10.5 -76 31.5 -102s53.167 -39 96.5 -39v-127z" />
    <glyph glyph-name="asciitilde" unicode="~" horiz-adv-x="1160" 
d="M755 633c40 0 71.167 12.834 93.5 38.501s33.833 61.167 34.5 106.5h173c0 -48.667 -6.5 -92.834 -19.5 -132.501s-31.833 -73.667 -56.5 -102s-54.834 -50.333 -90.501 -66s-76.167 -23.5 -121.5 -23.5c-35.333 0 -69.5 5 -102.5 15s-64.5 21 -94.5 33l-85.5 33
c-27 10 -51.833 15 -74.5 15c-40 0 -71.167 -13 -93.5 -39s-33.833 -61.333 -34.5 -106h-173c0 48.667 6.5 92.834 19.5 132.501s31.833 73.667 56.5 102s54.834 50.166 90.501 65.499s76.167 23 121.5 23c34.667 0 68.667 -5 102 -15s65 -20.833 95 -32.5l85.5 -32.5
c27 -10 51.833 -15 74.5 -15z" />
    <glyph glyph-name="uni0400" unicode="&#x400;" horiz-adv-x="1152" 
d="M1070 189l-1 -189h-898v1440h898v-189h-663v-434h530v-183h-530v-445h664zM465 1857c12 0 22.5 -0.332031 31.5 -0.999023s17 -2.33398 24 -5.00098s13.5 -6.5 19.5 -11.5s12.333 -11.5 19 -19.5l222 -273h-155c-17.333 0 -30.833 1 -40.5 3s-20.167 8.33301 -31.5 19
l-316 288h227z" />
    <glyph glyph-name="afii10023" unicode="&#x401;" horiz-adv-x="1152" 
d="M1070 189l-1 -189h-898v1440h898v-189h-663v-434h530v-183h-530v-445h664zM542 1667c0 -16.667 -3.33301 -32.334 -10 -47.001s-15.667 -27.5 -27 -38.5s-24.666 -19.667 -39.999 -26s-31.333 -9.5 -48 -9.5c-16 0 -31.333 3.16699 -46 9.5s-27.5 15 -38.5 26
s-19.667 23.833 -26 38.5s-9.5 30.334 -9.5 47.001s3.16699 32.5 9.5 47.5s15 28.167 26 39.5s23.833 20.333 38.5 27s30 10 46 10c16.667 0 32.667 -3.33301 48 -10s28.666 -15.667 39.999 -27s20.333 -24.5 27 -39.5s10 -30.833 10 -47.5zM971 1667
c0 -16.667 -3.33301 -32.334 -10 -47.001s-15.5 -27.5 -26.5 -38.5s-23.833 -19.667 -38.5 -26s-30.334 -9.5 -47.001 -9.5c-17.333 0 -33.333 3.16699 -48 9.5s-27.667 15 -39 26s-20.166 23.833 -26.499 38.5s-9.5 30.334 -9.5 47.001s3.16699 32.5 9.5 47.5
s15.166 28.167 26.499 39.5s24.333 20.333 39 27s30.667 10 48 10c16.667 0 32.334 -3.33301 47.001 -10s27.5 -15.667 38.5 -27s19.833 -24.5 26.5 -39.5s10 -30.833 10 -47.5z" />
    <glyph glyph-name="afii10051" unicode="&#x402;" horiz-adv-x="1492" 
d="M940 834c90.667 0 168.666 -10.001 233.999 -30.001s119 -47.5 161 -82.5s72.833 -76.5 92.5 -124.5s29.5 -99.667 29.5 -155c0 -67.333 -11.5 -128.166 -34.5 -182.499s-56.667 -100.833 -101 -139.5s-98.666 -68.334 -162.999 -89.001s-137.5 -31 -219.5 -31h-91v185
h91c52.667 0 97.167 5.83301 133.5 17.5s65.833 28 88.5 49s39.167 45.667 49.5 74s15.5 59.166 15.5 92.499c0 36 -5 68.333 -15 97s-26.333 52.834 -49 72.501s-52.167 34.834 -88.5 45.501s-80.833 16 -133.5 16h-289v-649h-234v1252h-390v188h1059v-188h-435v-418h289z
" />
    <glyph glyph-name="afii10052" unicode="&#x403;" horiz-adv-x="1079" 
d="M1049 1257h-643v-1257h-235v1440h878v-183zM1016 1857l-325 -286.002c-12 -10.667 -23.333 -17.334 -34 -20.001s-24 -4 -40 -4h-155l220 273c6 8.66699 12 15.334 18 20.001s12.667 8.33398 20 11.001s15.5 4.33398 24.5 5.00098s19.5 1 31.5 1h240z" />
    <glyph glyph-name="afii10053" unicode="&#x404;" horiz-adv-x="1344" 
d="M1171 321c12.667 0 23.665 -5.00293 32.998 -15.0029l93 -101c-58.667 -70.667 -130.667 -125.167 -216 -163.5s-187.333 -57.5 -306 -57.5c-105.333 0 -200.5 18.167 -285.5 54.5s-157.5 87 -217.5 152s-106.167 142.5 -138.5 232.5s-48.5 189 -48.5 297
s17.167 207.167 51.5 297.5s82.666 168 144.999 233s137 115.5 224 151.5s182.833 54 287.5 54c104 0 195.833 -16.833 275.5 -50.5s148.834 -78.5 207.501 -134.5l-77 -109c-5.33301 -7.33301 -11.666 -13.666 -18.999 -18.999s-17.333 -8 -30 -8
c-13.333 0 -28.5 6.16699 -45.5 18.5s-38.667 26 -65 41s-59.333 28.667 -99 41s-89.167 18.5 -148.5 18.5c-62 0 -119.167 -9.66699 -171.5 -29s-98.666 -47.5 -138.999 -84.5s-73.5 -82.5 -99.5 -136.5s-43.333 -115.333 -52 -184h692v-176h-695
c7.33301 -73.333 24.166 -138.333 50.499 -195s60 -104.667 101 -144s88.167 -69.166 141.5 -89.499s110 -30.5 170 -30.5c40 0 75.833 2.16699 107.5 6.5s60.834 11.333 87.501 21s51.834 21.834 75.501 36.501s47.167 32.667 70.5 54c13.333 12 26.666 18 39.999 18z" />
    <glyph glyph-name="afii10054" unicode="&#x405;" horiz-adv-x="1091" 
d="M924 1194c-7.33301 -12 -14.9951 -20.835 -22.9951 -26.502s-18 -8.5 -30 -8.5c-12.667 0 -26.834 5.33301 -42.501 16s-35 22.5 -58 35.5s-50.167 25 -81.5 36s-68.666 16.5 -111.999 16.5c-40 0 -75.167 -5 -105.5 -15s-55.833 -24 -76.5 -42
s-36.167 -39.167 -46.5 -63.5s-15.5 -50.833 -15.5 -79.5c0 -36.667 9.66699 -67.167 29 -91.5s44.833 -45.166 76.5 -62.499s67.834 -32.5 108.501 -45.5l124.5 -41.5c42.333 -14.667 83.833 -31.334 124.5 -50.001s76.834 -42.334 108.501 -71.001
s57.167 -63.667 76.5 -105s29 -91.666 29 -150.999c0 -64 -11 -124 -33 -180s-53.833 -104.833 -95.5 -146.5s-93 -74.5 -154 -98.5s-130.5 -36 -208.5 -36c-46 0 -90.833 4.5 -134.5 13.5s-85.334 21.667 -125.001 38s-76.834 36.166 -111.501 59.499
s-65.667 49.333 -93 78l68 112c6 9.33301 13.667 16.666 23 21.999s19.666 8 30.999 8c15.333 0 32.333 -7.16699 51 -21.5s41.167 -30 67.5 -47s58.166 -32.667 95.499 -47s82 -21.5 134 -21.5c84.667 0 150.167 20.667 196.5 62s69.5 98.333 69.5 171
c0 40.667 -9.66699 73.834 -29 99.501s-44.833 47.167 -76.5 64.5s-67.834 32 -108.501 44l-124 38.5c-42 13.667 -83.333 29.667 -124 48s-76.834 42.333 -108.501 72s-57.167 66.334 -76.5 110.001s-29 98.167 -29 163.5c0 52 10.167 102.333 30.5 151
s50 91.834 89 129.501s87.167 67.834 144.5 90.501s122.666 34 195.999 34c82.667 0 158.5 -13 227.5 -39s128.5 -63 178.5 -111z" />
    <glyph glyph-name="afii10055" unicode="&#x406;" horiz-adv-x="577" 
d="M406 0h-235v1440h235v-1440z" />
    <glyph glyph-name="afii10056" unicode="&#x407;" horiz-adv-x="577" 
d="M406 0h-235v1440h235v-1440zM200 1667c0 -16.667 -3.33301 -32.334 -10 -47.001s-15.667 -27.5 -27 -38.5s-24.666 -19.667 -39.999 -26s-31.333 -9.5 -48 -9.5c-16 0 -31.333 3.16699 -46 9.5s-27.5 15 -38.5 26s-19.667 23.833 -26 38.5s-9.5 30.334 -9.5 47.001
s3.16699 32.5 9.5 47.5s15 28.167 26 39.5s23.833 20.333 38.5 27s30 10 46 10c16.667 0 32.667 -3.33301 48 -10s28.666 -15.667 39.999 -27s20.333 -24.5 27 -39.5s10 -30.833 10 -47.5zM629 1667c0 -16.667 -3.33301 -32.334 -10 -47.001s-15.5 -27.5 -26.5 -38.5
s-23.833 -19.667 -38.5 -26s-30.334 -9.5 -47.001 -9.5c-17.333 0 -33.333 3.16699 -48 9.5s-27.667 15 -39 26s-20.166 23.833 -26.499 38.5s-9.5 30.334 -9.5 47.001s3.16699 32.5 9.5 47.5s15.166 28.167 26.499 39.5s24.333 20.333 39 27s30.667 10 48 10
c16.667 0 32.334 -3.33301 47.001 -10s27.5 -15.667 38.5 -27s19.833 -24.5 26.5 -39.5s10 -30.833 10 -47.5z" />
    <glyph glyph-name="afii10057" unicode="&#x408;" horiz-adv-x="852" 
d="M695 506c0 -80.667 -9.83496 -153.165 -29.502 -217.498s-49 -119 -88 -164s-87.333 -79.667 -145 -104s-124.5 -36.5 -200.5 -36.5c-34.667 0 -69 2.16699 -103 6.5s-69.333 11.166 -106 20.499l12 140c2 13.333 7.16699 24 15.5 32s20.5 12 36.5 12
c12 0 27.5 -2.5 46.5 -7.5s43.833 -7.5 74.5 -7.5c40.667 0 76.834 6 108.501 18s58.334 30.833 80.001 56.5s38 58.667 49 99s16.5 89.166 16.5 146.499v940h233v-934z" />
    <glyph glyph-name="afii10058" unicode="&#x409;" horiz-adv-x="2121" 
d="M1554 185c52.667 0 97.167 5.83203 133.5 17.499s65.833 28 88.5 49s39.167 45.667 49.5 74s15.5 59.166 15.5 92.499c0 36 -5 68.333 -15 97s-26.333 52.834 -49 72.501s-52.167 34.834 -88.5 45.501s-80.833 16 -133.5 16h-256v-464h255zM1555 833.999
c90.667 0 168.669 -10.001 234.002 -30.001s119 -47.5 161 -82.5s72.833 -76.5 92.5 -124.5s29.5 -99.667 29.5 -155c0 -67.333 -11.5 -128.166 -34.5 -182.499s-56.667 -100.833 -101 -139.5s-98.666 -68.334 -162.999 -89.001s-137.5 -31 -219.5 -31h-490v1257h-432
c-9.33301 -182 -22.333 -340 -39 -474s-36.5 -248 -59.5 -342s-49 -170.667 -78 -230s-61 -105.666 -96 -138.999s-72.5 -56 -112.5 -68s-82.333 -18 -127 -18c-84 0 -126 15 -126 45v148h74c24.667 0 49.5 4.5 74.5 13.5s49.167 28.167 72.5 57.5
s45.666 71.833 66.999 127.5s40.666 130.167 57.999 223.5s32.166 208.5 44.499 345.5s21.5 301.5 27.5 493.5h887v-606h256z" />
    <glyph glyph-name="afii10059" unicode="&#x40a;" horiz-adv-x="2185" 
d="M1619 185c52.667 0 97.167 5.83203 133.5 17.499s65.833 28 88.5 49s39 45.667 49 74s15 59.166 15 92.499c0 36 -5 68.333 -15 97s-26.333 52.834 -49 72.501s-52.167 34.834 -88.5 45.501s-80.833 16 -133.5 16h-256v-464h256zM1619 833.999
c90.667 0 168.667 -10 234 -30s119 -47.5 161 -82.5s72.833 -76.5 92.5 -124.5s29.5 -99.667 29.5 -155c0 -67.333 -11.5 -128.166 -34.5 -182.499s-56.667 -100.833 -101 -139.5s-98.5 -68.334 -162.5 -89.001s-137 -31 -219 -31h-490v641h-723v-641h-235v1440h235v-630
h723v630h234v-606h256z" />
    <glyph glyph-name="afii10060" unicode="&#x40b;" horiz-adv-x="1505" 
d="M651 827c76 19.333 148.003 33.998 216.003 43.998s130.667 13.833 188 11.5s109.166 -11.666 155.499 -27.999s85.5 -41.5 117.5 -75.5s56.667 -77.667 74 -131s26 -117.666 26 -192.999v-456h-235v457c0 60 -8.5 109.333 -25.5 148s-46.333 66.5 -88 83.5
s-97.334 23 -167.001 18s-156.834 -20.833 -261.501 -47.5v-658h-234v1252h-390v188h1059v-188h-435v-425z" />
    <glyph glyph-name="afii10061" unicode="&#x40c;" horiz-adv-x="1368" 
d="M1359 0h-210.996c-22.667 0 -41.667 6 -57 18s-29.666 29.667 -42.999 53l-341 503c-8.66699 13.333 -17.334 24.5 -26.001 33.5s-18.334 16.333 -29.001 22s-22.667 9.66699 -36 12s-28.333 3.5 -45 3.5h-166v-645h-234v1440h234v-616h141c29.333 0 54 4.66699 74 14
s39.667 27.333 59 54l345 484c11.333 18.667 25.166 34 41.499 46s35.833 18 58.5 18h198l-412 -584c-16.667 -24.667 -35.667 -45 -57 -61s-45 -28.667 -71 -38c37.333 -10 69.166 -26.333 95.499 -49s51.166 -54 74.499 -94zM1120 1857l-325 -286.002
c-12 -10.667 -23.333 -17.334 -34 -20.001s-24 -4 -40 -4h-155l220 273c6 8.66699 12 15.334 18 20.001s12.667 8.33398 20 11.001s15.5 4.33398 24.5 5.00098s19.5 1 31.5 1h240z" />
    <glyph glyph-name="uni040D" unicode="&#x40d;" horiz-adv-x="1535" 
d="M1363 1440l0.000976562 -1440h-234v956c0 32 0.833008 65.333 2.5 100s5.16699 72 10.5 112c-12.667 -34.667 -26.167 -66.834 -40.5 -96.501s-28.5 -55.834 -42.5 -78.501l-610 -920c-5.33301 -8.66699 -11.5 -17.334 -18.5 -26.001s-15 -16.5 -24 -23.5
s-18.5 -12.667 -28.5 -17s-20.667 -6.5 -32 -6.5h-175v1440h235v-955c0 -32 -0.833008 -65.5 -2.5 -100.5s-5.16699 -71.833 -10.5 -110.5c12.667 34 26.167 65.833 40.5 95.5s28.166 55.5 41.499 77.5l610 920c5.33301 8.66699 11.5 17.334 18.5 26.001s15 16.5 24 23.5
s18.5 12.667 28.5 17s20.667 6.5 32 6.5h175zM607.001 1856c12 0 22.5 -0.332031 31.5 -0.999023s17 -2.33398 24 -5.00098s13.5 -6.5 19.5 -11.5s12.333 -11.5 19 -19.5l222 -273h-155c-17.333 0 -30.833 1 -40.5 3s-20.167 8.33301 -31.5 19l-316 288h227z" />
    <glyph glyph-name="afii10062" unicode="&#x40e;" horiz-adv-x="1271" 
d="M1281 1440l-582.998 -1245c-19.333 -41.333 -40.166 -75.5 -62.499 -102.5s-46.333 -48.333 -72 -64s-53.167 -26.667 -82.5 -33s-61 -9.5 -95 -9.5c-83.333 0 -125 15 -125 45v148h73c16 0 32 1.66699 48 5s31.5 9.16602 46.5 17.499s29.5 20 43.5 35s27 34.5 39 58.5
l63 130l-578 1015h219c20 0 36 -5 48 -15s22.333 -22.667 31 -38l316 -584c27.333 -51.333 49.666 -105.333 66.999 -162c7.33301 28 16.166 55.333 26.499 82s21.833 53.667 34.5 81l272 583c6 13.333 15.667 25.5 29 36.5s29.666 16.5 48.999 16.5h193zM661.002 1639
c26 0 47.8291 2.66699 65.4961 8s31.834 14.166 42.501 26.499s18.334 28.833 23.001 49.5s7 46.667 7 78h126c15.333 0 26.666 -6.66699 33.999 -20s11 -27.666 11 -42.999c0 -33.333 -7.16699 -63 -21.5 -89s-34.833 -47.833 -61.5 -65.5s-59.167 -31 -97.5 -40
s-81.166 -13.5 -128.499 -13.5s-90.166 4.5 -128.499 13.5s-70.833 22.333 -97.5 40s-47.167 39.5 -61.5 65.5s-21.5 55.667 -21.5 89c0 15.333 3.66699 29.666 11 42.999s18.666 20 33.999 20h126c0 -31.333 2.33301 -57.333 7 -78s12.334 -37.167 23.001 -49.5
s24.834 -21.166 42.501 -26.499s39.5 -8 65.5 -8z" />
    <glyph glyph-name="afii10145" unicode="&#x40f;" horiz-adv-x="1481" 
d="M1310 1440v-1440h-463v-278c0 -20 -6.83301 -36.333 -20.5 -49s-31.5 -19 -53.5 -19h-140v346h-462v1440h235v-1257h669v1257h235z" />
    <glyph glyph-name="afii10017" unicode="&#x410;" horiz-adv-x="1367" 
d="M931 540l-199.001 525.999c-7.33301 20 -15.333 43.167 -24 69.5s-17 54.833 -25 85.5c-7.33301 -31.333 -15.166 -60.166 -23.499 -86.499s-16.5 -49.5 -24.5 -69.5l-198 -525h494zM1373 -0.000976562h-181.002c-20 0 -36.5 5.16699 -49.5 15.5
s-22.5 23.166 -28.5 38.499l-120 318h-621l-120 -318c-5.33301 -13.333 -14.666 -25.666 -27.999 -36.999s-29.666 -17 -48.999 -17h-182l571 1440h237z" />
    <glyph glyph-name="afii10018" unicode="&#x411;" horiz-adv-x="1250" 
d="M660 185c52.667 0 97.167 5.83203 133.5 17.499s65.833 28 88.5 49s39.167 45.667 49.5 74s15.5 59.166 15.5 92.499c0 36 -5 68.333 -15 97s-26.333 52.834 -49 72.501s-52.167 34.834 -88.5 45.501s-80.833 16 -133.5 16h-256v-464h255zM661 833.999
c90.667 0 168.5 -10 233.5 -30s118.5 -47.5 160.5 -82.5s72.833 -76.5 92.5 -124.5s29.5 -99.667 29.5 -155c0 -67.333 -11.5 -128.166 -34.5 -182.499s-56.5 -100.833 -100.5 -139.5s-98.167 -68.334 -162.5 -89.001s-137.5 -31 -219.5 -31h-489v1440h956v-183h-722v-423
h256z" />
    <glyph glyph-name="afii10019" unicode="&#x412;" horiz-adv-x="1306" 
d="M695 185c52.667 0 97.167 6.16797 133.5 18.501s66 29.166 89 50.499s39.667 46.5 50 75.5s15.5 60.167 15.5 93.5c0 68 -23.167 121.5 -69.5 160.5s-119.5 58.5 -219.5 58.5h-289v-457h290zM405 1257v-450h234c100 0 174.667 19.333 224 58s74 94.334 74 167.001
c0 79.333 -23.167 136.666 -69.5 171.999s-118.833 53 -217.5 53h-245zM650 1440c92 0 170.669 -8.83203 236.002 -26.499s119 -42.834 161 -75.501s72.833 -72.5 92.5 -119.5s29.5 -99.833 29.5 -158.5c0 -34 -5.16699 -66.833 -15.5 -98.5s-26.333 -61.334 -48 -89.001
s-48.834 -52.5 -81.501 -74.5s-71.334 -40.333 -116.001 -55c204 -43.333 306 -151.666 306 -324.999c0 -61.333 -11.5 -117.5 -34.5 -168.5s-56.333 -95 -100 -132s-97.5 -65.833 -161.5 -86.5s-137 -31 -219 -31h-528v1440h479z" />
    <glyph glyph-name="afii10020" unicode="&#x413;" horiz-adv-x="1079" 
d="M1049 1257h-643v-1257h-235v1440h878v-183z" />
    <glyph glyph-name="afii10021" unicode="&#x414;" horiz-adv-x="1595" 
d="M1084 183v1074h-432c-8 -151.333 -19 -284.833 -33 -400.5s-30.5 -216.667 -49.5 -303s-40 -159.666 -63 -219.999s-47.833 -110.5 -74.5 -150.5h652zM1548 182.999l0.00195312 -461.001c0 -20 -6.83301 -36.333 -20.5 -49s-31.5 -19 -53.5 -19h-140v346h-1106v-278
c0 -20 -6.83301 -36.333 -20.5 -49s-31.5 -19 -53.5 -19h-140v529h152c19.333 10 38.833 26 58.5 48s38.5 53.333 56.5 94s35.167 92 51.5 154s31.166 137.833 44.499 227.5s24.666 194.834 33.999 315.501s16.333 260 21 418h887v-1257h229z" />
    <glyph glyph-name="afii10022" unicode="&#x415;" horiz-adv-x="1152" 
d="M1070 189l-1 -189h-898v1440h898v-189h-663v-434h530v-183h-530v-445h664z" />
    <glyph glyph-name="afii10024" unicode="&#x416;" horiz-adv-x="2108" 
d="M2098 0h-155.003c-34 0 -63.167 7.5 -87.5 22.5s-43.833 35.167 -58.5 60.5l-328 482c-18 28.667 -38.333 49.167 -61 61.5s-51 18.5 -85 18.5h-160v-645h-219v645h-159c-34 0 -62.333 -6.16699 -85 -18.5s-43 -32.833 -61 -61.5l-328 -482
c-14.667 -25.333 -34.167 -45.5 -58.5 -60.5s-53.5 -22.5 -87.5 -22.5h-156l401 616c22 38 46.167 68.333 72.5 91s56.5 39.667 90.5 51c-28.667 11.333 -53.167 26.5 -73.5 45.5s-40.166 42.833 -59.499 71.5l-394 565h184c23.333 0 45.333 -6 66 -18s37 -28.667 49 -50
l326 -475c19.333 -29.333 40 -48.833 62 -58.5s47.333 -14.5 76 -14.5h135v616h219v-616h136c28.667 0 54 4.83301 76 14.5s42.667 29.167 62 58.5l325 475c12.667 21.333 29.167 38 49.5 50s42.5 18 66.5 18h183l-393 -565c-19.333 -28.667 -39.166 -52.5 -59.499 -71.5
s-45.166 -34.167 -74.499 -45.5c34 -11.333 64.333 -28.333 91 -51s51 -53 73 -91z" />
    <glyph glyph-name="afii10025" unicode="&#x417;" horiz-adv-x="1157" 
d="M88 1305c55.333 48 120.172 85.0059 194.505 111.006s157.833 39 250.5 39c76 0 144.5 -9.16699 205.5 -27.5s113 -44 156 -77s76 -72.333 99 -118s34.5 -95.834 34.5 -150.501c0 -69.333 -16.5 -131.5 -49.5 -186.5s-81.167 -98.833 -144.5 -131.5
c34.667 -16 66.334 -35 95.001 -57s53.167 -46.5 73.5 -73.5s36.166 -56.333 47.499 -88s17 -65.167 17 -100.5c0 -64 -11.833 -123.833 -35.5 -179.5s-58.334 -104.334 -104.001 -146.001s-101.5 -74.334 -167.5 -98.001s-141.333 -35.5 -226 -35.5
c-50.667 0 -99.834 4.5 -147.501 13.5s-92.667 21.667 -135 38s-82 36.166 -119 59.499s-70.5 49.333 -100.5 78l68 112c6 9.33301 13.667 16.666 23 21.999s19.666 8 30.999 8c10.667 0 22 -3.33301 34 -10s25.833 -15.167 41.5 -25.5l52.5 -33
c19.333 -11.667 41.666 -22.667 66.999 -33s53.666 -18.833 84.999 -25.5s66.666 -10 105.999 -10c98 0 173.833 21.667 227.5 65s80.5 106.666 80.5 189.999c0 34.667 -7 66.167 -21 94.5s-34 52.5 -60 72.5s-57.5 35.5 -94.5 46.5s-78.5 16.167 -124.5 15.5h-200l-1 191
h187c41.333 0 79 4.66699 113 14s63 22.833 87 40.5s42.5 39.334 55.5 65.001s19.5 55.167 19.5 88.5c0 30 -6.16699 57.167 -18.5 81.5s-30.166 45.166 -53.499 62.499s-52.333 30.833 -87 40.5s-74 14.5 -118 14.5c-51.333 0 -95 -5.5 -131 -16.5s-67 -23 -93 -36
s-47.667 -24.833 -65 -35.5s-32.333 -16 -45 -16c-12 0 -21.833 2.83301 -29.5 8.5s-15.167 14.5 -22.5 26.5z" />
    <glyph glyph-name="afii10026" unicode="&#x418;" horiz-adv-x="1535" 
d="M1363 1440l0.000976562 -1440h-234v956c0 32 0.833008 65.333 2.5 100s5.16699 72 10.5 112c-12.667 -34.667 -26.167 -66.834 -40.5 -96.501s-28.5 -55.834 -42.5 -78.501l-610 -920c-5.33301 -8.66699 -11.5 -17.334 -18.5 -26.001s-15 -16.5 -24 -23.5
s-18.5 -12.667 -28.5 -17s-20.667 -6.5 -32 -6.5h-175v1440h235v-955c0 -32 -0.833008 -65.5 -2.5 -100.5s-5.16699 -71.833 -10.5 -110.5c12.667 34 26.167 65.833 40.5 95.5s28.166 55.5 41.499 77.5l610 920c5.33301 8.66699 11.5 17.334 18.5 26.001s15 16.5 24 23.5
s18.5 12.667 28.5 17s20.667 6.5 32 6.5h175z" />
    <glyph glyph-name="afii10027" unicode="&#x419;" horiz-adv-x="1535" 
d="M1363 1440l0.000976562 -1440h-234v956c0 32 0.833008 65.333 2.5 100s5.16699 72 10.5 112c-12.667 -34.667 -26.167 -66.834 -40.5 -96.501s-28.5 -55.834 -42.5 -78.501l-610 -920c-5.33301 -8.66699 -11.5 -17.334 -18.5 -26.001s-15 -16.5 -24 -23.5
s-18.5 -12.667 -28.5 -17s-20.667 -6.5 -32 -6.5h-175v1440h235v-955c0 -32 -0.833008 -65.5 -2.5 -100.5s-5.16699 -71.833 -10.5 -110.5c12.667 34 26.167 65.833 40.5 95.5s28.166 55.5 41.499 77.5l610 920c5.33301 8.66699 11.5 17.334 18.5 26.001s15 16.5 24 23.5
s18.5 12.667 28.5 17s20.667 6.5 32 6.5h175zM776.001 1638c26 0 47.8291 2.66699 65.4961 8s31.834 14.166 42.501 26.499s18.334 28.833 23.001 49.5s7 46.667 7 78h126c15.333 0 26.666 -6.66699 33.999 -20s11 -27.666 11 -42.999c0 -33.333 -7.16699 -63 -21.5 -89
s-34.833 -47.833 -61.5 -65.5s-59.167 -31 -97.5 -40s-81.166 -13.5 -128.499 -13.5s-90.166 4.5 -128.499 13.5s-70.833 22.333 -97.5 40s-47.167 39.5 -61.5 65.5s-21.5 55.667 -21.5 89c0 15.333 3.66699 29.666 11 42.999s18.666 20 33.999 20h126
c0 -31.333 2.33301 -57.333 7 -78s12.334 -37.167 23.001 -49.5s24.834 -21.166 42.501 -26.499s39.5 -8 65.5 -8z" />
    <glyph glyph-name="afii10028" unicode="&#x41a;" horiz-adv-x="1368" 
d="M1359 0h-210.996c-22.667 0 -41.667 6 -57 18s-29.666 29.667 -42.999 53l-341 503c-8.66699 13.333 -17.334 24.5 -26.001 33.5s-18.334 16.333 -29.001 22s-22.667 9.66699 -36 12s-28.333 3.5 -45 3.5h-166v-645h-234v1440h234v-616h141c29.333 0 54 4.66699 74 14
s39.667 27.333 59 54l345 484c11.333 18.667 25.166 34 41.499 46s35.833 18 58.5 18h198l-412 -584c-16.667 -24.667 -35.667 -45 -57 -61s-45 -28.667 -71 -38c37.333 -10 69.166 -26.333 95.499 -49s51.166 -54 74.499 -94z" />
    <glyph glyph-name="afii10029" unicode="&#x41b;" horiz-adv-x="1470" 
d="M1299 0l-234.997 -0.000976562v1257h-432c-9.33301 -182 -22.333 -340 -39 -474s-36.5 -248 -59.5 -342s-49 -170.667 -78 -230s-61 -105.666 -96 -138.999s-72.5 -56 -112.5 -68s-82.333 -18 -127 -18c-84 0 -126 15 -126 45v148h74c24.667 0 49.5 4.5 74.5 13.5
s49.167 28.167 72.5 57.5s45.666 71.833 66.999 127.5s40.666 130.167 57.999 223.5s32.166 208.5 44.499 345.5s21.5 301.5 27.5 493.5h887v-1440z" />
    <glyph glyph-name="afii10030" unicode="&#x41c;" horiz-adv-x="1874" 
d="M1703 1440l0.00195312 -1440h-206v987c0 16 0.5 33.5 1.5 52.5s2.5 38.167 4.5 57.5l-463 -855c-18 -35.333 -45.667 -53 -83 -53h-33c-38 0 -65.667 17.667 -83 53l-470 857c2 -19.333 3.5 -38.666 4.5 -57.999s1.5 -37.333 1.5 -54v-987h-206v1440h175
c20.667 0 36.667 -1.83301 48 -5.5s21.666 -14.834 30.999 -33.501l462 -837c10 -19.333 19.5 -39.166 28.5 -59.499s17.167 -41.166 24.5 -62.499c8 21.333 16.5 42.5 25.5 63.5s18.5 41.167 28.5 60.5l455 835c9.33301 18.667 19.666 29.834 30.999 33.501
s27.333 5.5 48 5.5h175z" />
    <glyph glyph-name="afii10031" unicode="&#x41d;" horiz-adv-x="1535" 
d="M1363 1440v-1440h-234v641h-723v-641h-235v1440h235v-630h723v630h234z" />
    <glyph glyph-name="afii10032" unicode="&#x41e;" horiz-adv-x="1609" 
d="M1524 720c0 -106.667 -17.333 -205 -52 -295s-83.5 -167.5 -146.5 -232.5s-138.667 -115.833 -227 -152.5s-186.5 -55 -294.5 -55c-107.333 0 -205.166 18.333 -293.499 55s-164.166 87.5 -227.499 152.5s-112.333 142.5 -147 232.5s-52 188.333 -52 295
s17.333 205 52 295s83.667 167.667 147 233s139.166 116.333 227.499 153s186.166 55 293.499 55c108 0 206.167 -18.333 294.5 -55s164 -87.667 227 -153s111.833 -143 146.5 -233s52 -188.333 52 -295zM1285 720c0 82.667 -11.167 157 -33.5 223s-54.333 122 -96 168
s-92.167 81.333 -151.5 106s-126 37 -200 37c-73.333 0 -139.666 -12.333 -198.999 -37s-110 -60 -152 -106s-74.333 -102 -97 -168s-34 -140.333 -34 -223c0 -83.333 11.333 -158 34 -224s55 -121.833 97 -167.5s92.667 -80.667 152 -105s125.666 -36.5 198.999 -36.5
c74 0 140.667 12.167 200 36.5s109.833 59.333 151.5 105s73.667 101.5 96 167.5s33.5 140.667 33.5 224z" />
    <glyph glyph-name="afii10033" unicode="&#x41f;" horiz-adv-x="1481" 
d="M1310 0h-235v1257h-669v-1257h-235v1440h1139v-1440z" />
    <glyph glyph-name="afii10034" unicode="&#x420;" horiz-adv-x="1221" 
d="M619 706c52 0 97.834 6.66895 137.501 20.002s72.667 32.166 99 56.499s46.166 53.833 59.499 88.5s20 73.334 20 116.001c0 42 -6.5 79.667 -19.5 113s-32.5 61.666 -58.5 84.999s-58.833 41.166 -98.5 53.499s-86.167 18.5 -139.5 18.5h-214v-551h214zM619.001 1440
c94 0 175.5 -10.999 244.5 -32.999s126 -52.833 171 -92.5s78.5 -87.334 100.5 -143.001s33 -117.167 33 -184.5c0 -68.667 -11.667 -131.5 -35 -188.5s-58 -106 -104 -147s-103.167 -73 -171.5 -96s-147.833 -34.5 -238.5 -34.5h-214v-521h-234v1440h448z" />
    <glyph glyph-name="afii10035" unicode="&#x421;" horiz-adv-x="1329" 
d="M1171 321c12.667 0 23.6641 -5.00195 32.9971 -15.002l93 -101c-58.667 -70.667 -130.667 -125.167 -216 -163.5s-187.333 -57.5 -306 -57.5c-105.333 0 -200.5 18.167 -285.5 54.5s-157.5 87 -217.5 152s-106.167 142.5 -138.5 232.5s-48.5 189 -48.5 297
s17.167 207.167 51.5 297.5s82.666 168 144.999 233s137 115.5 224 151.5s182.833 54 287.5 54c104 0 195.833 -16.833 275.5 -50.5s148.834 -78.5 207.501 -134.5l-77 -109c-5.33301 -7.33301 -11.666 -13.666 -18.999 -18.999s-17.333 -8 -30 -8
c-13.333 0 -28.5 6.16699 -45.5 18.5s-38.667 26 -65 41s-59.333 28.667 -99 41s-89.167 18.5 -148.5 18.5c-68.667 0 -131.667 -12 -189 -36s-106.666 -59 -147.999 -105s-73.5 -102 -96.5 -168s-34.5 -141 -34.5 -225c0 -84.667 12 -160.167 36 -226.5
s57 -122.333 99 -168s91.333 -80.5 148 -104.5s117.667 -36 183 -36c40 0 75.833 2.16699 107.5 6.5s60.834 11.333 87.501 21s51.834 21.834 75.501 36.501s47.167 32.667 70.5 54c13.333 12 26.666 18 39.999 18z" />
    <glyph glyph-name="afii10036" unicode="&#x422;" horiz-adv-x="1191" 
d="M1162 1245h-449v-1245h-233v1245h-450v195h1132v-195z" />
    <glyph glyph-name="afii10037" unicode="&#x423;" horiz-adv-x="1271" 
d="M1281 1440l-582.998 -1245c-19.333 -41.333 -40.166 -75.5 -62.499 -102.5s-46.333 -48.333 -72 -64s-53.167 -26.667 -82.5 -33s-61 -9.5 -95 -9.5c-83.333 0 -125 15 -125 45v148h73c16 0 32 1.66699 48 5s31.5 9.16602 46.5 17.499s29.5 20 43.5 35s27 34.5 39 58.5
l63 130l-578 1015h219c20 0 36 -5 48 -15s22.333 -22.667 31 -38l316 -584c27.333 -51.333 49.666 -105.333 66.999 -162c7.33301 28 16.166 55.333 26.499 82s21.833 53.667 34.5 81l272 583c6 13.333 15.667 25.5 29 36.5s29.666 16.5 48.999 16.5h193z" />
    <glyph glyph-name="afii10038" unicode="&#x424;" horiz-adv-x="1588" 
d="M905 356c56.667 0.666992 108.5 11.666 155.5 32.999s87.333 50 121 86s59.667 77.833 78 125.5s27.5 98.834 27.5 153.501c0 54 -9.16699 105 -27.5 153s-44.333 90 -78 126s-74 64.5 -121 85.5s-98.833 32.167 -155.5 33.5v-796zM684 1152
c-57.333 -1.33301 -109.5 -12.499 -156.5 -33.499s-87.167 -49.5 -120.5 -85.5s-59.166 -78 -77.499 -126s-27.5 -99 -27.5 -153c0 -54.667 9.16699 -105.834 27.5 -153.501s44.166 -89.5 77.499 -125.5s73.5 -64.667 120.5 -86s99.167 -32.333 156.5 -33v796zM905 1334
c60 -2 117.003 -10.335 171.003 -25.002s103.667 -34.667 149 -60s86.166 -55.666 122.499 -90.999s67.166 -74.166 92.499 -116.499s44.833 -87.833 58.5 -136.5s20.5 -99 20.5 -151c0 -78.667 -15 -152.667 -45 -222s-72 -130.166 -126 -182.499
s-118.667 -94.166 -194 -125.499s-158.333 -48.333 -249 -51v-173h-221v173c-90.667 2.66699 -173.834 19.667 -249.501 51s-140.667 73.166 -195 125.499s-96.5 113.166 -126.5 182.499s-45 143.333 -45 222s15.167 152.667 45.5 222s72.833 130 127.5 182
s119.667 93.667 195 125s158 48.333 248 51v169h221v-169z" />
    <glyph glyph-name="afii10039" unicode="&#x425;" horiz-adv-x="1320" 
d="M1308 0h-233c-16 -0 -29 4.33301 -39 13s-18 18.334 -24 29.001l-358 577c-2.66699 -8 -5.5 -15.667 -8.5 -23s-6.5 -14.333 -10.5 -21l-346 -533c-7.33301 -10.667 -15.5 -20.334 -24.5 -29.001s-20.833 -13 -35.5 -13h-218l486 740l-466 700h232
c16.667 0 28.834 -2.5 36.501 -7.5s14.5 -12.5 20.5 -22.5l350 -550l10 24c3.33301 8 7.66602 16.333 12.999 25l326 497c6.66699 11.333 14 19.833 22 25.5s17.667 8.5 29 8.5h223l-470 -690z" />
    <glyph glyph-name="afii10040" unicode="&#x426;" horiz-adv-x="1575" 
d="M1523 183v-461c0 -20 -7 -36.333 -21 -49s-32 -19 -54 -19h-139v346h-1138v1440h235v-1257h669v1257h235v-1257h213z" />
    <glyph glyph-name="afii10041" unicode="&#x427;" horiz-adv-x="1338" 
d="M1167 1440l0.000976562 -1440h-235v598c-77.333 -20 -152 -35.167 -224 -45.5s-139.333 -14.5 -202 -12.5s-119.834 11.167 -171.501 27.5s-96 41.5 -133 75.5s-65.667 77.5 -86 130.5s-30.5 117.5 -30.5 193.5v473h234v-473c0 -60.667 11.333 -110.334 34 -149.001
s58.667 -66.334 108 -83.001s112.833 -22.334 190.5 -17.001s171.167 21.666 280.5 48.999v673h235z" />
    <glyph glyph-name="afii10042" unicode="&#x428;" horiz-adv-x="2162" 
d="M1991 1440v-1440h-1820v1440h235v-1257h556v1257h235v-1257h559v1257h235z" />
    <glyph glyph-name="afii10043" unicode="&#x429;" horiz-adv-x="2256" 
d="M2203 183v-461c0 -20 -6.83301 -36.333 -20.5 -49s-31.5 -19 -53.5 -19h-140v346h-1818v1440h235v-1257h556v1257h235v-1257h559v1257h235v-1257h212z" />
    <glyph glyph-name="afii10044" unicode="&#x42a;" horiz-adv-x="1494" 
d="M928 185c52.667 0 97.167 5.83203 133.5 17.499s65.833 28 88.5 49s39.167 45.667 49.5 74s15.5 59.166 15.5 92.499c0 36 -5 68.333 -15 97s-26.333 52.834 -49 72.501s-52.167 34.834 -88.5 45.501s-80.833 16 -133.5 16h-256v-464h255zM929 833.999
c90.667 0 168.5 -10 233.5 -30s118.5 -47.5 160.5 -82.5s72.833 -76.5 92.5 -124.5s29.5 -99.667 29.5 -155c0 -67.333 -11.5 -128.166 -34.5 -182.499s-56.5 -100.833 -100.5 -139.5s-98.167 -68.334 -162.5 -89.001s-137.5 -31 -219.5 -31h-489v1251h-410v189h644v-606
h256z" />
    <glyph glyph-name="afii10045" unicode="&#x42b;" horiz-adv-x="1819" 
d="M660 185c52.667 0 97.167 5.83203 133.5 17.499s65.833 28 88.5 49s39.167 45.667 49.5 74s15.5 59.166 15.5 92.499c0 36 -5 68.333 -15 97s-26.333 52.834 -49 72.501s-52.167 34.834 -88.5 45.501s-80.833 16 -133.5 16h-256v-464h255zM661 833.999
c90.667 0 168.5 -10 233.5 -30s118.5 -47.5 160.5 -82.5s72.833 -76.5 92.5 -124.5s29.5 -99.667 29.5 -155c0 -67.333 -11.5 -128.166 -34.5 -182.499s-56.5 -100.833 -100.5 -139.5s-98.167 -68.334 -162.5 -89.001s-137.5 -31 -219.5 -31h-489v1440h234v-606h256z
M1648 -0.000976562h-235v1440h235v-1440z" />
    <glyph glyph-name="afii10046" unicode="&#x42c;" horiz-adv-x="1227" 
d="M660 185c52.667 0 97.167 5.83203 133.5 17.499s65.833 28 88.5 49s39.167 45.667 49.5 74s15.5 59.166 15.5 92.499c0 36 -5 68.333 -15 97s-26.333 52.834 -49 72.501s-52.167 34.834 -88.5 45.501s-80.833 16 -133.5 16h-256v-464h255zM661 833.999
c90.667 0 168.5 -10 233.5 -30s118.5 -47.5 160.5 -82.5s72.833 -76.5 92.5 -124.5s29.5 -99.667 29.5 -155c0 -67.333 -11.5 -128.166 -34.5 -182.499s-56.5 -100.833 -100.5 -139.5s-98.167 -68.334 -162.5 -89.001s-137.5 -31 -219.5 -31h-489v1440h234v-606h256z" />
    <glyph glyph-name="afii10047" unicode="&#x42d;" horiz-adv-x="1343" 
d="M67 1271c58.667 56 127.837 100.836 207.504 134.503s171.5 50.5 275.5 50.5c104.667 0 200.5 -18 287.5 -54s161.667 -86.5 224 -151.5s110.666 -142.667 144.999 -233s51.5 -189.5 51.5 -297.5s-16.333 -207 -49 -297s-79 -167.5 -139 -232.5
s-132.5 -115.667 -217.5 -152s-179.833 -54.5 -284.5 -54.5c-119.333 0 -221.333 19.167 -306 57.5s-156.334 92.833 -215.001 163.5l92 101c9.33301 10 20.666 15 33.999 15c12.667 0 25.667 -6 39 -18c23.333 -21.333 46.833 -39.333 70.5 -54s49 -26.834 76 -36.501
s56.333 -16.667 88 -21s67.167 -6.5 106.5 -6.5c60 0 116.667 10.167 170 30.5s100.5 50.166 141.5 89.499s74.667 87.333 101 144s43.166 121.667 50.499 195h-695v176h693c-8.66699 68.667 -26.167 130 -52.5 184s-59.5 99.5 -99.5 136.5s-86.333 65.167 -139 84.5
s-110 29 -172 29c-59.333 0 -108.666 -6.16699 -147.999 -18.5s-72.333 -26 -99 -41s-48.334 -28.667 -65.001 -41s-32 -18.5 -46 -18.5c-12.667 0 -22.5 2.66699 -29.5 8s-13.167 11.666 -18.5 18.999z" />
    <glyph glyph-name="afii10048" unicode="&#x42e;" horiz-adv-x="2112" 
d="M1355 181c66.667 0 126.667 12.5 180 37.5s98.5 60.667 135.5 107s65.5 102.833 85.5 169.5s30 141.667 30 225c0 82.667 -10 157.5 -30 224.5s-48.5 123.833 -85.5 170.5s-82.167 82.667 -135.5 108s-113.333 38 -180 38s-126.5 -12.667 -179.5 -38
s-98.167 -61.333 -135.5 -108s-66 -103.5 -86 -170.5s-30 -141.833 -30 -224.5c0 -83.333 10 -158.333 30 -225s48.667 -123.167 86 -169.5s82.5 -82 135.5 -107s112.833 -37.5 179.5 -37.5zM690 810c8.66699 94.667 30.3291 181.665 64.9961 260.998
s80.834 147.5 138.501 204.5s125.334 101.333 203.001 133s163.834 47.5 258.501 47.5c102 0 194.333 -18.333 277 -55s153 -87.667 211 -153s102.833 -143 134.5 -233s47.5 -188.333 47.5 -295s-15.833 -205 -47.5 -295s-76.5 -167.5 -134.5 -232.5
s-128.333 -115.833 -211 -152.5s-175 -55 -277 -55c-94 0 -179.833 15.667 -257.5 47s-145.167 75.333 -202.5 132s-103.666 124.334 -138.999 203.001s-57.333 165.334 -66 260.001h-284v-627h-235v1440h235v-630h284z" />
    <glyph glyph-name="afii10049" unicode="&#x42f;" horiz-adv-x="1345" 
d="M940 791v464h-262c-52.667 0 -97.167 -5.66699 -133.5 -17s-65.833 -27.333 -88.5 -48s-39.167 -45 -49.5 -73s-15.5 -58.667 -15.5 -92c0 -36 5.16699 -68.5 15.5 -97.5s26.833 -53.5 49.5 -73.5s52.167 -35.5 88.5 -46.5s80.833 -16.5 133.5 -16.5h262zM1174 0h-234
v606h-170c-17.333 0 -33.5 -1.5 -48.5 -4.5s-29.667 -8.16699 -44 -15.5s-28.333 -17.833 -42 -31.5s-27.5 -30.834 -41.5 -51.501l-282 -420c-14.667 -25.333 -34 -45.5 -58 -60.5s-53 -22.5 -87 -22.5h-176l350 515c40 60.667 89 104.334 147 131.001
c-55.333 12.667 -103.5 30.667 -144.5 54s-75 51.333 -102 84s-47.167 69.167 -60.5 109.5s-20 83.5 -20 129.5c0 62 11.5 118.5 34.5 169.5s56.667 94.833 101 131.5s98.5 65.167 162.5 85.5s137 30.5 219 30.5h496v-1440z" />
    <glyph glyph-name="afii10065" unicode="&#x430;" horiz-adv-x="1005" 
d="M676 446c-76.667 -2.66699 -141.333 -8.83203 -194 -18.499s-95.334 -22 -128.001 -37s-56.167 -32.833 -70.5 -53.5s-21.5 -43.334 -21.5 -68.001c0 -24 3.83301 -44.5 11.5 -61.5s18.334 -31 32.001 -42s29.667 -19 48 -24s38.5 -7.5 60.5 -7.5
c56 0 104.167 10.5 144.5 31.5s79.5 51.5 117.5 91.5v189zM106.001 878.002c115.333 107.333 252.667 161.002 412 161.002c58.667 0 110.834 -9.5 156.501 -28.5s84 -45.833 115 -80.5s54.667 -75.834 71 -123.501s24.5 -100.5 24.5 -158.5v-648h-96
c-20.667 0 -36.334 3.16699 -47.001 9.5s-19.667 19.166 -27 38.499l-21 83c-26 -23.333 -51.667 -44.166 -77 -62.499s-51.5 -33.833 -78.5 -46.5s-56 -22.167 -87 -28.5s-65.167 -9.5 -102.5 -9.5c-41.333 0 -79.833 5.66699 -115.5 17s-66.5 28.5 -92.5 51.5
s-46.5 51.5 -61.5 85.5s-22.5 74 -22.5 120c0 39.333 10.5 77.666 31.5 114.999s55.667 70.833 104 100.5s112 54.167 191 73.5s176.5 30.333 292.5 33v68c0 73.333 -15.667 128 -47 164s-77.333 54 -138 54c-41.333 0 -76 -5.16699 -104 -15.5s-52.333 -21.5 -73 -33.5
s-39 -23.167 -55 -33.5s-33 -15.5 -51 -15.5c-14.667 0 -27.167 3.83301 -37.5 11.5s-18.833 17.167 -25.5 28.5z" />
    <glyph glyph-name="afii10066" unicode="&#x431;" horiz-adv-x="1176" 
d="M601 144c92.667 0 162.001 29.167 208.001 87.5s69 142.5 69 252.5c0 108.667 -22.333 192.5 -67 251.5s-112.334 88.5 -203.001 88.5c-89.333 0 -158.5 -27.333 -207.5 -82s-73.5 -134.667 -73.5 -240c0 -114.667 22.833 -203 68.5 -265s114.167 -93 205.5 -93z
M672.001 1229c-64.667 -4.66699 -120.164 -17.998 -166.497 -39.998s-84.666 -51.667 -114.999 -89s-53.333 -82 -69 -134s-24.834 -110 -27.501 -174c33.333 58 81.666 104.333 144.999 139s137.333 52 222 52c68 0 129 -12 183 -36s99.833 -57.667 137.5 -101
s66.667 -95.666 87 -156.999s30.5 -129.333 30.5 -204c0 -76 -11.833 -144.833 -35.5 -206.5s-57.167 -114.334 -100.5 -158.001s-95.666 -77.167 -156.999 -100.5s-129.666 -35 -204.999 -35c-71.333 0 -137.333 11.833 -198 35.5s-113.334 62 -158.001 115
s-79.5 122.5 -104.5 208.5s-37.5 191.333 -37.5 316c0 105.333 9.66699 202.666 29 291.999s50.666 167.5 93.999 234.5s100.166 121 170.499 162s156.166 65.5 257.499 73.5l363 30l12 -112c2.66699 -24.667 -0.833008 -45.334 -10.5 -62.001s-26.5 -25.667 -50.5 -27z" />
    <glyph glyph-name="afii10067" unicode="&#x432;" horiz-adv-x="999" 
d="M536 149c58.667 0 105.167 14.167 139.5 42.5s51.5 66.5 51.5 114.5c0 20.667 -3 40 -9 58s-16.333 33.5 -31 46.5s-34.167 23.167 -58.5 30.5s-54.833 11 -91.5 11h-201v-303h200zM336 878v-291.002h177c26.667 0 51.167 3.83301 73.5 11.5s41.666 18.334 57.999 32.001
s29 30 38 49s13.5 40.167 13.5 63.5c0 16.667 -3 33.167 -9 49.5s-16.167 30.833 -30.5 43.5s-33.166 22.834 -56.499 30.501s-52.333 11.5 -87 11.5h-177zM520 1020c63.333 0 118.001 -6.16699 164.001 -18.5s83.833 -29.5 113.5 -51.5s51.5 -48 65.5 -78
s21 -62.333 21 -97c0 -22 -3 -45 -9 -69s-16.333 -46.833 -31 -68.5s-34.5 -41.5 -59.5 -59.5s-56.833 -32 -95.5 -42c72.667 -13.333 130.167 -39.833 172.5 -79.5s63.5 -92.5 63.5 -158.5c0 -50.667 -10.333 -94.667 -31 -132s-48.834 -68.333 -84.501 -93
s-77 -43 -124 -55s-96.5 -18 -148.5 -18h-406v1020h389z" />
    <glyph glyph-name="afii10068" unicode="&#x433;" horiz-adv-x="834" 
d="M808 858h-462v-858h-215v1020h677v-162z" />
    <glyph glyph-name="afii10069" unicode="&#x434;" horiz-adv-x="1253" 
d="M822 155l-0.000976562 698h-286c-6 -93.333 -14.5 -177 -25.5 -251s-23.667 -139.5 -38 -196.5s-30.166 -106 -47.499 -147s-35.333 -75.5 -54 -103.5h451zM1217 162l-0.00195312 -443.001c0 -20 -5.83301 -35.833 -17.5 -47.5s-26.5 -17.5 -44.5 -17.5h-133v346h-807
v-285c0 -15.333 -4.83301 -29.333 -14.5 -42s-24.5 -19 -44.5 -19h-136v501h31c23.333 0 46.333 3.5 69 10.5s44.334 21.167 65.001 42.5s40.334 51.5 59.001 90.5s35.5 90.5 50.5 154.5s28.167 142.333 39.5 235s20.333 203.334 27 332.001h669v-858h187z" />
    <glyph glyph-name="afii10070" unicode="&#x435;" horiz-adv-x="1062" 
d="M800 625c0 36 -5.16602 69.501 -15.499 100.501s-25.5 58 -45.5 81s-44.833 41 -74.5 54s-63.834 19.5 -102.501 19.5c-78 0 -139.333 -22.333 -184 -67s-73 -107.334 -85 -188.001h507zM287.001 493.001c2.66699 -58 11.6621 -108.169 26.9951 -150.502
s35.833 -77.5 61.5 -105.5s56.334 -48.833 92.001 -62.5s75.5 -20.5 119.5 -20.5c42 0 78.333 4.83301 109 14.5s57.334 20.334 80.001 32.001s42 22.334 58 32.001s30.667 14.5 44 14.5c17.333 0 30.666 -6.66699 39.999 -20l61 -79c-25.333 -30 -54 -55.333 -86 -76
s-66 -37.5 -102 -50.5s-73 -22.333 -111 -28s-75 -8.5 -111 -8.5c-70.667 0 -136.167 11.833 -196.5 35.5s-112.666 58.5 -156.999 104.5s-79 103 -104 171s-37.5 146.333 -37.5 235c0 70.667 11.167 136.667 33.5 198s54.333 114.666 96 159.999
s92.334 81.166 152.001 107.499s127.167 39.5 202.5 39.5c62.667 0 120.667 -10.167 174 -30.5s99.333 -50.166 138 -89.499s68.834 -87.5 90.501 -144.5s32.5 -121.833 32.5 -194.5c0 -33.333 -3.66699 -55.666 -11 -66.999s-20.666 -17 -39.999 -17h-655z" />
    <glyph glyph-name="afii10072" unicode="&#x436;" horiz-adv-x="1607" 
d="M1586 0h-148c-38 0 -67.167 6 -87.5 18s-36.166 31 -47.499 57l-173 298c-14 25.333 -32.333 44 -55 56s-48.334 18 -77.001 18h-91v-448h-208v448h-90c-29.333 0 -55.166 -6 -77.499 -18s-40.833 -30.667 -55.5 -56l-173 -298c-11.333 -26 -27.166 -45 -47.499 -57
s-49.5 -18 -87.5 -18h-148l252 421c17.333 30 36.833 54.5 58.5 73.5s48.834 33.167 81.501 42.5c-24.667 9.33301 -45.834 22 -63.501 38s-34.5 36.667 -50.5 62l-251 383h169c20 0 38.333 -5.33301 55 -16s29.667 -24.667 39 -42l194 -306
c13.333 -22 29.333 -38.333 48 -49s42 -16 70 -16h77v430h208v-430h74c55.333 0 95.666 21.667 120.999 65l194 306c9.33301 17.333 22.5 31.333 39.5 42s35.5 16 55.5 16h168l-251 -383c-16 -25.333 -32.667 -46 -50 -62s-38.333 -28.667 -63 -38
c32.667 -9.33301 59.667 -23.5 81 -42.5s40.666 -43.5 57.999 -73.5z" />
    <glyph glyph-name="afii10073" unicode="&#x437;" horiz-adv-x="899" 
d="M69 912c38.667 36.667 85.999 66.499 141.999 89.499s123 34.5 201 34.5c62.667 0 118 -7.5 166 -22.5s88.333 -35 121 -60s57.5 -53.833 74.5 -86.5s25.5 -66.667 25.5 -102c0 -20 -3 -40.5 -9 -61.5s-15.833 -41.5 -29.5 -61.5s-31.667 -38.667 -54 -56
s-49.833 -31.666 -82.5 -42.999c60.667 -20 108.667 -50.833 144 -92.5s53 -93.5 53 -155.5c0 -48.667 -11.167 -92.167 -33.5 -130.5s-52 -70.833 -89 -97.5s-79.667 -47 -128 -61s-98.5 -21 -150.5 -21c-31.333 0 -63.833 2.83301 -97.5 8.5s-67 15 -100 28
s-64.833 29.833 -95.5 50.5s-58.334 46 -83.001 76l62 79c8 13.333 21.333 20 40 20c13.333 0 27 -5 41 -15s30.5 -21 49.5 -33s42 -23 69 -33s60.5 -15 100.5 -15c33.333 0 63 4 89 12s48 19.333 66 34s31.667 31.834 41 51.501s14 41.167 14 64.5
c0 45.333 -18.5 81.166 -55.5 107.499s-95.167 39.5 -174.5 39.5h-115v142h115c69.333 0 123 12.667 161 38s57 58.333 57 99c0 36.667 -16.5 67.667 -49.5 93s-82.5 38 -148.5 38c-37.333 0 -69.166 -3.83301 -95.499 -11.5s-48.5 -16 -66.5 -25
s-33.167 -17.167 -45.5 -24.5s-23.166 -11 -32.499 -11c-10 0 -18.5 2 -25.5 6s-14.5 12.333 -22.5 25z" />
    <glyph glyph-name="afii10074" unicode="&#x438;" horiz-adv-x="1159" 
d="M1028 1020v-1020h-215v639c0 14 0.666992 29.333 2 46s3.33301 33.667 6 51c-6.66699 -14.667 -13.167 -28.167 -19.5 -40.5s-13.166 -23.5 -20.499 -33.5l-443 -609c-8 -12.667 -18.667 -24.834 -32 -36.501s-28.333 -17.5 -45 -17.5h-130v1021h215v-639
c0 -14 -0.833008 -29.667 -2.5 -47s-3.83398 -34.666 -6.50098 -51.999c13.333 30.667 27 56 41 76l443 608c8 13.333 18.667 25.666 32 36.999s28.333 17 45 17h130z" />
    <glyph glyph-name="afii10075" unicode="&#x439;" horiz-adv-x="1159" 
d="M1028 1020v-1020h-215v639c0 14 0.666992 29.333 2 46s3.33301 33.667 6 51c-6.66699 -14.667 -13.167 -28.167 -19.5 -40.5s-13.166 -23.5 -20.499 -33.5l-443 -609c-8 -12.667 -18.667 -24.834 -32 -36.501s-28.333 -17.5 -45 -17.5h-130v1021h215v-639
c0 -14 -0.833008 -29.667 -2.5 -47s-3.83398 -34.666 -6.50098 -51.999c13.333 30.667 27 56 41 76l443 608c8 13.333 18.667 25.666 32 36.999s28.333 17 45 17h130zM592 1274c26 0 47.8291 2.83301 65.4961 8.5s31.834 15 42.501 28s18.334 30 23.001 51s7 47.167 7 78.5
h126c15.333 0 26.666 -6.5 33.999 -19.5s11 -27.167 11 -42.5c0 -34 -7.16699 -64.5 -21.5 -91.5s-34.833 -50 -61.5 -69s-59.167 -33.667 -97.5 -44s-81.166 -15.5 -128.499 -15.5s-90.166 5.16699 -128.499 15.5s-70.833 25 -97.5 44s-47.167 42 -61.5 69
s-21.5 57.5 -21.5 91.5c0 15.333 3.66699 29.5 11 42.5s18.666 19.5 33.999 19.5h126c0 -31.333 2.33301 -57.5 7 -78.5s12.334 -38 23.001 -51s24.834 -22.333 42.501 -28s39.5 -8.5 65.5 -8.5z" />
    <glyph glyph-name="afii10076" unicode="&#x43a;" horiz-adv-x="1062" 
d="M745 962c10.667 17.333 25.166 31.332 43.499 41.999s37.5 16 57.5 16h168l-251 -383c-16 -26 -32.667 -47 -50 -63s-38.666 -28.333 -63.999 -37c32.667 -9.33301 59.834 -23.5 81.501 -42.5s41.167 -43.5 58.5 -73.5l253 -421h-148c-38 0 -67.5 6.33301 -88.5 19
s-38.833 31.334 -53.5 56.001l-173 298c-14 25.333 -32.333 44 -55 56s-48.334 18 -77.001 18h-101v-448h-215v1021h215v-429h87c28 0 51.333 5.33301 70 16s34.667 27 48 49z" />
    <glyph glyph-name="afii10077" unicode="&#x43b;" horiz-adv-x="1184" 
d="M1053 0l-215 0.000976562v853h-284c-8 -127.333 -20.167 -237.166 -36.5 -329.499s-35.833 -170.5 -58.5 -234.5s-48 -115.833 -76 -155.5s-57.667 -70.5 -89 -92.5s-63.5 -36.667 -96.5 -44s-66.167 -11 -99.5 -11c-64.667 0 -97 10.667 -97 32v135h56
c22 0 44.5 3.66699 67.5 11s45.167 21.833 66.5 43.5s41.833 52.167 61.5 91.5s37.667 91.166 54 155.499s30.5 142.666 42.5 234.999s21.333 202.5 28 330.5h676v-1020z" />
    <glyph glyph-name="afii10078" unicode="&#x43c;" horiz-adv-x="1423" 
d="M1291 1023l-0.000976562 -1023h-193v617c0 21.333 1.33301 45.5 4 72.5s6 52.167 10 75.5l-325 -584c-6.66699 -12 -15.334 -21.5 -26.001 -28.5s-22.667 -10.5 -36 -10.5h-23c-13.333 0 -25.166 3.5 -35.499 10.5s-18.833 16.5 -25.5 28.5l-331 587
c4 -23.333 7.5 -48.833 10.5 -76.5s4.5 -52.5 4.5 -74.5v-617h-194v1023h176c14.667 0 29.167 -3.33301 43.5 -10s26.833 -19.667 37.5 -39l277 -474c9.33301 -17.333 17.833 -36 25.5 -56l22.5 -60l23 60c8 20 16.667 38.667 26 56l273 474c10 20 22.333 33.167 37 39.5
s29.334 9.5 44.001 9.5h175z" />
    <glyph glyph-name="afii10079" unicode="&#x43d;" horiz-adv-x="1133" 
d="M1001 1020v-1020h-214v463h-441v-463h-215v1020h215v-395h441v395h214z" />
    <glyph glyph-name="afii10080" unicode="&#x43e;" horiz-adv-x="1142" 
d="M572 1036c75.333 0 143.5 -12.333 204.5 -37s113 -59.667 156 -105s76.167 -100.333 99.5 -165s35 -137.334 35 -218.001s-11.667 -153.334 -35 -218.001s-56.5 -119.834 -99.5 -165.501s-95 -80.834 -156 -105.501s-129.167 -37 -204.5 -37
c-76 0 -144.5 12.333 -205.5 37s-113.167 59.834 -156.5 105.501s-76.666 100.834 -99.999 165.501s-35 137.334 -35 218.001s11.667 153.334 35 218.001s56.666 119.667 99.999 165s95.5 80.333 156.5 105s129.5 37 205.5 37zM572 153c92 0 160.5 30.833 205.5 92.5
s67.5 149.834 67.5 264.501s-22.5 203.167 -67.5 265.5s-113.5 93.5 -205.5 93.5c-93.333 0 -162.666 -31.167 -207.999 -93.5s-68 -150.833 -68 -265.5s22.667 -202.834 68 -264.501s114.666 -92.5 207.999 -92.5z" />
    <glyph glyph-name="afii10081" unicode="&#x43f;" horiz-adv-x="1133" 
d="M1001 0h-214v858h-441v-858h-215v1020h870v-1020z" />
    <glyph glyph-name="afii10082" unicode="&#x440;" horiz-adv-x="1128" 
d="M346 256c30 -38.667 62.834 -65.832 98.501 -81.499s75.167 -23.5 118.5 -23.5c84 0 149.5 30.667 196.5 92s70.5 152.666 70.5 273.999c0 62.667 -5.33301 116.167 -16 160.5s-26 80.5 -46 108.5s-44.333 48.333 -73 61s-61 19 -97 19
c-54.667 0 -101.834 -11.833 -141.501 -35.5s-76.5 -57.5 -110.5 -101.5v-473zM335.001 872.002c42.667 50 91.168 90.333 145.501 121s117.5 46 189.5 46c57.333 0 109.333 -11.5 156 -34.5s86.667 -56.5 120 -100.5s59.166 -98.5 77.499 -163.5s27.5 -139.5 27.5 -223.5
c0 -75.333 -10.167 -145.5 -30.5 -210.5s-49.5 -121.333 -87.5 -169s-84 -85 -138 -112s-115 -40.5 -183 -40.5c-60 0 -110.833 9.66699 -152.5 29s-79.5 46 -113.5 80v-433h-215v1359h130c29.333 0 48 -13.667 56 -41z" />
    <glyph glyph-name="afii10083" unicode="&#x441;" horiz-adv-x="960" 
d="M852 820c-6.66699 -8.66699 -13 -15.332 -19 -19.999s-14.667 -7 -26 -7s-23.166 4 -35.499 12s-27 16.833 -44 26.5s-37.5 18.5 -61.5 26.5s-54 12 -90 12c-46.667 0 -87.5 -8.33301 -122.5 -25s-64.333 -40.5 -88 -71.5s-41.334 -68.667 -53.001 -113
s-17.5 -94.166 -17.5 -149.499c0 -57.333 6.33301 -108.333 19 -153s30.834 -82.334 54.501 -113.001s52.334 -54 86.001 -70s71.5 -24 113.5 -24c41.333 0 75 5 101 15s47.667 21 65 33s32.166 23 44.499 33s25.5 15 39.5 15c17.333 0 30.666 -6.66699 39.999 -20l61 -79
c-24.667 -30 -52 -55.333 -82 -76s-61.667 -37.5 -95 -50.5s-68 -22.333 -104 -28s-72.333 -8.5 -109 -8.5c-63.333 0 -122.5 11.833 -177.5 35.5s-103 58 -144 103s-73.333 100 -97 165s-35.5 139.167 -35.5 222.5c0 75.333 10.667 145.166 32 209.499
s52.5 119.833 93.5 166.5s91.833 83.167 152.5 109.5s130.667 39.5 210 39.5c74 0 139.167 -12 195.5 -36s106.5 -58 150.5 -102z" />
    <glyph glyph-name="afii10084" unicode="&#x442;" horiz-adv-x="1019" 
d="M993 858h-376v-858h-215v858h-377v162h968v-162z" />
    <glyph glyph-name="afii10085" unicode="&#x443;" horiz-adv-x="1044" 
d="M1036 1020l-562.003 -1310c-7.33301 -15.333 -16.166 -27.333 -26.499 -36s-26.166 -13 -47.499 -13h-159l188 408l-416 951h187c18 0 31.833 -4.16699 41.5 -12.5s16.834 -18.166 21.501 -29.499l243 -579c6 -16.667 11.5 -33.167 16.5 -49.5
s9.83301 -33.166 14.5 -50.499l16 51c5.33301 16.667 11.333 33.334 18 50.001l233 578c4.66699 12 12.5 22 23.5 30s23.167 12 36.5 12h172z" />
    <glyph glyph-name="afii10086" unicode="&#x444;" horiz-adv-x="1437" 
d="M813 147c108.667 7.33301 192.167 42.333 250.5 105s87.5 148.667 87.5 258s-29.167 195.5 -87.5 258.5s-141.833 98.167 -250.5 105.5v-727zM625 874c-108.667 -7.33301 -192.167 -42.5 -250.5 -105.5s-87.5 -149.167 -87.5 -258.5s29.167 -195.333 87.5 -258
s141.833 -97.667 250.5 -105v727zM819 1035c82.667 -4 157.667 -19 225 -45s124.666 -61.667 171.999 -107s84 -99.333 110 -162s39 -132.667 39 -210s-13 -147.333 -39 -210s-62.667 -116.667 -110 -162s-104.666 -81.166 -171.999 -107.499s-142.333 -41.5 -225 -45.5
v-332h-201v332c-82.667 4 -157.667 19.167 -225 45.5s-124.666 62.166 -171.999 107.499s-84 99.333 -110 162s-39 132.667 -39 210c0 76.667 13 146.334 39 209.001s62.667 116.667 110 162s104.666 81.166 171.999 107.499s142.333 41.5 225 45.5v405h201v-405z" />
    <glyph glyph-name="afii10087" unicode="&#x445;" horiz-adv-x="1021" 
d="M1007 0l-206 0.000976562c-16.667 0 -29.834 4.33301 -39.501 13s-17.5 18.334 -23.5 29.001l-235 377c-6 -22.667 -14 -42.334 -24 -59.001l-213 -318c-7.33301 -10.667 -15.5 -20.334 -24.5 -29.001s-20.833 -13 -35.5 -13h-192l353 526l-339 494h206
c16.667 0 28.834 -2.5 36.501 -7.5s14.5 -12.5 20.5 -22.5l231 -360c6 22 15.333 43 28 63l195 293c13.333 22.667 30.333 34 51 34h197l-339 -485z" />
    <glyph glyph-name="afii10088" unicode="&#x446;" horiz-adv-x="1224" 
d="M1188 162v-443c0 -20 -5.66699 -35.833 -17 -47.5s-26 -17.5 -44 -17.5h-133v346h-863v1020h215v-858h441v858h214v-858h187z" />
    <glyph glyph-name="afii10089" unicode="&#x447;" horiz-adv-x="1043" 
d="M911 1020l-0.000976562 -1020h-214v415c-87.333 -22 -168.833 -35.167 -244.5 -39.5s-141.5 3.16699 -197.5 22.5s-100 52 -132 98s-48 108 -48 186v338h214v-305c0 -44.667 8.33301 -80.5 25 -107.5s41.834 -46 75.501 -57s76 -14.833 127 -11.5
s111.167 12.666 180.5 27.999v453h214z" />
    <glyph glyph-name="afii10090" unicode="&#x448;" horiz-adv-x="1655" 
d="M1523 1020v-1020h-1392v1020h215v-858h374v858h215v-858h374v858h214z" />
    <glyph glyph-name="afii10091" unicode="&#x449;" horiz-adv-x="1747" 
d="M1711 162v-443c0 -20 -5.83301 -35.833 -17.5 -47.5s-26.5 -17.5 -44.5 -17.5h-133v346h-1385v1020h215v-858h374v858h215v-858h374v858h214v-1020h1v162h187z" />
    <glyph glyph-name="afii10092" unicode="&#x44a;" horiz-adv-x="1178" 
d="M750 156c31.333 0 58.8311 4.16895 82.498 12.502s43.334 19.666 59.001 33.999s27.334 31.5 35.001 51.5s11.5 42 11.5 66c0 21.333 -3.5 41.5 -10.5 60.5s-18 35.667 -33 50s-34.5 25.666 -58.5 33.999s-53.333 12.5 -88 12.5h-199v-321h201zM746.998 632.002
c70.667 0 130.333 -8.49707 179 -25.4971s88 -39.833 118 -68.5s51.667 -61.834 65 -99.501s20 -76.834 20 -117.501c0 -47.333 -8.33301 -90.5 -25 -129.5s-41.167 -72.833 -73.5 -101.5s-72 -50.834 -119 -66.501s-100.833 -23.5 -161.5 -23.5h-405v855h-318v165h522v-388
h198z" />
    <glyph glyph-name="afii10093" unicode="&#x44b;" horiz-adv-x="1464" 
d="M536 156c31.333 0 58.8311 4.16895 82.498 12.502s43.334 19.666 59.001 33.999s27.334 31.5 35.001 51.5s11.5 42 11.5 66c0 21.333 -3.5 41.5 -10.5 60.5s-18 35.667 -33 50s-34.5 25.666 -58.5 33.999s-53.333 12.5 -88 12.5h-199v-321h201zM532.998 632.002
c70.667 0 130.333 -8.49707 179 -25.4971s88 -39.833 118 -68.5s51.667 -61.834 65 -99.501s20 -76.834 20 -117.501c0 -47.333 -8.33301 -90.5 -25 -129.5s-41.167 -72.833 -73.5 -101.5s-72 -50.834 -119 -66.501s-100.833 -23.5 -161.5 -23.5h-405v1020h204v-388h198z
M1333 1020v-1020h-215v1020h215z" />
    <glyph glyph-name="afii10094" unicode="&#x44c;" horiz-adv-x="964" 
d="M536 156c31.333 0 58.8311 4.16895 82.498 12.502s43.334 19.666 59.001 33.999s27.334 31.5 35.001 51.5s11.5 42 11.5 66c0 21.333 -3.5 41.5 -10.5 60.5s-18 35.667 -33 50s-34.5 25.666 -58.5 33.999s-53.333 12.5 -88 12.5h-198v-321h200zM532.998 632.002
c70.667 0 130.333 -8.49707 179 -25.4971s88 -39.833 118 -68.5s51.667 -61.834 65 -99.501s20 -76.834 20 -117.501c0 -47.333 -8.33301 -90.5 -25 -129.5s-41.167 -72.833 -73.5 -101.5s-72 -50.834 -119 -66.501s-100.833 -23.5 -161.5 -23.5h-405v1020h205v-388h197z
" />
    <glyph glyph-name="afii10095" unicode="&#x44d;" horiz-adv-x="970" 
d="M61 898c44 44 94.165 77.9971 150.498 101.997s121.5 36 195.5 36c78.667 0 148.334 -13.167 209.001 -39.5s111.667 -62.833 153 -109.5s72.666 -102.167 93.999 -166.5s32 -134.166 32 -209.499c0 -83.333 -11.833 -157.5 -35.5 -222.5s-56 -120 -97 -165
s-89.167 -79.333 -144.5 -103s-114.666 -35.5 -177.999 -35.5c-36 0 -72 2.83301 -108 8.5s-70.833 15 -104.5 28s-65.5 29.833 -95.5 50.5s-57.333 46 -82 76l58 72c10 14 23.333 21 40 21c14 0 27.167 -4.66699 39.5 -14s27.5 -19.666 45.5 -30.999
s40.333 -21.666 67 -30.999s60.667 -14 102 -14c38 0 72.833 6.5 104.5 19.5s59.5 32 83.5 57s43.667 56 59 93s25.333 79.167 30 126.5h-457v148h455c-12 86.667 -42 154.167 -90 202.5s-112.333 72.5 -193 72.5c-36 0 -66.167 -3.66699 -90.5 -11s-45.333 -15.333 -63 -24
s-32.667 -16.667 -45 -24s-24.166 -11 -35.499 -11s-20 2.33301 -26 7s-12.333 11 -19 19z" />
    <glyph glyph-name="afii10096" unicode="&#x44e;" horiz-adv-x="1586" 
d="M1035 153c86 0 149.833 30.833 191.5 92.5s62.5 149.834 62.5 264.501s-20.833 203.167 -62.5 265.5s-105.5 93.5 -191.5 93.5c-86.667 0 -150.834 -31.167 -192.501 -93.5s-62.5 -150.833 -62.5 -265.5s20.833 -202.834 62.5 -264.501s105.834 -92.5 192.501 -92.5z
M569 594c7.33301 68 23.333 129.338 48 184.005s57 101.167 97 139.5s87 67.666 141 87.999s114 30.5 180 30.5c72.667 0 138.334 -12.333 197.001 -37s108.667 -59.667 150 -105s73.166 -100.333 95.499 -165s33.5 -137.334 33.5 -218.001s-11.5 -153.334 -34.5 -218.001
s-55.5 -119.834 -97.5 -165.501s-92.167 -80.834 -150.5 -105.501s-122.833 -37 -193.5 -37c-68 0 -129.5 10.5 -184.5 31.5s-102.5 51.167 -142.5 90.5s-71.833 87 -95.5 143s-38.5 119 -44.5 189h-222v-439h-215v1020h215v-426h223z" />
    <glyph glyph-name="afii10097" unicode="&#x44f;" horiz-adv-x="1001" 
d="M665 554l-0.000976562 324h-151c-34.667 0 -63.667 -5 -87 -15s-42 -22.833 -56 -38.5s-24 -33.167 -30 -52.5s-9 -38.333 -9 -57c0 -50 17.833 -89.333 53.5 -118s83.834 -43 144.501 -43h135zM869.999 1020l0.00195312 -1020h-205v418h-59
c-19.333 0 -35.333 -1.66699 -48 -5s-23.5 -8 -32.5 -14s-17 -13.333 -24 -22s-13.833 -18.334 -20.5 -29.001l-191 -273c-14 -25.333 -30.5 -44.166 -49.5 -56.499s-47.5 -18.5 -85.5 -18.5h-148l275 371c25.333 44 60.666 74 105.999 90
c-49.333 7.33301 -91.333 20 -126 38s-62.667 39 -84 63s-36.833 50.167 -46.5 78.5s-14.5 56.5 -14.5 84.5c0 36.667 7.16699 72.667 21.5 108s37.166 66.833 68.499 94.5s71.833 50 121.5 67s109.5 25.5 179.5 25.5h362z" />
    <glyph glyph-name="uni0450" unicode="&#x450;" horiz-adv-x="1062" 
d="M800 625c0 36 -5.16602 69.501 -15.499 100.501s-25.5 58 -45.5 81s-44.833 41 -74.5 54s-63.834 19.5 -102.501 19.5c-78 0 -139.333 -22.333 -184 -67s-73 -107.334 -85 -188.001h507zM287.001 493.001c2.66699 -58 11.6621 -108.169 26.9951 -150.502
s35.833 -77.5 61.5 -105.5s56.334 -48.833 92.001 -62.5s75.5 -20.5 119.5 -20.5c42 0 78.333 4.83301 109 14.5s57.334 20.334 80.001 32.001s42 22.334 58 32.001s30.667 14.5 44 14.5c17.333 0 30.666 -6.66699 39.999 -20l61 -79c-25.333 -30 -54 -55.333 -86 -76
s-66 -37.5 -102 -50.5s-73 -22.333 -111 -28s-75 -8.5 -111 -8.5c-70.667 0 -136.167 11.833 -196.5 35.5s-112.666 58.5 -156.999 104.5s-79 103 -104 171s-37.5 146.333 -37.5 235c0 70.667 11.167 136.667 33.5 198s54.333 114.666 96 159.999
s92.334 81.166 152.001 107.499s127.167 39.5 202.5 39.5c62.667 0 120.667 -10.167 174 -30.5s99.333 -50.166 138 -89.499s68.834 -87.5 90.501 -144.5s32.5 -121.833 32.5 -194.5c0 -33.333 -3.66699 -55.666 -11 -66.999s-20.666 -17 -39.999 -17h-655zM468.996 1456
c24.667 0 43 -4 55 -12s22.667 -20.333 32 -37l146 -242h-122c-16.667 0 -30.167 2.33301 -40.5 7s-20.833 13 -31.5 25l-241 259h202z" />
    <glyph glyph-name="afii10071" unicode="&#x451;" horiz-adv-x="1062" 
d="M800 625c0 36 -5.16602 69.501 -15.499 100.501s-25.5 58 -45.5 81s-44.833 41 -74.5 54s-63.834 19.5 -102.501 19.5c-78 0 -139.333 -22.333 -184 -67s-73 -107.334 -85 -188.001h507zM287.001 493.001c2.66699 -58 11.6621 -108.169 26.9951 -150.502
s35.833 -77.5 61.5 -105.5s56.334 -48.833 92.001 -62.5s75.5 -20.5 119.5 -20.5c42 0 78.333 4.83301 109 14.5s57.334 20.334 80.001 32.001s42 22.334 58 32.001s30.667 14.5 44 14.5c17.333 0 30.666 -6.66699 39.999 -20l61 -79c-25.333 -30 -54 -55.333 -86 -76
s-66 -37.5 -102 -50.5s-73 -22.333 -111 -28s-75 -8.5 -111 -8.5c-70.667 0 -136.167 11.833 -196.5 35.5s-112.666 58.5 -156.999 104.5s-79 103 -104 171s-37.5 146.333 -37.5 235c0 70.667 11.167 136.667 33.5 198s54.333 114.666 96 159.999
s92.334 81.166 152.001 107.499s127.167 39.5 202.5 39.5c62.667 0 120.667 -10.167 174 -30.5s99.333 -50.166 138 -89.499s68.834 -87.5 90.501 -144.5s32.5 -121.833 32.5 -194.5c0 -33.333 -3.66699 -55.666 -11 -66.999s-20.666 -17 -39.999 -17h-655zM491.996 1291
c0 -17.333 -3.33301 -33.5 -10 -48.5s-15.834 -28 -27.501 -39s-25.334 -19.833 -41.001 -26.5s-32.167 -10 -49.5 -10c-16.667 0 -32.5 3.33301 -47.5 10s-28.167 15.5 -39.5 26.5s-20.333 24 -27 39s-10 31.167 -10 48.5s3.33301 33.833 10 49.5s15.667 29.334 27 41.001
s24.5 20.834 39.5 27.501s30.833 10 47.5 10c17.333 0 33.833 -3.33301 49.5 -10s29.334 -15.834 41.001 -27.501s20.834 -25.334 27.501 -41.001s10 -32.167 10 -49.5zM885.996 1291c0 -17.333 -3.33301 -33.5 -10 -48.5s-15.834 -28 -27.501 -39
s-25.167 -19.833 -40.5 -26.5s-31.666 -10 -48.999 -10s-33.5 3.33301 -48.5 10s-28.167 15.5 -39.5 26.5s-20.333 24 -27 39s-10 31.167 -10 48.5s3.33301 33.833 10 49.5s15.667 29.334 27 41.001s24.5 20.834 39.5 27.501s31.167 10 48.5 10s33.666 -3.33301 48.999 -10
s28.833 -15.834 40.5 -27.501s20.834 -25.334 27.501 -41.001s10 -32.167 10 -49.5z" />
    <glyph glyph-name="afii10099" unicode="&#x452;" horiz-adv-x="1113" 
d="M345 809c41.333 41.333 87.332 74.665 137.999 99.998s109 38 175 38c122.667 0 213.667 -39.167 273 -117.5s89 -191.166 89 -338.499c0 -144.667 -21.833 -286.167 -65.5 -424.5s-104.5 -270.166 -182.5 -395.499l-172 68c32.667 58.667 61.667 117.334 87 176.001
s46.833 118.667 64.5 180s31 124.666 40 189.999s13.5 134 13.5 206c0 50 -5 93.167 -15 129.5s-24.167 66 -42.5 89s-40.5 40 -66.5 51s-55 16.5 -87 16.5c-47.333 0 -91.666 -11 -132.999 -33s-80 -52 -116 -90v-654h-214v1088h-172v165h172v227h214v-227h334v-165h-334
v-279z" />
    <glyph glyph-name="afii10100" unicode="&#x453;" horiz-adv-x="834" 
d="M808 858h-462v-858h-215v1020h677v-162zM758 1456l-240.999 -259c-10.667 -12 -21.167 -20.333 -31.5 -25s-23.833 -7 -40.5 -7h-128l145 242c9.33301 16.667 20.166 29 32.499 37s30.5 12 54.5 12h209z" />
    <glyph glyph-name="afii10101" unicode="&#x454;" horiz-adv-x="970" 
d="M855 826c-6.66699 -8 -13.1699 -14.3301 -19.5029 -18.9971s-15.166 -7 -26.499 -7s-23.166 3.66699 -35.499 11s-27.166 15.333 -44.499 24s-38.166 16.667 -62.499 24s-54.5 11 -90.5 11c-80.667 0 -145 -24.167 -193 -72.5s-78 -115.833 -90 -202.5h455v-148h-457
c4.66699 -47.333 14.667 -89.5 30 -126.5s35 -68 59 -93s51.833 -44 83.5 -57s66.5 -19.5 104.5 -19.5c41.333 0 75.166 4.66699 101.499 14s48.5 19.666 66.5 30.999s33.333 21.666 46 30.999s25.667 14 39 14c18 0 31.333 -7 40 -21l58 -72
c-24.667 -30 -52 -55.333 -82 -76s-61.667 -37.5 -95 -50.5s-68 -22.333 -104 -28s-72.333 -8.5 -109 -8.5c-63.333 0 -122.5 11.833 -177.5 35.5s-103 58 -144 103s-73.333 100 -97 165s-35.5 139.167 -35.5 222.5c0 75.333 10.667 145.166 32 209.499
s52.5 119.833 93.5 166.5s91.833 83.167 152.5 109.5s130.667 39.5 210 39.5c74 0 139.167 -12 195.5 -36s106.5 -58 150.5 -102z" />
    <glyph glyph-name="afii10102" unicode="&#x455;" horiz-adv-x="873" 
d="M740 835c-5.33301 -9.33301 -11.3311 -16 -17.998 -20s-15 -6 -25 -6c-11.333 0 -23.666 3.5 -36.999 10.5l-47 23.5c-18 8.66699 -39.167 16.5 -63.5 23.5s-52.833 10.5 -85.5 10.5c-26.667 0 -50.834 -3.16699 -72.501 -9.5s-40 -15.333 -55 -27
s-26.5 -25.334 -34.5 -41.001s-12 -32.5 -12 -50.5c0 -24 7.33301 -44 22 -60s34 -29.833 58 -41.5s51.333 -22.167 82 -31.5l94 -30c32 -10.667 63.333 -23 94 -37s58 -31.167 82 -51.5s43.333 -45 58 -74s22 -64.167 22 -105.5c0 -48 -8.66699 -92.333 -26 -133
s-42.666 -76 -75.999 -106s-74.833 -53.333 -124.5 -70s-106.5 -25 -170.5 -25c-35.333 0 -69.5 3.16699 -102.5 9.5s-64.333 15 -94 26s-57.334 24.167 -83.001 39.5s-48.5 32 -68.5 50l50 82c6 10 13.5 17.833 22.5 23.5s20.167 8.5 33.5 8.5c14 0 27.833 -4.5 41.5 -13.5
s29.667 -18.833 48 -29.5s40.5 -20.5 66.5 -29.5s58.333 -13.5 97 -13.5c32 0 59.667 3.83301 83 11.5s42.666 18.167 57.999 31.5s26.666 28.5 33.999 45.5s11 35.167 11 54.5c0 26 -7.33301 47.333 -22 64s-34.167 31 -58.5 43s-52 22.667 -83 32s-62.5 19.333 -94.5 30
s-63.5 23 -94.5 37s-58.667 31.833 -83 53.5s-43.833 48 -58.5 79s-22 68.833 -22 113.5c0 40.667 8.16699 79.334 24.5 116.001s40.333 69 72 97s70.667 50.167 117 66.5s99.833 24.5 160.5 24.5c68.667 0 131 -11 187 -33s103 -52 141 -90z" />
    <glyph glyph-name="afii10103" unicode="&#x456;" horiz-adv-x="495" 
d="M355 1020v-1020h-215v1020h215zM391 1328c0 -19.333 -3.83301 -37.666 -11.5 -54.999s-18.167 -32.5 -31.5 -45.5s-28.833 -23.333 -46.5 -31s-36.5 -11.5 -56.5 -11.5c-19.333 0 -37.5 3.83301 -54.5 11.5s-31.833 18 -44.5 31s-22.834 28.167 -30.501 45.5
s-11.5 35.666 -11.5 54.999c0 20 3.83301 38.667 11.5 56s17.834 32.5 30.501 45.5s27.5 23.333 44.5 31s35.167 11.5 54.5 11.5c20 0 38.833 -3.83301 56.5 -11.5s33.167 -18 46.5 -31s23.833 -28.167 31.5 -45.5s11.5 -36 11.5 -56z" />
    <glyph glyph-name="afii10104" unicode="&#x457;" horiz-adv-x="495" 
d="M354 1020v-1020h-214v1020h214zM216 1291c0 -17.333 -3.5 -33.5 -10.5 -48.5s-16.333 -28 -28 -39s-25.167 -19.833 -40.5 -26.5s-31.666 -10 -48.999 -10c-16.667 0 -32.5 3.33301 -47.5 10s-28.167 15.5 -39.5 26.5s-20.333 24 -27 39s-10 31.167 -10 48.5
s3.33301 33.833 10 49.5s15.667 29.334 27 41.001s24.5 20.834 39.5 27.501s30.833 10 47.5 10c17.333 0 33.666 -3.33301 48.999 -10s28.833 -15.834 40.5 -27.501s21 -25.334 28 -41.001s10.5 -32.167 10.5 -49.5zM542 1291c0 -17.333 -3.33301 -33.5 -10 -48.5
s-15.667 -28 -27 -39s-24.666 -19.833 -39.999 -26.5s-31.666 -10 -48.999 -10s-33.666 3.33301 -48.999 10s-28.666 15.5 -39.999 26.5s-20.333 24 -27 39s-10 31.167 -10 48.5s3.33301 33.833 10 49.5s15.667 29.334 27 41.001s24.666 20.834 39.999 27.501
s31.666 10 48.999 10s33.666 -3.33301 48.999 -10s28.666 -15.834 39.999 -27.501s20.333 -25.334 27 -41.001s10 -32.167 10 -49.5z" />
    <glyph glyph-name="afii10105" unicode="&#x458;" horiz-adv-x="495" 
d="M355 1020v-1073c0 -42.667 -5.66699 -82.834 -17 -120.501s-29.333 -70.5 -54 -98.5s-56.5 -50 -95.5 -66s-86.167 -24 -141.5 -24c-23.333 0 -44.333 1.66699 -63 5s-37.667 8 -57 14l8 117c2 13.333 7.5 21 16.5 23s26.167 3 51.5 3c50.667 0 86.167 11.167 106.5 33.5
s30.5 60.166 30.5 113.499v1073h215zM390 1328c0 -19.333 -3.83301 -37.666 -11.5 -54.999s-18.167 -32.5 -31.5 -45.5s-28.666 -23.333 -45.999 -31s-36 -11.5 -56 -11.5c-19.333 0 -37.5 3.83301 -54.5 11.5s-32 18 -45 31s-23.167 28.167 -30.5 45.5
s-11 35.666 -11 54.999c0 20 3.66699 38.667 11 56s17.5 32.5 30.5 45.5s28 23.333 45 31s35.167 11.5 54.5 11.5c20 0 38.667 -3.83301 56 -11.5s32.666 -18 45.999 -31s23.833 -28.167 31.5 -45.5s11.5 -36 11.5 -56z" />
    <glyph glyph-name="afii10106" unicode="&#x459;" horiz-adv-x="1681" 
d="M1253 156c31.333 0 58.8311 4.16895 82.498 12.502s43.334 19.666 59.001 33.999s27.334 31.5 35.001 51.5s11.5 42 11.5 66c0 21.333 -3.5 41.5 -10.5 60.5s-18 35.667 -33 50s-34.5 25.666 -58.5 33.999s-53.333 12.5 -88 12.5h-198v-321h200zM1250 632.002
c70.667 0 130.333 -8.49609 179 -25.4961s88 -39.833 118 -68.5s51.667 -61.834 65 -99.501s20 -76.834 20 -117.501c0 -47.333 -8.33301 -90.5 -25 -129.5s-41.167 -72.833 -73.5 -101.5s-72 -50.834 -119 -66.501s-100.833 -23.5 -161.5 -23.5h-415v853h-284
c-8 -127.333 -20.167 -237.166 -36.5 -329.499s-35.833 -170.5 -58.5 -234.5s-48 -115.833 -76 -155.5s-57.667 -70.5 -89 -92.5s-63.5 -36.667 -96.5 -44s-66.167 -11 -99.5 -11c-64.667 0 -97 10.667 -97 32v135h56c22 0 44.5 3.66699 67.5 11s45.167 21.833 66.5 43.5
s41.833 52.167 61.5 91.5s37.667 91.166 54 155.499s30.5 142.666 42.5 234.999s21.333 202.5 28 330.5h676v-388h197z" />
    <glyph glyph-name="afii10107" unicode="&#x45a;" horiz-adv-x="1630" 
d="M1201 156c31.333 0 58.8311 4.16895 82.498 12.502s43.334 19.666 59.001 33.999s27.334 31.5 35.001 51.5s11.5 42 11.5 66c0 21.333 -3.5 41.5 -10.5 60.5s-18 35.667 -33 50s-34.5 25.666 -58.5 33.999s-53.333 12.5 -88 12.5h-198v-321h200zM1199 632.002
c70.667 0 130.333 -8.49707 179 -25.4971s88 -39.833 118 -68.5s51.5 -61.834 64.5 -99.501s19.5 -76.834 19.5 -117.501c0 -47.333 -8.33301 -90.5 -25 -129.5s-41 -72.833 -73 -101.5s-71.5 -50.834 -118.5 -66.501s-100.833 -23.5 -161.5 -23.5h-415v463h-441v-463h-215
v1020h215v-395h441v395h214v-388h198z" />
    <glyph glyph-name="afii10108" unicode="&#x45b;" horiz-adv-x="1122" 
d="M345 871c41.333 41.333 87.333 74.665 138 99.998s109 38 175 38c56 0 105.333 -9.33301 148 -28s78.5 -45 107.5 -79s50.833 -74.667 65.5 -122s22 -99.666 22 -156.999v-623h-215v623c0 68.667 -15.833 121.834 -47.5 159.501s-79.834 56.5 -144.501 56.5
c-47.333 0 -91.666 -11 -132.999 -33s-80 -52 -116 -90v-716h-214v1146h-148v136h148v198h214v-198h287v-136h-287v-275z" />
    <glyph glyph-name="afii10109" unicode="&#x45c;" horiz-adv-x="1061" 
d="M745 962c10.667 17.333 25.166 31.332 43.499 41.999s37.5 16 57.5 16h168l-251 -383c-16 -26 -32.667 -47 -50 -63s-38.666 -28.333 -63.999 -37c32.667 -9.33301 59.834 -23.5 81.501 -42.5s41.167 -43.5 58.5 -73.5l253 -421h-148c-38 0 -67.5 6.33301 -88.5 19
s-38.833 31.334 -53.5 56.001l-173 298c-14 25.333 -32.333 44 -55 56s-48.334 18 -77.001 18h-101v-448h-215v1021h215v-429h87c28 0 51.333 5.33301 70 16s34.667 27 48 49zM864.999 1456l-240.999 -259c-10.667 -12 -21.167 -20.333 -31.5 -25s-23.833 -7 -40.5 -7h-128
l145 242c9.33301 16.667 20.166 29 32.499 37s30.5 12 54.5 12h209z" />
    <glyph glyph-name="uni045D" unicode="&#x45d;" horiz-adv-x="1159" 
d="M1028 1020v-1020h-215v639c0 14 0.666992 29.333 2 46s3.33301 33.667 6 51c-6.66699 -14.667 -13.167 -28.167 -19.5 -40.5s-13.166 -23.5 -20.499 -33.5l-443 -609c-8 -12.667 -18.667 -24.834 -32 -36.501s-28.333 -17.5 -45 -17.5h-130v1021h215v-639
c0 -14 -0.833008 -29.667 -2.5 -47s-3.83398 -34.666 -6.50098 -51.999c13.333 30.667 27 56 41 76l443 608c8 13.333 18.667 25.666 32 36.999s28.333 17 45 17h130zM498 1456c24.667 0 43 -4 55 -12s22.667 -20.333 32 -37l146 -242h-122
c-16.667 0 -30.167 2.33301 -40.5 7s-20.833 13 -31.5 25l-241 259h202z" />
    <glyph glyph-name="afii10110" unicode="&#x45e;" horiz-adv-x="1044" 
d="M1036 1020l-562.003 -1310c-7.33301 -15.333 -16.166 -27.333 -26.499 -36s-26.166 -13 -47.499 -13h-159l188 408l-416 951h187c18 0 31.833 -4.16699 41.5 -12.5s16.834 -18.166 21.501 -29.499l243 -579c6 -16.667 11.5 -33.167 16.5 -49.5
s9.83301 -33.166 14.5 -50.499l16 51c5.33301 16.667 11.333 33.334 18 50.001l233 578c4.66699 12 12.5 22 23.5 30s23.167 12 36.5 12h172zM547.997 1274c26 0 47.8291 2.83301 65.4961 8.5s31.834 15 42.501 28s18.334 30 23.001 51s7 47.167 7 78.5h126
c15.333 0 26.666 -6.5 33.999 -19.5s11 -27.167 11 -42.5c0 -34 -7.16699 -64.5 -21.5 -91.5s-34.833 -50 -61.5 -69s-59.167 -33.667 -97.5 -44s-81.166 -15.5 -128.499 -15.5s-90.166 5.16699 -128.499 15.5s-70.833 25 -97.5 44s-47.167 42 -61.5 69
s-21.5 57.5 -21.5 91.5c0 15.333 3.66699 29.5 11 42.5s18.666 19.5 33.999 19.5h126c0 -31.333 2.33301 -57.5 7 -78.5s12.334 -38 23.001 -51s24.834 -22.333 42.501 -28s39.5 -8.5 65.5 -8.5z" />
    <glyph glyph-name="afii10193" unicode="&#x45f;" horiz-adv-x="1133" 
d="M1001 1020v-1020h-337v-281c0 -20 -5.83301 -35.833 -17.5 -47.5s-26.5 -17.5 -44.5 -17.5h-133v346h-338v1020h215v-858h441v858h214z" />
    <glyph glyph-name="uni0460" unicode="&#x460;" horiz-adv-x="2152" 
d="M1215 1329c19.333 18 40.1758 34.833 62.5088 50.5s46.666 29 72.999 40s55.333 19.667 87 26s66.167 9.5 103.5 9.5c92.667 0 171.667 -18.833 237 -56.5s118.666 -89.334 159.999 -155.001s71.666 -142.334 90.999 -230.001s29 -181.5 29 -281.5
c0 -116.667 -12.333 -221.334 -37 -314.001s-60.834 -171.167 -108.501 -235.5s-106.334 -113.5 -176.001 -147.5s-149.167 -51 -238.5 -51c-86 0 -163.667 15 -233 45s-132.333 73.333 -189 130c-56.667 -56.667 -119.667 -100 -189 -130s-147 -45 -233 -45
c-89.333 0 -168.833 17 -238.5 51s-128.334 83.167 -176.001 147.5s-83.834 142.833 -108.501 235.5s-37 197.334 -37 314.001c0 100 9.5 193.833 28.5 281.5s49.333 164.334 91 230.001s95.167 117.334 160.5 155.001s144.333 56.5 237 56.5
c37.333 0 71.833 -3.16699 103.5 -9.5s60.667 -15 87 -26s50.666 -24.333 72.999 -40s43.166 -32.5 62.499 -50.5l-49 -117c-8 -12.667 -15.5 -21 -22.5 -25s-15.5 -6 -25.5 -6c-9.33301 0 -19.5 3.66699 -30.5 11s-24.333 15.5 -40 24.5s-34.334 17.333 -56.001 25
s-47.834 11.5 -78.501 11.5c-99.333 0 -175.666 -44.5 -228.999 -133.5s-80 -221.833 -80 -398.5c0 -176 29.167 -309.333 87.5 -400s145.5 -136 261.5 -136c58 0 110.333 11 157 33s89 53.333 127 94v473h234v-473c38 -40.667 80.333 -72 127 -94s99 -33 157 -33
c116 0 203.167 45.333 261.5 136s87.5 224 87.5 400c0 176.667 -26.667 309.5 -80 398.5s-129.666 133.5 -228.999 133.5c-31.333 0 -57.833 -3.83301 -79.5 -11.5s-40.167 -16 -55.5 -25s-28.5 -17.167 -39.5 -24.5s-21.167 -11 -30.5 -11c-10 0 -18.5 2 -25.5 6
s-14.5 12.333 -22.5 25z" />
    <glyph glyph-name="uni0461" unicode="&#x461;" horiz-adv-x="1561" 
d="M1422 1020c13.333 -56.667 23.667 -111.496 31 -164.496s11 -106.5 11 -160.5c0 -75.333 -6.83301 -145.5 -20.5 -210.5s-33.167 -126 -58.5 -183s-56.333 -110.333 -93 -160s-78.334 -96.834 -125.001 -141.501h-126c-12 0 -21.5 2.33301 -28.5 7
s-15.167 11.667 -24.5 21c-40 41.333 -78.333 90.333 -115 147s-67.667 118 -93 184c-25.333 -65.333 -56.333 -126.5 -93 -183.5s-75 -106.167 -115 -147.5c-8.66699 -10 -15.667 -17.167 -21 -21.5s-14 -6.5 -26 -6.5h-130c-41.333 39.333 -79.5 82 -114.5 128
s-65.333 94.667 -91 146s-45.667 104.5 -60 159.5s-21.5 111.167 -21.5 168.5v418h145c22 0 38 -6.66699 48 -20s15 -28 15 -44v-331c0 -89.333 16.167 -169.333 48.5 -240s76.166 -132.667 131.499 -186c25.333 25.333 49 54.166 71 86.499s41.167 66.833 57.5 103.5
s29.166 75 38.499 115s14 80.333 14 121v395h145c22 0 37.833 -6.66699 47.5 -20s14.5 -28 14.5 -44v-323c0 -40.667 4.16699 -80.834 12.5 -120.501s20.333 -78 36 -115s34.667 -72.333 57 -106s47.5 -64.5 75.5 -92.5c26 26 50.667 55.167 74 87.5
s43.833 68.666 61.5 108.999s31.667 85 42 134s15.5 102.833 15.5 161.5c0 41.333 -2.16699 77 -6.5 107s-9.16602 56 -14.499 78s-10.166 40.5 -14.499 55.5s-6.5 27.833 -6.5 38.5c0 12.667 3.83301 24.167 11.5 34.5s18.834 15.5 33.501 15.5h161z" />
    <glyph glyph-name="afii10146" unicode="&#x462;" horiz-adv-x="1461" 
d="M893 185c52.667 0 97.167 5.83203 133.5 17.499s65.833 28 88.5 49s39.167 45.667 49.5 74s15.5 59.166 15.5 92.499c0 36 -5 68.333 -15 97s-26.333 52.834 -49 72.501s-52.167 34.834 -88.5 45.501s-80.833 16 -133.5 16h-256v-464h255zM894 833.999
c90.667 0 168.5 -10 233.5 -30s118.5 -47.5 160.5 -82.5s72.833 -76.5 92.5 -124.5s29.5 -99.667 29.5 -155c0 -67.333 -11.5 -128.166 -34.5 -182.499s-56.5 -100.833 -100.5 -139.5s-98.167 -68.334 -162.5 -89.001s-137.5 -31 -219.5 -31h-489v1056h-355v174h355v210h234
v-210h434v-174h-434v-222h256z" />
    <glyph glyph-name="afii10194" unicode="&#x463;" horiz-adv-x="1132" 
d="M711 156c31.333 0 58.8311 4.16895 82.498 12.502s43.334 19.666 59.001 33.999s27.334 31.5 35.001 51.5s11.5 42 11.5 66c0 21.333 -3.5 41.5 -10.5 60.5s-18 35.667 -33 50s-34.5 25.666 -58.5 33.999s-53.333 12.5 -88 12.5h-218v-321h220zM708.998 632.002
c70.667 0 130.333 -8.49707 179 -25.4971s88 -39.833 118 -68.5s51.5 -61.834 64.5 -99.501s19.5 -76.834 19.5 -117.501c0 -47.333 -8.33301 -90.5 -25 -129.5s-41 -72.833 -73 -101.5s-71.5 -50.834 -118.5 -66.501s-100.833 -23.5 -161.5 -23.5h-425v854h-258v165h258
v275h204v-275h318v-165h-318v-222h218z" />
    <glyph glyph-name="uni0464" unicode="&#x464;" horiz-adv-x="1908" 
d="M1861 205c-56.667 -70.667 -125.833 -125.17 -207.5 -163.503s-179.5 -57.5 -293.5 -57.5c-95.333 0 -182 16.167 -260 48.5s-145.5 77.5 -202.5 135.5s-102.5 127.5 -136.5 208.5s-54.667 170.167 -62 267.5h-293v-644h-235v1440h235v-620h295
c10 94.667 33.333 181 70 259s84.5 145 143.5 201s127.5 99.333 205.5 130s163.667 46 257 46c100 0 188.5 -17 265.5 -51s143.167 -78.667 198.5 -134l-77 -109c-5.33301 -7.33301 -11.5 -13.666 -18.5 -18.999s-17.167 -8 -30.5 -8s-28 6.16699 -44 18.5
s-36.5 26 -61.5 41s-56.333 28.667 -94 41s-84.5 18.5 -140.5 18.5c-58 0 -111.667 -9.66699 -161 -29s-93 -47.5 -131 -84.5s-69.333 -82.5 -94 -136.5s-41 -115.333 -49 -184h630v-176h-633c6.66699 -73.333 22.667 -138.333 48 -195s57.333 -104.667 96 -144
s83 -69.166 133 -89.499s103.333 -30.5 160 -30.5c37.333 0 70.833 2.16699 100.5 6.5s57.334 11.333 83.001 21s49.667 21.834 72 36.501s44.5 32.667 66.5 54c12 12 25 18 39 18c13.333 0 24.666 -5 33.999 -15z" />
    <glyph glyph-name="uni0465" unicode="&#x465;" horiz-adv-x="1395" 
d="M1235 252c11.333 0 21.0059 -4.33594 29.0059 -13.0029l82 -90c-40 -52 -89.333 -91.667 -148 -119s-128.667 -41 -210 -41c-67.333 0 -128.5 11 -183.5 33s-102.667 53 -143 93s-72.833 87.5 -97.5 142.5s-40.334 115.5 -47.001 181.5h-178v-439h-208v1020h208v-426h180
c8 64.667 25.333 123.834 52 177.501s61 99.834 103 138.501s90.5 68.5 145.5 89.5s115.167 31.5 180.5 31.5c72.667 0 137 -12.5 193 -37.5s103 -57.5 141 -97.5l-70 -97c-4 -6 -9.16699 -11.333 -15.5 -16s-15.166 -7 -26.499 -7s-22.333 4 -33 12
s-23.834 16.833 -39.501 26.5s-35.5 18.5 -59.5 26.5s-54.333 12 -91 12c-70.667 0 -129.834 -22.333 -177.501 -67s-77.834 -108.667 -90.501 -192h412v-155h-414c6 -44 17.167 -82.833 33.5 -116.5s36.666 -62.167 60.999 -85.5s51.666 -41 81.999 -53s62.5 -18 96.5 -18
c22.667 0 43 1.33301 61 4s34.833 6.83398 50.5 12.501s30.667 13 45 22s28.5 20.167 42.5 33.5c11.333 9.33301 22.666 14 33.999 14z" />
    <glyph glyph-name="uni0466" unicode="&#x466;" horiz-adv-x="1422" 
d="M886 759l-122.998 307c-8.66699 21.333 -17.5 46.333 -26.5 75s-17.5 59.667 -25.5 93c-8.66699 -34 -17.334 -65.333 -26.001 -94s-17.334 -53.667 -26.001 -75l-123 -306h350zM1433 0h-187.001c-20 0 -36.5 5.16699 -49.5 15.5s-22.5 23.166 -28.5 38.499l-215 538
h-134v-592h-221v592h-128l-216 -538c-5.33301 -13.333 -14.666 -25.666 -27.999 -36.999s-30 -17 -50 -17h-188l611 1440h224z" />
    <glyph glyph-name="uni0467" unicode="&#x467;" horiz-adv-x="1137" 
d="M691 521l-78.001 175.999c-7.33301 18 -15 39.333 -23 64s-15.667 51.334 -23 80.001c-6.66699 -29.333 -13.667 -56.333 -21 -81s-14.666 -46 -21.999 -64l-77 -175h244zM1135 -0.000976562h-166c-18 0 -32.667 4.5 -44 13.5s-19.666 20.167 -24.999 33.5l-144 327h-92
v-374h-195v374h-87l-145 -327c-4.66699 -12 -12.834 -22.833 -24.501 -32.5s-26.167 -14.5 -43.5 -14.5h-167l468 1021h198z" />
    <glyph glyph-name="uni0468" unicode="&#x468;" horiz-adv-x="2024" 
d="M1488 759l-123 307c-8 21.333 -16.5 46.333 -25.5 75s-17.833 60 -26.5 94c-8 -34 -16.5 -65.5 -25.5 -94.5s-17.833 -54.167 -26.5 -75.5l-123 -306h350zM2036 0h-187.002c-20.667 0 -37.5 5.16699 -50.5 15.5s-22.5 23.166 -28.5 38.499l-215 538h-133v-592h-221v592
h-129l-216 -538c-5.33301 -13.333 -14.666 -25.666 -27.999 -36.999s-29.666 -17 -48.999 -17h-188l251 592h-436v-592h-235v1440h235v-681h507l288 681h224z" />
    <glyph glyph-name="uni0469" unicode="&#x469;" horiz-adv-x="1602" 
d="M1157 521l-78.002 176.001c-7.33301 18 -14.833 39.167 -22.5 63.5s-15.167 51.166 -22.5 80.499c-7.33301 -29.333 -14.666 -56.333 -21.999 -81s-14.666 -46 -21.999 -64l-77 -175h244zM1600 0.000976562h-165c-18 0 -32.667 4.5 -44 13.5s-19.666 20.167 -24.999 33.5
l-144 327h-91v-374h-195v374h-88l-145 -327c-4.66699 -12 -12.834 -22.833 -24.501 -32.5s-26.167 -14.5 -43.5 -14.5h-167l171 374h-300v-374h-208v1021h208v-500h367l229 500h199z" />
    <glyph glyph-name="uni046A" unicode="&#x46a;" horiz-adv-x="1676" 
d="M703 972l47.502 -59.5c14.333 -17.667 27 -34.834 38 -51.501s20.667 -33.334 29 -50.001s15.166 -34.334 20.499 -53.001c5.33301 18.667 12.166 36.334 20.499 53.001s18 33.334 29 50.001s23.5 33.834 37.5 51.501l47 59.5l244 300h-757zM1660 0h-188.002
c-19.333 0 -35.833 5.66699 -49.5 17s-23.167 23.666 -28.5 36.999l-143 414c-12 34.667 -24.5 63.5 -37.5 86.5s-28.667 41.333 -47 55s-40.333 23.167 -66 28.5s-57.5 8 -95.5 8h-51l-2 -2h-6v-644h-221v644h-2l-2 2h-48c-38 0 -69.833 -2.66699 -95.5 -8
s-47.667 -14.833 -66 -28.5s-34 -32 -47 -55s-25.5 -51.833 -37.5 -86.5l-144 -414c-5.33301 -13.333 -14.666 -25.666 -27.999 -36.999s-29.666 -17 -48.999 -17h-188l188 488c18 48 38.333 90.833 61 128.5s49.167 70 79.5 97s65.333 48.667 105 65
s85.5 26.833 137.5 31.5l-507 630h1511l-507 -630c52.667 -4.66699 99 -15 139 -31s75.167 -37.5 105.5 -64.5s57 -59.5 80 -97.5s43.5 -81 61.5 -129z" />
    <glyph glyph-name="uni046B" unicode="&#x46b;" horiz-adv-x="1312" 
d="M539 724l40.5 -51c12.333 -15.333 23.333 -30.166 33 -44.499s18.167 -28.666 25.5 -42.999s13.333 -29.833 18 -46.5c4.66699 16.667 10.5 32.167 17.5 46.5s15.333 28.666 25 42.999s20.667 29.166 33 44.499l40.5 51l137 148h-507zM1298 0h-165.999
c-17.333 -0 -31.833 4.83301 -43.5 14.5s-20.167 20.5 -25.5 32.5l-99 265c-10 26.667 -20.333 48.334 -31 65.001s-23 29.834 -37 39.501s-30.5 16.167 -49.5 19.5s-41.5 5 -67.5 5h-20l-1 -1h-7v-440h-195v440h-4l-1 1h-16c-26 0 -48.5 -1.66699 -67.5 -5
s-35.667 -9.83301 -50 -19.5s-26.833 -22.834 -37.5 -39.501s-21 -38.334 -31 -65.001l-98 -265c-5.33301 -12 -13.833 -22.833 -25.5 -32.5s-26.167 -14.5 -43.5 -14.5h-167l140 329c14.667 35.333 30.667 67.333 48 96s37 53.5 59 74.5s46.833 38.333 74.5 52
s59.5 23.5 95.5 29.5l-374 439h1194l-373 -438c36 -6 68 -15.833 96 -29.5s53 -31 75 -52s41.667 -45.833 59 -74.5s33.666 -61 48.999 -97z" />
    <glyph glyph-name="uni046C" unicode="&#x46c;" horiz-adv-x="2285" 
d="M1312 972l47.501 -59.5c14.333 -17.667 27 -34.834 38 -51.501s20.667 -33.167 29 -49.5s15.166 -33.833 20.499 -52.5c4.66699 18.667 11.167 36.167 19.5 52.5s18 32.833 29 49.5s23.667 33.834 38 51.501l47.5 59.5l244 300h-757zM2269 0l-187.999 -0.000976562
c-19.333 0 -35.833 5.66699 -49.5 17s-23.167 23.666 -28.5 36.999l-143 414c-12 34.667 -24.5 63.5 -37.5 86.5s-28.667 41.333 -47 55s-40.333 23.167 -66 28.5s-57.5 8 -95.5 8h-51l-2 -2h-6v-644h-221v644h-2l-2 2h-58c-30.667 0 -58 -2.66699 -82 -8
s-45.5 -14.666 -64.5 -27.999s-35.833 -31.5 -50.5 -54.5s-28 -52.167 -40 -87.5l-145 -414c-5.33301 -13.333 -14.833 -25.666 -28.5 -36.999s-30.167 -17 -49.5 -17h-188l187 486c13.333 35.333 33.666 66.333 60.999 93s59.333 49 96 67h-562v-646h-235v1440h235v-627
h790l-505 627h1511l-507 -630c52.667 -4.66699 99 -15 139 -31s75.167 -37.5 105.5 -64.5s57 -59.5 80 -97.5s43.5 -81 61.5 -129z" />
    <glyph glyph-name="uni046D" unicode="&#x46d;" horiz-adv-x="1783" 
d="M1011 724l40.5 -51c12.333 -15.333 23.333 -30.166 33 -44.499s18.167 -28.666 25.5 -42.999s13.333 -29.833 18 -46.5c4.66699 16.667 10.5 32.167 17.5 46.5s15.333 28.666 25 42.999s20.667 29.166 33 44.499l40.5 51l136 148h-506zM1770 0h-166.997
c-17.333 -0 -31.833 4.83301 -43.5 14.5s-20.167 20.5 -25.5 32.5l-98 265c-10 26.667 -20.333 48.334 -31 65.001s-23 29.834 -37 39.501s-30.5 16.167 -49.5 19.5s-41.833 5 -68.5 5h-19l-1 -1h-7v-440h-195v440h-4l-1 1h-23c-22.667 0 -42.834 -1.66699 -60.501 -5
s-33.834 -9.83301 -48.501 -19.5s-27.667 -22.834 -39 -39.501s-22 -38.334 -32 -65.001l-101 -265c-4.66699 -12 -12.667 -22.833 -24 -32.5s-25.666 -14.5 -42.999 -14.5h-167l140 330c9.33301 24.667 23.666 46 42.999 64s42 33.667 68 47h-397v-441h-208v1021h208v-433
h559l-368 432h1195l-374 -438c36 -6 68 -15.833 96 -29.5s53 -31 75 -52s41.667 -45.833 59 -74.5s33.666 -61 48.999 -97z" />
    <glyph glyph-name="uni046E" unicode="&#x46e;" horiz-adv-x="1124" 
d="M813 -401c-0.666992 17.333 -3.49512 32.001 -8.49512 44.001s-12.833 21.667 -23.5 29s-24.667 12.5 -42 15.5s-38.333 4.5 -63 4.5c-16 0 -30.667 -0.5 -44 -1.5s-27.333 -2.16699 -42 -3.5s-31.167 -2.5 -49.5 -3.5s-40.5 -1.5 -66.5 -1.5
c-78 0 -145.333 5.66699 -202 17s-103.334 28.333 -140.001 51s-63.834 51.167 -81.501 85.5s-26.5 74.5 -26.5 120.5c0 84.667 26.833 149.667 80.5 195s129.167 68 226.5 68c42 0 80.333 -2.83301 115 -8.5s70 -8.5 106 -8.5c42 0 79 5.66699 111 17s59 27.333 81 48
s38.667 45.167 50 73.5s17 59.166 17 92.499c0 38 -7 71.5 -21 100.5s-33.833 53.167 -59.5 72.5s-57 34 -94 44s-78.5 14.667 -124.5 14h-200l-1 191h187c41.333 0 78.833 4.66699 112.5 14s62.5 22.833 86.5 40.5s42.667 39.334 56 65.001s20 55.167 20 88.5
c0 30 -6.16699 57.167 -18.5 81.5s-30.333 45.166 -54 62.499s-52.667 30.833 -87 40.5s-73.5 14.5 -117.5 14.5c-51.333 0 -95 -5.5 -131 -16.5s-67 -23 -93 -36s-47.667 -24.833 -65 -35.5s-32.333 -16 -45 -16c-12 0 -22 2.83301 -30 8.5s-15.667 14.5 -23 26.5l-57 112
c54.667 48 119.334 85 194.001 111s158 39 250 39c76 0 144.5 -9.16699 205.5 -27.5s113 -44 156 -77s76 -72.333 99 -118s34.5 -95.834 34.5 -150.501c0 -68.667 -16 -130 -48 -184s-78.333 -97.667 -139 -131c34 -15.333 64.833 -33.666 92.5 -54.999s51.5 -46 71.5 -74
s35.5 -59.167 46.5 -93.5s16.5 -71.833 16.5 -112.5c0 -54.667 -10.167 -107.5 -30.5 -158.5s-51.333 -96.333 -93 -136s-94 -71.334 -157 -95.001s-137.167 -35.5 -222.5 -35.5c-22.667 0 -42.834 0.833008 -60.501 2.5s-33.667 3.33398 -48 5.00098
s-27.833 3.33398 -40.5 5.00098s-25.334 2.5 -38.001 2.5c-34 0 -59 -6.5 -75 -19.5s-24 -31.167 -24 -54.5c0 -14.667 3.16699 -27.5 9.5 -38.5s17.166 -20.333 32.499 -28s35.666 -13.334 60.999 -17.001s57 -5.5 95 -5.5c45.333 0 88.833 1.66699 130.5 5
s79.167 5 112.5 5c46.667 0 85.5 -5 116.5 -15s55.667 -24 74 -42s31.333 -39.5 39 -64.5s11.5 -52.5 11.5 -82.5c0 -8 -0.5 -16 -1.5 -24s-3.16699 -15 -6.5 -21s-8.33301 -11 -15 -15s-15.667 -6 -27 -6h-61v0z" />
    <glyph glyph-name="uni046F" unicode="&#x46f;" horiz-adv-x="884" 
d="M536 1020c40 -9.33301 75.4971 -22.667 106.497 -40s57 -37.333 78 -60s36.833 -47.167 47.5 -73.5s16 -53.5 16 -81.5c0 -20 -3 -40.5 -9 -61.5s-15.833 -41.5 -29.5 -61.5s-31.667 -38.5 -54 -55.5s-49.833 -31.167 -82.5 -42.5c65.333 -22.667 114.333 -56 147 -100
s49 -91.333 49 -142c0 -44.667 -8.66699 -86 -26 -124s-42.5 -70.833 -75.5 -98.5s-73 -49.334 -120 -65.001s-100.5 -23.5 -160.5 -23.5c-30 0 -58 1.33301 -84 4s-47.667 4 -65 4c-25.333 0 -45 -5.16699 -59 -15.5s-21 -26.5 -21 -48.5c0 -30 12.167 -51.833 36.5 -65.5
s57.833 -20.5 100.5 -20.5c14 0 30.333 0.5 49 1.5s37.834 2.16699 57.501 3.5s39.334 2.5 59.001 3.5s37.834 1.5 54.501 1.5c46.667 0 85.5 -5 116.5 -15s55.667 -24 74 -42s31.333 -39.5 39 -64.5s11.5 -52.5 11.5 -82.5c0 -8 -0.333008 -16 -1 -24s-2.66699 -15 -6 -21
s-8.33301 -11 -15 -15s-16 -6 -28 -6h-61c-0.666992 17.333 -3.5 32 -8.5 44s-12.833 21.667 -23.5 29s-24.667 12.5 -42 15.5s-38.333 4.5 -63 4.5c-32.667 0 -65.667 -1.66699 -99 -5s-65.333 -5 -96 -5c-46 0 -88.833 5.66699 -128.5 17s-74.167 28 -103.5 50
s-52.333 49.167 -69 81.5s-25 69.833 -25 112.5c0 32 5.16699 61.833 15.5 89.5s25.666 51.5 45.999 71.5s45.833 35.667 76.5 47s66.334 17 107.001 17c21.333 0 43.666 -1.33301 66.999 -4s45.666 -4 66.999 -4c32 0 60.333 4.16699 85 12.5s45.5 19.5 62.5 33.5
s29.833 30.333 38.5 49s13 38.667 13 60c0 49.333 -18.667 87.5 -56 114.5s-95.333 40.5 -174 40.5h-115v142h115c68.667 0 122.167 12.667 160.5 38s57.5 58.333 57.5 99c0 36.667 -16.667 67.667 -50 93s-83 38 -149 38c-37.333 0 -69 -3.83301 -95 -11.5
s-48.167 -16 -66.5 -25s-33.5 -17.167 -45.5 -24.5s-23 -11 -33 -11s-18.5 2 -25.5 6s-14.5 12.333 -22.5 25l-49 83c33.333 32 72.833 58.667 118.5 80s99.834 35 162.501 41l-207 249h123c15.333 0 28.333 -2.16699 39 -6.5s20.334 -12.166 29.001 -23.499l92 -109
c8.66699 -10.667 17.334 -24 26.001 -40c8.66699 16 17.334 29.333 26.001 40l75 97c14 17.333 31.333 30.333 52 39s43 13 67 13c15.333 0 29.166 -1.5 41.499 -4.5s24.166 -6.5 35.499 -10.5v-100h-19c-17.333 0 -31.833 -4.33301 -43.5 -13s-22.167 -18 -31.5 -28z" />
    <glyph glyph-name="uni0470" unicode="&#x470;" horiz-adv-x="1650" 
d="M1557 1440l0.000976562 -515.998c0 -84.667 -13.167 -161.5 -39.5 -230.5s-65.333 -128.333 -117 -178s-116 -88.834 -193 -117.501s-166.167 -45.334 -267.5 -50.001v-348h-234v348c-100.667 4.66699 -189.334 21.5 -266.001 50.5s-140.667 68.167 -192 117.5
s-90.166 108.5 -116.499 177.5s-39.5 145.833 -39.5 230.5v516h156c25.333 0 44.666 -7.66699 57.999 -23s20 -34.333 20 -57v-436c0 -60 6.83301 -113 20.5 -159s35.667 -85.333 66 -118s69.666 -58 117.999 -76s106.833 -29 175.5 -33v902h234v-903
c69.333 4 128.166 15 176.499 33s87.833 43.333 118.5 76s52.834 72.167 66.501 118.5s20.5 99.5 20.5 159.5v436c0 22.667 6.83301 41.667 20.5 57s32.834 23 57.501 23h157z" />
    <glyph glyph-name="uni0471" unicode="&#x471;" horiz-adv-x="1555" 
d="M1399 1020c8 -42 15.3311 -82.5 21.998 -121.5s12.334 -77.667 17.001 -116s8.33398 -77 11.001 -116s4 -79.833 4 -122.5c0 -98.667 -15.167 -182 -45.5 -250s-71.166 -123.5 -122.499 -166.5s-111.5 -75.333 -180.5 -97s-141.833 -35.5 -218.5 -41.5v-327h-214v325
c-94 6.66699 -175.833 22.834 -245.5 48.501s-127.5 59.834 -173.5 102.501s-80.333 93.5 -103 152.5s-34 125.167 -34 198.5v531h148c8.66699 0 17 -2.66699 25 -8s15 -12.166 21 -20.499s10.833 -17.333 14.5 -27s5.5 -18.834 5.5 -27.501v-448
c0 -48.667 7.83301 -91.834 23.5 -129.501s38.167 -70.167 67.5 -97.5s65.166 -49.5 107.499 -66.5s90.166 -28.833 143.499 -35.5v1280h214v-1281c52 5.33301 99.5 15.666 142.5 30.999s80 38 111 68s55.167 68.333 72.5 115s26 103.667 26 171
c0 50 -2.16699 93.5 -6.5 130.5s-9.5 70.833 -15.5 101.5s-12 59.667 -18 87s-10.333 56 -13 86c0 26 6.33301 44.333 19 55s26.334 16 41.001 16h154z" />
    <glyph glyph-name="afii10147" unicode="&#x472;" horiz-adv-x="1609" 
d="M325 644c6.66699 -72 22.668 -136.167 48.001 -192.5s58.666 -104.166 99.999 -143.499s89.833 -69.333 145.5 -90s117.5 -31 185.5 -31s129.833 10.333 185.5 31s104 50.667 145 90s74.167 87.166 99.5 143.499s41.333 120.5 48 192.5h-957zM1279 820
c-8.66699 68 -25.8311 128.833 -51.498 182.5s-58.834 99.167 -99.501 136.5s-88.334 65.833 -143.001 85.5s-115 29.5 -181 29.5s-126.167 -9.83301 -180.5 -29.5s-102 -48.167 -143 -85.5s-74.5 -82.833 -100.5 -136.5s-43.333 -114.5 -52 -182.5h951zM804.004 1456
c108 0 206.167 -18.333 294.5 -55s164 -87.667 227 -153s111.833 -143 146.5 -233s52 -188.333 52 -295s-17.333 -205 -52 -295s-83.5 -167.5 -146.5 -232.5s-138.667 -115.833 -227 -152.5s-186.5 -55 -294.5 -55c-107.333 0 -205.166 18.333 -293.499 55
s-164.166 87.5 -227.499 152.5s-112.333 142.5 -147 232.5s-52 188.333 -52 295s17.333 205 52 295s83.667 167.667 147 233s139.166 116.333 227.499 153s186.166 55 293.499 55z" />
    <glyph glyph-name="afii10195" unicode="&#x473;" horiz-adv-x="1142" 
d="M286 445c8.66699 -97.333 37.1699 -171.5 85.5029 -222.5s115.166 -76.5 200.499 -76.5c83.333 0 149.166 25.5 197.499 76.5s77.166 125.167 86.499 222.5h-570zM855.003 587c-10.667 94 -40 165.5 -88 214.5s-113 73.5 -195 73.5c-83.333 0 -149 -24.5 -197 -73.5
s-77.333 -120.5 -88 -214.5h568zM572.003 1036c75.333 0 143.5 -12.333 204.5 -37s113 -59.667 156 -105s76.167 -100.333 99.5 -165s35 -137.334 35 -218.001s-11.667 -153.334 -35 -218.001s-56.5 -119.834 -99.5 -165.501s-95 -80.834 -156 -105.501
s-129.167 -37 -204.5 -37c-76 0 -144.5 12.333 -205.5 37s-113.167 59.834 -156.5 105.501s-76.666 100.834 -99.999 165.501s-35 137.334 -35 218.001s11.667 153.334 35 218.001s56.666 119.667 99.999 165s95.5 80.333 156.5 105s129.5 37 205.5 37z" />
    <glyph glyph-name="afii10148" unicode="&#x474;" horiz-adv-x="1412" 
d="M1004 1240c22.667 70.667 57.332 122.999 103.999 156.999s106.334 51 179.001 51c41.333 0 69.333 -3.5 84 -10.5s22 -18.5 22 -34.5v-147h-54c-60.667 0 -104 -34.667 -130 -104l-421 -1152h-210l-584 1440h187c20.667 0 37.334 -5.16699 50.001 -15.5
s22 -23.166 28 -38.499l371 -939c10 -26 19.833 -54.5 29.5 -85.5s18.5 -63.5 26.5 -97.5c7.33301 34 15.166 66.5 23.499 97.5s17.5 59.5 27.5 85.5z" />
    <glyph glyph-name="afii10196" unicode="&#x475;" horiz-adv-x="1090" 
d="M725 841c12 40 26.1709 72.498 42.5039 97.498s34.166 44.5 53.499 58.5s40.666 23.5 63.999 28.5s48 7.5 74 7.5c20 0 36.333 -1.16699 49 -3.5s22.667 -5.16602 30 -8.49902s12.333 -7 15 -11s4 -7.33301 4 -10v-119h-30c-28 0 -51.667 -6 -71 -18
s-34.333 -31.667 -45 -59l-296 -804h-194l-408 1020h177c16 0 29.667 -4.16699 41 -12.5s18.666 -18.166 21.999 -29.499l224 -594c10 -30 18.667 -59 26 -87s13.666 -56.333 18.999 -85c6 28 12.667 56.167 20 84.5s15.333 57.5 24 87.5z" />
    <glyph glyph-name="uni0476" unicode="&#x476;" horiz-adv-x="1412" 
d="M1004 1240c22.667 70.667 57.332 122.999 103.999 156.999s106.334 51 179.001 51c41.333 0 69.333 -3.5 84 -10.5s22 -18.5 22 -34.5v-147h-54c-60.667 0 -104 -34.667 -130 -104l-421 -1152h-210l-584 1440h187c20.667 0 37.334 -5.16699 50.001 -15.5
s22 -23.166 28 -38.499l371 -939c10 -26 19.833 -54.5 29.5 -85.5s18.5 -63.5 26.5 -97.5c7.33301 34 15.166 66.5 23.499 97.5s17.5 59.5 27.5 85.5zM708.998 1821c24 0 43.833 -4.33301 59.5 -13s28.167 -20.667 37.5 -36l143 -225h-102c-16.667 0 -30 2.83301 -40 8.5
s-20.667 13.5 -32 23.5l-206 242h140zM344.998 1821c24 0 44 -4.33301 60 -13s30 -20.667 42 -36l184 -225h-115c-16.667 0 -31 2.66699 -43 8s-24 13.333 -36 24l-254 242h162z" />
    <glyph glyph-name="uni0477" unicode="&#x477;" horiz-adv-x="1090" 
d="M725 841c12 40 26.1709 72.498 42.5039 97.498s34.166 44.5 53.499 58.5s40.666 23.5 63.999 28.5s48 7.5 74 7.5c20 0 36.333 -1.16699 49 -3.5s22.667 -5.16602 30 -8.49902s12.333 -7 15 -11s4 -7.33301 4 -10v-119h-30c-28 0 -51.667 -6 -71 -18
s-34.333 -31.667 -45 -59l-296 -804h-194l-408 1020h177c16 0 29.667 -4.16699 41 -12.5s18.666 -18.166 21.999 -29.499l224 -594c10 -30 18.667 -59 26 -87s13.666 -56.333 18.999 -85c6 28 12.667 56.167 20 84.5s15.333 57.5 24 87.5zM530.004 1456
c24 0 42.3311 -4 54.998 -12s23.334 -20.333 32.001 -37l132 -242h-89c-16 0 -29.667 2.16699 -41 6.5s-21.666 12.833 -30.999 25.5l-199 259h141zM212.002 1456c12 0 22.332 -1 30.999 -3s16.334 -5.16699 23.001 -9.5s12.667 -9.5 18 -15.5s10.666 -13 15.999 -21
l178 -242h-102c-16 0 -29.167 2.33301 -39.5 7s-21.166 13 -32.499 25l-247 259h155z" />
    <glyph glyph-name="uni0478" unicode="&#x478;" horiz-adv-x="2640" 
d="M1525 720c0 -106.667 -17.333 -205 -52 -295s-83.5 -167.5 -146.5 -232.5s-138.667 -115.833 -227 -152.5s-186.5 -55 -294.5 -55c-107.333 0 -205.166 18.333 -293.499 55s-164.166 87.5 -227.499 152.5s-112.333 142.5 -147 232.5s-52 188.333 -52 295
s17.333 205 52 295s83.667 167.667 147 233s139.166 116.333 227.499 153s186.166 55 293.499 55c108 0 206.167 -18.333 294.5 -55s164 -87.667 227 -153s111.833 -143 146.5 -233s52 -188.333 52 -295zM1286 720c0 82.667 -11.167 157 -33.5 223s-54.333 122 -96 168
s-92.167 81.333 -151.5 106s-126 37 -200 37c-73.333 0 -139.666 -12.333 -198.999 -37s-110 -60 -152 -106s-74.333 -102 -97 -168s-34 -140.333 -34 -223c0 -83.333 11.333 -158 34 -224s55 -121.833 97 -167.5s92.667 -80.667 152 -105s125.666 -36.5 198.999 -36.5
c74 0 140.667 12.167 200 36.5s109.833 59.333 151.5 105s73.667 101.5 96 167.5s33.5 140.667 33.5 224zM2636 1020l-562.002 -1310c-7.33301 -15.333 -16.166 -27.333 -26.5 -36c-10.333 -8.66699 -26.166 -13 -47.499 -13h-159l188 408l-416 951h187
c18 0 31.833 -4.16699 41.5 -12.5s16.834 -18.166 21.501 -29.499l243 -579c6 -16.667 11.5 -33.167 16.5 -49.5s9.83301 -33.166 14.5 -50.499l16 51c5.33301 16.667 11.333 33.334 18 50.001l233 578c4.66699 12 12.5 22 23.5 30s23.167 12 36.5 12h172z" />
    <glyph glyph-name="uni0479" unicode="&#x479;" horiz-adv-x="2181" 
d="M572 1036c75.333 0 143.5 -12.333 204.5 -37s113 -59.667 156 -105s76.167 -100.333 99.5 -165s35 -137.334 35 -218.001s-11.667 -153.334 -35 -218.001s-56.5 -119.834 -99.5 -165.501s-95 -80.834 -156 -105.501s-129.167 -37 -204.5 -37
c-76 0 -144.5 12.333 -205.5 37s-113.167 59.834 -156.5 105.501s-76.666 100.834 -99.999 165.501s-35 137.334 -35 218.001s11.667 153.334 35 218.001s56.666 119.667 99.999 165s95.5 80.333 156.5 105s129.5 37 205.5 37zM572 153c92 0 160.5 30.833 205.5 92.5
s67.5 149.834 67.5 264.501s-22.5 203.167 -67.5 265.5s-113.5 93.5 -205.5 93.5c-93.333 0 -162.666 -31.167 -207.999 -93.5s-68 -150.833 -68 -265.5s22.667 -202.834 68 -264.501s114.666 -92.5 207.999 -92.5zM2173 1020l-562.003 -1310
c-7.33301 -15.333 -16.166 -27.333 -26.499 -36s-26.166 -13 -47.499 -13h-159l188 408l-416 951h187c18 0 31.833 -4.16699 41.5 -12.5s16.834 -18.166 21.501 -29.499l243 -579c6 -16.667 11.5 -33.167 16.5 -49.5s9.83301 -33.166 14.5 -50.499l16 51
c5.33301 16.667 11.333 33.334 18 50.001l233 578c4.66699 12 12.5 22 23.5 30s23.167 12 36.5 12h172z" />
    <glyph glyph-name="uni047A" unicode="&#x47a;" horiz-adv-x="1707" 
d="M999 195c59.333 10 112.834 29.167 160.501 57.5s88.167 65 121.5 110s59 97.667 77 158s27 127.166 27 200.499c0 74 -8.83301 141 -26.5 201s-43.167 112.333 -76.5 157s-73.833 81.167 -121.5 109.5s-101.167 47.5 -160.5 57.5
c-16.667 -21.333 -37.334 -38.166 -62.001 -50.499s-52 -18.5 -82 -18.5s-57.333 6.33301 -82 19s-45 29.667 -61 51c-60 -9.33301 -114.167 -28.166 -162.5 -56.499s-89.5 -65 -123.5 -110s-60 -97.833 -78 -158.5s-27 -128 -27 -202c0 -74.667 9 -142.334 27 -203.001
s44 -113.334 78 -158.001s75.167 -81 123.5 -109s102.833 -46.667 163.5 -56c16 21.333 36.167 38.333 60.5 51s51.5 19 81.5 19s57.167 -6.16699 81.5 -18.5s44.833 -29.166 61.5 -50.499zM1624 721c0 -97.333 -14.5 -187.833 -43.5 -271.5s-70.333 -157.334 -124 -221.001
s-118.167 -116 -193.5 -157s-159 -67.5 -251 -79.5c-15.333 -26.667 -36.666 -48 -63.999 -64s-58 -24 -92 -24s-64.333 7.83301 -91 23.5s-47.667 36.834 -63 63.501c-93.333 11.333 -178 37.333 -254 78s-141 92.834 -195 156.501s-95.667 137.5 -125 221.5
s-44 175 -44 273s14.833 189.167 44.5 273.5s71.5 158.333 125.5 222s119 115.834 195 156.501s160.667 66.667 254 78c15.333 26 36.333 47 63 63s56.667 24 90 24c34 0 64.5 -8 91.5 -24s48.167 -37.333 63.5 -64c92 -12 175.833 -38.333 251.5 -79
s140.167 -92.834 193.5 -156.501s94.666 -137.334 123.999 -221.001s44 -174.167 44 -271.5z" />
    <glyph glyph-name="uni047B" unicode="&#x47b;" horiz-adv-x="1282" 
d="M801 165c62.667 18.667 109.333 57.168 140 115.501s46 134.833 46 229.5c0 95.333 -15.5 172.5 -46.5 231.5s-78.5 97.833 -142.5 116.5c-15.333 -28 -36.833 -50.333 -64.5 -67s-58.834 -25 -93.501 -25s-65.667 8.16699 -93 24.5s-48.666 38.5 -63.999 66.5
c-63.333 -18.667 -110.333 -57.334 -141 -116.001s-46 -135.667 -46 -231c0 -94.667 15 -171 45 -229s76.333 -96.667 139 -116c14.667 30 36 54 64 72s60 27 96 27s68.167 -9 96.5 -27s49.833 -42 64.5 -72zM1208 511.001c0 -72.667 -9.66699 -139.003 -29 -199.003
s-46.833 -112.333 -82.5 -157s-79 -81 -130 -109s-108.167 -46.333 -171.5 -55c-15.333 -26.667 -36.5 -47.834 -63.5 -63.501s-57.5 -23.5 -91.5 -23.5s-64.5 7.83301 -91.5 23.5s-48.167 36.834 -63.5 63.501c-63.333 8.66699 -120.333 27.167 -171 55.5
s-93.834 64.833 -129.501 109.5s-63 96.834 -82 156.501s-28.5 125.834 -28.5 198.501c0 72 9.5 137.833 28.5 197.5s46.167 111.834 81.5 156.501s78 81 128 109s106.333 46.667 169 56c15.333 28.667 36.833 51.667 64.5 69s59.167 26 94.5 26s67 -8.66699 95 -26
s49.333 -40.333 64 -69c62.667 -9.33301 119.334 -28 170.001 -56s93.667 -64.167 129 -108.5s62.5 -96.5 81.5 -156.5s28.5 -126 28.5 -198z" />
    <glyph glyph-name="uni047C" unicode="&#x47c;" horiz-adv-x="2153" 
d="M1520 1653c-43.333 0 -83.001 3.33301 -119.001 10s-69.5 15 -100.5 25s-59.833 21 -86.5 33l-76 33c-24 10 -47.167 18.333 -69.5 25s-44.833 10 -67.5 10c-40 0 -71.5 -11.5 -94.5 -34.5s-34.5 -56.5 -34.5 -100.5h-133c0 80.667 22.833 142.667 68.5 186
s107.834 65 186.501 65c32 0 62 -3.33301 90 -10s55.167 -15.167 81.5 -25.5s52.5 -21.5 78.5 -33.5s53.167 -23.167 81.5 -33.5s58.333 -18.833 90 -25.5s66.5 -10 104.5 -10v-114zM1018 1408c0 7.33301 2.83594 13.001 8.50293 17.001s15.167 7.66699 28.5 11
c21.333 4.66699 37.5 12.334 48.5 23.001s17.167 27.667 18.5 51c-7.33301 -2 -15 -3 -23 -3c-36 0 -61.333 8 -76 24s-22 34.667 -22 56c0 26 8.5 47.667 25.5 65s40.5 26 70.5 26c36 0 63.5 -12 82.5 -36s28.5 -55.333 28.5 -94c0 -24.667 -3.83301 -47.834 -11.5 -69.501
s-19.334 -40.334 -35.001 -56.001s-35.334 -28 -59.001 -37s-51.834 -13.5 -84.501 -13.5v36zM1216 1329c18.667 18 39.1787 34.833 61.5117 50.5s46.833 29 73.5 40s55.834 19.667 87.501 26s66.167 9.5 103.5 9.5c92.667 0 171.667 -18.833 237 -56.5
s118.666 -89.334 159.999 -155.001s71.666 -142.334 90.999 -230.001s29 -181.5 29 -281.5c0 -116.667 -12.333 -221.334 -37 -314.001s-60.834 -171.167 -108.501 -235.5s-106.334 -113.5 -176.001 -147.5s-149.5 -51 -239.5 -51c-85.333 0 -162.666 15 -231.999 45
s-132.333 73.333 -189 130c-56.667 -56.667 -119.667 -100 -189 -130s-147 -45 -233 -45c-90 0 -169.667 17 -239 51s-127.833 83.167 -175.5 147.5s-83.834 142.833 -108.501 235.5s-37 197.334 -37 314.001c0 100 9.5 193.833 28.5 281.5s49.167 164.334 90.5 230.001
s94.666 117.334 159.999 155.001s144.333 56.5 237 56.5c38 0 72.667 -3.16699 104 -9.5s60.333 -15 87 -26s51.167 -24.333 73.5 -40s43.166 -32.5 62.499 -50.5l-49 -117c-8 -12.667 -15.5 -21 -22.5 -25s-15.5 -6 -25.5 -6s-20.333 3.66699 -31 11
s-23.834 15.5 -39.501 24.5s-34.334 17.333 -56.001 25s-47.834 11.5 -78.501 11.5c-99.333 0 -175.666 -44.5 -228.999 -133.5s-80 -221.833 -80 -398.5c0 -176 29.167 -309.333 87.5 -400s145.5 -136 261.5 -136c75.333 0 138.166 18.333 188.499 55s91.5 88 123.5 154
h177c32 -66 73.167 -117.333 123.5 -154s113.166 -55 188.499 -55c116 0 203.333 45.333 262 136s88 224 88 400c0 175.333 -26.833 307.833 -80.5 397.5s-129.834 134.5 -228.501 134.5c-31.333 0 -57.833 -3.83301 -79.5 -11.5s-40.334 -16 -56.001 -25
s-28.834 -17.167 -39.501 -24.5s-21 -11 -31 -11s-18.5 2 -25.5 6s-14.5 12.333 -22.5 25z" />
    <glyph glyph-name="uni047D" unicode="&#x47d;" horiz-adv-x="1562" 
d="M1224 1277c-43.333 0 -83.002 3.33301 -119.002 10s-69.5 15 -100.5 25s-59.667 21 -86 33s-51.666 23 -75.999 33s-47.666 18.333 -69.999 25s-44.5 10 -66.5 10c-40.667 0 -72.5 -11.5 -95.5 -34.5s-34.5 -56.5 -34.5 -100.5h-132c0 80.667 22.667 142.667 68 186
s107.333 65 186 65c32 0 62 -3.33301 90 -10s55.167 -15.167 81.5 -25.5s52.5 -21.5 78.5 -33.5s53.167 -23.167 81.5 -33.5s58.333 -18.833 90 -25.5s66.5 -10 104.5 -10v-114zM722.998 1032c0 7.33301 2.66992 12.998 8.00293 16.998s14.666 7.66699 27.999 11
c22 4.66699 38.333 12.334 49 23.001s16.667 27.667 18 51c-7.33301 -2 -15 -3 -23 -3c-35.333 0 -60.333 8 -75 24s-22 34.667 -22 56c0 26 8.33301 47.667 25 65s40.334 26 71.001 26c36 0 63.5 -12 82.5 -36s28.5 -55.333 28.5 -94
c0 -25.333 -3.83301 -48.666 -11.5 -69.999s-19.334 -40 -35.001 -56s-35.334 -28.333 -59.001 -37s-51.834 -13 -84.501 -13v36zM866.001 936.998c28 26.667 61.668 49 101.001 67s87 27 143 27c67.333 0 124.5 -13.5 171.5 -40.5s85.333 -63.833 115 -110.5
s51.334 -101 65.001 -163s20.5 -128.333 20.5 -199c0 -81.333 -8.5 -154.666 -25.5 -219.999s-42.333 -120.833 -76 -166.5s-75.667 -80.834 -126 -105.501s-108.833 -37 -175.5 -37c-60.667 0 -115.334 10 -164.001 30s-93.334 49.333 -134.001 88
c-40 -38.667 -84.333 -68 -133 -88s-103.334 -30 -164.001 -30c-66.667 0 -125.167 12.333 -175.5 37s-92.333 59.834 -126 105.501s-59 101.167 -76 166.5s-25.5 138.666 -25.5 219.999c0 70.667 6.83301 137 20.5 199s35.334 116.333 65.001 163s68 83.5 115 110.5
s104.167 40.5 171.5 40.5c56 0 103.667 -9 143 -27s73 -40.333 101 -67l-43 -104c-6.66699 -11.333 -13 -18.666 -19 -21.999s-13.667 -5 -23 -5c-8 0 -16 2.33301 -24 7l-27.5 16c-10.333 6 -22.333 11.333 -36 16s-30.167 7 -49.5 7c-59.333 0 -105.666 -28 -138.999 -84
s-50 -143 -50 -261c0 -109.333 16.833 -193.5 50.5 -252.5s88.834 -88.5 165.501 -88.5c49.333 0 90 12.5 122 37.5s58.667 61.5 80 109.5h154c21.333 -48 48.166 -84.5 80.499 -109.5s73.166 -37.5 122.499 -37.5c76 0 131 29.5 165 88.5s51 143.167 51 252.5
c0 118 -16.667 205 -50 261s-79.666 84 -138.999 84c-19.333 0 -35.833 -2.33301 -49.5 -7s-25.834 -10 -36.501 -16l-28 -16c-8 -4.66699 -16 -7 -24 -7c-8.66699 0 -16 1.66699 -22 5s-12.667 10.666 -20 21.999z" />
    <glyph glyph-name="uni047E" unicode="&#x47e;" horiz-adv-x="2152" 
d="M1215 1329c19.333 18 40.1758 34.833 62.5088 50.5s46.666 29 72.999 40s55.333 19.667 87 26s66.167 9.5 103.5 9.5c92.667 0 171.667 -18.833 237 -56.5s118.666 -89.334 159.999 -155.001s71.666 -142.334 90.999 -230.001s29 -181.5 29 -281.5
c0 -116.667 -12.333 -221.334 -37 -314.001s-60.834 -171.167 -108.501 -235.5s-106.334 -113.5 -176.001 -147.5s-149.167 -51 -238.5 -51c-86 0 -163.667 15 -233 45s-132.333 73.333 -189 130c-56.667 -56.667 -119.667 -100 -189 -130s-147 -45 -233 -45
c-89.333 0 -168.833 17 -238.5 51s-128.334 83.167 -176.001 147.5s-83.834 142.833 -108.501 235.5s-37 197.334 -37 314.001c0 100 9.5 193.833 28.5 281.5s49.333 164.334 91 230.001s95.167 117.334 160.5 155.001s144.333 56.5 237 56.5
c37.333 0 71.833 -3.16699 103.5 -9.5s60.667 -15 87 -26s50.666 -24.333 72.999 -40s43.166 -32.5 62.499 -50.5l-49 -117c-8 -12.667 -15.5 -21 -22.5 -25s-15.5 -6 -25.5 -6c-9.33301 0 -19.5 3.66699 -30.5 11s-24.333 15.5 -40 24.5s-34.334 17.333 -56.001 25
s-47.834 11.5 -78.501 11.5c-99.333 0 -175.666 -44.5 -228.999 -133.5s-80 -221.833 -80 -398.5c0 -176 29.167 -309.333 87.5 -400s145.5 -136 261.5 -136c58 0 110.333 11 157 33s89 53.333 127 94v473h234v-473c38 -40.667 80.333 -72 127 -94s99 -33 157 -33
c116 0 203.167 45.333 261.5 136s87.5 224 87.5 400c0 176.667 -26.667 309.5 -80 398.5s-129.666 133.5 -228.999 133.5c-31.333 0 -57.833 -3.83301 -79.5 -11.5s-40.167 -16 -55.5 -25s-28.5 -17.167 -39.5 -24.5s-21.167 -11 -30.5 -11c-10 0 -18.5 2 -25.5 6
s-14.5 12.333 -22.5 25zM1512.01 1781c0 -8.66699 -0.494141 -15.833 -1.49414 -21.5l-3.5 -19.5l-54 -188c-2.66699 -8.66699 -7 -15.167 -13 -19.5s-12.333 -6.5 -19 -6.5s-12.834 2.16699 -18.501 6.5s-9.83398 10.833 -12.501 19.5l-32 121h-217l-35 -121
c-2.66699 -8.66699 -7 -15.167 -13 -19.5s-12.333 -6.5 -19 -6.5s-12.834 2.16699 -18.501 6.5s-9.83398 10.833 -12.501 19.5l-32 121h-220l-34 -121c-2.66699 -8.66699 -7 -15.167 -13 -19.5s-12.333 -6.5 -19 -6.5s-12.834 2.16699 -18.501 6.5
s-9.83398 10.833 -12.501 19.5l-51 187c-1.33301 6.66699 -2.5 13.167 -3.5 19.5s-1.5 13.833 -1.5 22.5h874z" />
    <glyph glyph-name="uni047F" unicode="&#x47f;" horiz-adv-x="1561" 
d="M1422 1020c13.333 -56.667 23.667 -111.496 31 -164.496s11 -106.5 11 -160.5c0 -75.333 -6.83301 -145.5 -20.5 -210.5s-33.167 -126 -58.5 -183s-56.333 -110.333 -93 -160s-78.334 -96.834 -125.001 -141.501h-126c-12 0 -21.5 2.33301 -28.5 7
s-15.167 11.667 -24.5 21c-40 41.333 -78.333 90.333 -115 147s-67.667 118 -93 184c-25.333 -65.333 -56.333 -126.5 -93 -183.5s-75 -106.167 -115 -147.5c-8.66699 -10 -15.667 -17.167 -21 -21.5s-14 -6.5 -26 -6.5h-130c-41.333 39.333 -79.5 82 -114.5 128
s-65.333 94.667 -91 146s-45.667 104.5 -60 159.5s-21.5 111.167 -21.5 168.5v418h145c22 0 38 -6.66699 48 -20s15 -28 15 -44v-331c0 -89.333 16.167 -169.333 48.5 -240s76.166 -132.667 131.499 -186c25.333 25.333 49 54.166 71 86.499s41.167 66.833 57.5 103.5
s29.166 75 38.499 115s14 80.333 14 121v395h145c22 0 37.833 -6.66699 47.5 -20s14.5 -28 14.5 -44v-323c0 -40.667 4.16699 -80.834 12.5 -120.501s20.333 -78 36 -115s34.667 -72.333 57 -106s47.5 -64.5 75.5 -92.5c26 26 50.667 55.167 74 87.5
s43.833 68.666 61.5 108.999s31.667 85 42 134s15.5 102.833 15.5 161.5c0 41.333 -2.16699 77 -6.5 107s-9.16602 56 -14.499 78s-10.166 40.5 -14.499 55.5s-6.5 27.833 -6.5 38.5c0 12.667 3.83301 24.167 11.5 34.5s18.834 15.5 33.501 15.5h161zM1217 1361
c0 -8.66699 -0.494141 -15.833 -1.49414 -21.5l-3.5 -19.5l-54 -188c-2.66699 -8.66699 -7 -15.167 -13 -19.5s-12.333 -6.5 -19 -6.5s-12.834 2.16699 -18.501 6.5s-9.83398 10.833 -12.501 19.5l-32 121h-217l-35 -121c-2.66699 -8.66699 -7 -15.167 -13 -19.5
s-12.333 -6.5 -19 -6.5s-12.834 2.16699 -18.501 6.5s-9.83398 10.833 -12.501 19.5l-32 121h-220l-34 -121c-2.66699 -8.66699 -7 -15.167 -13 -19.5s-12.333 -6.5 -19 -6.5s-12.834 2.16699 -18.501 6.5s-9.83398 10.833 -12.501 19.5l-51 187
c-1.33301 6.66699 -2.5 13.167 -3.5 19.5s-1.5 13.833 -1.5 22.5h874z" />
    <glyph glyph-name="uni0480" unicode="&#x480;" horiz-adv-x="1274" 
d="M872 -6c-17.333 -1.33301 -34.8311 -2.33301 -52.498 -3s-32.167 -1 -43.5 -1c-105.333 0 -200.5 17.833 -285.5 53.5s-157.5 85.667 -217.5 150s-106.167 141.166 -138.5 230.499s-48.5 188 -48.5 296s17.167 207.167 51.5 297.5s82.666 168 144.999 233
s137 115.5 224 151.5s182.833 54 287.5 54c104 0 195.833 -16.833 275.5 -50.5s148.834 -78.5 207.501 -134.5l-78 -109c-5.33301 -7.33301 -11.5 -13.666 -18.5 -18.999s-16.833 -8 -29.5 -8c-14 0 -29.333 6.16699 -46 18.5s-38.334 26 -65.001 41
s-59.834 28.667 -99.501 41s-88.834 18.5 -147.501 18.5c-69.333 0 -132.666 -12 -189.999 -36s-106.5 -59 -147.5 -105s-73 -102 -96 -168s-34.5 -141 -34.5 -225c0 -84.667 11.833 -160.167 35.5 -226.5s56.334 -122.333 98.001 -168s91 -80.5 148 -104.5
s118.833 -36 185.5 -36c35.333 0 63.666 1.5 84.999 4.5s39 6.33301 53 10s26 7 36 10s21.667 4.5 35 4.5h66v-495c0 -20 -5.83301 -35.833 -17.5 -47.5s-26.5 -17.5 -44.5 -17.5h-133v340z" />
    <glyph glyph-name="uni0481" unicode="&#x481;" horiz-adv-x="926" 
d="M588 -12c-20 -2 -39.6689 -2.99805 -59.002 -2.99805c-63.333 0 -122.5 11.833 -177.5 35.5s-103 58 -144 103s-73.333 100 -97 165s-35.5 139.167 -35.5 222.5c0 75.333 10.667 145.166 32 209.499s52.5 119.833 93.5 166.5s91.833 83.167 152.5 109.5
s130.667 39.5 210 39.5c74 0 139.167 -12 195.5 -36s106.5 -58 150.5 -102l-57 -78c-6.66699 -8.66699 -13 -15.334 -19 -20.001s-14.667 -7 -26 -7s-23.166 4 -35.499 12s-27 16.833 -44 26.5s-37.5 18.5 -61.5 26.5s-54 12 -90 12c-46.667 0 -87.5 -8.33301 -122.5 -25
s-64.333 -40.5 -88 -71.5s-41.334 -68.667 -53.001 -113s-17.5 -94.166 -17.5 -149.499c0 -57.333 6.33301 -108.333 19 -153s30.834 -82.334 54.501 -113.001s52.334 -54 86.001 -70s71.5 -24 113.5 -24c22 0 40.5 1.5 55.5 4.5s27.5 6.5 37.5 10.5s18.167 7.5 24.5 10.5
s11.5 4.5 15.5 4.5h82v-462c0 -20 -5.83301 -36 -17.5 -48s-26.5 -18 -44.5 -18h-133v335z" />
    <glyph glyph-name="uni0482" unicode="&#x482;" horiz-adv-x="1459" 
d="M945 838l-247 -359l365 -252l-105 -158l-368 254l-234 -339l-179 120l235 341l-371 256l105 158l374 -258l247 359l-371 256l106 159l373 -258l234 339l180 -120l-236 -342l365 -252l-105 -158z" />
    <glyph glyph-name="uni0483" unicode="&#x483;" 
d="M170 1181v-93.999h-61c-16.667 0 -32.834 2.5 -48.501 7.5s-29.5 12.667 -41.5 23s-21.5 23.166 -28.5 38.499s-10.5 33 -10.5 53c0 22 3.33301 40.667 10 56s16 28 28 38s25.833 17.333 41.5 22s32.5 7 50.5 7h520v94h61c16.667 0 32.834 -2.5 48.501 -7.5
s29.5 -12.667 41.5 -23s21.5 -23 28.5 -38s10.5 -32.5 10.5 -52.5c0 -22 -3.33301 -40.833 -10 -56.5s-16 -28.5 -28 -38.5s-25.833 -17.333 -41.5 -22s-32.5 -7 -50.5 -7h-520z" />
    <glyph glyph-name="uni0484" unicode="&#x484;" 
d="M540 1303c-27.333 0 -53 -3.66504 -77 -10.998s-48 -16.5 -72 -27.5l-74 -35.5c-25.333 -12.667 -53.333 -24.5 -84 -35.5s-64.667 -20.167 -102 -27.5s-80 -11 -128 -11v131c41.333 0 78.666 3.66699 111.999 11s64.5 16.666 93.5 27.999s56.667 23.5 83 36.5
s53 25.167 80 36.5s55.5 20.666 85.5 27.999s63 11 99 11c92.667 0 159.834 -24.333 201.501 -73s62.5 -118.334 62.5 -209.001h-153c0 28 -3.5 51.5 -10.5 70.5s-16.333 34.333 -28 46s-25.167 19.834 -40.5 24.501s-31.333 7 -48 7z" />
    <glyph glyph-name="uni0485" unicode="&#x485;" 
d="M517 1119c-38.667 0 -72.334 5.83203 -101.001 17.499s-52.334 27.667 -71.001 48s-32.667 43.833 -42 70.5s-14 54.667 -14 84c0 46 11.5 81 34.5 105s56.167 36 99.5 36c36 0 64.167 -10 84.5 -30s30.5 -46 30.5 -78c0 -12.667 -2 -24.834 -6 -36.501
s-10.667 -22 -20 -31s-21.5 -16.167 -36.5 -21.5s-33.167 -8 -54.5 -8c-4.66699 0 -9.16699 0.166992 -13.5 0.5s-8.16602 0.833008 -11.499 1.5c2.66699 -23.333 10.334 -41 23.001 -53s30.667 -20.667 54 -26c16 -3.33301 27.333 -7.66602 34 -12.999
s10 -12.666 10 -21.999v-44z" />
    <glyph glyph-name="uni0486" unicode="&#x486;" 
d="M309 1160c0 9.33301 3.50098 16.498 10.501 21.498s18.5 9.16699 34.5 12.5c25.333 5.33301 44.166 14 56.499 26s19.5 30.667 21.5 56c-7.33301 -2.66699 -16 -4 -26 -4c-21.333 0 -39.5 2.66699 -54.5 8s-27.167 12.5 -36.5 21.5s-16 19.167 -20 30.5s-6 23.333 -6 36
c0 32 10 58.167 30 78.5s48.333 30.5 85 30.5c43.333 0 76.5 -14.333 99.5 -43s34.5 -66 34.5 -112c0 -29.333 -4.66699 -56.666 -14 -81.999s-23.333 -47.166 -42 -65.499s-42.5 -32.833 -71.5 -43.5s-62.833 -15.667 -101.5 -15v44z" />
    <glyph glyph-name="uni0488" unicode="&#x488;" horiz-adv-x="2252" 
d="M1126 25c42 0 78.833 -6 110.5 -18s58.167 -28.833 79.5 -50.5s37.333 -47.5 48 -77.5s16 -63.333 16 -100h-151c0 37.333 -7.33301 65.333 -22 84s-41.667 28 -81 28s-66.333 -9.5 -81 -28.5s-22 -46.833 -22 -83.5h-151c0 36.667 5.33301 70 16 100
s26.667 55.833 48 77.5s47.833 38.5 79.5 50.5s68.5 18 110.5 18zM1126 1592c42 0 78.833 -6 110.5 -18s58.167 -28.833 79.5 -50.5s37.333 -47.667 48 -78s16 -63.833 16 -100.5h-151c0 37.333 -7.33301 65.333 -22 84s-41.667 28 -81 28s-66.333 -9.5 -81 -28.5
s-22 -46.833 -22 -83.5h-151c0 36.667 5.33301 70.167 16 100.5s26.667 56.333 48 78s47.833 38.5 79.5 50.5s68.5 18 110.5 18zM338 809c42 0 78.999 -6 110.999 -18s58.5 -28.833 79.5 -50.5s36.833 -47.5 47.5 -77.5s16 -63.333 16 -100h-150
c0 36.667 -7.5 64.334 -22.5 83.001s-42.167 28 -81.5 28s-66.166 -9.33301 -80.499 -28s-21.5 -46.334 -21.5 -83.001h-151c0 36.667 5.33301 70 16 100s26.5 55.833 47.5 77.5s47.333 38.5 79 50.5s68.5 18 110.5 18zM1913 809c42 0 79 -6 111 -18
s58.5 -28.833 79.5 -50.5s36.833 -47.5 47.5 -77.5s16 -63.333 16 -100h-151c0 36.667 -7.33301 64.334 -22 83.001s-41.667 28 -81 28s-66.333 -9.33301 -81 -28s-22 -46.334 -22 -83.001h-150c0 36.667 5.33301 70 16 100s26.5 55.833 47.5 77.5s47.333 38.5 79 50.5
s68.5 18 110.5 18zM530.999 358c42 0 78.833 -6 110.5 -18s58.167 -28.833 79.5 -50.5s37.333 -47.5 48 -77.5s16 -63.333 16 -100h-151c0 37.333 -7.33301 65.333 -22 84s-41.667 28 -81 28s-66.333 -9.5 -81 -28.5s-22 -46.833 -22 -83.5h-151c0 36.667 5.33301 70 16 100
s26.667 55.833 48 77.5s47.833 38.5 79.5 50.5s68.5 18 110.5 18zM1721 358c42 0 78.833 -6 110.5 -18s58.167 -28.833 79.5 -50.5s37.333 -47.5 48 -77.5s16 -63.333 16 -100h-151c0 37.333 -7.33301 65.333 -22 84s-41.667 28 -81 28s-66.333 -9.5 -81 -28.5
s-22 -46.833 -22 -83.5h-151c0 36.667 5.33301 70 16 100s26.667 55.833 48 77.5s47.833 38.5 79.5 50.5s68.5 18 110.5 18zM530.999 1259c42 0 78.833 -6 110.5 -18s58.167 -28.833 79.5 -50.5s37.333 -47.667 48 -78s16 -63.833 16 -100.5h-151
c0 37.333 -7.33301 65.333 -22 84s-41.667 28 -81 28s-66.333 -9.5 -81 -28.5s-22 -46.833 -22 -83.5h-151c0 36.667 5.33301 70.167 16 100.5s26.667 56.333 48 78s47.833 38.5 79.5 50.5s68.5 18 110.5 18zM1721 1259c42 0 78.833 -6 110.5 -18s58.167 -28.833 79.5 -50.5
s37.333 -47.667 48 -78s16 -63.833 16 -100.5h-151c0 37.333 -7.33301 65.333 -22 84s-41.667 28 -81 28s-66.333 -9.5 -81 -28.5s-22 -46.833 -22 -83.5h-151c0 36.667 5.33301 70.167 16 100.5s26.667 56.333 48 78s47.833 38.5 79.5 50.5s68.5 18 110.5 18z" />
    <glyph glyph-name="uni0489" unicode="&#x489;" horiz-adv-x="2178" 
d="M1661 1171c12 -12.667 21.002 -26.3379 27.002 -41.0049s8.66699 -29.667 8 -45s-4.33398 -30.5 -11.001 -45.5s-16.334 -28.833 -29.001 -41.5c-22.667 -22 -49.5 -33 -80.5 -33s-59.167 12.667 -84.5 38c-14.667 14.667 -25 30.334 -31 47.001
s-8.16699 33.334 -6.5 50.001s6.83398 32.834 15.501 48.501s20 30.5 34 44.5c20 20 44 38.167 72 54.5s58.667 29.666 92 39.999s68.5 17.666 105.5 21.999s74.833 4.5 113.5 0.5l2 -45c0.666992 -7.33301 0.166992 -13.166 -1.5 -17.499
s-4.83398 -9.16602 -9.50098 -14.499c-3.33301 -3.33301 -7.83301 -5.66602 -13.5 -6.99902s-11.5 -2 -17.5 -2l-36 -2.5c-14.667 -1 -30.667 -3 -48 -6s-35 -7.66699 -53 -14s-35.333 -15.166 -52 -26.499zM321.002 667.996
c0.666992 35.333 12.6689 64.0039 36.002 86.0039s53 33 89 33c16 0 31 -3 45 -9s26 -14.167 36 -24.5s18 -22.833 24 -37.5s9 -31 9 -49c0 -21.333 -3.66699 -39.833 -11 -55.5s-17.5 -28.834 -30.5 -39.501s-28.167 -18.667 -45.5 -24s-35.666 -8 -54.999 -8
c-28.667 0 -58.667 4.16699 -90 12.5s-62.5 20.666 -93.5 36.999s-61 36.166 -90 59.499s-55.833 50 -80.5 80l31 34c4.66699 5.33301 9.16699 9 13.5 11s9.5 3 15.5 3c4.66699 0 9.5 -1.5 14.5 -4.5s9.83301 -6.83301 14.5 -11.5l27 -23.5
c11.333 -9.66699 24.166 -19.334 38.499 -29.001s30.166 -18.667 47.499 -27s35.666 -14.5 54.999 -18.5v5zM529.004 113c-12.667 12.667 -21.835 26.335 -27.502 41.002s-8.33398 29.667 -8.00098 45s3.83301 30.5 10.5 45.5s16.334 28.833 29.001 41.5
c22.667 22 49.5 33 80.5 33s59.167 -12.667 84.5 -38c14.667 -15.333 25 -31.166 31 -47.499s8.16699 -32.833 6.5 -49.5s-6.66699 -32.834 -15 -48.501s-19.5 -30.5 -33.5 -44.5c-20 -20 -44.167 -38.167 -72.5 -54.5s-59.166 -29.666 -92.499 -39.999
s-68.5 -17.666 -105.5 -21.999s-74.833 -4.5 -113.5 -0.5l-1 45c-1.33301 7.33301 -1.16602 13.166 0.500977 17.499s5.16699 9.16602 10.5 14.499c2.66699 3.33301 7 5.66602 13 6.99902s12 2 18 2l36 2.5c14.667 1 30.5 3 47.5 6s34.667 7.66699 53 14
s35.833 15.166 52.5 26.499zM566.003 1208c25.333 25.333 54 37.3311 86 35.998s60.667 -14.666 86 -39.999c22.667 -22.667 34 -49.667 34 -81s-12.667 -59.666 -38 -84.999c-15.333 -15.333 -31.166 -25.833 -47.499 -31.5s-32.833 -7.66699 -49.5 -6
s-32.834 6.83398 -48.501 15.501s-30.5 20 -44.5 34c-20 20 -38.167 44 -54.5 72s-29.666 58.667 -39.999 92s-17.666 68.666 -21.999 105.999s-4.5 75.333 -0.5 114l45 1c12.667 2 23 -1.66699 31 -11c3.33301 -3.33301 5.83301 -7.83301 7.5 -13.5
s2.16699 -11.5 1.5 -17.5l2.5 -36c1 -14.667 3.16699 -30.5 6.5 -47.5s8.16602 -34.667 14.499 -53s15.166 -35.833 26.499 -52.5zM1068 -132.001c-35.333 0.666992 -63.834 12.834 -85.501 36.501s-32.834 53.5 -33.501 89.5c0 16 3 30.833 9 44.5s14.333 25.667 25 36
s23.334 18.5 38.001 24.5s31 9 49 9c20.667 0 39 -3.83301 55 -11.5s29.167 -18 39.5 -31s18.166 -28.167 23.499 -45.5s8 -35.666 8 -54.999c0 -28.667 -4.16699 -58.667 -12.5 -90s-20.5 -62.5 -36.5 -93.5s-35.833 -61 -59.5 -90s-50.5 -55.833 -80.5 -80.5l-33 31
c-10 8.66699 -14.667 18.334 -14 29.001c0 4.66699 1.5 9.66699 4.5 15s6.5 10 10.5 14c6.66699 6.66699 14.834 15.667 24.501 27s19.334 24.166 29.001 38.499s18.667 30.166 27 47.499s14.5 35.666 18.5 54.999h-6zM1121 1416c17.333 0 33.333 -3.33398 48 -10.001
s27.167 -15.5 37.5 -26.5s18.5 -24.167 24.5 -39.5s9 -32 9 -50c0 -16 -3 -30.833 -9 -44.5s-14.167 -25.667 -24.5 -36s-22.833 -18.5 -37.5 -24.5s-31 -9 -49 -9c-21.333 0 -39.833 3.83301 -55.5 11.5s-28.667 18 -39 31s-18.166 28.167 -23.499 45.5
s-8 35.666 -8 54.999c0 28.667 4.16699 58.5 12.5 89.5s20.5 62 36.5 93s35.667 61.167 59 90.5s50 56.333 80 81l33 -31c10 -8 15 -17.667 15 -29c0 -4.66699 -1.5 -9.66699 -4.5 -15s-6.83301 -10 -11.5 -14l-23.5 -27.5c-9.66699 -11 -19.334 -23.667 -29.001 -38
s-18.667 -30.166 -27 -47.499s-14.5 -35.666 -18.5 -54.999h5zM1623 75.998c-12 -12.667 -25.3379 -21.832 -40.0049 -27.499s-29.667 -8.33398 -45 -8.00098s-30.5 3.83301 -45.5 10.5s-28.833 16.334 -41.5 29.001c-22.667 22.667 -34 49.667 -34 81
s12.667 59.666 38 84.999c14.667 14.667 30.334 25 47.001 31s33.334 8.16699 50.001 6.5s33 -6.83398 49 -15.501s31 -20 45 -34c20 -20 38 -44 54 -72s29.333 -58.667 40 -92s18 -68.666 22 -105.999s4 -75.333 0 -114l-45 -1c-12.667 -2 -23 1.66699 -31 11
c-3.33301 3.33301 -5.66602 7.83301 -6.99902 13.5s-2 11.5 -2 17.5l-2.5 36c-1 14.667 -3.16699 30.5 -6.5 47.5s-8.16602 34.667 -14.499 53s-15.166 35.833 -26.499 52.5zM1868 616c0 -17.333 -3.16895 -33.334 -9.50195 -48.001s-15.166 -27.334 -26.499 -38.001
s-24.5 -18.834 -39.5 -24.501s-31.5 -8.5 -49.5 -8.5c-16 0 -30.833 3 -44.5 9s-25.667 14.167 -36 24.5s-18.5 22.833 -24.5 37.5s-9 31 -9 49c0 20.667 3.83301 39 11.5 55s18 29.333 31 40s28 18.667 45 24s35.5 8 55.5 8c28.667 0 58.5 -4.16699 89.5 -12.5
s62 -20.666 93 -36.999s61.167 -36.166 90.5 -59.499s56.333 -50 81 -80l-31 -34c-4.66699 -5.33301 -9.16699 -9 -13.5 -11s-9.83301 -3 -16.5 -3c-4.66699 0 -9.5 1.5 -14.5 4.5s-9.5 6.83301 -13.5 11.5l-27.5 23.5c-11 9.66699 -23.667 19.334 -38 29.001
s-30.166 18.667 -47.499 27s-36 14.5 -56 18.5v-5z" />
    <glyph glyph-name="uni048A" unicode="&#x48a;" horiz-adv-x="1601" 
d="M1040 1800c15.333 0 26.6621 -6.66699 33.9951 -20s11 -27.666 11 -42.999c0 -33.333 -7.16699 -63 -21.5 -89s-34.833 -47.833 -61.5 -65.5s-59.167 -31 -97.5 -40s-81.166 -13.5 -128.499 -13.5s-90.166 4.5 -128.499 13.5s-70.833 22.333 -97.5 40
s-47.167 39.5 -61.5 65.5s-21.5 55.667 -21.5 89c0 15.333 3.66699 29.666 11 42.999s18.666 20 33.999 20h126c0 -31.333 2.33301 -57.333 7 -78s12.334 -37.167 23.001 -49.5s24.834 -21.166 42.501 -26.499s39.5 -8 65.5 -8s47.833 2.66699 65.5 8
s31.834 14.166 42.501 26.499s18.334 28.833 23.001 49.5s7 46.667 7 78h126zM1563 183l-155.999 -528.998h-227l112 346h-163v956c0 32 0.833008 65.333 2.5 100s5.16699 72 10.5 112c-12.667 -34.667 -26.167 -66.834 -40.5 -96.501s-28.5 -55.834 -42.5 -78.501
l-610 -920c-5.33301 -8.66699 -11.5 -17.334 -18.5 -26.001s-15 -16.5 -24 -23.5s-18.5 -12.667 -28.5 -17s-20.667 -6.5 -32 -6.5h-175v1440h235v-955c0 -32 -0.833008 -65.5 -2.5 -100.5s-5.16699 -71.833 -10.5 -110.5c12.667 34 26.167 65.833 40.5 95.5
s28.166 55.5 41.499 77.5l610 920c5.33301 8.66699 11.5 17.334 18.5 26.001s15 16.5 24 23.5s18.5 12.667 28.5 17s20.667 6.5 32 6.5h175v-1257h200z" />
    <glyph glyph-name="uni048B" unicode="&#x48b;" horiz-adv-x="1237" 
d="M856 1440c15.333 0 26.6621 -6.5 33.9951 -19.5s11 -27.167 11 -42.5c0 -34 -7.16699 -64.5 -21.5 -91.5s-34.833 -50 -61.5 -69s-59.167 -33.667 -97.5 -44s-81.166 -15.5 -128.499 -15.5s-90.166 5.16699 -128.499 15.5s-70.833 25 -97.5 44s-47.167 42 -61.5 69
s-21.5 57.5 -21.5 91.5c0 15.333 3.66699 29.5 11 42.5s18.666 19.5 33.999 19.5h126c0 -31.333 2.33301 -57.5 7 -78.5s12.334 -38 23.001 -51s24.834 -22.333 42.501 -28s39.5 -8.5 65.5 -8.5s47.833 2.83301 65.5 8.5s31.834 15 42.501 28s18.334 30 23.001 51
s7 47.167 7 78.5h126zM1221 162l-149 -507.999h-201l112 346h-170v639c0 14 0.666992 29.333 2 46s3.33301 33.667 6 51c-6.66699 -14.667 -13.167 -28.167 -19.5 -40.5s-13.166 -23.5 -20.499 -33.5l-443 -609c-8 -12.667 -18.667 -24.834 -32 -36.501
s-28.333 -17.5 -45 -17.5h-130v1021h215v-639c0 -14 -0.833008 -29.667 -2.5 -47s-3.83398 -34.666 -6.50098 -51.999c13.333 30.667 27 56 41 76l443 608c8 13.333 18.667 25.666 32 36.999s28.333 17 45 17h130v-858h193z" />
    <glyph glyph-name="uni048C" unicode="&#x48c;" horiz-adv-x="1333" 
d="M766 185c52.667 0 97.167 5.83203 133.5 17.499s65.833 28 88.5 49s39.167 45.667 49.5 74s15.5 59.166 15.5 92.499c0 36 -5 68.333 -15 97s-26.333 52.834 -49 72.501s-52.167 34.834 -88.5 45.501s-80.833 16 -133.5 16h-256v-464h255zM767 833.999
c90.667 0 168.5 -10 233.5 -30s118.5 -47.5 160.5 -82.5s72.833 -76.5 92.5 -124.5s29.5 -99.667 29.5 -155c0 -67.333 -11.5 -128.166 -34.5 -182.499s-56.5 -100.833 -100.5 -139.5s-98.167 -68.334 -162.5 -89.001s-137.5 -31 -219.5 -31h-489v1060h-240v176h240v204h234
v-204h343v-176h-343v-226h256z" />
    <glyph glyph-name="uni048D" unicode="&#x48d;" horiz-adv-x="1052" 
d="M623 156c31.333 0 58.8311 4.16895 82.498 12.502s43.334 19.666 59.001 33.999s27.334 31.5 35.001 51.5s11.5 42 11.5 66c0 21.333 -3.5 41.5 -10.5 60.5s-18 35.667 -33 50s-34.5 25.666 -58.5 33.999s-53.333 12.5 -88 12.5h-198v-321h200zM620.998 632.002
c70.667 0 130.333 -8.49707 179 -25.4971s88 -39.833 118 -68.5s51.5 -61.834 64.5 -99.501s19.5 -76.834 19.5 -117.501c0 -47.333 -8.33301 -90.5 -25 -129.5s-41 -72.833 -73 -101.5s-71.5 -50.834 -118.5 -66.501s-100.833 -23.5 -161.5 -23.5h-405v764h-177v154h177
v122h204v-122h217v-154h-217v-132h198z" />
    <glyph glyph-name="uni048E" unicode="&#x48e;" horiz-adv-x="1221" 
d="M826 760c36 24 63.167 55.335 81.5 94.002s27.5 83 27.5 133c0 42 -6.5 79.667 -19.5 113s-32.5 61.666 -58.5 84.999s-58.833 41.166 -98.5 53.499s-86.167 18.5 -139.5 18.5h-214v-551h214c7.33301 0 14.5 0.166992 21.5 0.5s13.833 0.833008 20.5 1.5l-96 148l140 91z
M619 1440c94 0 175.501 -11 244.501 -33s126 -52.833 171 -92.5s78.5 -87.334 100.5 -143.001s33 -117.167 33 -184.5c0 -89.333 -19.333 -168.166 -58 -236.499s-96.334 -122.5 -173.001 -162.5l88 -136l-140 -90l-112 172c-23.333 -4 -47.833 -7.16699 -73.5 -9.5
s-52.5 -3.5 -80.5 -3.5h-214v-521h-234v1440h448z" />
    <glyph glyph-name="uni048F" unicode="&#x48f;" horiz-adv-x="1128" 
d="M346 256c30 -38.667 62.834 -65.833 98.501 -81.5s75.167 -23.5 118.5 -23.5c6.66699 0 13.167 0.166992 19.5 0.5s12.5 0.833008 18.5 1.5l-103 160l140 91l111 -172c26 30.667 46 69.667 60 117s21 103.333 21 168c0 62.667 -5.33301 116.167 -16 160.5
s-26 80.5 -46 108.5s-44.333 48.333 -73 61s-61 19 -97 19c-54.667 0 -101.834 -11.833 -141.501 -35.5s-76.5 -57.5 -110.5 -101.5v-473zM335.001 872.001c42.667 50 91.168 90.335 145.501 121.002s117.5 46 189.5 46c57.333 0 109.333 -11.5 156 -34.5
s86.667 -56.5 120 -100.5s59.166 -98.5 77.499 -163.5s27.5 -139.5 27.5 -223.5c0 -48.667 -4.33301 -95.334 -13 -140.001s-21.167 -86.334 -37.5 -125.001s-36.5 -74 -60.5 -106s-51.333 -59.333 -82 -82l100 -155l-140 -90l-114 176
c-14.667 -3.33301 -29.667 -5.83301 -45 -7.5s-31 -2.5 -47 -2.5c-60 0 -110.833 9.66699 -152.5 29s-79.5 46 -113.5 80v-433h-215v1359h130c29.333 0 48 -13.667 56 -41z" />
    <glyph glyph-name="afii10050" unicode="&#x490;" horiz-adv-x="1079" 
d="M1049 1257h-643v-1257h-235v1440h698v322h180v-505z" />
    <glyph glyph-name="afii10098" unicode="&#x491;" horiz-adv-x="834" 
d="M808 1268v-410h-462v-858h-215v1020h483v248h194z" />
    <glyph glyph-name="uni0492" unicode="&#x492;" horiz-adv-x="1187" 
d="M511 1257v-426h343v-176h-343v-655h-235v655h-239v176h239v609h878v-183h-643z" />
    <glyph glyph-name="uni0493" unicode="&#x493;" horiz-adv-x="924" 
d="M434 858v-264h207v-154h-207v-440h-214v440h-177v154h177v426h676v-162h-462z" />
    <glyph glyph-name="uni0494" unicode="&#x494;" horiz-adv-x="1268" 
d="M406 790c41.333 20.667 84.335 36.5049 129.002 47.5049s93 16.5 145 16.5c71.333 0 139.166 -9.83301 203.499 -29.5s120.666 -52.167 168.999 -97.5s86.666 -104.833 114.999 -178.5s42.5 -164.5 42.5 -272.5c0 -100 -13.167 -189.333 -39.5 -268
s-63.166 -145.5 -110.499 -200.5s-104 -97 -170 -126s-139 -43.5 -219 -43.5c-67.333 0 -137 9.33301 -209 28c2 23.333 4.16699 46.666 6.5 69.999s4.5 46.666 6.5 69.999c1.33301 12.667 6.16602 23 14.499 31s20.833 12 37.5 12c11.333 0 26.5 -2.5 45.5 -7.5
s43.833 -7.5 74.5 -7.5c50.667 0 97.167 8.33301 139.5 25s78.5 42.667 108.5 78s53.333 80.166 70 134.499s25 119.166 25 194.499c0 80 -8.66699 146.667 -26 200s-41.833 96.166 -73.5 128.499s-69.167 55.333 -112.5 69s-91 20.5 -143 20.5
c-27.333 0 -52 -1.83301 -74 -5.5s-42.333 -8.5 -61 -14.5s-35.667 -13 -51 -21s-29.666 -16 -42.999 -24v-619h-235v1440h878v-183h-643v-467z" />
    <glyph glyph-name="uni0495" unicode="&#x495;" horiz-adv-x="988" 
d="M808 1020l-0.00292969 -162.001h-462v-335c30.667 23.333 64.167 41.333 100.5 54s76.833 19 121.5 19c58.667 0 110.667 -10.5 156 -31.5s83.5 -51 114.5 -90s54.5 -86.333 70.5 -142s24 -117.834 24 -186.501c0 -78 -10.333 -148.333 -31 -211s-49 -116.167 -85 -160.5
s-78.5 -78.333 -127.5 -102s-101.833 -35.5 -158.5 -35.5c-26.667 0 -52.5 1.5 -77.5 4.5s-51.5 8.16699 -79.5 15.5c0.666992 10.667 1.5 20.334 2.5 29.001l3 25l3 24.5l3.5 29.5c1.33301 12 5.83301 21.667 13.5 29s18.834 11 33.501 11c8 0 18.167 -1.5 30.5 -4.5
s27.166 -4.5 44.499 -4.5c30.667 0 58.834 5.83301 84.501 17.5s47.834 31 66.501 58s33.167 62 43.5 105s15.5 96.167 15.5 159.5c0 58 -5.16699 106 -15.5 144s-25 68.5 -44 91.5s-42 39.167 -69 48.5s-56.833 14 -89.5 14c-36.667 0 -66.667 -5.16699 -90 -15.5
s-44.666 -22.166 -63.999 -35.499v-383h-215v1020h677z" />
    </font>
</defs>
</svg>
